M48
; DRILL file {KiCad 9.0.7} date 2026-07-29T10:53:42+0800
; FORMAT={-:-/ absolute / metric / decimal}
; #@! TF.CreationDate,2026-07-29T10:53:42+08:00
; #@! TF.GenerationSoftware,Kicad,Pcbnew,9.0.7
; #@! TF.FileFunction,Plated,1,6,PTH
FMAT,2
METRIC
; #@! TA.AperFunction,Plated,PTH,ViaDrill
T1C0.300
; #@! TA.AperFunction,Plated,PTH,ComponentDrill
T2C0.780
; #@! TA.AperFunction,Plated,PTH,ComponentDrill
T3C0.787
; #@! TA.AperFunction,Plated,PTH,ComponentDrill
T4C0.800
; #@! TA.AperFunction,Plated,PTH,ComponentDrill
T5C0.900
; #@! TA.AperFunction,Plated,PTH,ComponentDrill
T6C0.980
; #@! TA.AperFunction,Plated,PTH,ComponentDrill
T7C1.100
; #@! TA.AperFunction,Plated,PTH,ComponentDrill
T8C1.780
%
G90
G05
T1
X109.25Y-131.125
X110.0Y-131.125
X110.5Y-122.25
X110.5Y-123.0
X110.5Y-123.75
X111.25Y-122.25
X111.25Y-123.0
X111.25Y-123.75
X111.75Y-131.125
X112.0Y-122.25
X112.0Y-123.0
X112.0Y-123.75
X112.5Y-131.125
X113.365Y-142.175
X114.25Y-131.125
X115.0Y-131.125
X116.75Y-131.125
X117.5Y-131.125
X127.0Y-138.75
X127.0Y-139.5
X127.75Y-138.75
X127.75Y-139.5
X129.88Y-127.85
X130.63Y-127.85
X131.38Y-127.85
X131.625Y-126.375
X132.825Y-127.895
X132.875Y-122.875
X134.375Y-127.895
X134.75Y-140.0
X134.75Y-140.75
X134.75Y-141.5
X134.75Y-142.25
X134.75Y-143.0
X135.5Y-140.0
X135.5Y-140.75
X135.5Y-141.5
X135.5Y-142.25
X135.5Y-143.0
X135.875Y-127.895
X141.29Y-133.75
X141.29Y-135.0
X141.29Y-136.25
X145.75Y-100.25
X145.75Y-110.25
X146.675Y-140.5
X146.675Y-141.25
X146.675Y-142.0
X146.75Y-93.25
X146.75Y-103.25
X146.75Y-113.25
X147.75Y-93.25
X147.75Y-94.25
X147.75Y-95.25
X147.75Y-96.25
X147.75Y-106.25
X148.75Y-96.25
X148.75Y-97.25
X148.75Y-109.25
X149.5Y-139.0
X149.75Y-93.25
X149.75Y-97.25
X149.75Y-98.25
X149.75Y-99.25
X149.75Y-102.25
X149.75Y-112.25
X150.75Y-95.25
X150.75Y-99.25
X150.75Y-105.25
X151.75Y-93.25
X151.75Y-97.25
X151.75Y-99.25
X151.75Y-100.25
X151.75Y-102.25
X151.75Y-104.25
X151.75Y-106.25
X151.75Y-108.25
X151.75Y-142.25
X152.13Y-129.75
X152.75Y-96.25
X152.75Y-99.25
X152.75Y-101.25
X152.75Y-103.25
X152.75Y-105.25
X152.75Y-107.25
X152.75Y-111.25
X152.88Y-129.75
X153.75Y-93.25
X153.75Y-97.25
X153.75Y-99.25
X153.75Y-100.25
X153.75Y-106.25
X153.75Y-108.25
X153.75Y-114.25
X154.63Y-129.75
X154.75Y-95.25
X154.75Y-99.25
X154.75Y-101.25
X154.75Y-107.25
X155.38Y-129.75
X155.75Y-93.25
X155.75Y-97.25
X155.75Y-98.25
X155.75Y-100.25
X155.75Y-102.25
X155.75Y-104.25
X155.75Y-106.25
X155.75Y-108.25
X155.75Y-110.25
X156.75Y-93.25
X156.75Y-94.25
X156.75Y-95.25
X156.75Y-96.25
X156.75Y-99.25
X156.75Y-101.25
X156.75Y-107.25
X156.75Y-113.25
X157.13Y-129.75
X157.75Y-96.25
X157.75Y-106.25
X157.88Y-129.75
X158.75Y-99.25
X158.75Y-109.25
X159.75Y-102.25
X159.75Y-112.25
X160.75Y-95.25
X160.75Y-105.25
X161.75Y-98.25
X161.75Y-108.25
X162.75Y-101.25
X162.75Y-111.25
X163.75Y-94.25
X163.75Y-104.25
X163.75Y-114.25
X164.75Y-97.25
X164.75Y-107.25
X165.75Y-100.25
X165.75Y-110.25
X166.75Y-93.25
X166.75Y-103.25
X166.75Y-113.25
X184.98Y-72.58
X184.98Y-73.58
X184.98Y-74.58
X185.98Y-72.58
X185.98Y-73.58
X185.98Y-74.58
X186.98Y-72.58
X186.98Y-73.58
X186.98Y-74.58
T3
X156.75Y-137.0
X156.75Y-139.489
X157.741Y-134.993
X157.741Y-141.496
X158.757Y-137.0
X158.757Y-139.489
X159.747Y-134.993
X159.747Y-141.496
X160.738Y-137.0
X160.738Y-139.489
X161.754Y-134.993
X161.754Y-141.496
X162.744Y-137.0
X162.744Y-139.489
X163.76Y-134.993
X163.76Y-141.496
X164.751Y-137.0
X164.751Y-139.489
X165.742Y-134.993
X165.742Y-141.496
X166.758Y-137.0
X166.758Y-139.489
X169.755Y-134.993
X169.755Y-141.496
X170.745Y-137.0
X170.745Y-139.489
X171.761Y-134.993
X171.761Y-141.496
X172.752Y-137.0
X172.752Y-139.489
X173.743Y-134.993
X173.743Y-141.496
X174.759Y-137.0
X174.759Y-139.489
X175.749Y-134.993
X175.749Y-141.496
X176.74Y-137.0
X176.74Y-139.489
X177.756Y-134.993
X177.756Y-141.496
X178.746Y-137.0
X178.746Y-139.489
X179.762Y-134.993
X179.762Y-141.496
X180.753Y-137.0
X180.753Y-139.489
X181.744Y-134.993
X181.744Y-141.496
X182.76Y-137.0
X182.76Y-139.489
X183.75Y-134.993
X183.75Y-141.496
X184.741Y-137.0
X184.741Y-139.489
X185.757Y-134.993
X185.757Y-141.496
X186.747Y-137.0
X186.747Y-139.489
X187.738Y-134.993
X187.738Y-141.496
X188.754Y-137.0
X188.754Y-139.489
X189.745Y-134.993
X189.745Y-141.496
T5
X107.58Y-55.01
X107.58Y-57.51
X107.58Y-59.51
X107.58Y-62.01
T6
X177.98Y-53.79
X177.98Y-56.33
X177.98Y-58.87
X177.98Y-61.41
X180.52Y-55.06
X180.52Y-57.6
X180.52Y-60.14
X180.52Y-62.68
T7
X166.73Y-51.62
X166.73Y-54.16
X166.73Y-62.33
X166.73Y-64.87
T8
X174.68Y-50.5
X174.68Y-65.99
T2
G00X105.735Y-52.06
M15
G01X104.225Y-52.06
M16
G05
G00X105.735Y-64.96
M15
G01X104.225Y-64.96
M16
G05
T4
G00X101.75Y-137.1
M15
G01X101.75Y-139.3
M16
G05
G00X106.1Y-143.0
M15
G01X103.9Y-143.0
M16
G05
G00X107.95Y-137.1
M15
G01X107.95Y-139.3
M16
G05
M30
