%TF.GenerationSoftware,KiCad,Pcbnew,9.0.7*%
%TF.CreationDate,2026-07-29T10:53:38+08:00*%
%TF.ProjectId,TriCore-X,54726943-6f72-4652-9d58-2e6b69636164,rev?*%
%TF.SameCoordinates,Original*%
%TF.FileFunction,Soldermask,Bot*%
%TF.FilePolarity,Negative*%
%FSLAX46Y46*%
G04 Gerber Fmt 4.6, Leading zero omitted, Abs format (unit mm)*
G04 Created by KiCad (PCBNEW 9.0.7) date 2026-07-29 10:53:38*
%MOMM*%
%LPD*%
G01*
G04 APERTURE LIST*
G04 Aperture macros list*
%AMFreePoly0*
4,1,33,0.220616,0.727275,0.358262,0.670260,0.482139,0.587488,0.587488,0.482139,0.670260,0.358262,0.727275,0.220616,0.756340,0.074493,0.756340,-0.074493,0.727275,-0.220616,0.670260,-0.358262,0.587488,-0.482139,0.482139,-0.587488,0.358262,-0.670260,0.220616,-0.727275,0.074493,-0.756340,-0.074493,-0.756340,-0.220616,-0.727275,-0.358262,-0.670260,-0.482139,-0.587488,-0.587488,-0.482139,
-0.670260,-0.358262,-0.727275,-0.220616,-0.756340,-0.074493,-0.756340,0.074493,-0.727275,0.220616,-0.670260,0.358262,-0.587488,0.482139,-0.482139,0.587488,-0.358262,0.670260,-0.220616,0.727275,-0.074493,0.756340,0.074493,0.756340,0.220616,0.727275,0.220616,0.727275,$1*%
%AMFreePoly1*
4,1,33,0.230776,0.760768,0.374760,0.701127,0.504343,0.614543,0.614543,0.504343,0.701127,0.374760,0.760768,0.230776,0.791172,0.077924,0.791172,-0.077924,0.760768,-0.230776,0.701127,-0.374760,0.614543,-0.504343,0.504343,-0.614543,0.374760,-0.701127,0.230776,-0.760768,0.077924,-0.791172,-0.077924,-0.791172,-0.230776,-0.760768,-0.374760,-0.701127,-0.504343,-0.614543,-0.614543,-0.504343,
-0.701127,-0.374760,-0.760768,-0.230776,-0.791172,-0.077924,-0.791172,0.077924,-0.760768,0.230776,-0.701127,0.374760,-0.614543,0.504343,-0.504343,0.614543,-0.374760,0.701127,-0.230776,0.760768,-0.077924,0.791172,0.077924,0.791172,0.230776,0.760768,0.230776,0.760768,$1*%
%AMFreePoly2*
4,1,33,0.259805,0.856462,0.421900,0.789320,0.567782,0.691844,0.691844,0.567782,0.789320,0.421900,0.856462,0.259805,0.890690,0.087725,0.890690,-0.087725,0.856462,-0.259805,0.789320,-0.421900,0.691844,-0.567782,0.567782,-0.691844,0.421900,-0.789320,0.259805,-0.856462,0.087725,-0.890690,-0.087725,-0.890690,-0.259805,-0.856462,-0.421900,-0.789320,-0.567782,-0.691844,-0.691844,-0.567782,
-0.789320,-0.421900,-0.856462,-0.259805,-0.890690,-0.087725,-0.890690,0.087725,-0.856462,0.259805,-0.789320,0.421900,-0.691844,0.567782,-0.567782,0.691844,-0.421900,0.789320,-0.259805,0.856462,-0.087725,0.890690,0.087725,0.890690,0.259805,0.856462,0.259805,0.856462,$1*%
%AMFreePoly3*
4,1,41,0.290639,1.210601,0.476441,1.150230,0.650511,1.061537,0.808563,0.946705,0.946705,0.808563,1.061537,0.650511,1.150230,0.476441,1.210601,0.290639,1.241162,0.097682,1.241162,-0.097682,1.210601,-0.290639,1.150230,-0.476441,1.061537,-0.650511,0.946705,-0.808563,0.808563,-0.946705,0.650511,-1.061537,0.476441,-1.150230,0.290639,-1.210601,0.097682,-1.241162,-0.097682,-1.241162,
-0.290639,-1.210601,-0.476441,-1.150230,-0.650511,-1.061537,-0.808563,-0.946705,-0.946705,-0.808563,-1.061537,-0.650511,-1.150230,-0.476441,-1.210601,-0.290639,-1.241162,-0.097682,-1.241162,0.097682,-1.210601,0.290639,-1.150230,0.476441,-1.061537,0.650511,-0.946705,0.808563,-0.808563,0.946705,-0.650511,1.061537,-0.476441,1.150230,-0.290639,1.210601,-0.097682,1.241162,0.097682,1.241162,
0.290639,1.210601,0.290639,1.210601,$1*%
G04 Aperture macros list end*
%ADD10O,2.004000X3.804000*%
%ADD11O,3.804000X2.004000*%
%ADD12FreePoly0,270.000000*%
%ADD13O,2.990000X1.490000*%
%ADD14C,2.387600*%
%ADD15C,1.499400*%
%ADD16C,3.300000*%
%ADD17R,1.590000X1.590000*%
%ADD18FreePoly1,270.000000*%
%ADD19FreePoly2,270.000000*%
%ADD20FreePoly3,270.000000*%
G04 APERTURE END LIST*
D10*
%TO.C,J1*%
X107950000Y-138200000D03*
X101750000Y-138200000D03*
D11*
X105000000Y-143000000D03*
%TD*%
D12*
%TO.C,USB1*%
X107580000Y-55010000D03*
X107580000Y-57510000D03*
X107580000Y-59510000D03*
X107580000Y-62010000D03*
D13*
X104980000Y-52060000D03*
X104980000Y-64960000D03*
%TD*%
D14*
%TO.C,J2*%
X168408600Y-138244600D03*
X191548000Y-138244600D03*
D15*
X156750000Y-137000000D03*
X157740600Y-134993400D03*
X158756600Y-137000000D03*
X159747200Y-134993400D03*
X160737800Y-137000000D03*
X161753800Y-134993400D03*
X162744400Y-137000000D03*
X163760400Y-134993400D03*
X164751000Y-137000000D03*
X165741600Y-134993400D03*
X166757600Y-137000000D03*
X169754800Y-134993400D03*
X170745400Y-137000000D03*
X171761400Y-134993400D03*
X172752000Y-137000000D03*
X173742600Y-134993400D03*
X174758600Y-137000000D03*
X175749200Y-134993400D03*
X176739800Y-137000000D03*
X177755800Y-134993400D03*
X178746400Y-137000000D03*
X179762400Y-134993400D03*
X180753000Y-137000000D03*
X181743600Y-134993400D03*
X182759600Y-137000000D03*
X183750200Y-134993400D03*
X184740800Y-137000000D03*
X185756800Y-134993400D03*
X186747400Y-137000000D03*
X187738000Y-134993400D03*
X188754000Y-137000000D03*
X189744600Y-134993400D03*
X156750000Y-139489200D03*
X157740600Y-141495800D03*
X158756600Y-139489200D03*
X159747200Y-141495800D03*
X160737800Y-139489200D03*
X161753800Y-141495800D03*
X162744400Y-139489200D03*
X163760400Y-141495800D03*
X164751000Y-139489200D03*
X165741600Y-141495800D03*
X166757600Y-139489200D03*
X169754800Y-141495800D03*
X170745400Y-139489200D03*
X171761400Y-141495800D03*
X172752000Y-139489200D03*
X173742600Y-141495800D03*
X174758600Y-139489200D03*
X175749200Y-141495800D03*
X176739800Y-139489200D03*
X177755800Y-141495800D03*
X178746400Y-139489200D03*
X179762400Y-141495800D03*
X180753000Y-139489200D03*
X181743600Y-141495800D03*
X182759600Y-139489200D03*
X183750200Y-141495800D03*
X184740800Y-139489200D03*
X185756800Y-141495800D03*
X186747400Y-139489200D03*
X187738000Y-141495800D03*
X188754000Y-139489200D03*
X189744600Y-141495800D03*
%TD*%
D16*
%TO.C,J3*%
X171630000Y-52530000D03*
X171630000Y-63960000D03*
D17*
X177980000Y-53790000D03*
D18*
X180520000Y-55060000D03*
X177980000Y-56330000D03*
X180520000Y-57600000D03*
X177980000Y-58870000D03*
X180520000Y-60140000D03*
X177980000Y-61410000D03*
X180520000Y-62680000D03*
D19*
X166730000Y-51620000D03*
X166730000Y-54160000D03*
X166730000Y-62330000D03*
X166730000Y-64870000D03*
D20*
X174680000Y-50500000D03*
X174680000Y-65990000D03*
%TD*%
M02*
