%TF.GenerationSoftware,KiCad,Pcbnew,9.0.7*%
%TF.CreationDate,2026-07-29T10:53:37+08:00*%
%TF.ProjectId,TriCore-X,54726943-6f72-4652-9d58-2e6b69636164,rev?*%
%TF.SameCoordinates,Original*%
%TF.FileFunction,Copper,L4,Inr*%
%TF.FilePolarity,Positive*%
%FSLAX46Y46*%
G04 Gerber Fmt 4.6, Leading zero omitted, Abs format (unit mm)*
G04 Created by KiCad (PCBNEW 9.0.7) date 2026-07-29 10:53:37*
%MOMM*%
%LPD*%
G01*
G04 APERTURE LIST*
G04 Aperture macros list*
%AMFreePoly0*
4,1,33,0.220616,0.727275,0.358262,0.670260,0.482139,0.587488,0.587488,0.482139,0.670260,0.358262,0.727275,0.220616,0.756340,0.074493,0.756340,-0.074493,0.727275,-0.220616,0.670260,-0.358262,0.587488,-0.482139,0.482139,-0.587488,0.358262,-0.670260,0.220616,-0.727275,0.074493,-0.756340,-0.074493,-0.756340,-0.220616,-0.727275,-0.358262,-0.670260,-0.482139,-0.587488,-0.587488,-0.482139,
-0.670260,-0.358262,-0.727275,-0.220616,-0.756340,-0.074493,-0.756340,0.074493,-0.727275,0.220616,-0.670260,0.358262,-0.587488,0.482139,-0.482139,0.587488,-0.358262,0.670260,-0.220616,0.727275,-0.074493,0.756340,0.074493,0.756340,0.220616,0.727275,0.220616,0.727275,$1*%
%AMFreePoly1*
4,1,33,0.230776,0.760768,0.374760,0.701127,0.504343,0.614543,0.614543,0.504343,0.701127,0.374760,0.760768,0.230776,0.791172,0.077924,0.791172,-0.077924,0.760768,-0.230776,0.701127,-0.374760,0.614543,-0.504343,0.504343,-0.614543,0.374760,-0.701127,0.230776,-0.760768,0.077924,-0.791172,-0.077924,-0.791172,-0.230776,-0.760768,-0.374760,-0.701127,-0.504343,-0.614543,-0.614543,-0.504343,
-0.701127,-0.374760,-0.760768,-0.230776,-0.791172,-0.077924,-0.791172,0.077924,-0.760768,0.230776,-0.701127,0.374760,-0.614543,0.504343,-0.504343,0.614543,-0.374760,0.701127,-0.230776,0.760768,-0.077924,0.791172,0.077924,0.791172,0.230776,0.760768,0.230776,0.760768,$1*%
%AMFreePoly2*
4,1,33,0.259805,0.856462,0.421900,0.789320,0.567782,0.691844,0.691844,0.567782,0.789320,0.421900,0.856462,0.259805,0.890690,0.087725,0.890690,-0.087725,0.856462,-0.259805,0.789320,-0.421900,0.691844,-0.567782,0.567782,-0.691844,0.421900,-0.789320,0.259805,-0.856462,0.087725,-0.890690,-0.087725,-0.890690,-0.259805,-0.856462,-0.421900,-0.789320,-0.567782,-0.691844,-0.691844,-0.567782,
-0.789320,-0.421900,-0.856462,-0.259805,-0.890690,-0.087725,-0.890690,0.087725,-0.856462,0.259805,-0.789320,0.421900,-0.691844,0.567782,-0.567782,0.691844,-0.421900,0.789320,-0.259805,0.856462,-0.087725,0.890690,0.087725,0.890690,0.259805,0.856462,0.259805,0.856462,$1*%
%AMFreePoly3*
4,1,41,0.290639,1.210601,0.476441,1.150230,0.650511,1.061537,0.808563,0.946705,0.946705,0.808563,1.061537,0.650511,1.150230,0.476441,1.210601,0.290639,1.241162,0.097682,1.241162,-0.097682,1.210601,-0.290639,1.150230,-0.476441,1.061537,-0.650511,0.946705,-0.808563,0.808563,-0.946705,0.650511,-1.061537,0.476441,-1.150230,0.290639,-1.210601,0.097682,-1.241162,-0.097682,-1.241162,
-0.290639,-1.210601,-0.476441,-1.150230,-0.650511,-1.061537,-0.808563,-0.946705,-0.946705,-0.808563,-1.061537,-0.650511,-1.150230,-0.476441,-1.210601,-0.290639,-1.241162,-0.097682,-1.241162,0.097682,-1.210601,0.290639,-1.150230,0.476441,-1.061537,0.650511,-0.946705,0.808563,-0.808563,0.946705,-0.650511,1.061537,-0.476441,1.150230,-0.290639,1.210601,-0.097682,1.241162,0.097682,1.241162,
0.290639,1.210601,0.290639,1.210601,$1*%
G04 Aperture macros list end*
%TA.AperFunction,ComponentPad*%
%ADD10O,1.800000X3.600000*%
%TD*%
%TA.AperFunction,ComponentPad*%
%ADD11O,3.600000X1.800000*%
%TD*%
%TA.AperFunction,ComponentPad*%
%ADD12FreePoly0,270.000000*%
%TD*%
%TA.AperFunction,ComponentPad*%
%ADD13O,2.990000X1.490000*%
%TD*%
%TA.AperFunction,ComponentPad*%
%ADD14C,1.295400*%
%TD*%
%TA.AperFunction,ComponentPad*%
%ADD15R,1.590000X1.590000*%
%TD*%
%TA.AperFunction,ComponentPad*%
%ADD16FreePoly1,270.000000*%
%TD*%
%TA.AperFunction,ComponentPad*%
%ADD17FreePoly2,270.000000*%
%TD*%
%TA.AperFunction,ComponentPad*%
%ADD18FreePoly3,270.000000*%
%TD*%
%TA.AperFunction,ViaPad*%
%ADD19C,0.450000*%
%TD*%
%TA.AperFunction,ViaPad*%
%ADD20C,0.600000*%
%TD*%
%TA.AperFunction,ViaPad*%
%ADD21C,0.500000*%
%TD*%
G04 APERTURE END LIST*
D10*
%TO.N,Net-(F3-Pad1)*%
%TO.C,J1*%
X107950000Y-138200000D03*
%TO.N,GND*%
X101750000Y-138200000D03*
D11*
%TO.N,unconnected-(J1-Pad3)*%
X105000000Y-143000000D03*
%TD*%
D12*
%TO.N,unconnected-(USB1-VCC-Pad1)*%
%TO.C,USB1*%
X107580000Y-55010000D03*
%TO.N,unconnected-(USB1-D--Pad2)*%
X107580000Y-57510000D03*
%TO.N,unconnected-(USB1-D+-Pad3)*%
X107580000Y-59510000D03*
%TO.N,unconnected-(USB1-GND-Pad4)*%
X107580000Y-62010000D03*
D13*
%TO.N,unconnected-(USB1-Pad5)*%
X104980000Y-52060000D03*
%TO.N,unconnected-(USB1-Pad6)*%
X104980000Y-64960000D03*
%TD*%
D14*
%TO.N,unconnected-(J2-PadA1)*%
%TO.C,J2*%
X156750000Y-137000000D03*
%TO.N,+12V*%
X157740600Y-134993400D03*
X158756600Y-137000000D03*
%TO.N,GND*%
X159747200Y-134993400D03*
%TO.N,unconnected-(J2-PadA5)*%
X160737800Y-137000000D03*
%TO.N,unconnected-(J2-PadA6)*%
X161753800Y-134993400D03*
%TO.N,unconnected-(J2-PadA7)*%
X162744400Y-137000000D03*
%TO.N,unconnected-(J2-PadA8)*%
X163760400Y-134993400D03*
%TO.N,unconnected-(J2-PadA9)*%
X164751000Y-137000000D03*
%TO.N,unconnected-(J2-PadA10)*%
X165741600Y-134993400D03*
%TO.N,unconnected-(J2-PadA11)*%
X166757600Y-137000000D03*
%TO.N,unconnected-(J2-PadA12)*%
X169754800Y-134993400D03*
%TO.N,unconnected-(J2-PadA13)*%
X170745400Y-137000000D03*
%TO.N,unconnected-(J2-PadA14)*%
X171761400Y-134993400D03*
%TO.N,unconnected-(J2-PadA15)*%
X172752000Y-137000000D03*
%TO.N,unconnected-(J2-PadA16)*%
X173742600Y-134993400D03*
%TO.N,unconnected-(J2-PadA17)*%
X174758600Y-137000000D03*
%TO.N,unconnected-(J2-PadA18)*%
X175749200Y-134993400D03*
%TO.N,unconnected-(J2-PadA19)*%
X176739800Y-137000000D03*
%TO.N,unconnected-(J2-PadA20)*%
X177755800Y-134993400D03*
%TO.N,unconnected-(J2-PadA21)*%
X178746400Y-137000000D03*
%TO.N,unconnected-(J2-PadA22)*%
X179762400Y-134993400D03*
%TO.N,unconnected-(J2-PadA23)*%
X180753000Y-137000000D03*
%TO.N,unconnected-(J2-PadA24)*%
X181743600Y-134993400D03*
%TO.N,unconnected-(J2-PadA25)*%
X182759600Y-137000000D03*
%TO.N,unconnected-(J2-PadA26)*%
X183750200Y-134993400D03*
%TO.N,unconnected-(J2-PadA27)*%
X184740800Y-137000000D03*
%TO.N,unconnected-(J2-PadA28)*%
X185756800Y-134993400D03*
%TO.N,unconnected-(J2-PadA29)*%
X186747400Y-137000000D03*
%TO.N,unconnected-(J2-PadA30)*%
X187738000Y-134993400D03*
%TO.N,unconnected-(J2-PadA31)*%
X188754000Y-137000000D03*
%TO.N,unconnected-(J2-PadA32)*%
X189744600Y-134993400D03*
%TO.N,+12V*%
X156750000Y-139489200D03*
X157740600Y-141495800D03*
X158756600Y-139489200D03*
%TO.N,GND*%
X159747200Y-141495800D03*
%TO.N,unconnected-(J2-PadB5)*%
X160737800Y-139489200D03*
%TO.N,unconnected-(J2-PadB6)*%
X161753800Y-141495800D03*
%TO.N,unconnected-(J2-PadB7)*%
X162744400Y-139489200D03*
%TO.N,unconnected-(J2-PadB8)*%
X163760400Y-141495800D03*
%TO.N,unconnected-(J2-PadB9)*%
X164751000Y-139489200D03*
%TO.N,unconnected-(J2-PadB10)*%
X165741600Y-141495800D03*
%TO.N,unconnected-(J2-PadB11)*%
X166757600Y-139489200D03*
%TO.N,unconnected-(J2-PadB12)*%
X169754800Y-141495800D03*
%TO.N,unconnected-(J2-PadB13)*%
X170745400Y-139489200D03*
%TO.N,unconnected-(J2-PadB14)*%
X171761400Y-141495800D03*
%TO.N,unconnected-(J2-PadB15)*%
X172752000Y-139489200D03*
%TO.N,unconnected-(J2-PadB16)*%
X173742600Y-141495800D03*
%TO.N,unconnected-(J2-PadB17)*%
X174758600Y-139489200D03*
%TO.N,unconnected-(J2-PadB18)*%
X175749200Y-141495800D03*
%TO.N,unconnected-(J2-PadB19)*%
X176739800Y-139489200D03*
%TO.N,unconnected-(J2-PadB20)*%
X177755800Y-141495800D03*
%TO.N,unconnected-(J2-PadB21)*%
X178746400Y-139489200D03*
%TO.N,unconnected-(J2-PadB22)*%
X179762400Y-141495800D03*
%TO.N,unconnected-(J2-PadB23)*%
X180753000Y-139489200D03*
%TO.N,unconnected-(J2-PadB24)*%
X181743600Y-141495800D03*
%TO.N,unconnected-(J2-PadB25)*%
X182759600Y-139489200D03*
%TO.N,unconnected-(J2-PadB26)*%
X183750200Y-141495800D03*
%TO.N,unconnected-(J2-PadB27)*%
X184740800Y-139489200D03*
%TO.N,unconnected-(J2-PadB28)*%
X185756800Y-141495800D03*
%TO.N,unconnected-(J2-PadB29)*%
X186747400Y-139489200D03*
%TO.N,unconnected-(J2-PadB30)*%
X187738000Y-141495800D03*
%TO.N,unconnected-(J2-PadB31)*%
X188754000Y-139489200D03*
%TO.N,unconnected-(J2-PadB32)*%
X189744600Y-141495800D03*
%TD*%
D15*
%TO.N,/Expansion_Port/ETH_TX_P*%
%TO.C,J3*%
X177980000Y-53790000D03*
D16*
%TO.N,/Expansion_Port/ETH_TX_N*%
X180520000Y-55060000D03*
%TO.N,/Expansion_Port/ETH_RX_P*%
X177980000Y-56330000D03*
%TO.N,Net-(C20-Pad2)*%
X180520000Y-57600000D03*
%TO.N,Net-(C21-Pad2)*%
X177980000Y-58870000D03*
%TO.N,/Expansion_Port/ETH_RX_N*%
X180520000Y-60140000D03*
%TO.N,unconnected-(J3-NC-Pad7)*%
X177980000Y-61410000D03*
%TO.N,Net-(J3-CHSGND)*%
X180520000Y-62680000D03*
D17*
%TO.N,Ethernet_3V3*%
X166730000Y-51620000D03*
%TO.N,Net-(J3-Pad10)*%
X166730000Y-54160000D03*
%TO.N,GND*%
X166730000Y-62330000D03*
%TO.N,Net-(J3-Pad12)*%
X166730000Y-64870000D03*
D18*
%TO.N,Net-(FB1-Pad1)*%
X174680000Y-50500000D03*
X174680000Y-65990000D03*
%TD*%
D19*
%TO.N,GND*%
X156750000Y-93250000D03*
X155750000Y-108250000D03*
X153750000Y-108250000D03*
X165750000Y-110250000D03*
D20*
X135500000Y-142250000D03*
D19*
X155750000Y-102250000D03*
D21*
X146675000Y-140500000D03*
D19*
X152750000Y-99250000D03*
X155750000Y-97250000D03*
X161750000Y-98250000D03*
X111250000Y-122250000D03*
D21*
X135875000Y-127895000D03*
X146675000Y-141250000D03*
D19*
X110500000Y-122250000D03*
D21*
X154630000Y-129750000D03*
D19*
X185980000Y-72580000D03*
X185980000Y-74580000D03*
X158750000Y-99250000D03*
X160750000Y-95250000D03*
X145750000Y-110250000D03*
D21*
X152880000Y-129750000D03*
D19*
X146750000Y-113250000D03*
D21*
X115000000Y-131125000D03*
D20*
X135500000Y-140000000D03*
D19*
X166750000Y-93250000D03*
D21*
X109250000Y-131125000D03*
D19*
X152750000Y-101250000D03*
D21*
X132825000Y-127895000D03*
D19*
X154750000Y-95250000D03*
D21*
X112500000Y-131125000D03*
D19*
X150750000Y-99250000D03*
D21*
X111750000Y-131125000D03*
D19*
X153750000Y-106250000D03*
D20*
X135500000Y-141500000D03*
D19*
X155750000Y-104250000D03*
X155750000Y-98250000D03*
X151750000Y-99250000D03*
X149750000Y-97250000D03*
X152750000Y-107250000D03*
X151750000Y-93250000D03*
X148750000Y-97250000D03*
X146750000Y-93250000D03*
X149750000Y-112250000D03*
D21*
X141290000Y-133750000D03*
D19*
X147750000Y-96250000D03*
X150750000Y-105250000D03*
X186980000Y-73580000D03*
X153750000Y-97250000D03*
X161750000Y-108250000D03*
D20*
X134750000Y-140000000D03*
D19*
X154750000Y-101250000D03*
X152750000Y-103250000D03*
X159750000Y-112250000D03*
D21*
X130630000Y-127850000D03*
D19*
X165750000Y-100250000D03*
X151750000Y-100250000D03*
D21*
X117500000Y-131125000D03*
D19*
X184980000Y-72580000D03*
X147750000Y-106250000D03*
X153750000Y-93250000D03*
X149750000Y-102250000D03*
X153750000Y-99250000D03*
D20*
X127000000Y-139500000D03*
D21*
X110000000Y-131125000D03*
D19*
X147750000Y-94250000D03*
D20*
X127000000Y-138750000D03*
X134750000Y-140750000D03*
D19*
X112000000Y-123000000D03*
X155750000Y-93250000D03*
X156750000Y-95250000D03*
X147750000Y-95250000D03*
X149750000Y-99250000D03*
D20*
X135500000Y-143000000D03*
D19*
X112000000Y-123750000D03*
X163750000Y-104250000D03*
X160750000Y-105250000D03*
X184980000Y-74580000D03*
X184980000Y-73580000D03*
D20*
X127750000Y-139500000D03*
D19*
X162750000Y-111250000D03*
X156750000Y-96250000D03*
D20*
X134750000Y-143000000D03*
D19*
X156750000Y-101250000D03*
X152750000Y-105250000D03*
X164750000Y-97250000D03*
X110500000Y-123000000D03*
D21*
X113365000Y-142175000D03*
D19*
X112000000Y-122250000D03*
X156750000Y-113250000D03*
X155750000Y-110250000D03*
D20*
X134750000Y-142250000D03*
D19*
X186980000Y-74580000D03*
X164750000Y-107250000D03*
X158750000Y-109250000D03*
X152750000Y-111250000D03*
X147750000Y-93250000D03*
X163750000Y-94250000D03*
X148750000Y-96250000D03*
D21*
X141290000Y-136250000D03*
D19*
X163750000Y-114250000D03*
D21*
X152130000Y-129750000D03*
D19*
X111250000Y-123750000D03*
X186980000Y-72580000D03*
X185980000Y-73580000D03*
X159750000Y-102250000D03*
X152750000Y-96250000D03*
X153750000Y-114250000D03*
X154750000Y-107250000D03*
X156750000Y-99250000D03*
X157750000Y-106250000D03*
X151750000Y-102250000D03*
D21*
X129880000Y-127850000D03*
D19*
X162750000Y-101250000D03*
D21*
X155380000Y-129750000D03*
D19*
X166750000Y-103250000D03*
X155750000Y-100250000D03*
D21*
X157880000Y-129750000D03*
D19*
X149750000Y-93250000D03*
X156750000Y-107250000D03*
D21*
X131380000Y-127850000D03*
D19*
X150750000Y-95250000D03*
X154750000Y-99250000D03*
D21*
X134375000Y-127895000D03*
D19*
X156750000Y-94250000D03*
X145750000Y-100250000D03*
X110500000Y-123750000D03*
X151750000Y-97250000D03*
D20*
X127750000Y-138750000D03*
D19*
X151750000Y-108250000D03*
D21*
X157130000Y-129750000D03*
D20*
X135500000Y-140750000D03*
D19*
X146750000Y-103250000D03*
X157750000Y-96250000D03*
D21*
X141290000Y-135000000D03*
X116750000Y-131125000D03*
X146675000Y-142000000D03*
D19*
X155750000Y-106250000D03*
X166750000Y-113250000D03*
D21*
X114250000Y-131125000D03*
D19*
X148750000Y-109250000D03*
X151750000Y-104250000D03*
X111250000Y-123000000D03*
X149750000Y-98250000D03*
D20*
X134750000Y-141500000D03*
D19*
X151750000Y-106250000D03*
X153750000Y-100250000D03*
D20*
%TO.N,GNDA*%
X132875000Y-122875000D03*
X149500000Y-139000000D03*
X131625000Y-126375000D03*
X151750000Y-142250000D03*
%TD*%
M02*
