%TF.GenerationSoftware,KiCad,Pcbnew,9.0.7*%
%TF.CreationDate,2026-07-29T10:53:37+08:00*%
%TF.ProjectId,TriCore-X,54726943-6f72-4652-9d58-2e6b69636164,rev?*%
%TF.SameCoordinates,Original*%
%TF.FileFunction,Paste,Top*%
%TF.FilePolarity,Positive*%
%FSLAX46Y46*%
G04 Gerber Fmt 4.6, Leading zero omitted, Abs format (unit mm)*
G04 Created by KiCad (PCBNEW 9.0.7) date 2026-07-29 10:53:37*
%MOMM*%
%LPD*%
G01*
G04 APERTURE LIST*
G04 Aperture macros list*
%AMRoundRect*
0 Rectangle with rounded corners*
0 $1 Rounding radius*
0 $2 $3 $4 $5 $6 $7 $8 $9 X,Y pos of 4 corners*
0 Add a 4 corners polygon primitive as box body*
4,1,4,$2,$3,$4,$5,$6,$7,$8,$9,$2,$3,0*
0 Add four circle primitives for the rounded corners*
1,1,$1+$1,$2,$3*
1,1,$1+$1,$4,$5*
1,1,$1+$1,$6,$7*
1,1,$1+$1,$8,$9*
0 Add four rect primitives between the rounded corners*
20,1,$1+$1,$2,$3,$4,$5,0*
20,1,$1+$1,$4,$5,$6,$7,0*
20,1,$1+$1,$6,$7,$8,$9,0*
20,1,$1+$1,$8,$9,$2,$3,0*%
G04 Aperture macros list end*
%ADD10C,0.100000*%
%ADD11C,0.010000*%
%ADD12RoundRect,0.140000X-0.140000X-0.170000X0.140000X-0.170000X0.140000X0.170000X-0.140000X0.170000X0*%
%ADD13RoundRect,0.140000X0.140000X0.170000X-0.140000X0.170000X-0.140000X-0.170000X0.140000X-0.170000X0*%
%ADD14RoundRect,0.250000X-0.475000X0.250000X-0.475000X-0.250000X0.475000X-0.250000X0.475000X0.250000X0*%
%ADD15RoundRect,0.135000X-0.135000X-0.185000X0.135000X-0.185000X0.135000X0.185000X-0.135000X0.185000X0*%
%ADD16RoundRect,0.250000X0.625000X-0.375000X0.625000X0.375000X-0.625000X0.375000X-0.625000X-0.375000X0*%
%ADD17R,0.280000X0.660000*%
%ADD18R,0.660000X0.280000*%
%ADD19R,1.690000X1.690000*%
%ADD20RoundRect,0.250000X-0.375000X-0.625000X0.375000X-0.625000X0.375000X0.625000X-0.375000X0.625000X0*%
%ADD21R,3.500000X2.950000*%
%ADD22R,2.950000X3.500000*%
%ADD23RoundRect,0.218750X0.218750X0.256250X-0.218750X0.256250X-0.218750X-0.256250X0.218750X-0.256250X0*%
%ADD24RoundRect,0.135000X-0.185000X0.135000X-0.185000X-0.135000X0.185000X-0.135000X0.185000X0.135000X0*%
%ADD25RoundRect,0.135000X0.135000X0.185000X-0.135000X0.185000X-0.135000X-0.185000X0.135000X-0.185000X0*%
%ADD26R,0.190000X1.450000*%
%ADD27R,1.450000X0.190000*%
%ADD28R,5.590000X5.590000*%
%ADD29RoundRect,0.250000X0.475000X-0.250000X0.475000X0.250000X-0.475000X0.250000X-0.475000X-0.250000X0*%
%ADD30RoundRect,0.140000X0.170000X-0.140000X0.170000X0.140000X-0.170000X0.140000X-0.170000X-0.140000X0*%
%ADD31C,0.500000*%
%ADD32RoundRect,0.135000X0.185000X-0.135000X0.185000X0.135000X-0.185000X0.135000X-0.185000X-0.135000X0*%
%ADD33R,2.120000X2.280000*%
%ADD34RoundRect,0.140000X-0.170000X0.140000X-0.170000X-0.140000X0.170000X-0.140000X0.170000X0.140000X0*%
%ADD35RoundRect,0.062500X-0.062500X0.237500X-0.062500X-0.237500X0.062500X-0.237500X0.062500X0.237500X0*%
%ADD36RoundRect,0.062500X-0.237500X0.062500X-0.237500X-0.062500X0.237500X-0.062500X0.237500X0.062500X0*%
%ADD37R,0.590000X0.250000*%
%ADD38R,0.250000X0.590000*%
%ADD39R,2.450000X2.450000*%
%ADD40RoundRect,0.250000X-0.450000X-0.350000X0.450000X-0.350000X0.450000X0.350000X-0.450000X0.350000X0*%
%ADD41O,0.280000X0.800000*%
%ADD42O,0.800000X0.280000*%
%ADD43R,3.400000X3.400000*%
%ADD44R,0.190000X0.560000*%
%ADD45R,0.390000X0.560000*%
%ADD46RoundRect,0.250000X-0.250000X-0.475000X0.250000X-0.475000X0.250000X0.475000X-0.250000X0.475000X0*%
%ADD47C,0.300002*%
%ADD48RoundRect,0.225000X-0.225000X-0.375000X0.225000X-0.375000X0.225000X0.375000X-0.225000X0.375000X0*%
%ADD49RoundRect,0.062500X0.237500X0.062500X-0.237500X0.062500X-0.237500X-0.062500X0.237500X-0.062500X0*%
%ADD50RoundRect,0.062500X0.062500X0.237500X-0.062500X0.237500X-0.062500X-0.237500X0.062500X-0.237500X0*%
%ADD51RoundRect,0.250000X-1.125000X1.275000X-1.125000X-1.275000X1.125000X-1.275000X1.125000X1.275000X0*%
%ADD52RoundRect,0.250000X-0.350000X0.850000X-0.350000X-0.850000X0.350000X-0.850000X0.350000X0.850000X0*%
%ADD53R,2.350000X1.190000*%
%ADD54R,1.190000X2.350000*%
%ADD55R,0.590000X0.390000*%
%ADD56RoundRect,0.250001X-0.799999X1.999999X-0.799999X-1.999999X0.799999X-1.999999X0.799999X1.999999X0*%
%ADD57RoundRect,0.091000X-0.339000X-0.039000X0.339000X-0.039000X0.339000X0.039000X-0.339000X0.039000X0*%
%ADD58RoundRect,0.091000X-0.039000X-0.339000X0.039000X-0.339000X0.039000X0.339000X-0.039000X0.339000X0*%
G04 APERTURE END LIST*
D10*
%TO.C,U1*%
X147180000Y-72140000D02*
X146510000Y-72140000D01*
X146510000Y-71860000D01*
X147180000Y-71860000D01*
X147180000Y-72140000D01*
G36*
X147180000Y-72140000D02*
G01*
X146510000Y-72140000D01*
X146510000Y-71860000D01*
X147180000Y-71860000D01*
X147180000Y-72140000D01*
G37*
X147180000Y-72640000D02*
X146510000Y-72640000D01*
X146510000Y-72360000D01*
X147180000Y-72360000D01*
X147180000Y-72640000D01*
G36*
X147180000Y-72640000D02*
G01*
X146510000Y-72640000D01*
X146510000Y-72360000D01*
X147180000Y-72360000D01*
X147180000Y-72640000D01*
G37*
X147180000Y-73140000D02*
X146510000Y-73140000D01*
X146510000Y-72860000D01*
X147180000Y-72860000D01*
X147180000Y-73140000D01*
G36*
X147180000Y-73140000D02*
G01*
X146510000Y-73140000D01*
X146510000Y-72860000D01*
X147180000Y-72860000D01*
X147180000Y-73140000D01*
G37*
X147180000Y-73640000D02*
X146510000Y-73640000D01*
X146510000Y-73360000D01*
X147180000Y-73360000D01*
X147180000Y-73640000D01*
G36*
X147180000Y-73640000D02*
G01*
X146510000Y-73640000D01*
X146510000Y-73360000D01*
X147180000Y-73360000D01*
X147180000Y-73640000D01*
G37*
X147680000Y-71640000D02*
X147410000Y-71640000D01*
X147410000Y-70970000D01*
X147680000Y-70970000D01*
X147680000Y-71640000D01*
G36*
X147680000Y-71640000D02*
G01*
X147410000Y-71640000D01*
X147410000Y-70970000D01*
X147680000Y-70970000D01*
X147680000Y-71640000D01*
G37*
X147680000Y-74540000D02*
X147410000Y-74540000D01*
X147410000Y-73870000D01*
X147680000Y-73870000D01*
X147680000Y-74540000D01*
G36*
X147680000Y-74540000D02*
G01*
X147410000Y-74540000D01*
X147410000Y-73870000D01*
X147680000Y-73870000D01*
X147680000Y-74540000D01*
G37*
X148990000Y-73450000D02*
X147600000Y-73450000D01*
X147600000Y-72050000D01*
X148990000Y-72050000D01*
X148990000Y-73450000D01*
G36*
X148990000Y-73450000D02*
G01*
X147600000Y-73450000D01*
X147600000Y-72050000D01*
X148990000Y-72050000D01*
X148990000Y-73450000D01*
G37*
X148180000Y-71640000D02*
X147910000Y-71640000D01*
X147910000Y-70970000D01*
X148180000Y-70970000D01*
X148180000Y-71640000D01*
G36*
X148180000Y-71640000D02*
G01*
X147910000Y-71640000D01*
X147910000Y-70970000D01*
X148180000Y-70970000D01*
X148180000Y-71640000D01*
G37*
X148180000Y-74540000D02*
X147910000Y-74540000D01*
X147910000Y-73870000D01*
X148180000Y-73870000D01*
X148180000Y-74540000D01*
G36*
X148180000Y-74540000D02*
G01*
X147910000Y-74540000D01*
X147910000Y-73870000D01*
X148180000Y-73870000D01*
X148180000Y-74540000D01*
G37*
X148680000Y-71640000D02*
X148410000Y-71640000D01*
X148410000Y-70970000D01*
X148680000Y-70970000D01*
X148680000Y-71640000D01*
G36*
X148680000Y-71640000D02*
G01*
X148410000Y-71640000D01*
X148410000Y-70970000D01*
X148680000Y-70970000D01*
X148680000Y-71640000D01*
G37*
X148680000Y-74540000D02*
X148410000Y-74540000D01*
X148410000Y-73870000D01*
X148680000Y-73870000D01*
X148680000Y-74540000D01*
G36*
X148680000Y-74540000D02*
G01*
X148410000Y-74540000D01*
X148410000Y-73870000D01*
X148680000Y-73870000D01*
X148680000Y-74540000D01*
G37*
X149180000Y-71640000D02*
X148910000Y-71640000D01*
X148910000Y-70970000D01*
X149180000Y-70970000D01*
X149180000Y-71640000D01*
G36*
X149180000Y-71640000D02*
G01*
X148910000Y-71640000D01*
X148910000Y-70970000D01*
X149180000Y-70970000D01*
X149180000Y-71640000D01*
G37*
X149180000Y-74540000D02*
X148910000Y-74540000D01*
X148910000Y-73870000D01*
X149180000Y-73870000D01*
X149180000Y-74540000D01*
G36*
X149180000Y-74540000D02*
G01*
X148910000Y-74540000D01*
X148910000Y-73870000D01*
X149180000Y-73870000D01*
X149180000Y-74540000D01*
G37*
X150080000Y-72140000D02*
X149410000Y-72140000D01*
X149410000Y-71860000D01*
X150080000Y-71860000D01*
X150080000Y-72140000D01*
G36*
X150080000Y-72140000D02*
G01*
X149410000Y-72140000D01*
X149410000Y-71860000D01*
X150080000Y-71860000D01*
X150080000Y-72140000D01*
G37*
X150080000Y-72640000D02*
X149410000Y-72640000D01*
X149410000Y-72360000D01*
X150080000Y-72360000D01*
X150080000Y-72640000D01*
G36*
X150080000Y-72640000D02*
G01*
X149410000Y-72640000D01*
X149410000Y-72360000D01*
X150080000Y-72360000D01*
X150080000Y-72640000D01*
G37*
X150080000Y-73140000D02*
X149410000Y-73140000D01*
X149410000Y-72860000D01*
X150080000Y-72860000D01*
X150080000Y-73140000D01*
G36*
X150080000Y-73140000D02*
G01*
X149410000Y-73140000D01*
X149410000Y-72860000D01*
X150080000Y-72860000D01*
X150080000Y-73140000D01*
G37*
X150080000Y-73640000D02*
X149410000Y-73640000D01*
X149410000Y-73360000D01*
X150080000Y-73360000D01*
X150080000Y-73640000D01*
G36*
X150080000Y-73640000D02*
G01*
X149410000Y-73640000D01*
X149410000Y-73360000D01*
X150080000Y-73360000D01*
X150080000Y-73640000D01*
G37*
D11*
%TO.C,U3*%
X128983000Y-128331000D02*
X128985000Y-128331000D01*
X128988000Y-128332000D01*
X128990000Y-128332000D01*
X128993000Y-128333000D01*
X128995000Y-128334000D01*
X128998000Y-128335000D01*
X129000000Y-128337000D01*
X129002000Y-128338000D01*
X129004000Y-128340000D01*
X129006000Y-128341000D01*
X129008000Y-128343000D01*
X129010000Y-128345000D01*
X129012000Y-128347000D01*
X129014000Y-128349000D01*
X129015000Y-128351000D01*
X129017000Y-128353000D01*
X129018000Y-128355000D01*
X129020000Y-128357000D01*
X129021000Y-128360000D01*
X129022000Y-128362000D01*
X129023000Y-128365000D01*
X129023000Y-128367000D01*
X129024000Y-128370000D01*
X129024000Y-128372000D01*
X129025000Y-128375000D01*
X129025000Y-128377000D01*
X129025000Y-128380000D01*
X129025000Y-128540000D01*
X129025000Y-128542000D01*
X129024000Y-128544000D01*
X129024000Y-128547000D01*
X129023000Y-128549000D01*
X129022000Y-128551000D01*
X129021000Y-128553000D01*
X129020000Y-128556000D01*
X129019000Y-128558000D01*
X129018000Y-128560000D01*
X129017000Y-128562000D01*
X129015000Y-128563000D01*
X129014000Y-128565000D01*
X129012000Y-128567000D01*
X129010000Y-128569000D01*
X129008000Y-128570000D01*
X129007000Y-128572000D01*
X129005000Y-128573000D01*
X129003000Y-128574000D01*
X129001000Y-128575000D01*
X128998000Y-128576000D01*
X128996000Y-128577000D01*
X128994000Y-128578000D01*
X128992000Y-128579000D01*
X128989000Y-128579000D01*
X128987000Y-128580000D01*
X128985000Y-128580000D01*
X128982000Y-128580000D01*
X128980000Y-128580000D01*
X128978000Y-128580000D01*
X128975000Y-128580000D01*
X128325000Y-128580000D01*
X128322000Y-128580000D01*
X128320000Y-128580000D01*
X128318000Y-128580000D01*
X128315000Y-128580000D01*
X128313000Y-128580000D01*
X128311000Y-128579000D01*
X128308000Y-128579000D01*
X128306000Y-128578000D01*
X128304000Y-128577000D01*
X128302000Y-128576000D01*
X128299000Y-128575000D01*
X128297000Y-128574000D01*
X128295000Y-128573000D01*
X128293000Y-128572000D01*
X128292000Y-128570000D01*
X128290000Y-128569000D01*
X128288000Y-128567000D01*
X128286000Y-128565000D01*
X128285000Y-128563000D01*
X128283000Y-128562000D01*
X128282000Y-128560000D01*
X128281000Y-128558000D01*
X128280000Y-128556000D01*
X128279000Y-128553000D01*
X128278000Y-128551000D01*
X128277000Y-128549000D01*
X128276000Y-128547000D01*
X128276000Y-128544000D01*
X128275000Y-128542000D01*
X128275000Y-128540000D01*
X128275000Y-128380000D01*
X128275000Y-128377000D01*
X128275000Y-128375000D01*
X128276000Y-128372000D01*
X128276000Y-128370000D01*
X128277000Y-128367000D01*
X128277000Y-128365000D01*
X128278000Y-128362000D01*
X128279000Y-128360000D01*
X128280000Y-128357000D01*
X128282000Y-128355000D01*
X128283000Y-128353000D01*
X128285000Y-128351000D01*
X128286000Y-128349000D01*
X128288000Y-128347000D01*
X128290000Y-128345000D01*
X128292000Y-128343000D01*
X128294000Y-128341000D01*
X128296000Y-128340000D01*
X128298000Y-128338000D01*
X128300000Y-128337000D01*
X128302000Y-128335000D01*
X128305000Y-128334000D01*
X128307000Y-128333000D01*
X128310000Y-128332000D01*
X128312000Y-128332000D01*
X128315000Y-128331000D01*
X128317000Y-128331000D01*
X128320000Y-128330000D01*
X128322000Y-128330000D01*
X128325000Y-128330000D01*
X128975000Y-128330000D01*
X128978000Y-128330000D01*
X128980000Y-128330000D01*
X128983000Y-128331000D01*
G36*
X128983000Y-128331000D02*
G01*
X128985000Y-128331000D01*
X128988000Y-128332000D01*
X128990000Y-128332000D01*
X128993000Y-128333000D01*
X128995000Y-128334000D01*
X128998000Y-128335000D01*
X129000000Y-128337000D01*
X129002000Y-128338000D01*
X129004000Y-128340000D01*
X129006000Y-128341000D01*
X129008000Y-128343000D01*
X129010000Y-128345000D01*
X129012000Y-128347000D01*
X129014000Y-128349000D01*
X129015000Y-128351000D01*
X129017000Y-128353000D01*
X129018000Y-128355000D01*
X129020000Y-128357000D01*
X129021000Y-128360000D01*
X129022000Y-128362000D01*
X129023000Y-128365000D01*
X129023000Y-128367000D01*
X129024000Y-128370000D01*
X129024000Y-128372000D01*
X129025000Y-128375000D01*
X129025000Y-128377000D01*
X129025000Y-128380000D01*
X129025000Y-128540000D01*
X129025000Y-128542000D01*
X129024000Y-128544000D01*
X129024000Y-128547000D01*
X129023000Y-128549000D01*
X129022000Y-128551000D01*
X129021000Y-128553000D01*
X129020000Y-128556000D01*
X129019000Y-128558000D01*
X129018000Y-128560000D01*
X129017000Y-128562000D01*
X129015000Y-128563000D01*
X129014000Y-128565000D01*
X129012000Y-128567000D01*
X129010000Y-128569000D01*
X129008000Y-128570000D01*
X129007000Y-128572000D01*
X129005000Y-128573000D01*
X129003000Y-128574000D01*
X129001000Y-128575000D01*
X128998000Y-128576000D01*
X128996000Y-128577000D01*
X128994000Y-128578000D01*
X128992000Y-128579000D01*
X128989000Y-128579000D01*
X128987000Y-128580000D01*
X128985000Y-128580000D01*
X128982000Y-128580000D01*
X128980000Y-128580000D01*
X128978000Y-128580000D01*
X128975000Y-128580000D01*
X128325000Y-128580000D01*
X128322000Y-128580000D01*
X128320000Y-128580000D01*
X128318000Y-128580000D01*
X128315000Y-128580000D01*
X128313000Y-128580000D01*
X128311000Y-128579000D01*
X128308000Y-128579000D01*
X128306000Y-128578000D01*
X128304000Y-128577000D01*
X128302000Y-128576000D01*
X128299000Y-128575000D01*
X128297000Y-128574000D01*
X128295000Y-128573000D01*
X128293000Y-128572000D01*
X128292000Y-128570000D01*
X128290000Y-128569000D01*
X128288000Y-128567000D01*
X128286000Y-128565000D01*
X128285000Y-128563000D01*
X128283000Y-128562000D01*
X128282000Y-128560000D01*
X128281000Y-128558000D01*
X128280000Y-128556000D01*
X128279000Y-128553000D01*
X128278000Y-128551000D01*
X128277000Y-128549000D01*
X128276000Y-128547000D01*
X128276000Y-128544000D01*
X128275000Y-128542000D01*
X128275000Y-128540000D01*
X128275000Y-128380000D01*
X128275000Y-128377000D01*
X128275000Y-128375000D01*
X128276000Y-128372000D01*
X128276000Y-128370000D01*
X128277000Y-128367000D01*
X128277000Y-128365000D01*
X128278000Y-128362000D01*
X128279000Y-128360000D01*
X128280000Y-128357000D01*
X128282000Y-128355000D01*
X128283000Y-128353000D01*
X128285000Y-128351000D01*
X128286000Y-128349000D01*
X128288000Y-128347000D01*
X128290000Y-128345000D01*
X128292000Y-128343000D01*
X128294000Y-128341000D01*
X128296000Y-128340000D01*
X128298000Y-128338000D01*
X128300000Y-128337000D01*
X128302000Y-128335000D01*
X128305000Y-128334000D01*
X128307000Y-128333000D01*
X128310000Y-128332000D01*
X128312000Y-128332000D01*
X128315000Y-128331000D01*
X128317000Y-128331000D01*
X128320000Y-128330000D01*
X128322000Y-128330000D01*
X128325000Y-128330000D01*
X128975000Y-128330000D01*
X128978000Y-128330000D01*
X128980000Y-128330000D01*
X128983000Y-128331000D01*
G37*
X129933000Y-128331000D02*
X129935000Y-128331000D01*
X129938000Y-128332000D01*
X129940000Y-128332000D01*
X129943000Y-128333000D01*
X129945000Y-128334000D01*
X129948000Y-128335000D01*
X129950000Y-128337000D01*
X129952000Y-128338000D01*
X129954000Y-128340000D01*
X129956000Y-128341000D01*
X129958000Y-128343000D01*
X129960000Y-128345000D01*
X129962000Y-128347000D01*
X129964000Y-128349000D01*
X129965000Y-128351000D01*
X129967000Y-128353000D01*
X129968000Y-128355000D01*
X129970000Y-128357000D01*
X129971000Y-128360000D01*
X129972000Y-128362000D01*
X129973000Y-128365000D01*
X129973000Y-128367000D01*
X129974000Y-128370000D01*
X129974000Y-128372000D01*
X129975000Y-128375000D01*
X129975000Y-128377000D01*
X129975000Y-128380000D01*
X129975000Y-128540000D01*
X129975000Y-128542000D01*
X129974000Y-128544000D01*
X129974000Y-128547000D01*
X129973000Y-128549000D01*
X129972000Y-128551000D01*
X129971000Y-128553000D01*
X129970000Y-128556000D01*
X129969000Y-128558000D01*
X129968000Y-128560000D01*
X129967000Y-128562000D01*
X129965000Y-128563000D01*
X129964000Y-128565000D01*
X129962000Y-128567000D01*
X129960000Y-128569000D01*
X129958000Y-128570000D01*
X129957000Y-128572000D01*
X129955000Y-128573000D01*
X129953000Y-128574000D01*
X129951000Y-128575000D01*
X129948000Y-128576000D01*
X129946000Y-128577000D01*
X129944000Y-128578000D01*
X129942000Y-128579000D01*
X129939000Y-128579000D01*
X129937000Y-128580000D01*
X129935000Y-128580000D01*
X129932000Y-128580000D01*
X129930000Y-128580000D01*
X129928000Y-128580000D01*
X129925000Y-128580000D01*
X129275000Y-128580000D01*
X129272000Y-128580000D01*
X129270000Y-128580000D01*
X129268000Y-128580000D01*
X129265000Y-128580000D01*
X129263000Y-128580000D01*
X129261000Y-128579000D01*
X129258000Y-128579000D01*
X129256000Y-128578000D01*
X129254000Y-128577000D01*
X129252000Y-128576000D01*
X129249000Y-128575000D01*
X129247000Y-128574000D01*
X129245000Y-128573000D01*
X129243000Y-128572000D01*
X129242000Y-128570000D01*
X129240000Y-128569000D01*
X129238000Y-128567000D01*
X129236000Y-128565000D01*
X129235000Y-128563000D01*
X129233000Y-128562000D01*
X129232000Y-128560000D01*
X129231000Y-128558000D01*
X129230000Y-128556000D01*
X129229000Y-128553000D01*
X129228000Y-128551000D01*
X129227000Y-128549000D01*
X129226000Y-128547000D01*
X129226000Y-128544000D01*
X129225000Y-128542000D01*
X129225000Y-128540000D01*
X129225000Y-128380000D01*
X129225000Y-128377000D01*
X129225000Y-128375000D01*
X129226000Y-128372000D01*
X129226000Y-128370000D01*
X129227000Y-128367000D01*
X129227000Y-128365000D01*
X129228000Y-128362000D01*
X129229000Y-128360000D01*
X129230000Y-128357000D01*
X129232000Y-128355000D01*
X129233000Y-128353000D01*
X129235000Y-128351000D01*
X129236000Y-128349000D01*
X129238000Y-128347000D01*
X129240000Y-128345000D01*
X129242000Y-128343000D01*
X129244000Y-128341000D01*
X129246000Y-128340000D01*
X129248000Y-128338000D01*
X129250000Y-128337000D01*
X129252000Y-128335000D01*
X129255000Y-128334000D01*
X129257000Y-128333000D01*
X129260000Y-128332000D01*
X129262000Y-128332000D01*
X129265000Y-128331000D01*
X129267000Y-128331000D01*
X129270000Y-128330000D01*
X129272000Y-128330000D01*
X129275000Y-128330000D01*
X129925000Y-128330000D01*
X129928000Y-128330000D01*
X129930000Y-128330000D01*
X129933000Y-128331000D01*
G36*
X129933000Y-128331000D02*
G01*
X129935000Y-128331000D01*
X129938000Y-128332000D01*
X129940000Y-128332000D01*
X129943000Y-128333000D01*
X129945000Y-128334000D01*
X129948000Y-128335000D01*
X129950000Y-128337000D01*
X129952000Y-128338000D01*
X129954000Y-128340000D01*
X129956000Y-128341000D01*
X129958000Y-128343000D01*
X129960000Y-128345000D01*
X129962000Y-128347000D01*
X129964000Y-128349000D01*
X129965000Y-128351000D01*
X129967000Y-128353000D01*
X129968000Y-128355000D01*
X129970000Y-128357000D01*
X129971000Y-128360000D01*
X129972000Y-128362000D01*
X129973000Y-128365000D01*
X129973000Y-128367000D01*
X129974000Y-128370000D01*
X129974000Y-128372000D01*
X129975000Y-128375000D01*
X129975000Y-128377000D01*
X129975000Y-128380000D01*
X129975000Y-128540000D01*
X129975000Y-128542000D01*
X129974000Y-128544000D01*
X129974000Y-128547000D01*
X129973000Y-128549000D01*
X129972000Y-128551000D01*
X129971000Y-128553000D01*
X129970000Y-128556000D01*
X129969000Y-128558000D01*
X129968000Y-128560000D01*
X129967000Y-128562000D01*
X129965000Y-128563000D01*
X129964000Y-128565000D01*
X129962000Y-128567000D01*
X129960000Y-128569000D01*
X129958000Y-128570000D01*
X129957000Y-128572000D01*
X129955000Y-128573000D01*
X129953000Y-128574000D01*
X129951000Y-128575000D01*
X129948000Y-128576000D01*
X129946000Y-128577000D01*
X129944000Y-128578000D01*
X129942000Y-128579000D01*
X129939000Y-128579000D01*
X129937000Y-128580000D01*
X129935000Y-128580000D01*
X129932000Y-128580000D01*
X129930000Y-128580000D01*
X129928000Y-128580000D01*
X129925000Y-128580000D01*
X129275000Y-128580000D01*
X129272000Y-128580000D01*
X129270000Y-128580000D01*
X129268000Y-128580000D01*
X129265000Y-128580000D01*
X129263000Y-128580000D01*
X129261000Y-128579000D01*
X129258000Y-128579000D01*
X129256000Y-128578000D01*
X129254000Y-128577000D01*
X129252000Y-128576000D01*
X129249000Y-128575000D01*
X129247000Y-128574000D01*
X129245000Y-128573000D01*
X129243000Y-128572000D01*
X129242000Y-128570000D01*
X129240000Y-128569000D01*
X129238000Y-128567000D01*
X129236000Y-128565000D01*
X129235000Y-128563000D01*
X129233000Y-128562000D01*
X129232000Y-128560000D01*
X129231000Y-128558000D01*
X129230000Y-128556000D01*
X129229000Y-128553000D01*
X129228000Y-128551000D01*
X129227000Y-128549000D01*
X129226000Y-128547000D01*
X129226000Y-128544000D01*
X129225000Y-128542000D01*
X129225000Y-128540000D01*
X129225000Y-128380000D01*
X129225000Y-128377000D01*
X129225000Y-128375000D01*
X129226000Y-128372000D01*
X129226000Y-128370000D01*
X129227000Y-128367000D01*
X129227000Y-128365000D01*
X129228000Y-128362000D01*
X129229000Y-128360000D01*
X129230000Y-128357000D01*
X129232000Y-128355000D01*
X129233000Y-128353000D01*
X129235000Y-128351000D01*
X129236000Y-128349000D01*
X129238000Y-128347000D01*
X129240000Y-128345000D01*
X129242000Y-128343000D01*
X129244000Y-128341000D01*
X129246000Y-128340000D01*
X129248000Y-128338000D01*
X129250000Y-128337000D01*
X129252000Y-128335000D01*
X129255000Y-128334000D01*
X129257000Y-128333000D01*
X129260000Y-128332000D01*
X129262000Y-128332000D01*
X129265000Y-128331000D01*
X129267000Y-128331000D01*
X129270000Y-128330000D01*
X129272000Y-128330000D01*
X129275000Y-128330000D01*
X129925000Y-128330000D01*
X129928000Y-128330000D01*
X129930000Y-128330000D01*
X129933000Y-128331000D01*
G37*
X130483000Y-127676000D02*
X130485000Y-127676000D01*
X130488000Y-127677000D01*
X130490000Y-127677000D01*
X130493000Y-127678000D01*
X130495000Y-127679000D01*
X130498000Y-127680000D01*
X130500000Y-127682000D01*
X130502000Y-127683000D01*
X130504000Y-127685000D01*
X130506000Y-127686000D01*
X130508000Y-127688000D01*
X130510000Y-127690000D01*
X130512000Y-127692000D01*
X130514000Y-127694000D01*
X130515000Y-127696000D01*
X130517000Y-127698000D01*
X130518000Y-127700000D01*
X130520000Y-127702000D01*
X130521000Y-127705000D01*
X130522000Y-127707000D01*
X130523000Y-127710000D01*
X130523000Y-127712000D01*
X130524000Y-127715000D01*
X130524000Y-127717000D01*
X130525000Y-127720000D01*
X130525000Y-127722000D01*
X130525000Y-127725000D01*
X130525000Y-128025000D01*
X130525000Y-128028000D01*
X130525000Y-128030000D01*
X130524000Y-128033000D01*
X130524000Y-128035000D01*
X130523000Y-128038000D01*
X130523000Y-128040000D01*
X130522000Y-128043000D01*
X130521000Y-128045000D01*
X130520000Y-128048000D01*
X130518000Y-128050000D01*
X130517000Y-128052000D01*
X130515000Y-128054000D01*
X130514000Y-128056000D01*
X130512000Y-128058000D01*
X130510000Y-128060000D01*
X130508000Y-128062000D01*
X130506000Y-128064000D01*
X130504000Y-128065000D01*
X130502000Y-128067000D01*
X130500000Y-128068000D01*
X130498000Y-128070000D01*
X130495000Y-128071000D01*
X130493000Y-128072000D01*
X130490000Y-128073000D01*
X130488000Y-128073000D01*
X130485000Y-128074000D01*
X130483000Y-128074000D01*
X130480000Y-128075000D01*
X130478000Y-128075000D01*
X130475000Y-128075000D01*
X129625000Y-128075000D01*
X129622000Y-128075000D01*
X129620000Y-128075000D01*
X129617000Y-128074000D01*
X129615000Y-128074000D01*
X129612000Y-128073000D01*
X129610000Y-128073000D01*
X129607000Y-128072000D01*
X129605000Y-128071000D01*
X129602000Y-128070000D01*
X129600000Y-128068000D01*
X129598000Y-128067000D01*
X129596000Y-128065000D01*
X129594000Y-128064000D01*
X129592000Y-128062000D01*
X129590000Y-128060000D01*
X129588000Y-128058000D01*
X129586000Y-128056000D01*
X129585000Y-128054000D01*
X129583000Y-128052000D01*
X129582000Y-128050000D01*
X129580000Y-128048000D01*
X129579000Y-128045000D01*
X129578000Y-128043000D01*
X129577000Y-128040000D01*
X129577000Y-128038000D01*
X129576000Y-128035000D01*
X129576000Y-128033000D01*
X129575000Y-128030000D01*
X129575000Y-128028000D01*
X129575000Y-128025000D01*
X129575000Y-127725000D01*
X129575000Y-127722000D01*
X129575000Y-127720000D01*
X129576000Y-127717000D01*
X129576000Y-127715000D01*
X129577000Y-127712000D01*
X129577000Y-127710000D01*
X129578000Y-127707000D01*
X129579000Y-127705000D01*
X129580000Y-127702000D01*
X129582000Y-127700000D01*
X129583000Y-127698000D01*
X129585000Y-127696000D01*
X129586000Y-127694000D01*
X129588000Y-127692000D01*
X129590000Y-127690000D01*
X129592000Y-127688000D01*
X129594000Y-127686000D01*
X129596000Y-127685000D01*
X129598000Y-127683000D01*
X129600000Y-127682000D01*
X129602000Y-127680000D01*
X129605000Y-127679000D01*
X129607000Y-127678000D01*
X129610000Y-127677000D01*
X129612000Y-127677000D01*
X129615000Y-127676000D01*
X129617000Y-127676000D01*
X129620000Y-127675000D01*
X129622000Y-127675000D01*
X129625000Y-127675000D01*
X130475000Y-127675000D01*
X130478000Y-127675000D01*
X130480000Y-127675000D01*
X130483000Y-127676000D01*
G36*
X130483000Y-127676000D02*
G01*
X130485000Y-127676000D01*
X130488000Y-127677000D01*
X130490000Y-127677000D01*
X130493000Y-127678000D01*
X130495000Y-127679000D01*
X130498000Y-127680000D01*
X130500000Y-127682000D01*
X130502000Y-127683000D01*
X130504000Y-127685000D01*
X130506000Y-127686000D01*
X130508000Y-127688000D01*
X130510000Y-127690000D01*
X130512000Y-127692000D01*
X130514000Y-127694000D01*
X130515000Y-127696000D01*
X130517000Y-127698000D01*
X130518000Y-127700000D01*
X130520000Y-127702000D01*
X130521000Y-127705000D01*
X130522000Y-127707000D01*
X130523000Y-127710000D01*
X130523000Y-127712000D01*
X130524000Y-127715000D01*
X130524000Y-127717000D01*
X130525000Y-127720000D01*
X130525000Y-127722000D01*
X130525000Y-127725000D01*
X130525000Y-128025000D01*
X130525000Y-128028000D01*
X130525000Y-128030000D01*
X130524000Y-128033000D01*
X130524000Y-128035000D01*
X130523000Y-128038000D01*
X130523000Y-128040000D01*
X130522000Y-128043000D01*
X130521000Y-128045000D01*
X130520000Y-128048000D01*
X130518000Y-128050000D01*
X130517000Y-128052000D01*
X130515000Y-128054000D01*
X130514000Y-128056000D01*
X130512000Y-128058000D01*
X130510000Y-128060000D01*
X130508000Y-128062000D01*
X130506000Y-128064000D01*
X130504000Y-128065000D01*
X130502000Y-128067000D01*
X130500000Y-128068000D01*
X130498000Y-128070000D01*
X130495000Y-128071000D01*
X130493000Y-128072000D01*
X130490000Y-128073000D01*
X130488000Y-128073000D01*
X130485000Y-128074000D01*
X130483000Y-128074000D01*
X130480000Y-128075000D01*
X130478000Y-128075000D01*
X130475000Y-128075000D01*
X129625000Y-128075000D01*
X129622000Y-128075000D01*
X129620000Y-128075000D01*
X129617000Y-128074000D01*
X129615000Y-128074000D01*
X129612000Y-128073000D01*
X129610000Y-128073000D01*
X129607000Y-128072000D01*
X129605000Y-128071000D01*
X129602000Y-128070000D01*
X129600000Y-128068000D01*
X129598000Y-128067000D01*
X129596000Y-128065000D01*
X129594000Y-128064000D01*
X129592000Y-128062000D01*
X129590000Y-128060000D01*
X129588000Y-128058000D01*
X129586000Y-128056000D01*
X129585000Y-128054000D01*
X129583000Y-128052000D01*
X129582000Y-128050000D01*
X129580000Y-128048000D01*
X129579000Y-128045000D01*
X129578000Y-128043000D01*
X129577000Y-128040000D01*
X129577000Y-128038000D01*
X129576000Y-128035000D01*
X129576000Y-128033000D01*
X129575000Y-128030000D01*
X129575000Y-128028000D01*
X129575000Y-128025000D01*
X129575000Y-127725000D01*
X129575000Y-127722000D01*
X129575000Y-127720000D01*
X129576000Y-127717000D01*
X129576000Y-127715000D01*
X129577000Y-127712000D01*
X129577000Y-127710000D01*
X129578000Y-127707000D01*
X129579000Y-127705000D01*
X129580000Y-127702000D01*
X129582000Y-127700000D01*
X129583000Y-127698000D01*
X129585000Y-127696000D01*
X129586000Y-127694000D01*
X129588000Y-127692000D01*
X129590000Y-127690000D01*
X129592000Y-127688000D01*
X129594000Y-127686000D01*
X129596000Y-127685000D01*
X129598000Y-127683000D01*
X129600000Y-127682000D01*
X129602000Y-127680000D01*
X129605000Y-127679000D01*
X129607000Y-127678000D01*
X129610000Y-127677000D01*
X129612000Y-127677000D01*
X129615000Y-127676000D01*
X129617000Y-127676000D01*
X129620000Y-127675000D01*
X129622000Y-127675000D01*
X129625000Y-127675000D01*
X130475000Y-127675000D01*
X130478000Y-127675000D01*
X130480000Y-127675000D01*
X130483000Y-127676000D01*
G37*
X131633000Y-127676000D02*
X131635000Y-127676000D01*
X131638000Y-127677000D01*
X131640000Y-127677000D01*
X131643000Y-127678000D01*
X131645000Y-127679000D01*
X131648000Y-127680000D01*
X131650000Y-127682000D01*
X131652000Y-127683000D01*
X131654000Y-127685000D01*
X131656000Y-127686000D01*
X131658000Y-127688000D01*
X131660000Y-127690000D01*
X131662000Y-127692000D01*
X131664000Y-127694000D01*
X131665000Y-127696000D01*
X131667000Y-127698000D01*
X131668000Y-127700000D01*
X131670000Y-127702000D01*
X131671000Y-127705000D01*
X131672000Y-127707000D01*
X131673000Y-127710000D01*
X131673000Y-127712000D01*
X131674000Y-127715000D01*
X131674000Y-127717000D01*
X131675000Y-127720000D01*
X131675000Y-127722000D01*
X131675000Y-127725000D01*
X131675000Y-128025000D01*
X131675000Y-128028000D01*
X131675000Y-128030000D01*
X131674000Y-128033000D01*
X131674000Y-128035000D01*
X131673000Y-128038000D01*
X131673000Y-128040000D01*
X131672000Y-128043000D01*
X131671000Y-128045000D01*
X131670000Y-128048000D01*
X131668000Y-128050000D01*
X131667000Y-128052000D01*
X131665000Y-128054000D01*
X131664000Y-128056000D01*
X131662000Y-128058000D01*
X131660000Y-128060000D01*
X131658000Y-128062000D01*
X131656000Y-128064000D01*
X131654000Y-128065000D01*
X131652000Y-128067000D01*
X131650000Y-128068000D01*
X131648000Y-128070000D01*
X131645000Y-128071000D01*
X131643000Y-128072000D01*
X131640000Y-128073000D01*
X131638000Y-128073000D01*
X131635000Y-128074000D01*
X131633000Y-128074000D01*
X131630000Y-128075000D01*
X131628000Y-128075000D01*
X131625000Y-128075000D01*
X130775000Y-128075000D01*
X130772000Y-128075000D01*
X130770000Y-128075000D01*
X130767000Y-128074000D01*
X130765000Y-128074000D01*
X130762000Y-128073000D01*
X130760000Y-128073000D01*
X130757000Y-128072000D01*
X130755000Y-128071000D01*
X130752000Y-128070000D01*
X130750000Y-128068000D01*
X130748000Y-128067000D01*
X130746000Y-128065000D01*
X130744000Y-128064000D01*
X130742000Y-128062000D01*
X130740000Y-128060000D01*
X130738000Y-128058000D01*
X130736000Y-128056000D01*
X130735000Y-128054000D01*
X130733000Y-128052000D01*
X130732000Y-128050000D01*
X130730000Y-128048000D01*
X130729000Y-128045000D01*
X130728000Y-128043000D01*
X130727000Y-128040000D01*
X130727000Y-128038000D01*
X130726000Y-128035000D01*
X130726000Y-128033000D01*
X130725000Y-128030000D01*
X130725000Y-128028000D01*
X130725000Y-128025000D01*
X130725000Y-127725000D01*
X130725000Y-127722000D01*
X130725000Y-127720000D01*
X130726000Y-127717000D01*
X130726000Y-127715000D01*
X130727000Y-127712000D01*
X130727000Y-127710000D01*
X130728000Y-127707000D01*
X130729000Y-127705000D01*
X130730000Y-127702000D01*
X130732000Y-127700000D01*
X130733000Y-127698000D01*
X130735000Y-127696000D01*
X130736000Y-127694000D01*
X130738000Y-127692000D01*
X130740000Y-127690000D01*
X130742000Y-127688000D01*
X130744000Y-127686000D01*
X130746000Y-127685000D01*
X130748000Y-127683000D01*
X130750000Y-127682000D01*
X130752000Y-127680000D01*
X130755000Y-127679000D01*
X130757000Y-127678000D01*
X130760000Y-127677000D01*
X130762000Y-127677000D01*
X130765000Y-127676000D01*
X130767000Y-127676000D01*
X130770000Y-127675000D01*
X130772000Y-127675000D01*
X130775000Y-127675000D01*
X131625000Y-127675000D01*
X131628000Y-127675000D01*
X131630000Y-127675000D01*
X131633000Y-127676000D01*
G36*
X131633000Y-127676000D02*
G01*
X131635000Y-127676000D01*
X131638000Y-127677000D01*
X131640000Y-127677000D01*
X131643000Y-127678000D01*
X131645000Y-127679000D01*
X131648000Y-127680000D01*
X131650000Y-127682000D01*
X131652000Y-127683000D01*
X131654000Y-127685000D01*
X131656000Y-127686000D01*
X131658000Y-127688000D01*
X131660000Y-127690000D01*
X131662000Y-127692000D01*
X131664000Y-127694000D01*
X131665000Y-127696000D01*
X131667000Y-127698000D01*
X131668000Y-127700000D01*
X131670000Y-127702000D01*
X131671000Y-127705000D01*
X131672000Y-127707000D01*
X131673000Y-127710000D01*
X131673000Y-127712000D01*
X131674000Y-127715000D01*
X131674000Y-127717000D01*
X131675000Y-127720000D01*
X131675000Y-127722000D01*
X131675000Y-127725000D01*
X131675000Y-128025000D01*
X131675000Y-128028000D01*
X131675000Y-128030000D01*
X131674000Y-128033000D01*
X131674000Y-128035000D01*
X131673000Y-128038000D01*
X131673000Y-128040000D01*
X131672000Y-128043000D01*
X131671000Y-128045000D01*
X131670000Y-128048000D01*
X131668000Y-128050000D01*
X131667000Y-128052000D01*
X131665000Y-128054000D01*
X131664000Y-128056000D01*
X131662000Y-128058000D01*
X131660000Y-128060000D01*
X131658000Y-128062000D01*
X131656000Y-128064000D01*
X131654000Y-128065000D01*
X131652000Y-128067000D01*
X131650000Y-128068000D01*
X131648000Y-128070000D01*
X131645000Y-128071000D01*
X131643000Y-128072000D01*
X131640000Y-128073000D01*
X131638000Y-128073000D01*
X131635000Y-128074000D01*
X131633000Y-128074000D01*
X131630000Y-128075000D01*
X131628000Y-128075000D01*
X131625000Y-128075000D01*
X130775000Y-128075000D01*
X130772000Y-128075000D01*
X130770000Y-128075000D01*
X130767000Y-128074000D01*
X130765000Y-128074000D01*
X130762000Y-128073000D01*
X130760000Y-128073000D01*
X130757000Y-128072000D01*
X130755000Y-128071000D01*
X130752000Y-128070000D01*
X130750000Y-128068000D01*
X130748000Y-128067000D01*
X130746000Y-128065000D01*
X130744000Y-128064000D01*
X130742000Y-128062000D01*
X130740000Y-128060000D01*
X130738000Y-128058000D01*
X130736000Y-128056000D01*
X130735000Y-128054000D01*
X130733000Y-128052000D01*
X130732000Y-128050000D01*
X130730000Y-128048000D01*
X130729000Y-128045000D01*
X130728000Y-128043000D01*
X130727000Y-128040000D01*
X130727000Y-128038000D01*
X130726000Y-128035000D01*
X130726000Y-128033000D01*
X130725000Y-128030000D01*
X130725000Y-128028000D01*
X130725000Y-128025000D01*
X130725000Y-127725000D01*
X130725000Y-127722000D01*
X130725000Y-127720000D01*
X130726000Y-127717000D01*
X130726000Y-127715000D01*
X130727000Y-127712000D01*
X130727000Y-127710000D01*
X130728000Y-127707000D01*
X130729000Y-127705000D01*
X130730000Y-127702000D01*
X130732000Y-127700000D01*
X130733000Y-127698000D01*
X130735000Y-127696000D01*
X130736000Y-127694000D01*
X130738000Y-127692000D01*
X130740000Y-127690000D01*
X130742000Y-127688000D01*
X130744000Y-127686000D01*
X130746000Y-127685000D01*
X130748000Y-127683000D01*
X130750000Y-127682000D01*
X130752000Y-127680000D01*
X130755000Y-127679000D01*
X130757000Y-127678000D01*
X130760000Y-127677000D01*
X130762000Y-127677000D01*
X130765000Y-127676000D01*
X130767000Y-127676000D01*
X130770000Y-127675000D01*
X130772000Y-127675000D01*
X130775000Y-127675000D01*
X131625000Y-127675000D01*
X131628000Y-127675000D01*
X131630000Y-127675000D01*
X131633000Y-127676000D01*
G37*
X131633000Y-128836000D02*
X131635000Y-128836000D01*
X131638000Y-128837000D01*
X131640000Y-128837000D01*
X131643000Y-128838000D01*
X131645000Y-128839000D01*
X131648000Y-128840000D01*
X131650000Y-128842000D01*
X131652000Y-128843000D01*
X131654000Y-128845000D01*
X131656000Y-128846000D01*
X131658000Y-128848000D01*
X131660000Y-128850000D01*
X131662000Y-128852000D01*
X131664000Y-128854000D01*
X131665000Y-128856000D01*
X131667000Y-128858000D01*
X131668000Y-128860000D01*
X131670000Y-128862000D01*
X131671000Y-128865000D01*
X131672000Y-128867000D01*
X131673000Y-128870000D01*
X131673000Y-128872000D01*
X131674000Y-128875000D01*
X131674000Y-128877000D01*
X131675000Y-128880000D01*
X131675000Y-128882000D01*
X131675000Y-128885000D01*
X131675000Y-129185000D01*
X131675000Y-129188000D01*
X131675000Y-129190000D01*
X131674000Y-129193000D01*
X131674000Y-129195000D01*
X131673000Y-129198000D01*
X131673000Y-129200000D01*
X131672000Y-129203000D01*
X131671000Y-129205000D01*
X131670000Y-129208000D01*
X131668000Y-129210000D01*
X131667000Y-129212000D01*
X131665000Y-129214000D01*
X131664000Y-129216000D01*
X131662000Y-129218000D01*
X131660000Y-129220000D01*
X131658000Y-129222000D01*
X131656000Y-129224000D01*
X131654000Y-129225000D01*
X131652000Y-129227000D01*
X131650000Y-129228000D01*
X131648000Y-129230000D01*
X131645000Y-129231000D01*
X131643000Y-129232000D01*
X131640000Y-129233000D01*
X131638000Y-129233000D01*
X131635000Y-129234000D01*
X131633000Y-129234000D01*
X131630000Y-129235000D01*
X131628000Y-129235000D01*
X131625000Y-129235000D01*
X130850000Y-129235000D01*
X130850000Y-129745000D01*
X130850000Y-129748000D01*
X130850000Y-129750000D01*
X130849000Y-129753000D01*
X130849000Y-129755000D01*
X130848000Y-129758000D01*
X130848000Y-129760000D01*
X130847000Y-129763000D01*
X130846000Y-129765000D01*
X130845000Y-129768000D01*
X130843000Y-129770000D01*
X130842000Y-129772000D01*
X130840000Y-129774000D01*
X130839000Y-129776000D01*
X130837000Y-129778000D01*
X130835000Y-129780000D01*
X130833000Y-129782000D01*
X130831000Y-129784000D01*
X130829000Y-129785000D01*
X130827000Y-129787000D01*
X130825000Y-129788000D01*
X130823000Y-129790000D01*
X130820000Y-129791000D01*
X130818000Y-129792000D01*
X130815000Y-129793000D01*
X130813000Y-129793000D01*
X130810000Y-129794000D01*
X130808000Y-129794000D01*
X130805000Y-129795000D01*
X130803000Y-129795000D01*
X130800000Y-129795000D01*
X130650000Y-129795000D01*
X130647000Y-129795000D01*
X130645000Y-129795000D01*
X130642000Y-129794000D01*
X130640000Y-129794000D01*
X130637000Y-129793000D01*
X130635000Y-129793000D01*
X130632000Y-129792000D01*
X130630000Y-129791000D01*
X130627000Y-129790000D01*
X130625000Y-129788000D01*
X130623000Y-129787000D01*
X130621000Y-129785000D01*
X130619000Y-129784000D01*
X130617000Y-129782000D01*
X130615000Y-129780000D01*
X130613000Y-129778000D01*
X130611000Y-129776000D01*
X130610000Y-129774000D01*
X130608000Y-129772000D01*
X130607000Y-129770000D01*
X130605000Y-129768000D01*
X130604000Y-129765000D01*
X130603000Y-129763000D01*
X130602000Y-129760000D01*
X130602000Y-129758000D01*
X130601000Y-129755000D01*
X130601000Y-129753000D01*
X130600000Y-129750000D01*
X130600000Y-129748000D01*
X130600000Y-129745000D01*
X130600000Y-129235000D01*
X130350000Y-129235000D01*
X130350000Y-129745000D01*
X130350000Y-129748000D01*
X130350000Y-129750000D01*
X130349000Y-129753000D01*
X130349000Y-129755000D01*
X130348000Y-129758000D01*
X130348000Y-129760000D01*
X130347000Y-129763000D01*
X130346000Y-129765000D01*
X130345000Y-129768000D01*
X130343000Y-129770000D01*
X130342000Y-129772000D01*
X130340000Y-129774000D01*
X130339000Y-129776000D01*
X130337000Y-129778000D01*
X130335000Y-129780000D01*
X130333000Y-129782000D01*
X130331000Y-129784000D01*
X130329000Y-129785000D01*
X130327000Y-129787000D01*
X130325000Y-129788000D01*
X130323000Y-129790000D01*
X130320000Y-129791000D01*
X130318000Y-129792000D01*
X130315000Y-129793000D01*
X130313000Y-129793000D01*
X130310000Y-129794000D01*
X130308000Y-129794000D01*
X130305000Y-129795000D01*
X130303000Y-129795000D01*
X130300000Y-129795000D01*
X130150000Y-129795000D01*
X130147000Y-129795000D01*
X130145000Y-129795000D01*
X130142000Y-129794000D01*
X130140000Y-129794000D01*
X130137000Y-129793000D01*
X130135000Y-129793000D01*
X130132000Y-129792000D01*
X130130000Y-129791000D01*
X130127000Y-129790000D01*
X130125000Y-129788000D01*
X130123000Y-129787000D01*
X130121000Y-129785000D01*
X130119000Y-129784000D01*
X130117000Y-129782000D01*
X130115000Y-129780000D01*
X130113000Y-129778000D01*
X130111000Y-129776000D01*
X130110000Y-129774000D01*
X130108000Y-129772000D01*
X130107000Y-129770000D01*
X130105000Y-129768000D01*
X130104000Y-129765000D01*
X130103000Y-129763000D01*
X130102000Y-129760000D01*
X130102000Y-129758000D01*
X130101000Y-129755000D01*
X130101000Y-129753000D01*
X130100000Y-129750000D01*
X130100000Y-129748000D01*
X130100000Y-129745000D01*
X130100000Y-129235000D01*
X129850000Y-129235000D01*
X129850000Y-129745000D01*
X129849000Y-129748000D01*
X129848000Y-129751000D01*
X129847000Y-129754000D01*
X129846000Y-129757000D01*
X129845000Y-129760000D01*
X129843000Y-129763000D01*
X129842000Y-129766000D01*
X129840000Y-129769000D01*
X129838000Y-129772000D01*
X129836000Y-129774000D01*
X129833000Y-129777000D01*
X129831000Y-129779000D01*
X129828000Y-129781000D01*
X129826000Y-129783000D01*
X129823000Y-129785000D01*
X129820000Y-129787000D01*
X129817000Y-129789000D01*
X129814000Y-129790000D01*
X129811000Y-129792000D01*
X129808000Y-129793000D01*
X129805000Y-129794000D01*
X129802000Y-129795000D01*
X129799000Y-129795000D01*
X129795000Y-129796000D01*
X129792000Y-129796000D01*
X129789000Y-129796000D01*
X129785000Y-129796000D01*
X129782000Y-129796000D01*
X129779000Y-129796000D01*
X129775000Y-129795000D01*
X129675000Y-129795000D01*
X129671000Y-129796000D01*
X129668000Y-129796000D01*
X129665000Y-129796000D01*
X129661000Y-129796000D01*
X129658000Y-129796000D01*
X129655000Y-129796000D01*
X129651000Y-129795000D01*
X129648000Y-129795000D01*
X129645000Y-129794000D01*
X129642000Y-129793000D01*
X129639000Y-129792000D01*
X129636000Y-129790000D01*
X129633000Y-129789000D01*
X129630000Y-129787000D01*
X129627000Y-129785000D01*
X129624000Y-129783000D01*
X129622000Y-129781000D01*
X129619000Y-129779000D01*
X129617000Y-129777000D01*
X129614000Y-129774000D01*
X129612000Y-129772000D01*
X129610000Y-129769000D01*
X129608000Y-129766000D01*
X129607000Y-129763000D01*
X129605000Y-129760000D01*
X129604000Y-129757000D01*
X129603000Y-129754000D01*
X129602000Y-129751000D01*
X129601000Y-129748000D01*
X129600000Y-129745000D01*
X129600000Y-129235000D01*
X129575000Y-129235000D01*
X129575000Y-128885000D01*
X129575000Y-128882000D01*
X129575000Y-128880000D01*
X129576000Y-128877000D01*
X129576000Y-128875000D01*
X129577000Y-128872000D01*
X129577000Y-128870000D01*
X129578000Y-128867000D01*
X129579000Y-128865000D01*
X129580000Y-128862000D01*
X129582000Y-128860000D01*
X129583000Y-128858000D01*
X129585000Y-128856000D01*
X129586000Y-128854000D01*
X129588000Y-128852000D01*
X129590000Y-128850000D01*
X129592000Y-128848000D01*
X129594000Y-128846000D01*
X129596000Y-128845000D01*
X129598000Y-128843000D01*
X129600000Y-128842000D01*
X129602000Y-128840000D01*
X129605000Y-128839000D01*
X129607000Y-128838000D01*
X129610000Y-128837000D01*
X129612000Y-128837000D01*
X129615000Y-128836000D01*
X129617000Y-128836000D01*
X129620000Y-128835000D01*
X129622000Y-128835000D01*
X129625000Y-128835000D01*
X131625000Y-128835000D01*
X131628000Y-128835000D01*
X131630000Y-128835000D01*
X131633000Y-128836000D01*
G36*
X131633000Y-128836000D02*
G01*
X131635000Y-128836000D01*
X131638000Y-128837000D01*
X131640000Y-128837000D01*
X131643000Y-128838000D01*
X131645000Y-128839000D01*
X131648000Y-128840000D01*
X131650000Y-128842000D01*
X131652000Y-128843000D01*
X131654000Y-128845000D01*
X131656000Y-128846000D01*
X131658000Y-128848000D01*
X131660000Y-128850000D01*
X131662000Y-128852000D01*
X131664000Y-128854000D01*
X131665000Y-128856000D01*
X131667000Y-128858000D01*
X131668000Y-128860000D01*
X131670000Y-128862000D01*
X131671000Y-128865000D01*
X131672000Y-128867000D01*
X131673000Y-128870000D01*
X131673000Y-128872000D01*
X131674000Y-128875000D01*
X131674000Y-128877000D01*
X131675000Y-128880000D01*
X131675000Y-128882000D01*
X131675000Y-128885000D01*
X131675000Y-129185000D01*
X131675000Y-129188000D01*
X131675000Y-129190000D01*
X131674000Y-129193000D01*
X131674000Y-129195000D01*
X131673000Y-129198000D01*
X131673000Y-129200000D01*
X131672000Y-129203000D01*
X131671000Y-129205000D01*
X131670000Y-129208000D01*
X131668000Y-129210000D01*
X131667000Y-129212000D01*
X131665000Y-129214000D01*
X131664000Y-129216000D01*
X131662000Y-129218000D01*
X131660000Y-129220000D01*
X131658000Y-129222000D01*
X131656000Y-129224000D01*
X131654000Y-129225000D01*
X131652000Y-129227000D01*
X131650000Y-129228000D01*
X131648000Y-129230000D01*
X131645000Y-129231000D01*
X131643000Y-129232000D01*
X131640000Y-129233000D01*
X131638000Y-129233000D01*
X131635000Y-129234000D01*
X131633000Y-129234000D01*
X131630000Y-129235000D01*
X131628000Y-129235000D01*
X131625000Y-129235000D01*
X130850000Y-129235000D01*
X130850000Y-129745000D01*
X130850000Y-129748000D01*
X130850000Y-129750000D01*
X130849000Y-129753000D01*
X130849000Y-129755000D01*
X130848000Y-129758000D01*
X130848000Y-129760000D01*
X130847000Y-129763000D01*
X130846000Y-129765000D01*
X130845000Y-129768000D01*
X130843000Y-129770000D01*
X130842000Y-129772000D01*
X130840000Y-129774000D01*
X130839000Y-129776000D01*
X130837000Y-129778000D01*
X130835000Y-129780000D01*
X130833000Y-129782000D01*
X130831000Y-129784000D01*
X130829000Y-129785000D01*
X130827000Y-129787000D01*
X130825000Y-129788000D01*
X130823000Y-129790000D01*
X130820000Y-129791000D01*
X130818000Y-129792000D01*
X130815000Y-129793000D01*
X130813000Y-129793000D01*
X130810000Y-129794000D01*
X130808000Y-129794000D01*
X130805000Y-129795000D01*
X130803000Y-129795000D01*
X130800000Y-129795000D01*
X130650000Y-129795000D01*
X130647000Y-129795000D01*
X130645000Y-129795000D01*
X130642000Y-129794000D01*
X130640000Y-129794000D01*
X130637000Y-129793000D01*
X130635000Y-129793000D01*
X130632000Y-129792000D01*
X130630000Y-129791000D01*
X130627000Y-129790000D01*
X130625000Y-129788000D01*
X130623000Y-129787000D01*
X130621000Y-129785000D01*
X130619000Y-129784000D01*
X130617000Y-129782000D01*
X130615000Y-129780000D01*
X130613000Y-129778000D01*
X130611000Y-129776000D01*
X130610000Y-129774000D01*
X130608000Y-129772000D01*
X130607000Y-129770000D01*
X130605000Y-129768000D01*
X130604000Y-129765000D01*
X130603000Y-129763000D01*
X130602000Y-129760000D01*
X130602000Y-129758000D01*
X130601000Y-129755000D01*
X130601000Y-129753000D01*
X130600000Y-129750000D01*
X130600000Y-129748000D01*
X130600000Y-129745000D01*
X130600000Y-129235000D01*
X130350000Y-129235000D01*
X130350000Y-129745000D01*
X130350000Y-129748000D01*
X130350000Y-129750000D01*
X130349000Y-129753000D01*
X130349000Y-129755000D01*
X130348000Y-129758000D01*
X130348000Y-129760000D01*
X130347000Y-129763000D01*
X130346000Y-129765000D01*
X130345000Y-129768000D01*
X130343000Y-129770000D01*
X130342000Y-129772000D01*
X130340000Y-129774000D01*
X130339000Y-129776000D01*
X130337000Y-129778000D01*
X130335000Y-129780000D01*
X130333000Y-129782000D01*
X130331000Y-129784000D01*
X130329000Y-129785000D01*
X130327000Y-129787000D01*
X130325000Y-129788000D01*
X130323000Y-129790000D01*
X130320000Y-129791000D01*
X130318000Y-129792000D01*
X130315000Y-129793000D01*
X130313000Y-129793000D01*
X130310000Y-129794000D01*
X130308000Y-129794000D01*
X130305000Y-129795000D01*
X130303000Y-129795000D01*
X130300000Y-129795000D01*
X130150000Y-129795000D01*
X130147000Y-129795000D01*
X130145000Y-129795000D01*
X130142000Y-129794000D01*
X130140000Y-129794000D01*
X130137000Y-129793000D01*
X130135000Y-129793000D01*
X130132000Y-129792000D01*
X130130000Y-129791000D01*
X130127000Y-129790000D01*
X130125000Y-129788000D01*
X130123000Y-129787000D01*
X130121000Y-129785000D01*
X130119000Y-129784000D01*
X130117000Y-129782000D01*
X130115000Y-129780000D01*
X130113000Y-129778000D01*
X130111000Y-129776000D01*
X130110000Y-129774000D01*
X130108000Y-129772000D01*
X130107000Y-129770000D01*
X130105000Y-129768000D01*
X130104000Y-129765000D01*
X130103000Y-129763000D01*
X130102000Y-129760000D01*
X130102000Y-129758000D01*
X130101000Y-129755000D01*
X130101000Y-129753000D01*
X130100000Y-129750000D01*
X130100000Y-129748000D01*
X130100000Y-129745000D01*
X130100000Y-129235000D01*
X129850000Y-129235000D01*
X129850000Y-129745000D01*
X129849000Y-129748000D01*
X129848000Y-129751000D01*
X129847000Y-129754000D01*
X129846000Y-129757000D01*
X129845000Y-129760000D01*
X129843000Y-129763000D01*
X129842000Y-129766000D01*
X129840000Y-129769000D01*
X129838000Y-129772000D01*
X129836000Y-129774000D01*
X129833000Y-129777000D01*
X129831000Y-129779000D01*
X129828000Y-129781000D01*
X129826000Y-129783000D01*
X129823000Y-129785000D01*
X129820000Y-129787000D01*
X129817000Y-129789000D01*
X129814000Y-129790000D01*
X129811000Y-129792000D01*
X129808000Y-129793000D01*
X129805000Y-129794000D01*
X129802000Y-129795000D01*
X129799000Y-129795000D01*
X129795000Y-129796000D01*
X129792000Y-129796000D01*
X129789000Y-129796000D01*
X129785000Y-129796000D01*
X129782000Y-129796000D01*
X129779000Y-129796000D01*
X129775000Y-129795000D01*
X129675000Y-129795000D01*
X129671000Y-129796000D01*
X129668000Y-129796000D01*
X129665000Y-129796000D01*
X129661000Y-129796000D01*
X129658000Y-129796000D01*
X129655000Y-129796000D01*
X129651000Y-129795000D01*
X129648000Y-129795000D01*
X129645000Y-129794000D01*
X129642000Y-129793000D01*
X129639000Y-129792000D01*
X129636000Y-129790000D01*
X129633000Y-129789000D01*
X129630000Y-129787000D01*
X129627000Y-129785000D01*
X129624000Y-129783000D01*
X129622000Y-129781000D01*
X129619000Y-129779000D01*
X129617000Y-129777000D01*
X129614000Y-129774000D01*
X129612000Y-129772000D01*
X129610000Y-129769000D01*
X129608000Y-129766000D01*
X129607000Y-129763000D01*
X129605000Y-129760000D01*
X129604000Y-129757000D01*
X129603000Y-129754000D01*
X129602000Y-129751000D01*
X129601000Y-129748000D01*
X129600000Y-129745000D01*
X129600000Y-129235000D01*
X129575000Y-129235000D01*
X129575000Y-128885000D01*
X129575000Y-128882000D01*
X129575000Y-128880000D01*
X129576000Y-128877000D01*
X129576000Y-128875000D01*
X129577000Y-128872000D01*
X129577000Y-128870000D01*
X129578000Y-128867000D01*
X129579000Y-128865000D01*
X129580000Y-128862000D01*
X129582000Y-128860000D01*
X129583000Y-128858000D01*
X129585000Y-128856000D01*
X129586000Y-128854000D01*
X129588000Y-128852000D01*
X129590000Y-128850000D01*
X129592000Y-128848000D01*
X129594000Y-128846000D01*
X129596000Y-128845000D01*
X129598000Y-128843000D01*
X129600000Y-128842000D01*
X129602000Y-128840000D01*
X129605000Y-128839000D01*
X129607000Y-128838000D01*
X129610000Y-128837000D01*
X129612000Y-128837000D01*
X129615000Y-128836000D01*
X129617000Y-128836000D01*
X129620000Y-128835000D01*
X129622000Y-128835000D01*
X129625000Y-128835000D01*
X131625000Y-128835000D01*
X131628000Y-128835000D01*
X131630000Y-128835000D01*
X131633000Y-128836000D01*
G37*
D10*
%TO.C,U8*%
X109650000Y-121870000D02*
X109050000Y-121870000D01*
X109050000Y-121620000D01*
X109650000Y-121620000D01*
X109650000Y-121870000D01*
G36*
X109650000Y-121870000D02*
G01*
X109050000Y-121870000D01*
X109050000Y-121620000D01*
X109650000Y-121620000D01*
X109650000Y-121870000D01*
G37*
X109650000Y-122370000D02*
X109050000Y-122370000D01*
X109050000Y-122120000D01*
X109650000Y-122120000D01*
X109650000Y-122370000D01*
G36*
X109650000Y-122370000D02*
G01*
X109050000Y-122370000D01*
X109050000Y-122120000D01*
X109650000Y-122120000D01*
X109650000Y-122370000D01*
G37*
X109650000Y-122870000D02*
X109050000Y-122870000D01*
X109050000Y-122620000D01*
X109650000Y-122620000D01*
X109650000Y-122870000D01*
G36*
X109650000Y-122870000D02*
G01*
X109050000Y-122870000D01*
X109050000Y-122620000D01*
X109650000Y-122620000D01*
X109650000Y-122870000D01*
G37*
X109650000Y-123370000D02*
X109050000Y-123370000D01*
X109050000Y-123120000D01*
X109650000Y-123120000D01*
X109650000Y-123370000D01*
G36*
X109650000Y-123370000D02*
G01*
X109050000Y-123370000D01*
X109050000Y-123120000D01*
X109650000Y-123120000D01*
X109650000Y-123370000D01*
G37*
X109650000Y-123870000D02*
X109050000Y-123870000D01*
X109050000Y-123620000D01*
X109650000Y-123620000D01*
X109650000Y-123870000D01*
G36*
X109650000Y-123870000D02*
G01*
X109050000Y-123870000D01*
X109050000Y-123620000D01*
X109650000Y-123620000D01*
X109650000Y-123870000D01*
G37*
X109650000Y-124370000D02*
X109050000Y-124370000D01*
X109050000Y-124120000D01*
X109650000Y-124120000D01*
X109650000Y-124370000D01*
G36*
X109650000Y-124370000D02*
G01*
X109050000Y-124370000D01*
X109050000Y-124120000D01*
X109650000Y-124120000D01*
X109650000Y-124370000D01*
G37*
X110130000Y-121400000D02*
X109880000Y-121400000D01*
X109880000Y-120800000D01*
X110130000Y-120800000D01*
X110130000Y-121400000D01*
G36*
X110130000Y-121400000D02*
G01*
X109880000Y-121400000D01*
X109880000Y-120800000D01*
X110130000Y-120800000D01*
X110130000Y-121400000D01*
G37*
X110130000Y-125200000D02*
X109880000Y-125200000D01*
X109880000Y-124600000D01*
X110130000Y-124600000D01*
X110130000Y-125200000D01*
G36*
X110130000Y-125200000D02*
G01*
X109880000Y-125200000D01*
X109880000Y-124600000D01*
X110130000Y-124600000D01*
X110130000Y-125200000D01*
G37*
X112230000Y-123980000D02*
X110270000Y-123980000D01*
X110270000Y-122020000D01*
X112230000Y-122020000D01*
X112230000Y-123980000D01*
G36*
X112230000Y-123980000D02*
G01*
X110270000Y-123980000D01*
X110270000Y-122020000D01*
X112230000Y-122020000D01*
X112230000Y-123980000D01*
G37*
X110630000Y-121400000D02*
X110380000Y-121400000D01*
X110380000Y-120800000D01*
X110630000Y-120800000D01*
X110630000Y-121400000D01*
G36*
X110630000Y-121400000D02*
G01*
X110380000Y-121400000D01*
X110380000Y-120800000D01*
X110630000Y-120800000D01*
X110630000Y-121400000D01*
G37*
X110630000Y-125200000D02*
X110380000Y-125200000D01*
X110380000Y-124600000D01*
X110630000Y-124600000D01*
X110630000Y-125200000D01*
G36*
X110630000Y-125200000D02*
G01*
X110380000Y-125200000D01*
X110380000Y-124600000D01*
X110630000Y-124600000D01*
X110630000Y-125200000D01*
G37*
X111130000Y-121400000D02*
X110880000Y-121400000D01*
X110880000Y-120800000D01*
X111130000Y-120800000D01*
X111130000Y-121400000D01*
G36*
X111130000Y-121400000D02*
G01*
X110880000Y-121400000D01*
X110880000Y-120800000D01*
X111130000Y-120800000D01*
X111130000Y-121400000D01*
G37*
X111130000Y-125200000D02*
X110880000Y-125200000D01*
X110880000Y-124600000D01*
X111130000Y-124600000D01*
X111130000Y-125200000D01*
G36*
X111130000Y-125200000D02*
G01*
X110880000Y-125200000D01*
X110880000Y-124600000D01*
X111130000Y-124600000D01*
X111130000Y-125200000D01*
G37*
X111630000Y-121400000D02*
X111380000Y-121400000D01*
X111380000Y-120800000D01*
X111630000Y-120800000D01*
X111630000Y-121400000D01*
G36*
X111630000Y-121400000D02*
G01*
X111380000Y-121400000D01*
X111380000Y-120800000D01*
X111630000Y-120800000D01*
X111630000Y-121400000D01*
G37*
X111630000Y-125200000D02*
X111380000Y-125200000D01*
X111380000Y-124600000D01*
X111630000Y-124600000D01*
X111630000Y-125200000D01*
G36*
X111630000Y-125200000D02*
G01*
X111380000Y-125200000D01*
X111380000Y-124600000D01*
X111630000Y-124600000D01*
X111630000Y-125200000D01*
G37*
X112130000Y-121400000D02*
X111880000Y-121400000D01*
X111880000Y-120800000D01*
X112130000Y-120800000D01*
X112130000Y-121400000D01*
G36*
X112130000Y-121400000D02*
G01*
X111880000Y-121400000D01*
X111880000Y-120800000D01*
X112130000Y-120800000D01*
X112130000Y-121400000D01*
G37*
X112130000Y-125200000D02*
X111880000Y-125200000D01*
X111880000Y-124600000D01*
X112130000Y-124600000D01*
X112130000Y-125200000D01*
G36*
X112130000Y-125200000D02*
G01*
X111880000Y-125200000D01*
X111880000Y-124600000D01*
X112130000Y-124600000D01*
X112130000Y-125200000D01*
G37*
X112630000Y-121400000D02*
X112380000Y-121400000D01*
X112380000Y-120800000D01*
X112630000Y-120800000D01*
X112630000Y-121400000D01*
G36*
X112630000Y-121400000D02*
G01*
X112380000Y-121400000D01*
X112380000Y-120800000D01*
X112630000Y-120800000D01*
X112630000Y-121400000D01*
G37*
X112630000Y-125200000D02*
X112380000Y-125200000D01*
X112380000Y-124600000D01*
X112630000Y-124600000D01*
X112630000Y-125200000D01*
G36*
X112630000Y-125200000D02*
G01*
X112380000Y-125200000D01*
X112380000Y-124600000D01*
X112630000Y-124600000D01*
X112630000Y-125200000D01*
G37*
X113450000Y-121870000D02*
X112850000Y-121870000D01*
X112850000Y-121620000D01*
X113450000Y-121620000D01*
X113450000Y-121870000D01*
G36*
X113450000Y-121870000D02*
G01*
X112850000Y-121870000D01*
X112850000Y-121620000D01*
X113450000Y-121620000D01*
X113450000Y-121870000D01*
G37*
X113450000Y-122370000D02*
X112850000Y-122370000D01*
X112850000Y-122120000D01*
X113450000Y-122120000D01*
X113450000Y-122370000D01*
G36*
X113450000Y-122370000D02*
G01*
X112850000Y-122370000D01*
X112850000Y-122120000D01*
X113450000Y-122120000D01*
X113450000Y-122370000D01*
G37*
X113450000Y-122870000D02*
X112850000Y-122870000D01*
X112850000Y-122620000D01*
X113450000Y-122620000D01*
X113450000Y-122870000D01*
G36*
X113450000Y-122870000D02*
G01*
X112850000Y-122870000D01*
X112850000Y-122620000D01*
X113450000Y-122620000D01*
X113450000Y-122870000D01*
G37*
X113450000Y-123370000D02*
X112850000Y-123370000D01*
X112850000Y-123120000D01*
X113450000Y-123120000D01*
X113450000Y-123370000D01*
G36*
X113450000Y-123370000D02*
G01*
X112850000Y-123370000D01*
X112850000Y-123120000D01*
X113450000Y-123120000D01*
X113450000Y-123370000D01*
G37*
X113450000Y-123870000D02*
X112850000Y-123870000D01*
X112850000Y-123620000D01*
X113450000Y-123620000D01*
X113450000Y-123870000D01*
G36*
X113450000Y-123870000D02*
G01*
X112850000Y-123870000D01*
X112850000Y-123620000D01*
X113450000Y-123620000D01*
X113450000Y-123870000D01*
G37*
X113450000Y-124370000D02*
X112850000Y-124370000D01*
X112850000Y-124120000D01*
X113450000Y-124120000D01*
X113450000Y-124370000D01*
G36*
X113450000Y-124370000D02*
G01*
X112850000Y-124370000D01*
X112850000Y-124120000D01*
X113450000Y-124120000D01*
X113450000Y-124370000D01*
G37*
D11*
%TO.C,U4*%
X146163000Y-138901000D02*
X146165000Y-138901000D01*
X146168000Y-138902000D01*
X146170000Y-138902000D01*
X146173000Y-138903000D01*
X146175000Y-138904000D01*
X146178000Y-138905000D01*
X146180000Y-138907000D01*
X146182000Y-138908000D01*
X146184000Y-138910000D01*
X146186000Y-138911000D01*
X146188000Y-138913000D01*
X146190000Y-138915000D01*
X146192000Y-138917000D01*
X146194000Y-138919000D01*
X146195000Y-138921000D01*
X146197000Y-138923000D01*
X146198000Y-138925000D01*
X146200000Y-138927000D01*
X146201000Y-138930000D01*
X146202000Y-138932000D01*
X146203000Y-138935000D01*
X146203000Y-138937000D01*
X146204000Y-138940000D01*
X146204000Y-138942000D01*
X146205000Y-138945000D01*
X146205000Y-138947000D01*
X146205000Y-138950000D01*
X146205000Y-139600000D01*
X146205000Y-139603000D01*
X146205000Y-139605000D01*
X146204000Y-139608000D01*
X146204000Y-139610000D01*
X146203000Y-139613000D01*
X146203000Y-139615000D01*
X146202000Y-139618000D01*
X146201000Y-139620000D01*
X146200000Y-139623000D01*
X146198000Y-139625000D01*
X146197000Y-139627000D01*
X146195000Y-139629000D01*
X146194000Y-139631000D01*
X146192000Y-139633000D01*
X146190000Y-139635000D01*
X146188000Y-139637000D01*
X146186000Y-139639000D01*
X146184000Y-139640000D01*
X146182000Y-139642000D01*
X146180000Y-139643000D01*
X146178000Y-139645000D01*
X146175000Y-139646000D01*
X146173000Y-139647000D01*
X146170000Y-139648000D01*
X146168000Y-139648000D01*
X146165000Y-139649000D01*
X146163000Y-139649000D01*
X146160000Y-139650000D01*
X146158000Y-139650000D01*
X146155000Y-139650000D01*
X145995000Y-139650000D01*
X145993000Y-139650000D01*
X145991000Y-139649000D01*
X145988000Y-139649000D01*
X145986000Y-139648000D01*
X145984000Y-139647000D01*
X145982000Y-139646000D01*
X145979000Y-139645000D01*
X145977000Y-139644000D01*
X145975000Y-139643000D01*
X145973000Y-139642000D01*
X145972000Y-139640000D01*
X145970000Y-139639000D01*
X145968000Y-139637000D01*
X145966000Y-139635000D01*
X145965000Y-139633000D01*
X145963000Y-139632000D01*
X145962000Y-139630000D01*
X145961000Y-139628000D01*
X145960000Y-139626000D01*
X145959000Y-139623000D01*
X145958000Y-139621000D01*
X145957000Y-139619000D01*
X145956000Y-139617000D01*
X145956000Y-139614000D01*
X145955000Y-139612000D01*
X145955000Y-139610000D01*
X145955000Y-139607000D01*
X145955000Y-139605000D01*
X145955000Y-139603000D01*
X145955000Y-139600000D01*
X145955000Y-138950000D01*
X145955000Y-138947000D01*
X145955000Y-138945000D01*
X145955000Y-138943000D01*
X145955000Y-138940000D01*
X145955000Y-138938000D01*
X145956000Y-138936000D01*
X145956000Y-138933000D01*
X145957000Y-138931000D01*
X145958000Y-138929000D01*
X145959000Y-138927000D01*
X145960000Y-138924000D01*
X145961000Y-138922000D01*
X145962000Y-138920000D01*
X145963000Y-138918000D01*
X145965000Y-138917000D01*
X145966000Y-138915000D01*
X145968000Y-138913000D01*
X145970000Y-138911000D01*
X145972000Y-138910000D01*
X145973000Y-138908000D01*
X145975000Y-138907000D01*
X145977000Y-138906000D01*
X145979000Y-138905000D01*
X145982000Y-138904000D01*
X145984000Y-138903000D01*
X145986000Y-138902000D01*
X145988000Y-138901000D01*
X145991000Y-138901000D01*
X145993000Y-138900000D01*
X145995000Y-138900000D01*
X146155000Y-138900000D01*
X146158000Y-138900000D01*
X146160000Y-138900000D01*
X146163000Y-138901000D01*
G36*
X146163000Y-138901000D02*
G01*
X146165000Y-138901000D01*
X146168000Y-138902000D01*
X146170000Y-138902000D01*
X146173000Y-138903000D01*
X146175000Y-138904000D01*
X146178000Y-138905000D01*
X146180000Y-138907000D01*
X146182000Y-138908000D01*
X146184000Y-138910000D01*
X146186000Y-138911000D01*
X146188000Y-138913000D01*
X146190000Y-138915000D01*
X146192000Y-138917000D01*
X146194000Y-138919000D01*
X146195000Y-138921000D01*
X146197000Y-138923000D01*
X146198000Y-138925000D01*
X146200000Y-138927000D01*
X146201000Y-138930000D01*
X146202000Y-138932000D01*
X146203000Y-138935000D01*
X146203000Y-138937000D01*
X146204000Y-138940000D01*
X146204000Y-138942000D01*
X146205000Y-138945000D01*
X146205000Y-138947000D01*
X146205000Y-138950000D01*
X146205000Y-139600000D01*
X146205000Y-139603000D01*
X146205000Y-139605000D01*
X146204000Y-139608000D01*
X146204000Y-139610000D01*
X146203000Y-139613000D01*
X146203000Y-139615000D01*
X146202000Y-139618000D01*
X146201000Y-139620000D01*
X146200000Y-139623000D01*
X146198000Y-139625000D01*
X146197000Y-139627000D01*
X146195000Y-139629000D01*
X146194000Y-139631000D01*
X146192000Y-139633000D01*
X146190000Y-139635000D01*
X146188000Y-139637000D01*
X146186000Y-139639000D01*
X146184000Y-139640000D01*
X146182000Y-139642000D01*
X146180000Y-139643000D01*
X146178000Y-139645000D01*
X146175000Y-139646000D01*
X146173000Y-139647000D01*
X146170000Y-139648000D01*
X146168000Y-139648000D01*
X146165000Y-139649000D01*
X146163000Y-139649000D01*
X146160000Y-139650000D01*
X146158000Y-139650000D01*
X146155000Y-139650000D01*
X145995000Y-139650000D01*
X145993000Y-139650000D01*
X145991000Y-139649000D01*
X145988000Y-139649000D01*
X145986000Y-139648000D01*
X145984000Y-139647000D01*
X145982000Y-139646000D01*
X145979000Y-139645000D01*
X145977000Y-139644000D01*
X145975000Y-139643000D01*
X145973000Y-139642000D01*
X145972000Y-139640000D01*
X145970000Y-139639000D01*
X145968000Y-139637000D01*
X145966000Y-139635000D01*
X145965000Y-139633000D01*
X145963000Y-139632000D01*
X145962000Y-139630000D01*
X145961000Y-139628000D01*
X145960000Y-139626000D01*
X145959000Y-139623000D01*
X145958000Y-139621000D01*
X145957000Y-139619000D01*
X145956000Y-139617000D01*
X145956000Y-139614000D01*
X145955000Y-139612000D01*
X145955000Y-139610000D01*
X145955000Y-139607000D01*
X145955000Y-139605000D01*
X145955000Y-139603000D01*
X145955000Y-139600000D01*
X145955000Y-138950000D01*
X145955000Y-138947000D01*
X145955000Y-138945000D01*
X145955000Y-138943000D01*
X145955000Y-138940000D01*
X145955000Y-138938000D01*
X145956000Y-138936000D01*
X145956000Y-138933000D01*
X145957000Y-138931000D01*
X145958000Y-138929000D01*
X145959000Y-138927000D01*
X145960000Y-138924000D01*
X145961000Y-138922000D01*
X145962000Y-138920000D01*
X145963000Y-138918000D01*
X145965000Y-138917000D01*
X145966000Y-138915000D01*
X145968000Y-138913000D01*
X145970000Y-138911000D01*
X145972000Y-138910000D01*
X145973000Y-138908000D01*
X145975000Y-138907000D01*
X145977000Y-138906000D01*
X145979000Y-138905000D01*
X145982000Y-138904000D01*
X145984000Y-138903000D01*
X145986000Y-138902000D01*
X145988000Y-138901000D01*
X145991000Y-138901000D01*
X145993000Y-138900000D01*
X145995000Y-138900000D01*
X146155000Y-138900000D01*
X146158000Y-138900000D01*
X146160000Y-138900000D01*
X146163000Y-138901000D01*
G37*
X146163000Y-139851000D02*
X146165000Y-139851000D01*
X146168000Y-139852000D01*
X146170000Y-139852000D01*
X146173000Y-139853000D01*
X146175000Y-139854000D01*
X146178000Y-139855000D01*
X146180000Y-139857000D01*
X146182000Y-139858000D01*
X146184000Y-139860000D01*
X146186000Y-139861000D01*
X146188000Y-139863000D01*
X146190000Y-139865000D01*
X146192000Y-139867000D01*
X146194000Y-139869000D01*
X146195000Y-139871000D01*
X146197000Y-139873000D01*
X146198000Y-139875000D01*
X146200000Y-139877000D01*
X146201000Y-139880000D01*
X146202000Y-139882000D01*
X146203000Y-139885000D01*
X146203000Y-139887000D01*
X146204000Y-139890000D01*
X146204000Y-139892000D01*
X146205000Y-139895000D01*
X146205000Y-139897000D01*
X146205000Y-139900000D01*
X146205000Y-140550000D01*
X146205000Y-140553000D01*
X146205000Y-140555000D01*
X146204000Y-140558000D01*
X146204000Y-140560000D01*
X146203000Y-140563000D01*
X146203000Y-140565000D01*
X146202000Y-140568000D01*
X146201000Y-140570000D01*
X146200000Y-140573000D01*
X146198000Y-140575000D01*
X146197000Y-140577000D01*
X146195000Y-140579000D01*
X146194000Y-140581000D01*
X146192000Y-140583000D01*
X146190000Y-140585000D01*
X146188000Y-140587000D01*
X146186000Y-140589000D01*
X146184000Y-140590000D01*
X146182000Y-140592000D01*
X146180000Y-140593000D01*
X146178000Y-140595000D01*
X146175000Y-140596000D01*
X146173000Y-140597000D01*
X146170000Y-140598000D01*
X146168000Y-140598000D01*
X146165000Y-140599000D01*
X146163000Y-140599000D01*
X146160000Y-140600000D01*
X146158000Y-140600000D01*
X146155000Y-140600000D01*
X145995000Y-140600000D01*
X145993000Y-140600000D01*
X145991000Y-140599000D01*
X145988000Y-140599000D01*
X145986000Y-140598000D01*
X145984000Y-140597000D01*
X145982000Y-140596000D01*
X145979000Y-140595000D01*
X145977000Y-140594000D01*
X145975000Y-140593000D01*
X145973000Y-140592000D01*
X145972000Y-140590000D01*
X145970000Y-140589000D01*
X145968000Y-140587000D01*
X145966000Y-140585000D01*
X145965000Y-140583000D01*
X145963000Y-140582000D01*
X145962000Y-140580000D01*
X145961000Y-140578000D01*
X145960000Y-140576000D01*
X145959000Y-140573000D01*
X145958000Y-140571000D01*
X145957000Y-140569000D01*
X145956000Y-140567000D01*
X145956000Y-140564000D01*
X145955000Y-140562000D01*
X145955000Y-140560000D01*
X145955000Y-140557000D01*
X145955000Y-140555000D01*
X145955000Y-140553000D01*
X145955000Y-140550000D01*
X145955000Y-139900000D01*
X145955000Y-139897000D01*
X145955000Y-139895000D01*
X145955000Y-139893000D01*
X145955000Y-139890000D01*
X145955000Y-139888000D01*
X145956000Y-139886000D01*
X145956000Y-139883000D01*
X145957000Y-139881000D01*
X145958000Y-139879000D01*
X145959000Y-139877000D01*
X145960000Y-139874000D01*
X145961000Y-139872000D01*
X145962000Y-139870000D01*
X145963000Y-139868000D01*
X145965000Y-139867000D01*
X145966000Y-139865000D01*
X145968000Y-139863000D01*
X145970000Y-139861000D01*
X145972000Y-139860000D01*
X145973000Y-139858000D01*
X145975000Y-139857000D01*
X145977000Y-139856000D01*
X145979000Y-139855000D01*
X145982000Y-139854000D01*
X145984000Y-139853000D01*
X145986000Y-139852000D01*
X145988000Y-139851000D01*
X145991000Y-139851000D01*
X145993000Y-139850000D01*
X145995000Y-139850000D01*
X146155000Y-139850000D01*
X146158000Y-139850000D01*
X146160000Y-139850000D01*
X146163000Y-139851000D01*
G36*
X146163000Y-139851000D02*
G01*
X146165000Y-139851000D01*
X146168000Y-139852000D01*
X146170000Y-139852000D01*
X146173000Y-139853000D01*
X146175000Y-139854000D01*
X146178000Y-139855000D01*
X146180000Y-139857000D01*
X146182000Y-139858000D01*
X146184000Y-139860000D01*
X146186000Y-139861000D01*
X146188000Y-139863000D01*
X146190000Y-139865000D01*
X146192000Y-139867000D01*
X146194000Y-139869000D01*
X146195000Y-139871000D01*
X146197000Y-139873000D01*
X146198000Y-139875000D01*
X146200000Y-139877000D01*
X146201000Y-139880000D01*
X146202000Y-139882000D01*
X146203000Y-139885000D01*
X146203000Y-139887000D01*
X146204000Y-139890000D01*
X146204000Y-139892000D01*
X146205000Y-139895000D01*
X146205000Y-139897000D01*
X146205000Y-139900000D01*
X146205000Y-140550000D01*
X146205000Y-140553000D01*
X146205000Y-140555000D01*
X146204000Y-140558000D01*
X146204000Y-140560000D01*
X146203000Y-140563000D01*
X146203000Y-140565000D01*
X146202000Y-140568000D01*
X146201000Y-140570000D01*
X146200000Y-140573000D01*
X146198000Y-140575000D01*
X146197000Y-140577000D01*
X146195000Y-140579000D01*
X146194000Y-140581000D01*
X146192000Y-140583000D01*
X146190000Y-140585000D01*
X146188000Y-140587000D01*
X146186000Y-140589000D01*
X146184000Y-140590000D01*
X146182000Y-140592000D01*
X146180000Y-140593000D01*
X146178000Y-140595000D01*
X146175000Y-140596000D01*
X146173000Y-140597000D01*
X146170000Y-140598000D01*
X146168000Y-140598000D01*
X146165000Y-140599000D01*
X146163000Y-140599000D01*
X146160000Y-140600000D01*
X146158000Y-140600000D01*
X146155000Y-140600000D01*
X145995000Y-140600000D01*
X145993000Y-140600000D01*
X145991000Y-140599000D01*
X145988000Y-140599000D01*
X145986000Y-140598000D01*
X145984000Y-140597000D01*
X145982000Y-140596000D01*
X145979000Y-140595000D01*
X145977000Y-140594000D01*
X145975000Y-140593000D01*
X145973000Y-140592000D01*
X145972000Y-140590000D01*
X145970000Y-140589000D01*
X145968000Y-140587000D01*
X145966000Y-140585000D01*
X145965000Y-140583000D01*
X145963000Y-140582000D01*
X145962000Y-140580000D01*
X145961000Y-140578000D01*
X145960000Y-140576000D01*
X145959000Y-140573000D01*
X145958000Y-140571000D01*
X145957000Y-140569000D01*
X145956000Y-140567000D01*
X145956000Y-140564000D01*
X145955000Y-140562000D01*
X145955000Y-140560000D01*
X145955000Y-140557000D01*
X145955000Y-140555000D01*
X145955000Y-140553000D01*
X145955000Y-140550000D01*
X145955000Y-139900000D01*
X145955000Y-139897000D01*
X145955000Y-139895000D01*
X145955000Y-139893000D01*
X145955000Y-139890000D01*
X145955000Y-139888000D01*
X145956000Y-139886000D01*
X145956000Y-139883000D01*
X145957000Y-139881000D01*
X145958000Y-139879000D01*
X145959000Y-139877000D01*
X145960000Y-139874000D01*
X145961000Y-139872000D01*
X145962000Y-139870000D01*
X145963000Y-139868000D01*
X145965000Y-139867000D01*
X145966000Y-139865000D01*
X145968000Y-139863000D01*
X145970000Y-139861000D01*
X145972000Y-139860000D01*
X145973000Y-139858000D01*
X145975000Y-139857000D01*
X145977000Y-139856000D01*
X145979000Y-139855000D01*
X145982000Y-139854000D01*
X145984000Y-139853000D01*
X145986000Y-139852000D01*
X145988000Y-139851000D01*
X145991000Y-139851000D01*
X145993000Y-139850000D01*
X145995000Y-139850000D01*
X146155000Y-139850000D01*
X146158000Y-139850000D01*
X146160000Y-139850000D01*
X146163000Y-139851000D01*
G37*
X146818000Y-140201000D02*
X146820000Y-140201000D01*
X146823000Y-140202000D01*
X146825000Y-140202000D01*
X146828000Y-140203000D01*
X146830000Y-140204000D01*
X146833000Y-140205000D01*
X146835000Y-140207000D01*
X146837000Y-140208000D01*
X146839000Y-140210000D01*
X146841000Y-140211000D01*
X146843000Y-140213000D01*
X146845000Y-140215000D01*
X146847000Y-140217000D01*
X146849000Y-140219000D01*
X146850000Y-140221000D01*
X146852000Y-140223000D01*
X146853000Y-140225000D01*
X146855000Y-140227000D01*
X146856000Y-140230000D01*
X146857000Y-140232000D01*
X146858000Y-140235000D01*
X146858000Y-140237000D01*
X146859000Y-140240000D01*
X146859000Y-140242000D01*
X146860000Y-140245000D01*
X146860000Y-140247000D01*
X146860000Y-140250000D01*
X146860000Y-141100000D01*
X146860000Y-141103000D01*
X146860000Y-141105000D01*
X146859000Y-141108000D01*
X146859000Y-141110000D01*
X146858000Y-141113000D01*
X146858000Y-141115000D01*
X146857000Y-141118000D01*
X146856000Y-141120000D01*
X146855000Y-141123000D01*
X146853000Y-141125000D01*
X146852000Y-141127000D01*
X146850000Y-141129000D01*
X146849000Y-141131000D01*
X146847000Y-141133000D01*
X146845000Y-141135000D01*
X146843000Y-141137000D01*
X146841000Y-141139000D01*
X146839000Y-141140000D01*
X146837000Y-141142000D01*
X146835000Y-141143000D01*
X146833000Y-141145000D01*
X146830000Y-141146000D01*
X146828000Y-141147000D01*
X146825000Y-141148000D01*
X146823000Y-141148000D01*
X146820000Y-141149000D01*
X146818000Y-141149000D01*
X146815000Y-141150000D01*
X146813000Y-141150000D01*
X146810000Y-141150000D01*
X146510000Y-141150000D01*
X146507000Y-141150000D01*
X146505000Y-141150000D01*
X146502000Y-141149000D01*
X146500000Y-141149000D01*
X146497000Y-141148000D01*
X146495000Y-141148000D01*
X146492000Y-141147000D01*
X146490000Y-141146000D01*
X146487000Y-141145000D01*
X146485000Y-141143000D01*
X146483000Y-141142000D01*
X146481000Y-141140000D01*
X146479000Y-141139000D01*
X146477000Y-141137000D01*
X146475000Y-141135000D01*
X146473000Y-141133000D01*
X146471000Y-141131000D01*
X146470000Y-141129000D01*
X146468000Y-141127000D01*
X146467000Y-141125000D01*
X146465000Y-141123000D01*
X146464000Y-141120000D01*
X146463000Y-141118000D01*
X146462000Y-141115000D01*
X146462000Y-141113000D01*
X146461000Y-141110000D01*
X146461000Y-141108000D01*
X146460000Y-141105000D01*
X146460000Y-141103000D01*
X146460000Y-141100000D01*
X146460000Y-140250000D01*
X146460000Y-140247000D01*
X146460000Y-140245000D01*
X146461000Y-140242000D01*
X146461000Y-140240000D01*
X146462000Y-140237000D01*
X146462000Y-140235000D01*
X146463000Y-140232000D01*
X146464000Y-140230000D01*
X146465000Y-140227000D01*
X146467000Y-140225000D01*
X146468000Y-140223000D01*
X146470000Y-140221000D01*
X146471000Y-140219000D01*
X146473000Y-140217000D01*
X146475000Y-140215000D01*
X146477000Y-140213000D01*
X146479000Y-140211000D01*
X146481000Y-140210000D01*
X146483000Y-140208000D01*
X146485000Y-140207000D01*
X146487000Y-140205000D01*
X146490000Y-140204000D01*
X146492000Y-140203000D01*
X146495000Y-140202000D01*
X146497000Y-140202000D01*
X146500000Y-140201000D01*
X146502000Y-140201000D01*
X146505000Y-140200000D01*
X146507000Y-140200000D01*
X146510000Y-140200000D01*
X146810000Y-140200000D01*
X146813000Y-140200000D01*
X146815000Y-140200000D01*
X146818000Y-140201000D01*
G36*
X146818000Y-140201000D02*
G01*
X146820000Y-140201000D01*
X146823000Y-140202000D01*
X146825000Y-140202000D01*
X146828000Y-140203000D01*
X146830000Y-140204000D01*
X146833000Y-140205000D01*
X146835000Y-140207000D01*
X146837000Y-140208000D01*
X146839000Y-140210000D01*
X146841000Y-140211000D01*
X146843000Y-140213000D01*
X146845000Y-140215000D01*
X146847000Y-140217000D01*
X146849000Y-140219000D01*
X146850000Y-140221000D01*
X146852000Y-140223000D01*
X146853000Y-140225000D01*
X146855000Y-140227000D01*
X146856000Y-140230000D01*
X146857000Y-140232000D01*
X146858000Y-140235000D01*
X146858000Y-140237000D01*
X146859000Y-140240000D01*
X146859000Y-140242000D01*
X146860000Y-140245000D01*
X146860000Y-140247000D01*
X146860000Y-140250000D01*
X146860000Y-141100000D01*
X146860000Y-141103000D01*
X146860000Y-141105000D01*
X146859000Y-141108000D01*
X146859000Y-141110000D01*
X146858000Y-141113000D01*
X146858000Y-141115000D01*
X146857000Y-141118000D01*
X146856000Y-141120000D01*
X146855000Y-141123000D01*
X146853000Y-141125000D01*
X146852000Y-141127000D01*
X146850000Y-141129000D01*
X146849000Y-141131000D01*
X146847000Y-141133000D01*
X146845000Y-141135000D01*
X146843000Y-141137000D01*
X146841000Y-141139000D01*
X146839000Y-141140000D01*
X146837000Y-141142000D01*
X146835000Y-141143000D01*
X146833000Y-141145000D01*
X146830000Y-141146000D01*
X146828000Y-141147000D01*
X146825000Y-141148000D01*
X146823000Y-141148000D01*
X146820000Y-141149000D01*
X146818000Y-141149000D01*
X146815000Y-141150000D01*
X146813000Y-141150000D01*
X146810000Y-141150000D01*
X146510000Y-141150000D01*
X146507000Y-141150000D01*
X146505000Y-141150000D01*
X146502000Y-141149000D01*
X146500000Y-141149000D01*
X146497000Y-141148000D01*
X146495000Y-141148000D01*
X146492000Y-141147000D01*
X146490000Y-141146000D01*
X146487000Y-141145000D01*
X146485000Y-141143000D01*
X146483000Y-141142000D01*
X146481000Y-141140000D01*
X146479000Y-141139000D01*
X146477000Y-141137000D01*
X146475000Y-141135000D01*
X146473000Y-141133000D01*
X146471000Y-141131000D01*
X146470000Y-141129000D01*
X146468000Y-141127000D01*
X146467000Y-141125000D01*
X146465000Y-141123000D01*
X146464000Y-141120000D01*
X146463000Y-141118000D01*
X146462000Y-141115000D01*
X146462000Y-141113000D01*
X146461000Y-141110000D01*
X146461000Y-141108000D01*
X146460000Y-141105000D01*
X146460000Y-141103000D01*
X146460000Y-141100000D01*
X146460000Y-140250000D01*
X146460000Y-140247000D01*
X146460000Y-140245000D01*
X146461000Y-140242000D01*
X146461000Y-140240000D01*
X146462000Y-140237000D01*
X146462000Y-140235000D01*
X146463000Y-140232000D01*
X146464000Y-140230000D01*
X146465000Y-140227000D01*
X146467000Y-140225000D01*
X146468000Y-140223000D01*
X146470000Y-140221000D01*
X146471000Y-140219000D01*
X146473000Y-140217000D01*
X146475000Y-140215000D01*
X146477000Y-140213000D01*
X146479000Y-140211000D01*
X146481000Y-140210000D01*
X146483000Y-140208000D01*
X146485000Y-140207000D01*
X146487000Y-140205000D01*
X146490000Y-140204000D01*
X146492000Y-140203000D01*
X146495000Y-140202000D01*
X146497000Y-140202000D01*
X146500000Y-140201000D01*
X146502000Y-140201000D01*
X146505000Y-140200000D01*
X146507000Y-140200000D01*
X146510000Y-140200000D01*
X146810000Y-140200000D01*
X146813000Y-140200000D01*
X146815000Y-140200000D01*
X146818000Y-140201000D01*
G37*
X146818000Y-141351000D02*
X146820000Y-141351000D01*
X146823000Y-141352000D01*
X146825000Y-141352000D01*
X146828000Y-141353000D01*
X146830000Y-141354000D01*
X146833000Y-141355000D01*
X146835000Y-141357000D01*
X146837000Y-141358000D01*
X146839000Y-141360000D01*
X146841000Y-141361000D01*
X146843000Y-141363000D01*
X146845000Y-141365000D01*
X146847000Y-141367000D01*
X146849000Y-141369000D01*
X146850000Y-141371000D01*
X146852000Y-141373000D01*
X146853000Y-141375000D01*
X146855000Y-141377000D01*
X146856000Y-141380000D01*
X146857000Y-141382000D01*
X146858000Y-141385000D01*
X146858000Y-141387000D01*
X146859000Y-141390000D01*
X146859000Y-141392000D01*
X146860000Y-141395000D01*
X146860000Y-141397000D01*
X146860000Y-141400000D01*
X146860000Y-142250000D01*
X146860000Y-142253000D01*
X146860000Y-142255000D01*
X146859000Y-142258000D01*
X146859000Y-142260000D01*
X146858000Y-142263000D01*
X146858000Y-142265000D01*
X146857000Y-142268000D01*
X146856000Y-142270000D01*
X146855000Y-142273000D01*
X146853000Y-142275000D01*
X146852000Y-142277000D01*
X146850000Y-142279000D01*
X146849000Y-142281000D01*
X146847000Y-142283000D01*
X146845000Y-142285000D01*
X146843000Y-142287000D01*
X146841000Y-142289000D01*
X146839000Y-142290000D01*
X146837000Y-142292000D01*
X146835000Y-142293000D01*
X146833000Y-142295000D01*
X146830000Y-142296000D01*
X146828000Y-142297000D01*
X146825000Y-142298000D01*
X146823000Y-142298000D01*
X146820000Y-142299000D01*
X146818000Y-142299000D01*
X146815000Y-142300000D01*
X146813000Y-142300000D01*
X146810000Y-142300000D01*
X146510000Y-142300000D01*
X146507000Y-142300000D01*
X146505000Y-142300000D01*
X146502000Y-142299000D01*
X146500000Y-142299000D01*
X146497000Y-142298000D01*
X146495000Y-142298000D01*
X146492000Y-142297000D01*
X146490000Y-142296000D01*
X146487000Y-142295000D01*
X146485000Y-142293000D01*
X146483000Y-142292000D01*
X146481000Y-142290000D01*
X146479000Y-142289000D01*
X146477000Y-142287000D01*
X146475000Y-142285000D01*
X146473000Y-142283000D01*
X146471000Y-142281000D01*
X146470000Y-142279000D01*
X146468000Y-142277000D01*
X146467000Y-142275000D01*
X146465000Y-142273000D01*
X146464000Y-142270000D01*
X146463000Y-142268000D01*
X146462000Y-142265000D01*
X146462000Y-142263000D01*
X146461000Y-142260000D01*
X146461000Y-142258000D01*
X146460000Y-142255000D01*
X146460000Y-142253000D01*
X146460000Y-142250000D01*
X146460000Y-141400000D01*
X146460000Y-141397000D01*
X146460000Y-141395000D01*
X146461000Y-141392000D01*
X146461000Y-141390000D01*
X146462000Y-141387000D01*
X146462000Y-141385000D01*
X146463000Y-141382000D01*
X146464000Y-141380000D01*
X146465000Y-141377000D01*
X146467000Y-141375000D01*
X146468000Y-141373000D01*
X146470000Y-141371000D01*
X146471000Y-141369000D01*
X146473000Y-141367000D01*
X146475000Y-141365000D01*
X146477000Y-141363000D01*
X146479000Y-141361000D01*
X146481000Y-141360000D01*
X146483000Y-141358000D01*
X146485000Y-141357000D01*
X146487000Y-141355000D01*
X146490000Y-141354000D01*
X146492000Y-141353000D01*
X146495000Y-141352000D01*
X146497000Y-141352000D01*
X146500000Y-141351000D01*
X146502000Y-141351000D01*
X146505000Y-141350000D01*
X146507000Y-141350000D01*
X146510000Y-141350000D01*
X146810000Y-141350000D01*
X146813000Y-141350000D01*
X146815000Y-141350000D01*
X146818000Y-141351000D01*
G36*
X146818000Y-141351000D02*
G01*
X146820000Y-141351000D01*
X146823000Y-141352000D01*
X146825000Y-141352000D01*
X146828000Y-141353000D01*
X146830000Y-141354000D01*
X146833000Y-141355000D01*
X146835000Y-141357000D01*
X146837000Y-141358000D01*
X146839000Y-141360000D01*
X146841000Y-141361000D01*
X146843000Y-141363000D01*
X146845000Y-141365000D01*
X146847000Y-141367000D01*
X146849000Y-141369000D01*
X146850000Y-141371000D01*
X146852000Y-141373000D01*
X146853000Y-141375000D01*
X146855000Y-141377000D01*
X146856000Y-141380000D01*
X146857000Y-141382000D01*
X146858000Y-141385000D01*
X146858000Y-141387000D01*
X146859000Y-141390000D01*
X146859000Y-141392000D01*
X146860000Y-141395000D01*
X146860000Y-141397000D01*
X146860000Y-141400000D01*
X146860000Y-142250000D01*
X146860000Y-142253000D01*
X146860000Y-142255000D01*
X146859000Y-142258000D01*
X146859000Y-142260000D01*
X146858000Y-142263000D01*
X146858000Y-142265000D01*
X146857000Y-142268000D01*
X146856000Y-142270000D01*
X146855000Y-142273000D01*
X146853000Y-142275000D01*
X146852000Y-142277000D01*
X146850000Y-142279000D01*
X146849000Y-142281000D01*
X146847000Y-142283000D01*
X146845000Y-142285000D01*
X146843000Y-142287000D01*
X146841000Y-142289000D01*
X146839000Y-142290000D01*
X146837000Y-142292000D01*
X146835000Y-142293000D01*
X146833000Y-142295000D01*
X146830000Y-142296000D01*
X146828000Y-142297000D01*
X146825000Y-142298000D01*
X146823000Y-142298000D01*
X146820000Y-142299000D01*
X146818000Y-142299000D01*
X146815000Y-142300000D01*
X146813000Y-142300000D01*
X146810000Y-142300000D01*
X146510000Y-142300000D01*
X146507000Y-142300000D01*
X146505000Y-142300000D01*
X146502000Y-142299000D01*
X146500000Y-142299000D01*
X146497000Y-142298000D01*
X146495000Y-142298000D01*
X146492000Y-142297000D01*
X146490000Y-142296000D01*
X146487000Y-142295000D01*
X146485000Y-142293000D01*
X146483000Y-142292000D01*
X146481000Y-142290000D01*
X146479000Y-142289000D01*
X146477000Y-142287000D01*
X146475000Y-142285000D01*
X146473000Y-142283000D01*
X146471000Y-142281000D01*
X146470000Y-142279000D01*
X146468000Y-142277000D01*
X146467000Y-142275000D01*
X146465000Y-142273000D01*
X146464000Y-142270000D01*
X146463000Y-142268000D01*
X146462000Y-142265000D01*
X146462000Y-142263000D01*
X146461000Y-142260000D01*
X146461000Y-142258000D01*
X146460000Y-142255000D01*
X146460000Y-142253000D01*
X146460000Y-142250000D01*
X146460000Y-141400000D01*
X146460000Y-141397000D01*
X146460000Y-141395000D01*
X146461000Y-141392000D01*
X146461000Y-141390000D01*
X146462000Y-141387000D01*
X146462000Y-141385000D01*
X146463000Y-141382000D01*
X146464000Y-141380000D01*
X146465000Y-141377000D01*
X146467000Y-141375000D01*
X146468000Y-141373000D01*
X146470000Y-141371000D01*
X146471000Y-141369000D01*
X146473000Y-141367000D01*
X146475000Y-141365000D01*
X146477000Y-141363000D01*
X146479000Y-141361000D01*
X146481000Y-141360000D01*
X146483000Y-141358000D01*
X146485000Y-141357000D01*
X146487000Y-141355000D01*
X146490000Y-141354000D01*
X146492000Y-141353000D01*
X146495000Y-141352000D01*
X146497000Y-141352000D01*
X146500000Y-141351000D01*
X146502000Y-141351000D01*
X146505000Y-141350000D01*
X146507000Y-141350000D01*
X146510000Y-141350000D01*
X146810000Y-141350000D01*
X146813000Y-141350000D01*
X146815000Y-141350000D01*
X146818000Y-141351000D01*
G37*
X145658000Y-140201000D02*
X145660000Y-140201000D01*
X145663000Y-140202000D01*
X145665000Y-140202000D01*
X145668000Y-140203000D01*
X145670000Y-140204000D01*
X145673000Y-140205000D01*
X145675000Y-140207000D01*
X145677000Y-140208000D01*
X145679000Y-140210000D01*
X145681000Y-140211000D01*
X145683000Y-140213000D01*
X145685000Y-140215000D01*
X145687000Y-140217000D01*
X145689000Y-140219000D01*
X145690000Y-140221000D01*
X145692000Y-140223000D01*
X145693000Y-140225000D01*
X145695000Y-140227000D01*
X145696000Y-140230000D01*
X145697000Y-140232000D01*
X145698000Y-140235000D01*
X145698000Y-140237000D01*
X145699000Y-140240000D01*
X145699000Y-140242000D01*
X145700000Y-140245000D01*
X145700000Y-140247000D01*
X145700000Y-140250000D01*
X145700000Y-142250000D01*
X145700000Y-142253000D01*
X145700000Y-142255000D01*
X145699000Y-142258000D01*
X145699000Y-142260000D01*
X145698000Y-142263000D01*
X145698000Y-142265000D01*
X145697000Y-142268000D01*
X145696000Y-142270000D01*
X145695000Y-142273000D01*
X145693000Y-142275000D01*
X145692000Y-142277000D01*
X145690000Y-142279000D01*
X145689000Y-142281000D01*
X145687000Y-142283000D01*
X145685000Y-142285000D01*
X145683000Y-142287000D01*
X145681000Y-142289000D01*
X145679000Y-142290000D01*
X145677000Y-142292000D01*
X145675000Y-142293000D01*
X145673000Y-142295000D01*
X145670000Y-142296000D01*
X145668000Y-142297000D01*
X145665000Y-142298000D01*
X145663000Y-142298000D01*
X145660000Y-142299000D01*
X145658000Y-142299000D01*
X145655000Y-142300000D01*
X145653000Y-142300000D01*
X145650000Y-142300000D01*
X145350000Y-142300000D01*
X145347000Y-142300000D01*
X145345000Y-142300000D01*
X145342000Y-142299000D01*
X145340000Y-142299000D01*
X145337000Y-142298000D01*
X145335000Y-142298000D01*
X145332000Y-142297000D01*
X145330000Y-142296000D01*
X145327000Y-142295000D01*
X145325000Y-142293000D01*
X145323000Y-142292000D01*
X145321000Y-142290000D01*
X145319000Y-142289000D01*
X145317000Y-142287000D01*
X145315000Y-142285000D01*
X145313000Y-142283000D01*
X145311000Y-142281000D01*
X145310000Y-142279000D01*
X145308000Y-142277000D01*
X145307000Y-142275000D01*
X145305000Y-142273000D01*
X145304000Y-142270000D01*
X145303000Y-142268000D01*
X145302000Y-142265000D01*
X145302000Y-142263000D01*
X145301000Y-142260000D01*
X145301000Y-142258000D01*
X145300000Y-142255000D01*
X145300000Y-142253000D01*
X145300000Y-142250000D01*
X145300000Y-141475000D01*
X144790000Y-141475000D01*
X144787000Y-141475000D01*
X144785000Y-141475000D01*
X144782000Y-141474000D01*
X144780000Y-141474000D01*
X144777000Y-141473000D01*
X144775000Y-141473000D01*
X144772000Y-141472000D01*
X144770000Y-141471000D01*
X144767000Y-141470000D01*
X144765000Y-141468000D01*
X144763000Y-141467000D01*
X144761000Y-141465000D01*
X144759000Y-141464000D01*
X144757000Y-141462000D01*
X144755000Y-141460000D01*
X144753000Y-141458000D01*
X144751000Y-141456000D01*
X144750000Y-141454000D01*
X144748000Y-141452000D01*
X144747000Y-141450000D01*
X144745000Y-141448000D01*
X144744000Y-141445000D01*
X144743000Y-141443000D01*
X144742000Y-141440000D01*
X144742000Y-141438000D01*
X144741000Y-141435000D01*
X144741000Y-141433000D01*
X144740000Y-141430000D01*
X144740000Y-141428000D01*
X144740000Y-141425000D01*
X144740000Y-141275000D01*
X144740000Y-141272000D01*
X144740000Y-141270000D01*
X144741000Y-141267000D01*
X144741000Y-141265000D01*
X144742000Y-141262000D01*
X144742000Y-141260000D01*
X144743000Y-141257000D01*
X144744000Y-141255000D01*
X144745000Y-141252000D01*
X144747000Y-141250000D01*
X144748000Y-141248000D01*
X144750000Y-141246000D01*
X144751000Y-141244000D01*
X144753000Y-141242000D01*
X144755000Y-141240000D01*
X144757000Y-141238000D01*
X144759000Y-141236000D01*
X144761000Y-141235000D01*
X144763000Y-141233000D01*
X144765000Y-141232000D01*
X144767000Y-141230000D01*
X144770000Y-141229000D01*
X144772000Y-141228000D01*
X144775000Y-141227000D01*
X144777000Y-141227000D01*
X144780000Y-141226000D01*
X144782000Y-141226000D01*
X144785000Y-141225000D01*
X144787000Y-141225000D01*
X144790000Y-141225000D01*
X145300000Y-141225000D01*
X145300000Y-140975000D01*
X144790000Y-140975000D01*
X144787000Y-140975000D01*
X144785000Y-140975000D01*
X144782000Y-140974000D01*
X144780000Y-140974000D01*
X144777000Y-140973000D01*
X144775000Y-140973000D01*
X144772000Y-140972000D01*
X144770000Y-140971000D01*
X144767000Y-140970000D01*
X144765000Y-140968000D01*
X144763000Y-140967000D01*
X144761000Y-140965000D01*
X144759000Y-140964000D01*
X144757000Y-140962000D01*
X144755000Y-140960000D01*
X144753000Y-140958000D01*
X144751000Y-140956000D01*
X144750000Y-140954000D01*
X144748000Y-140952000D01*
X144747000Y-140950000D01*
X144745000Y-140948000D01*
X144744000Y-140945000D01*
X144743000Y-140943000D01*
X144742000Y-140940000D01*
X144742000Y-140938000D01*
X144741000Y-140935000D01*
X144741000Y-140933000D01*
X144740000Y-140930000D01*
X144740000Y-140928000D01*
X144740000Y-140925000D01*
X144740000Y-140775000D01*
X144740000Y-140772000D01*
X144740000Y-140770000D01*
X144741000Y-140767000D01*
X144741000Y-140765000D01*
X144742000Y-140762000D01*
X144742000Y-140760000D01*
X144743000Y-140757000D01*
X144744000Y-140755000D01*
X144745000Y-140752000D01*
X144747000Y-140750000D01*
X144748000Y-140748000D01*
X144750000Y-140746000D01*
X144751000Y-140744000D01*
X144753000Y-140742000D01*
X144755000Y-140740000D01*
X144757000Y-140738000D01*
X144759000Y-140736000D01*
X144761000Y-140735000D01*
X144763000Y-140733000D01*
X144765000Y-140732000D01*
X144767000Y-140730000D01*
X144770000Y-140729000D01*
X144772000Y-140728000D01*
X144775000Y-140727000D01*
X144777000Y-140727000D01*
X144780000Y-140726000D01*
X144782000Y-140726000D01*
X144785000Y-140725000D01*
X144787000Y-140725000D01*
X144790000Y-140725000D01*
X145300000Y-140725000D01*
X145300000Y-140475000D01*
X144790000Y-140475000D01*
X144787000Y-140474000D01*
X144784000Y-140473000D01*
X144781000Y-140472000D01*
X144778000Y-140471000D01*
X144775000Y-140470000D01*
X144772000Y-140468000D01*
X144769000Y-140467000D01*
X144766000Y-140465000D01*
X144763000Y-140463000D01*
X144761000Y-140461000D01*
X144758000Y-140458000D01*
X144756000Y-140456000D01*
X144754000Y-140453000D01*
X144752000Y-140451000D01*
X144750000Y-140448000D01*
X144748000Y-140445000D01*
X144746000Y-140442000D01*
X144745000Y-140439000D01*
X144743000Y-140436000D01*
X144742000Y-140433000D01*
X144741000Y-140430000D01*
X144740000Y-140427000D01*
X144740000Y-140424000D01*
X144739000Y-140420000D01*
X144739000Y-140417000D01*
X144739000Y-140414000D01*
X144739000Y-140410000D01*
X144739000Y-140407000D01*
X144739000Y-140404000D01*
X144740000Y-140400000D01*
X144740000Y-140300000D01*
X144739000Y-140296000D01*
X144739000Y-140293000D01*
X144739000Y-140290000D01*
X144739000Y-140286000D01*
X144739000Y-140283000D01*
X144739000Y-140280000D01*
X144740000Y-140276000D01*
X144740000Y-140273000D01*
X144741000Y-140270000D01*
X144742000Y-140267000D01*
X144743000Y-140264000D01*
X144745000Y-140261000D01*
X144746000Y-140258000D01*
X144748000Y-140255000D01*
X144750000Y-140252000D01*
X144752000Y-140249000D01*
X144754000Y-140247000D01*
X144756000Y-140244000D01*
X144758000Y-140242000D01*
X144761000Y-140239000D01*
X144763000Y-140237000D01*
X144766000Y-140235000D01*
X144769000Y-140233000D01*
X144772000Y-140232000D01*
X144775000Y-140230000D01*
X144778000Y-140229000D01*
X144781000Y-140228000D01*
X144784000Y-140227000D01*
X144787000Y-140226000D01*
X144790000Y-140225000D01*
X145300000Y-140225000D01*
X145300000Y-140200000D01*
X145650000Y-140200000D01*
X145653000Y-140200000D01*
X145655000Y-140200000D01*
X145658000Y-140201000D01*
G36*
X145658000Y-140201000D02*
G01*
X145660000Y-140201000D01*
X145663000Y-140202000D01*
X145665000Y-140202000D01*
X145668000Y-140203000D01*
X145670000Y-140204000D01*
X145673000Y-140205000D01*
X145675000Y-140207000D01*
X145677000Y-140208000D01*
X145679000Y-140210000D01*
X145681000Y-140211000D01*
X145683000Y-140213000D01*
X145685000Y-140215000D01*
X145687000Y-140217000D01*
X145689000Y-140219000D01*
X145690000Y-140221000D01*
X145692000Y-140223000D01*
X145693000Y-140225000D01*
X145695000Y-140227000D01*
X145696000Y-140230000D01*
X145697000Y-140232000D01*
X145698000Y-140235000D01*
X145698000Y-140237000D01*
X145699000Y-140240000D01*
X145699000Y-140242000D01*
X145700000Y-140245000D01*
X145700000Y-140247000D01*
X145700000Y-140250000D01*
X145700000Y-142250000D01*
X145700000Y-142253000D01*
X145700000Y-142255000D01*
X145699000Y-142258000D01*
X145699000Y-142260000D01*
X145698000Y-142263000D01*
X145698000Y-142265000D01*
X145697000Y-142268000D01*
X145696000Y-142270000D01*
X145695000Y-142273000D01*
X145693000Y-142275000D01*
X145692000Y-142277000D01*
X145690000Y-142279000D01*
X145689000Y-142281000D01*
X145687000Y-142283000D01*
X145685000Y-142285000D01*
X145683000Y-142287000D01*
X145681000Y-142289000D01*
X145679000Y-142290000D01*
X145677000Y-142292000D01*
X145675000Y-142293000D01*
X145673000Y-142295000D01*
X145670000Y-142296000D01*
X145668000Y-142297000D01*
X145665000Y-142298000D01*
X145663000Y-142298000D01*
X145660000Y-142299000D01*
X145658000Y-142299000D01*
X145655000Y-142300000D01*
X145653000Y-142300000D01*
X145650000Y-142300000D01*
X145350000Y-142300000D01*
X145347000Y-142300000D01*
X145345000Y-142300000D01*
X145342000Y-142299000D01*
X145340000Y-142299000D01*
X145337000Y-142298000D01*
X145335000Y-142298000D01*
X145332000Y-142297000D01*
X145330000Y-142296000D01*
X145327000Y-142295000D01*
X145325000Y-142293000D01*
X145323000Y-142292000D01*
X145321000Y-142290000D01*
X145319000Y-142289000D01*
X145317000Y-142287000D01*
X145315000Y-142285000D01*
X145313000Y-142283000D01*
X145311000Y-142281000D01*
X145310000Y-142279000D01*
X145308000Y-142277000D01*
X145307000Y-142275000D01*
X145305000Y-142273000D01*
X145304000Y-142270000D01*
X145303000Y-142268000D01*
X145302000Y-142265000D01*
X145302000Y-142263000D01*
X145301000Y-142260000D01*
X145301000Y-142258000D01*
X145300000Y-142255000D01*
X145300000Y-142253000D01*
X145300000Y-142250000D01*
X145300000Y-141475000D01*
X144790000Y-141475000D01*
X144787000Y-141475000D01*
X144785000Y-141475000D01*
X144782000Y-141474000D01*
X144780000Y-141474000D01*
X144777000Y-141473000D01*
X144775000Y-141473000D01*
X144772000Y-141472000D01*
X144770000Y-141471000D01*
X144767000Y-141470000D01*
X144765000Y-141468000D01*
X144763000Y-141467000D01*
X144761000Y-141465000D01*
X144759000Y-141464000D01*
X144757000Y-141462000D01*
X144755000Y-141460000D01*
X144753000Y-141458000D01*
X144751000Y-141456000D01*
X144750000Y-141454000D01*
X144748000Y-141452000D01*
X144747000Y-141450000D01*
X144745000Y-141448000D01*
X144744000Y-141445000D01*
X144743000Y-141443000D01*
X144742000Y-141440000D01*
X144742000Y-141438000D01*
X144741000Y-141435000D01*
X144741000Y-141433000D01*
X144740000Y-141430000D01*
X144740000Y-141428000D01*
X144740000Y-141425000D01*
X144740000Y-141275000D01*
X144740000Y-141272000D01*
X144740000Y-141270000D01*
X144741000Y-141267000D01*
X144741000Y-141265000D01*
X144742000Y-141262000D01*
X144742000Y-141260000D01*
X144743000Y-141257000D01*
X144744000Y-141255000D01*
X144745000Y-141252000D01*
X144747000Y-141250000D01*
X144748000Y-141248000D01*
X144750000Y-141246000D01*
X144751000Y-141244000D01*
X144753000Y-141242000D01*
X144755000Y-141240000D01*
X144757000Y-141238000D01*
X144759000Y-141236000D01*
X144761000Y-141235000D01*
X144763000Y-141233000D01*
X144765000Y-141232000D01*
X144767000Y-141230000D01*
X144770000Y-141229000D01*
X144772000Y-141228000D01*
X144775000Y-141227000D01*
X144777000Y-141227000D01*
X144780000Y-141226000D01*
X144782000Y-141226000D01*
X144785000Y-141225000D01*
X144787000Y-141225000D01*
X144790000Y-141225000D01*
X145300000Y-141225000D01*
X145300000Y-140975000D01*
X144790000Y-140975000D01*
X144787000Y-140975000D01*
X144785000Y-140975000D01*
X144782000Y-140974000D01*
X144780000Y-140974000D01*
X144777000Y-140973000D01*
X144775000Y-140973000D01*
X144772000Y-140972000D01*
X144770000Y-140971000D01*
X144767000Y-140970000D01*
X144765000Y-140968000D01*
X144763000Y-140967000D01*
X144761000Y-140965000D01*
X144759000Y-140964000D01*
X144757000Y-140962000D01*
X144755000Y-140960000D01*
X144753000Y-140958000D01*
X144751000Y-140956000D01*
X144750000Y-140954000D01*
X144748000Y-140952000D01*
X144747000Y-140950000D01*
X144745000Y-140948000D01*
X144744000Y-140945000D01*
X144743000Y-140943000D01*
X144742000Y-140940000D01*
X144742000Y-140938000D01*
X144741000Y-140935000D01*
X144741000Y-140933000D01*
X144740000Y-140930000D01*
X144740000Y-140928000D01*
X144740000Y-140925000D01*
X144740000Y-140775000D01*
X144740000Y-140772000D01*
X144740000Y-140770000D01*
X144741000Y-140767000D01*
X144741000Y-140765000D01*
X144742000Y-140762000D01*
X144742000Y-140760000D01*
X144743000Y-140757000D01*
X144744000Y-140755000D01*
X144745000Y-140752000D01*
X144747000Y-140750000D01*
X144748000Y-140748000D01*
X144750000Y-140746000D01*
X144751000Y-140744000D01*
X144753000Y-140742000D01*
X144755000Y-140740000D01*
X144757000Y-140738000D01*
X144759000Y-140736000D01*
X144761000Y-140735000D01*
X144763000Y-140733000D01*
X144765000Y-140732000D01*
X144767000Y-140730000D01*
X144770000Y-140729000D01*
X144772000Y-140728000D01*
X144775000Y-140727000D01*
X144777000Y-140727000D01*
X144780000Y-140726000D01*
X144782000Y-140726000D01*
X144785000Y-140725000D01*
X144787000Y-140725000D01*
X144790000Y-140725000D01*
X145300000Y-140725000D01*
X145300000Y-140475000D01*
X144790000Y-140475000D01*
X144787000Y-140474000D01*
X144784000Y-140473000D01*
X144781000Y-140472000D01*
X144778000Y-140471000D01*
X144775000Y-140470000D01*
X144772000Y-140468000D01*
X144769000Y-140467000D01*
X144766000Y-140465000D01*
X144763000Y-140463000D01*
X144761000Y-140461000D01*
X144758000Y-140458000D01*
X144756000Y-140456000D01*
X144754000Y-140453000D01*
X144752000Y-140451000D01*
X144750000Y-140448000D01*
X144748000Y-140445000D01*
X144746000Y-140442000D01*
X144745000Y-140439000D01*
X144743000Y-140436000D01*
X144742000Y-140433000D01*
X144741000Y-140430000D01*
X144740000Y-140427000D01*
X144740000Y-140424000D01*
X144739000Y-140420000D01*
X144739000Y-140417000D01*
X144739000Y-140414000D01*
X144739000Y-140410000D01*
X144739000Y-140407000D01*
X144739000Y-140404000D01*
X144740000Y-140400000D01*
X144740000Y-140300000D01*
X144739000Y-140296000D01*
X144739000Y-140293000D01*
X144739000Y-140290000D01*
X144739000Y-140286000D01*
X144739000Y-140283000D01*
X144739000Y-140280000D01*
X144740000Y-140276000D01*
X144740000Y-140273000D01*
X144741000Y-140270000D01*
X144742000Y-140267000D01*
X144743000Y-140264000D01*
X144745000Y-140261000D01*
X144746000Y-140258000D01*
X144748000Y-140255000D01*
X144750000Y-140252000D01*
X144752000Y-140249000D01*
X144754000Y-140247000D01*
X144756000Y-140244000D01*
X144758000Y-140242000D01*
X144761000Y-140239000D01*
X144763000Y-140237000D01*
X144766000Y-140235000D01*
X144769000Y-140233000D01*
X144772000Y-140232000D01*
X144775000Y-140230000D01*
X144778000Y-140229000D01*
X144781000Y-140228000D01*
X144784000Y-140227000D01*
X144787000Y-140226000D01*
X144790000Y-140225000D01*
X145300000Y-140225000D01*
X145300000Y-140200000D01*
X145650000Y-140200000D01*
X145653000Y-140200000D01*
X145655000Y-140200000D01*
X145658000Y-140201000D01*
G37*
%TO.C,U10*%
X156965000Y-63956260D02*
X154658740Y-63956260D01*
X154658740Y-61650000D01*
X156965000Y-61650000D01*
X156965000Y-63956260D01*
G36*
X156965000Y-63956260D02*
G01*
X154658740Y-63956260D01*
X154658740Y-61650000D01*
X156965000Y-61650000D01*
X156965000Y-63956260D01*
G37*
%TD*%
D12*
%TO.C,C35*%
X106680000Y-103210000D03*
X107640000Y-103210000D03*
%TD*%
D13*
%TO.C,C13*%
X142250000Y-136250000D03*
X141290000Y-136250000D03*
%TD*%
D14*
%TO.C,C7*%
X114625000Y-129175000D03*
X114625000Y-131075000D03*
%TD*%
D15*
%TO.C,R27*%
X181050000Y-90257500D03*
X182070000Y-90257500D03*
%TD*%
D16*
%TO.C,F2*%
X140750000Y-131650000D03*
X140750000Y-128850000D03*
%TD*%
D17*
%TO.C,U1*%
X147540000Y-74200000D03*
X148050000Y-74200000D03*
X148540000Y-74200000D03*
X149050000Y-74200000D03*
D18*
X149750000Y-73500000D03*
X149750000Y-73000000D03*
X149750000Y-72500000D03*
X149750000Y-72000000D03*
D17*
X149050000Y-71300000D03*
X148540000Y-71300000D03*
X148050000Y-71300000D03*
X147540000Y-71300000D03*
D18*
X146840000Y-72000000D03*
X146840000Y-72500000D03*
X146840000Y-73000000D03*
X146840000Y-73500000D03*
D19*
X148300000Y-72750000D03*
%TD*%
D15*
%TO.C,R30*%
X183960000Y-84287500D03*
X184980000Y-84287500D03*
%TD*%
%TO.C,R23*%
X181050000Y-82297500D03*
X182070000Y-82297500D03*
%TD*%
%TO.C,R24*%
X181050000Y-84287500D03*
X182070000Y-84287500D03*
%TD*%
%TO.C,R25*%
X181050000Y-86277500D03*
X182070000Y-86277500D03*
%TD*%
D20*
%TO.C,F3*%
X111475000Y-136125000D03*
X114275000Y-136125000D03*
%TD*%
D21*
%TO.C,L2*%
X147250000Y-136475000D03*
X147250000Y-131025000D03*
%TD*%
D15*
%TO.C,R26*%
X181050000Y-88267500D03*
X182070000Y-88267500D03*
%TD*%
%TO.C,R10*%
X150990000Y-138750000D03*
X152010000Y-138750000D03*
%TD*%
D12*
%TO.C,C26*%
X189750000Y-84237500D03*
X190710000Y-84237500D03*
%TD*%
D22*
%TO.C,L4*%
X98025000Y-104600000D03*
X103475000Y-104600000D03*
%TD*%
D15*
%TO.C,R17*%
X168210000Y-74580000D03*
X169230000Y-74580000D03*
%TD*%
D23*
%TO.C,FB1*%
X166000000Y-69250000D03*
X164425000Y-69250000D03*
%TD*%
D15*
%TO.C,R35*%
X109580000Y-111120000D03*
X110600000Y-111120000D03*
%TD*%
D14*
%TO.C,C8*%
X112125000Y-129175000D03*
X112125000Y-131075000D03*
%TD*%
D12*
%TO.C,C20*%
X176950000Y-74550000D03*
X177910000Y-74550000D03*
%TD*%
D15*
%TO.C,R22*%
X181050000Y-80307500D03*
X182070000Y-80307500D03*
%TD*%
D24*
%TO.C,R11*%
X152000000Y-136490000D03*
X152000000Y-137510000D03*
%TD*%
D12*
%TO.C,C32*%
X123750000Y-116660000D03*
X124710000Y-116660000D03*
%TD*%
D15*
%TO.C,R38*%
X112490000Y-111120000D03*
X113510000Y-111120000D03*
%TD*%
D25*
%TO.C,R6*%
X129885000Y-122875000D03*
X128865000Y-122875000D03*
%TD*%
D22*
%TO.C,L1*%
X125850000Y-128875000D03*
X120400000Y-128875000D03*
%TD*%
D15*
%TO.C,R39*%
X112490000Y-113110000D03*
X113510000Y-113110000D03*
%TD*%
D26*
%TO.C,U7*%
X111930000Y-89730000D03*
X112330000Y-89730000D03*
X112730000Y-89730000D03*
X113130000Y-89730000D03*
X113530000Y-89730000D03*
X113930000Y-89730000D03*
X114330000Y-89730000D03*
X114730000Y-89730000D03*
X115130000Y-89730000D03*
X115530000Y-89730000D03*
X115930000Y-89730000D03*
X116330000Y-89730000D03*
X116730000Y-89730000D03*
X117130000Y-89730000D03*
X117530000Y-89730000D03*
X117930000Y-89730000D03*
X118330000Y-89730000D03*
X118730000Y-89730000D03*
X119130000Y-89730000D03*
X119530000Y-89730000D03*
X119930000Y-89730000D03*
X120330000Y-89730000D03*
X120730000Y-89730000D03*
X121130000Y-89730000D03*
X121530000Y-89730000D03*
X121930000Y-89730000D03*
X122330000Y-89730000D03*
X122730000Y-89730000D03*
X123130000Y-89730000D03*
X123530000Y-89730000D03*
X123930000Y-89730000D03*
X124330000Y-89730000D03*
D27*
X125760000Y-88300000D03*
X125760000Y-87900000D03*
X125760000Y-87500000D03*
X125760000Y-87100000D03*
X125760000Y-86700000D03*
X125760000Y-86300000D03*
X125760000Y-85900000D03*
X125760000Y-85500000D03*
X125760000Y-85100000D03*
X125760000Y-84700000D03*
X125760000Y-84300000D03*
X125760000Y-83900000D03*
X125760000Y-83500000D03*
X125760000Y-83100000D03*
X125760000Y-82700000D03*
X125760000Y-82300000D03*
X125760000Y-81900000D03*
X125760000Y-81500000D03*
X125760000Y-81100000D03*
X125760000Y-80700000D03*
X125760000Y-80300000D03*
X125760000Y-79900000D03*
X125760000Y-79500000D03*
X125760000Y-79100000D03*
X125760000Y-78700000D03*
X125760000Y-78300000D03*
X125760000Y-77900000D03*
X125760000Y-77500000D03*
X125760000Y-77100000D03*
X125760000Y-76700000D03*
X125760000Y-76300000D03*
X125760000Y-75900000D03*
D26*
X124330000Y-74470000D03*
X123930000Y-74470000D03*
X123530000Y-74470000D03*
X123130000Y-74470000D03*
X122730000Y-74470000D03*
X122330000Y-74470000D03*
X121930000Y-74470000D03*
X121530000Y-74470000D03*
X121130000Y-74470000D03*
X120730000Y-74470000D03*
X120330000Y-74470000D03*
X119930000Y-74470000D03*
X119530000Y-74470000D03*
X119130000Y-74470000D03*
X118730000Y-74470000D03*
X118330000Y-74470000D03*
X117930000Y-74470000D03*
X117530000Y-74470000D03*
X117130000Y-74470000D03*
X116730000Y-74470000D03*
X116330000Y-74470000D03*
X115930000Y-74470000D03*
X115530000Y-74470000D03*
X115130000Y-74470000D03*
X114730000Y-74470000D03*
X114330000Y-74470000D03*
X113930000Y-74470000D03*
X113530000Y-74470000D03*
X113130000Y-74470000D03*
X112730000Y-74470000D03*
X112330000Y-74470000D03*
X111930000Y-74470000D03*
D27*
X110500000Y-75900000D03*
X110500000Y-76300000D03*
X110500000Y-76700000D03*
X110500000Y-77100000D03*
X110500000Y-77500000D03*
X110500000Y-77900000D03*
X110500000Y-78300000D03*
X110500000Y-78700000D03*
X110500000Y-79100000D03*
X110500000Y-79500000D03*
X110500000Y-79900000D03*
X110500000Y-80300000D03*
X110500000Y-80700000D03*
X110500000Y-81100000D03*
X110500000Y-81500000D03*
X110500000Y-81900000D03*
X110500000Y-82300000D03*
X110500000Y-82700000D03*
X110500000Y-83100000D03*
X110500000Y-83500000D03*
X110500000Y-83900000D03*
X110500000Y-84300000D03*
X110500000Y-84700000D03*
X110500000Y-85100000D03*
X110500000Y-85500000D03*
X110500000Y-85900000D03*
X110500000Y-86300000D03*
X110500000Y-86700000D03*
X110500000Y-87100000D03*
X110500000Y-87500000D03*
X110500000Y-87900000D03*
X110500000Y-88300000D03*
D28*
X118130000Y-82100000D03*
%TD*%
D29*
%TO.C,C17*%
X155000000Y-131700000D03*
X155000000Y-129800000D03*
%TD*%
D30*
%TO.C,C3*%
X132825000Y-128855000D03*
X132825000Y-127895000D03*
%TD*%
D15*
%TO.C,R3*%
X126865000Y-122875000D03*
X127885000Y-122875000D03*
%TD*%
D12*
%TO.C,C21*%
X176950000Y-76520000D03*
X177910000Y-76520000D03*
%TD*%
D15*
%TO.C,R37*%
X112490000Y-109130000D03*
X113510000Y-109130000D03*
%TD*%
D13*
%TO.C,C11*%
X142250000Y-133750000D03*
X141290000Y-133750000D03*
%TD*%
D14*
%TO.C,C6*%
X117125000Y-129175000D03*
X117125000Y-131075000D03*
%TD*%
D24*
%TO.C,R15*%
X151750000Y-143490000D03*
X151750000Y-144510000D03*
%TD*%
D12*
%TO.C,C29*%
X123750000Y-110750000D03*
X124710000Y-110750000D03*
%TD*%
D29*
%TO.C,C16*%
X152500000Y-131700000D03*
X152500000Y-129800000D03*
%TD*%
D31*
%TO.C,U2*%
X145750000Y-93250000D03*
X146750000Y-93250000D03*
X147750000Y-93250000D03*
X148750000Y-93250000D03*
X149750000Y-93250000D03*
X150750000Y-93250000D03*
X151750000Y-93250000D03*
X152750000Y-93250000D03*
X153750000Y-93250000D03*
X154750000Y-93250000D03*
X155750000Y-93250000D03*
X156750000Y-93250000D03*
X157750000Y-93250000D03*
X158750000Y-93250000D03*
X159750000Y-93250000D03*
X160750000Y-93250000D03*
X161750000Y-93250000D03*
X162750000Y-93250000D03*
X163750000Y-93250000D03*
X164750000Y-93250000D03*
X165750000Y-93250000D03*
X166750000Y-93250000D03*
X145750000Y-113250000D03*
X146750000Y-113250000D03*
X147750000Y-113250000D03*
X148750000Y-113250000D03*
X149750000Y-113250000D03*
X150750000Y-113250000D03*
X151750000Y-113250000D03*
X152750000Y-113250000D03*
X153750000Y-113250000D03*
X154750000Y-113250000D03*
X155750000Y-113250000D03*
X156750000Y-113250000D03*
X157750000Y-113250000D03*
X158750000Y-113250000D03*
X159750000Y-113250000D03*
X160750000Y-113250000D03*
X161750000Y-113250000D03*
X162750000Y-113250000D03*
X163750000Y-113250000D03*
X164750000Y-113250000D03*
X165750000Y-113250000D03*
X166750000Y-113250000D03*
X145750000Y-114250000D03*
X146750000Y-114250000D03*
X147750000Y-114250000D03*
X148750000Y-114250000D03*
X149750000Y-114250000D03*
X150750000Y-114250000D03*
X151750000Y-114250000D03*
X152750000Y-114250000D03*
X153750000Y-114250000D03*
X154750000Y-114250000D03*
X155750000Y-114250000D03*
X156750000Y-114250000D03*
X157750000Y-114250000D03*
X158750000Y-114250000D03*
X159750000Y-114250000D03*
X160750000Y-114250000D03*
X161750000Y-114250000D03*
X162750000Y-114250000D03*
X163750000Y-114250000D03*
X164750000Y-114250000D03*
X165750000Y-114250000D03*
X166750000Y-114250000D03*
X145750000Y-94250000D03*
X146750000Y-94250000D03*
X147750000Y-94250000D03*
X148750000Y-94250000D03*
X149750000Y-94250000D03*
X150750000Y-94250000D03*
X151750000Y-94250000D03*
X152750000Y-94250000D03*
X153750000Y-94250000D03*
X154750000Y-94250000D03*
X155750000Y-94250000D03*
X156750000Y-94250000D03*
X157750000Y-94250000D03*
X158750000Y-94250000D03*
X159750000Y-94250000D03*
X160750000Y-94250000D03*
X161750000Y-94250000D03*
X162750000Y-94250000D03*
X163750000Y-94250000D03*
X164750000Y-94250000D03*
X165750000Y-94250000D03*
X166750000Y-94250000D03*
X145750000Y-95250000D03*
X146750000Y-95250000D03*
X147750000Y-95250000D03*
X148750000Y-95250000D03*
X149750000Y-95250000D03*
X150750000Y-95250000D03*
X151750000Y-95250000D03*
X152750000Y-95250000D03*
X153750000Y-95250000D03*
X154750000Y-95250000D03*
X155750000Y-95250000D03*
X156750000Y-95250000D03*
X157750000Y-95250000D03*
X158750000Y-95250000D03*
X159750000Y-95250000D03*
X160750000Y-95250000D03*
X161750000Y-95250000D03*
X162750000Y-95250000D03*
X163750000Y-95250000D03*
X164750000Y-95250000D03*
X165750000Y-95250000D03*
X166750000Y-95250000D03*
X145750000Y-96250000D03*
X146750000Y-96250000D03*
X147750000Y-96250000D03*
X148750000Y-96250000D03*
X149750000Y-96250000D03*
X150750000Y-96250000D03*
X151750000Y-96250000D03*
X152750000Y-96250000D03*
X153750000Y-96250000D03*
X154750000Y-96250000D03*
X155750000Y-96250000D03*
X156750000Y-96250000D03*
X157750000Y-96250000D03*
X158750000Y-96250000D03*
X159750000Y-96250000D03*
X160750000Y-96250000D03*
X161750000Y-96250000D03*
X162750000Y-96250000D03*
X163750000Y-96250000D03*
X164750000Y-96250000D03*
X165750000Y-96250000D03*
X166750000Y-96250000D03*
X145750000Y-97250000D03*
X146750000Y-97250000D03*
X147750000Y-97250000D03*
X148750000Y-97250000D03*
X149750000Y-97250000D03*
X150750000Y-97250000D03*
X151750000Y-97250000D03*
X152750000Y-97250000D03*
X153750000Y-97250000D03*
X154750000Y-97250000D03*
X155750000Y-97250000D03*
X156750000Y-97250000D03*
X157750000Y-97250000D03*
X158750000Y-97250000D03*
X159750000Y-97250000D03*
X160750000Y-97250000D03*
X161750000Y-97250000D03*
X162750000Y-97250000D03*
X163750000Y-97250000D03*
X164750000Y-97250000D03*
X165750000Y-97250000D03*
X166750000Y-97250000D03*
X145750000Y-98250000D03*
X146750000Y-98250000D03*
X147750000Y-98250000D03*
X148750000Y-98250000D03*
X149750000Y-98250000D03*
X150750000Y-98250000D03*
X151750000Y-98250000D03*
X152750000Y-98250000D03*
X153750000Y-98250000D03*
X154750000Y-98250000D03*
X155750000Y-98250000D03*
X156750000Y-98250000D03*
X157750000Y-98250000D03*
X158750000Y-98250000D03*
X159750000Y-98250000D03*
X160750000Y-98250000D03*
X161750000Y-98250000D03*
X162750000Y-98250000D03*
X163750000Y-98250000D03*
X164750000Y-98250000D03*
X165750000Y-98250000D03*
X166750000Y-98250000D03*
X145750000Y-99250000D03*
X146750000Y-99250000D03*
X147750000Y-99250000D03*
X148750000Y-99250000D03*
X149750000Y-99250000D03*
X150750000Y-99250000D03*
X151750000Y-99250000D03*
X152750000Y-99250000D03*
X153750000Y-99250000D03*
X154750000Y-99250000D03*
X155750000Y-99250000D03*
X156750000Y-99250000D03*
X157750000Y-99250000D03*
X158750000Y-99250000D03*
X159750000Y-99250000D03*
X160750000Y-99250000D03*
X161750000Y-99250000D03*
X162750000Y-99250000D03*
X163750000Y-99250000D03*
X164750000Y-99250000D03*
X165750000Y-99250000D03*
X166750000Y-99250000D03*
X145750000Y-100250000D03*
X146750000Y-100250000D03*
X147750000Y-100250000D03*
X148750000Y-100250000D03*
X149750000Y-100250000D03*
X150750000Y-100250000D03*
X151750000Y-100250000D03*
X152750000Y-100250000D03*
X153750000Y-100250000D03*
X154750000Y-100250000D03*
X155750000Y-100250000D03*
X156750000Y-100250000D03*
X157750000Y-100250000D03*
X158750000Y-100250000D03*
X159750000Y-100250000D03*
X160750000Y-100250000D03*
X161750000Y-100250000D03*
X162750000Y-100250000D03*
X163750000Y-100250000D03*
X164750000Y-100250000D03*
X165750000Y-100250000D03*
X166750000Y-100250000D03*
X145750000Y-101250000D03*
X146750000Y-101250000D03*
X147750000Y-101250000D03*
X148750000Y-101250000D03*
X149750000Y-101250000D03*
X150750000Y-101250000D03*
X151750000Y-101250000D03*
X152750000Y-101250000D03*
X153750000Y-101250000D03*
X154750000Y-101250000D03*
X155750000Y-101250000D03*
X156750000Y-101250000D03*
X157750000Y-101250000D03*
X158750000Y-101250000D03*
X159750000Y-101250000D03*
X160750000Y-101250000D03*
X161750000Y-101250000D03*
X162750000Y-101250000D03*
X163750000Y-101250000D03*
X164750000Y-101250000D03*
X165750000Y-101250000D03*
X166750000Y-101250000D03*
X145750000Y-102250000D03*
X146750000Y-102250000D03*
X147750000Y-102250000D03*
X148750000Y-102250000D03*
X149750000Y-102250000D03*
X150750000Y-102250000D03*
X151750000Y-102250000D03*
X152750000Y-102250000D03*
X153750000Y-102250000D03*
X154750000Y-102250000D03*
X155750000Y-102250000D03*
X156750000Y-102250000D03*
X157750000Y-102250000D03*
X158750000Y-102250000D03*
X159750000Y-102250000D03*
X160750000Y-102250000D03*
X161750000Y-102250000D03*
X162750000Y-102250000D03*
X163750000Y-102250000D03*
X164750000Y-102250000D03*
X165750000Y-102250000D03*
X166750000Y-102250000D03*
X145750000Y-103250000D03*
X146750000Y-103250000D03*
X147750000Y-103250000D03*
X148750000Y-103250000D03*
X149750000Y-103250000D03*
X150750000Y-103250000D03*
X151750000Y-103250000D03*
X152750000Y-103250000D03*
X153750000Y-103250000D03*
X154750000Y-103250000D03*
X155750000Y-103250000D03*
X156750000Y-103250000D03*
X157750000Y-103250000D03*
X158750000Y-103250000D03*
X159750000Y-103250000D03*
X160750000Y-103250000D03*
X161750000Y-103250000D03*
X162750000Y-103250000D03*
X163750000Y-103250000D03*
X164750000Y-103250000D03*
X165750000Y-103250000D03*
X166750000Y-103250000D03*
X145750000Y-104250000D03*
X146750000Y-104250000D03*
X147750000Y-104250000D03*
X148750000Y-104250000D03*
X149750000Y-104250000D03*
X150750000Y-104250000D03*
X151750000Y-104250000D03*
X152750000Y-104250000D03*
X153750000Y-104250000D03*
X154750000Y-104250000D03*
X155750000Y-104250000D03*
X156750000Y-104250000D03*
X157750000Y-104250000D03*
X158750000Y-104250000D03*
X159750000Y-104250000D03*
X160750000Y-104250000D03*
X161750000Y-104250000D03*
X162750000Y-104250000D03*
X163750000Y-104250000D03*
X164750000Y-104250000D03*
X165750000Y-104250000D03*
X166750000Y-104250000D03*
X145750000Y-105250000D03*
X146750000Y-105250000D03*
X147750000Y-105250000D03*
X148750000Y-105250000D03*
X149750000Y-105250000D03*
X150750000Y-105250000D03*
X151750000Y-105250000D03*
X152750000Y-105250000D03*
X153750000Y-105250000D03*
X154750000Y-105250000D03*
X155750000Y-105250000D03*
X156750000Y-105250000D03*
X157750000Y-105250000D03*
X158750000Y-105250000D03*
X159750000Y-105250000D03*
X160750000Y-105250000D03*
X161750000Y-105250000D03*
X162750000Y-105250000D03*
X163750000Y-105250000D03*
X164750000Y-105250000D03*
X165750000Y-105250000D03*
X166750000Y-105250000D03*
X145750000Y-106250000D03*
X146750000Y-106250000D03*
X147750000Y-106250000D03*
X148750000Y-106250000D03*
X149750000Y-106250000D03*
X150750000Y-106250000D03*
X151750000Y-106250000D03*
X152750000Y-106250000D03*
X153750000Y-106250000D03*
X154750000Y-106250000D03*
X155750000Y-106250000D03*
X156750000Y-106250000D03*
X157750000Y-106250000D03*
X158750000Y-106250000D03*
X159750000Y-106250000D03*
X160750000Y-106250000D03*
X161750000Y-106250000D03*
X162750000Y-106250000D03*
X163750000Y-106250000D03*
X164750000Y-106250000D03*
X165750000Y-106250000D03*
X166750000Y-106250000D03*
X145750000Y-107250000D03*
X146750000Y-107250000D03*
X147750000Y-107250000D03*
X148750000Y-107250000D03*
X149750000Y-107250000D03*
X150750000Y-107250000D03*
X151750000Y-107250000D03*
X152750000Y-107250000D03*
X153750000Y-107250000D03*
X154750000Y-107250000D03*
X155750000Y-107250000D03*
X156750000Y-107250000D03*
X157750000Y-107250000D03*
X158750000Y-107250000D03*
X159750000Y-107250000D03*
X160750000Y-107250000D03*
X161750000Y-107250000D03*
X162750000Y-107250000D03*
X163750000Y-107250000D03*
X164750000Y-107250000D03*
X165750000Y-107250000D03*
X166750000Y-107250000D03*
X145750000Y-108250000D03*
X146750000Y-108250000D03*
X147750000Y-108250000D03*
X148750000Y-108250000D03*
X149750000Y-108250000D03*
X150750000Y-108250000D03*
X151750000Y-108250000D03*
X152750000Y-108250000D03*
X153750000Y-108250000D03*
X154750000Y-108250000D03*
X155750000Y-108250000D03*
X156750000Y-108250000D03*
X157750000Y-108250000D03*
X158750000Y-108250000D03*
X159750000Y-108250000D03*
X160750000Y-108250000D03*
X161750000Y-108250000D03*
X162750000Y-108250000D03*
X163750000Y-108250000D03*
X164750000Y-108250000D03*
X165750000Y-108250000D03*
X166750000Y-108250000D03*
X145750000Y-109250000D03*
X146750000Y-109250000D03*
X147750000Y-109250000D03*
X148750000Y-109250000D03*
X149750000Y-109250000D03*
X150750000Y-109250000D03*
X151750000Y-109250000D03*
X152750000Y-109250000D03*
X153750000Y-109250000D03*
X154750000Y-109250000D03*
X155750000Y-109250000D03*
X156750000Y-109250000D03*
X157750000Y-109250000D03*
X158750000Y-109250000D03*
X159750000Y-109250000D03*
X160750000Y-109250000D03*
X161750000Y-109250000D03*
X162750000Y-109250000D03*
X163750000Y-109250000D03*
X164750000Y-109250000D03*
X165750000Y-109250000D03*
X166750000Y-109250000D03*
X145750000Y-110250000D03*
X146750000Y-110250000D03*
X147750000Y-110250000D03*
X148750000Y-110250000D03*
X149750000Y-110250000D03*
X150750000Y-110250000D03*
X151750000Y-110250000D03*
X152750000Y-110250000D03*
X153750000Y-110250000D03*
X154750000Y-110250000D03*
X155750000Y-110250000D03*
X156750000Y-110250000D03*
X157750000Y-110250000D03*
X158750000Y-110250000D03*
X159750000Y-110250000D03*
X160750000Y-110250000D03*
X161750000Y-110250000D03*
X162750000Y-110250000D03*
X163750000Y-110250000D03*
X164750000Y-110250000D03*
X165750000Y-110250000D03*
X166750000Y-110250000D03*
X145750000Y-111250000D03*
X146750000Y-111250000D03*
X147750000Y-111250000D03*
X148750000Y-111250000D03*
X149750000Y-111250000D03*
X150750000Y-111250000D03*
X151750000Y-111250000D03*
X152750000Y-111250000D03*
X153750000Y-111250000D03*
X154750000Y-111250000D03*
X155750000Y-111250000D03*
X156750000Y-111250000D03*
X157750000Y-111250000D03*
X158750000Y-111250000D03*
X159750000Y-111250000D03*
X160750000Y-111250000D03*
X161750000Y-111250000D03*
X162750000Y-111250000D03*
X163750000Y-111250000D03*
X164750000Y-111250000D03*
X165750000Y-111250000D03*
X166750000Y-111250000D03*
X145750000Y-112250000D03*
X146750000Y-112250000D03*
X147750000Y-112250000D03*
X148750000Y-112250000D03*
X149750000Y-112250000D03*
X150750000Y-112250000D03*
X151750000Y-112250000D03*
X152750000Y-112250000D03*
X153750000Y-112250000D03*
X154750000Y-112250000D03*
X155750000Y-112250000D03*
X156750000Y-112250000D03*
X157750000Y-112250000D03*
X158750000Y-112250000D03*
X159750000Y-112250000D03*
X160750000Y-112250000D03*
X161750000Y-112250000D03*
X162750000Y-112250000D03*
X163750000Y-112250000D03*
X164750000Y-112250000D03*
X165750000Y-112250000D03*
X166750000Y-112250000D03*
%TD*%
D15*
%TO.C,R9*%
X149490000Y-142250000D03*
X150510000Y-142250000D03*
%TD*%
D32*
%TO.C,R13*%
X149500000Y-141010000D03*
X149500000Y-139990000D03*
%TD*%
D12*
%TO.C,C30*%
X123750000Y-112720000D03*
X124710000Y-112720000D03*
%TD*%
D24*
%TO.C,R12*%
X152000000Y-139990000D03*
X152000000Y-141010000D03*
%TD*%
D32*
%TO.C,R2*%
X131625000Y-125135000D03*
X131625000Y-124115000D03*
%TD*%
D25*
%TO.C,R7*%
X114385000Y-142175000D03*
X113365000Y-142175000D03*
%TD*%
D15*
%TO.C,R31*%
X106670000Y-109130000D03*
X107690000Y-109130000D03*
%TD*%
D12*
%TO.C,C22*%
X186880000Y-86207500D03*
X187840000Y-86207500D03*
%TD*%
D33*
%TO.C,D1*%
X127375000Y-138955000D03*
X127375000Y-134625000D03*
%TD*%
D12*
%TO.C,C19*%
X176950000Y-72580000D03*
X177910000Y-72580000D03*
%TD*%
D34*
%TO.C,C5*%
X129125000Y-124145000D03*
X129125000Y-125105000D03*
%TD*%
D35*
%TO.C,U3*%
X130725000Y-126685000D03*
X130225000Y-126685000D03*
X129725000Y-126685000D03*
X129225000Y-126685000D03*
D36*
X128575000Y-127155000D03*
X128575000Y-128955000D03*
X131375000Y-127155000D03*
%TD*%
D22*
%TO.C,L3*%
X98025000Y-96450000D03*
X103475000Y-96450000D03*
%TD*%
D30*
%TO.C,C2*%
X134375000Y-128855000D03*
X134375000Y-127895000D03*
%TD*%
D37*
%TO.C,U8*%
X109350000Y-121750000D03*
X109350000Y-122250000D03*
X109350000Y-122750000D03*
X109350000Y-123250000D03*
X109350000Y-123750000D03*
X109350000Y-124250000D03*
D38*
X110000000Y-124900000D03*
X110500000Y-124900000D03*
X111000000Y-124900000D03*
X111500000Y-124900000D03*
X112000000Y-124900000D03*
X112500000Y-124900000D03*
D37*
X113150000Y-124250000D03*
X113150000Y-123750000D03*
X113150000Y-123250000D03*
X113150000Y-122750000D03*
X113150000Y-122250000D03*
X113150000Y-121750000D03*
D38*
X112500000Y-121100000D03*
X112000000Y-121100000D03*
X111500000Y-121100000D03*
X111000000Y-121100000D03*
X110500000Y-121100000D03*
X110000000Y-121100000D03*
D39*
X111250000Y-123000000D03*
%TD*%
D12*
%TO.C,C31*%
X123750000Y-114690000D03*
X124710000Y-114690000D03*
%TD*%
D40*
%TO.C,Y1*%
X187450000Y-92287500D03*
X189650000Y-92287500D03*
X189650000Y-90587500D03*
X187450000Y-90587500D03*
%TD*%
D25*
%TO.C,R8*%
X150510000Y-143500000D03*
X149490000Y-143500000D03*
%TD*%
D41*
%TO.C,U6*%
X184230000Y-75980000D03*
X184730000Y-75980000D03*
X185230000Y-75980000D03*
X185730000Y-75980000D03*
X186230000Y-75980000D03*
X186730000Y-75980000D03*
X187230000Y-75980000D03*
X187730000Y-75980000D03*
D42*
X188380000Y-75330000D03*
X188380000Y-74830000D03*
X188380000Y-74330000D03*
X188380000Y-73830000D03*
X188380000Y-73330000D03*
X188380000Y-72830000D03*
X188380000Y-72330000D03*
X188380000Y-71830000D03*
D41*
X187730000Y-71180000D03*
X187230000Y-71180000D03*
X186730000Y-71180000D03*
X186230000Y-71180000D03*
X185730000Y-71180000D03*
X185230000Y-71180000D03*
X184730000Y-71180000D03*
X184230000Y-71180000D03*
D42*
X183580000Y-71830000D03*
X183580000Y-72330000D03*
X183580000Y-72830000D03*
X183580000Y-73330000D03*
X183580000Y-73830000D03*
X183580000Y-74330000D03*
X183580000Y-74830000D03*
X183580000Y-75330000D03*
D43*
X185980000Y-73580000D03*
%TD*%
D34*
%TO.C,C15*%
X150750000Y-140020000D03*
X150750000Y-140980000D03*
%TD*%
D15*
%TO.C,R16*%
X168210000Y-72590000D03*
X169230000Y-72590000D03*
%TD*%
D12*
%TO.C,C27*%
X189750000Y-86207500D03*
X190710000Y-86207500D03*
%TD*%
D32*
%TO.C,R5*%
X130375000Y-125145000D03*
X130375000Y-124125000D03*
%TD*%
D25*
%TO.C,R1*%
X133885000Y-125125000D03*
X132865000Y-125125000D03*
%TD*%
D15*
%TO.C,R29*%
X183960000Y-82297500D03*
X184980000Y-82297500D03*
%TD*%
D34*
%TO.C,C14*%
X143500000Y-138270000D03*
X143500000Y-139230000D03*
%TD*%
D44*
%TO.C,D3*%
X150205000Y-84630000D03*
X150705000Y-84630000D03*
D45*
X151205000Y-84630000D03*
D44*
X151705000Y-84630000D03*
X152195000Y-84630000D03*
X152195000Y-83830000D03*
X151705000Y-83830000D03*
D45*
X151205000Y-83830000D03*
D44*
X150705000Y-83830000D03*
X150205000Y-83830000D03*
%TD*%
D22*
%TO.C,L5*%
X98025000Y-112750000D03*
X103475000Y-112750000D03*
%TD*%
D46*
%TO.C,C40*%
X109870000Y-102910000D03*
X111770000Y-102910000D03*
%TD*%
D14*
%TO.C,C9*%
X109625000Y-129175000D03*
X109625000Y-131075000D03*
%TD*%
D15*
%TO.C,R21*%
X178140000Y-90257500D03*
X179160000Y-90257500D03*
%TD*%
D44*
%TO.C,D4*%
X137760000Y-86500000D03*
X138260000Y-86500000D03*
D45*
X138760000Y-86500000D03*
D44*
X139260000Y-86500000D03*
X139750000Y-86500000D03*
X139750000Y-85700000D03*
X139260000Y-85700000D03*
D45*
X138760000Y-85700000D03*
D44*
X138260000Y-85700000D03*
X137760000Y-85700000D03*
%TD*%
D30*
%TO.C,C1*%
X135875000Y-128855000D03*
X135875000Y-127895000D03*
%TD*%
D47*
%TO.C,U5*%
X132200000Y-72800000D03*
X132850000Y-72800000D03*
X133500000Y-72800000D03*
X134150000Y-72800000D03*
X134800000Y-72800000D03*
X135450000Y-72800000D03*
X136100000Y-72800000D03*
X136750000Y-72800000D03*
X137400000Y-72800000D03*
X138050000Y-72800000D03*
X138700000Y-72800000D03*
X139350000Y-72800000D03*
X140000000Y-72800000D03*
X140650000Y-72800000D03*
X141300000Y-72800000D03*
X132200000Y-73450000D03*
X132850000Y-73450000D03*
X133500000Y-73450000D03*
X134150000Y-73450000D03*
X134800000Y-73450000D03*
X135450000Y-73450000D03*
X136100000Y-73450000D03*
X136750000Y-73450000D03*
X137400000Y-73450000D03*
X138050000Y-73450000D03*
X138700000Y-73450000D03*
X139350000Y-73450000D03*
X140000000Y-73450000D03*
X140650000Y-73450000D03*
X141300000Y-73450000D03*
X132200000Y-74100000D03*
X132850000Y-74100000D03*
X133500000Y-74100000D03*
X134150000Y-74100000D03*
X134800000Y-74100000D03*
X135450000Y-74100000D03*
X136100000Y-74100000D03*
X136750000Y-74100000D03*
X137400000Y-74100000D03*
X138050000Y-74100000D03*
X138700000Y-74100000D03*
X139350000Y-74100000D03*
X140000000Y-74100000D03*
X140650000Y-74100000D03*
X141300000Y-74100000D03*
X132200000Y-74750000D03*
X132850000Y-74750000D03*
X133500000Y-74750000D03*
X134150000Y-74750000D03*
X134800000Y-74750000D03*
X135450000Y-74750000D03*
X136100000Y-74750000D03*
X136750000Y-74750000D03*
X137400000Y-74750000D03*
X138050000Y-74750000D03*
X138700000Y-74750000D03*
X139350000Y-74750000D03*
X140000000Y-74750000D03*
X140650000Y-74750000D03*
X141300000Y-74750000D03*
X132200000Y-75400000D03*
X132850000Y-75400000D03*
X133500000Y-75400000D03*
X134150000Y-75400000D03*
X139350000Y-75400000D03*
X140000000Y-75400000D03*
X140650000Y-75400000D03*
X141300000Y-75400000D03*
X132200000Y-76050000D03*
X132850000Y-76050000D03*
X133500000Y-76050000D03*
X134150000Y-76050000D03*
X135450000Y-76050000D03*
X136100000Y-76050000D03*
X136750000Y-76050000D03*
X137400000Y-76050000D03*
X138050000Y-76050000D03*
X139350000Y-76050000D03*
X140000000Y-76050000D03*
X140650000Y-76050000D03*
X141300000Y-76050000D03*
X132200000Y-76700000D03*
X132850000Y-76700000D03*
X133500000Y-76700000D03*
X134150000Y-76700000D03*
X135450000Y-76700000D03*
X136100000Y-76700000D03*
X136750000Y-76700000D03*
X137400000Y-76700000D03*
X138050000Y-76700000D03*
X139350000Y-76700000D03*
X140000000Y-76700000D03*
X140650000Y-76700000D03*
X141300000Y-76700000D03*
X132200000Y-77350000D03*
X132850000Y-77350000D03*
X133500000Y-77350000D03*
X134150000Y-77350000D03*
X135450000Y-77350000D03*
X136100000Y-77350000D03*
X136750000Y-77350000D03*
X137400000Y-77350000D03*
X138050000Y-77350000D03*
X139350000Y-77350000D03*
X140000000Y-77350000D03*
X140650000Y-77350000D03*
X141300000Y-77350000D03*
X132200000Y-78000000D03*
X132850000Y-78000000D03*
X133500000Y-78000000D03*
X134150000Y-78000000D03*
X135450000Y-78000000D03*
X136100000Y-78000000D03*
X136750000Y-78000000D03*
X137400000Y-78000000D03*
X138050000Y-78000000D03*
X139350000Y-78000000D03*
X140000000Y-78000000D03*
X140650000Y-78000000D03*
X141300000Y-78000000D03*
X132200000Y-78650000D03*
X132850000Y-78650000D03*
X133500000Y-78650000D03*
X134150000Y-78650000D03*
X135450000Y-78650000D03*
X136100000Y-78650000D03*
X136750000Y-78650000D03*
X137400000Y-78650000D03*
X138050000Y-78650000D03*
X139350000Y-78650000D03*
X140000000Y-78650000D03*
X140650000Y-78650000D03*
X141300000Y-78650000D03*
X132200000Y-79300000D03*
X132850000Y-79300000D03*
X133500000Y-79300000D03*
X134150000Y-79300000D03*
X139350000Y-79300000D03*
X140000000Y-79300000D03*
X140650000Y-79300000D03*
X141300000Y-79300000D03*
X132200000Y-79950000D03*
X132850000Y-79950000D03*
X133500000Y-79950000D03*
X134150000Y-79950000D03*
X134800000Y-79950000D03*
X135450000Y-79950000D03*
X136100000Y-79950000D03*
X136750000Y-79950000D03*
X137400000Y-79950000D03*
X138050000Y-79950000D03*
X138700000Y-79950000D03*
X139350000Y-79950000D03*
X140000000Y-79950000D03*
X140650000Y-79950000D03*
X141300000Y-79950000D03*
X132200000Y-80600000D03*
X132850000Y-80600000D03*
X133500000Y-80600000D03*
X134150000Y-80600000D03*
X134800000Y-80600000D03*
X135450000Y-80600000D03*
X136100000Y-80600000D03*
X136750000Y-80600000D03*
X137400000Y-80600000D03*
X138050000Y-80600000D03*
X138700000Y-80600000D03*
X139350000Y-80600000D03*
X140000000Y-80600000D03*
X140650000Y-80600000D03*
X141300000Y-80600000D03*
X132200000Y-81250000D03*
X132850000Y-81250000D03*
X133500000Y-81250000D03*
X134150000Y-81250000D03*
X134800000Y-81250000D03*
X135450000Y-81250000D03*
X136100000Y-81250000D03*
X136750000Y-81250000D03*
X137400000Y-81250000D03*
X138050000Y-81250000D03*
X138700000Y-81250000D03*
X139350000Y-81250000D03*
X140000000Y-81250000D03*
X140650000Y-81250000D03*
X141300000Y-81250000D03*
X132200000Y-81900000D03*
X132850000Y-81900000D03*
X133500000Y-81900000D03*
X134150000Y-81900000D03*
X134800000Y-81900000D03*
X135450000Y-81900000D03*
X136100000Y-81900000D03*
X136750000Y-81900000D03*
X137400000Y-81900000D03*
X138050000Y-81900000D03*
X138700000Y-81900000D03*
X139350000Y-81900000D03*
X140000000Y-81900000D03*
X140650000Y-81900000D03*
X141300000Y-81900000D03*
%TD*%
D48*
%TO.C,D2*%
X111225000Y-140125000D03*
X114525000Y-140125000D03*
%TD*%
D16*
%TO.C,F1*%
X137875000Y-131650000D03*
X137875000Y-128850000D03*
%TD*%
D30*
%TO.C,C4*%
X128375000Y-131625000D03*
X128375000Y-130665000D03*
%TD*%
D22*
%TO.C,L6*%
X98025000Y-120900000D03*
X103475000Y-120900000D03*
%TD*%
D12*
%TO.C,C28*%
X189750000Y-88177500D03*
X190710000Y-88177500D03*
%TD*%
D46*
%TO.C,C36*%
X109870000Y-96890000D03*
X111770000Y-96890000D03*
%TD*%
D15*
%TO.C,R33*%
X106670000Y-113110000D03*
X107690000Y-113110000D03*
%TD*%
%TO.C,R36*%
X109580000Y-113110000D03*
X110600000Y-113110000D03*
%TD*%
%TO.C,R32*%
X106670000Y-111120000D03*
X107690000Y-111120000D03*
%TD*%
D12*
%TO.C,C25*%
X189750000Y-82267500D03*
X190710000Y-82267500D03*
%TD*%
D15*
%TO.C,R20*%
X178140000Y-88267500D03*
X179160000Y-88267500D03*
%TD*%
D46*
%TO.C,C34*%
X109870000Y-93880000D03*
X111770000Y-93880000D03*
%TD*%
D13*
%TO.C,C12*%
X142250000Y-135000000D03*
X141290000Y-135000000D03*
%TD*%
D49*
%TO.C,U4*%
X147850000Y-141350000D03*
X147850000Y-140850000D03*
X147850000Y-140350000D03*
X147850000Y-139850000D03*
D50*
X147380000Y-139200000D03*
X145580000Y-139200000D03*
X147380000Y-142000000D03*
%TD*%
D15*
%TO.C,R28*%
X183960000Y-80307500D03*
X184980000Y-80307500D03*
%TD*%
D12*
%TO.C,C23*%
X186880000Y-88177500D03*
X187840000Y-88177500D03*
%TD*%
D51*
%TO.C,Q1*%
X121675000Y-139125000D03*
X118625000Y-139125000D03*
X121675000Y-142475000D03*
X118625000Y-142475000D03*
D52*
X122430000Y-134500000D03*
X117870000Y-134500000D03*
%TD*%
D12*
%TO.C,C24*%
X189750000Y-80297500D03*
X190710000Y-80297500D03*
%TD*%
D53*
%TO.C,WIFI1*%
X112250000Y-50750000D03*
X112250000Y-52650000D03*
X112250000Y-54550000D03*
X112250000Y-56450000D03*
X112250000Y-58350000D03*
X112250000Y-60250000D03*
X112250000Y-62150000D03*
X112250000Y-64050000D03*
D54*
X114830000Y-65980000D03*
X116730000Y-65980000D03*
X118630000Y-65980000D03*
X120530000Y-65980000D03*
X122430000Y-65980000D03*
X124330000Y-65980000D03*
X126230000Y-65980000D03*
X128130000Y-65980000D03*
X130030000Y-65980000D03*
D53*
X138400000Y-63200000D03*
X138400000Y-61300000D03*
X138400000Y-59400000D03*
X138400000Y-55400000D03*
X138400000Y-53500000D03*
X138400000Y-51600000D03*
D54*
X130030000Y-48830000D03*
X128130000Y-48830000D03*
X126230000Y-48830000D03*
X124330000Y-48830000D03*
X122430000Y-48830000D03*
X120530000Y-48830000D03*
X118630000Y-48830000D03*
X116730000Y-48830000D03*
X114830000Y-48830000D03*
%TD*%
D29*
%TO.C,C18*%
X157500000Y-131700000D03*
X157500000Y-129800000D03*
%TD*%
D12*
%TO.C,C37*%
X106680000Y-105180000D03*
X107640000Y-105180000D03*
%TD*%
%TO.C,C33*%
X106680000Y-101240000D03*
X107640000Y-101240000D03*
%TD*%
D15*
%TO.C,R34*%
X109580000Y-109130000D03*
X110600000Y-109130000D03*
%TD*%
D12*
%TO.C,C39*%
X106680000Y-107150000D03*
X107640000Y-107150000D03*
%TD*%
D55*
%TO.C,D5*%
X172460000Y-78340000D03*
X173960000Y-78340000D03*
%TD*%
D56*
%TO.C,C10*%
X135125000Y-134425000D03*
X135125000Y-141625000D03*
%TD*%
D24*
%TO.C,R4*%
X127875000Y-124115000D03*
X127875000Y-125135000D03*
%TD*%
D15*
%TO.C,R18*%
X178140000Y-84287500D03*
X179160000Y-84287500D03*
%TD*%
%TO.C,R19*%
X178140000Y-86277500D03*
X179160000Y-86277500D03*
%TD*%
D57*
%TO.C,U10*%
X153380000Y-61050000D03*
X153380000Y-61550000D03*
X153380000Y-62050000D03*
X153380000Y-62550000D03*
X153380000Y-63050000D03*
X153380000Y-63550000D03*
X153380000Y-64050000D03*
X153380000Y-64550000D03*
D58*
X154065000Y-65235000D03*
X154565000Y-65235000D03*
X155065000Y-65235000D03*
X155565000Y-65235000D03*
X156065000Y-65235000D03*
X156565000Y-65235000D03*
X157065000Y-65235000D03*
X157565000Y-65235000D03*
D57*
X158250000Y-64550000D03*
X158250000Y-64050000D03*
X158250000Y-63550000D03*
X158250000Y-63050000D03*
X158250000Y-62550000D03*
X158250000Y-62050000D03*
X158250000Y-61550000D03*
X158250000Y-61050000D03*
D58*
X157565000Y-60365000D03*
X157065000Y-60365000D03*
X156565000Y-60365000D03*
X156065000Y-60365000D03*
X155565000Y-60365000D03*
X155065000Y-60365000D03*
X154565000Y-60365000D03*
X154065000Y-60365000D03*
%TD*%
D46*
%TO.C,C38*%
X109870000Y-99900000D03*
X111770000Y-99900000D03*
%TD*%
D15*
%TO.C,R14*%
X132865000Y-123875000D03*
X133885000Y-123875000D03*
%TD*%
M02*
