%TF.GenerationSoftware,KiCad,Pcbnew,9.0.7*%
%TF.CreationDate,2026-07-29T10:53:38+08:00*%
%TF.ProjectId,TriCore-X,54726943-6f72-4652-9d58-2e6b69636164,rev?*%
%TF.SameCoordinates,Original*%
%TF.FileFunction,Soldermask,Top*%
%TF.FilePolarity,Negative*%
%FSLAX46Y46*%
G04 Gerber Fmt 4.6, Leading zero omitted, Abs format (unit mm)*
G04 Created by KiCad (PCBNEW 9.0.7) date 2026-07-29 10:53:38*
%MOMM*%
%LPD*%
G01*
G04 APERTURE LIST*
G04 Aperture macros list*
%AMRoundRect*
0 Rectangle with rounded corners*
0 $1 Rounding radius*
0 $2 $3 $4 $5 $6 $7 $8 $9 X,Y pos of 4 corners*
0 Add a 4 corners polygon primitive as box body*
4,1,4,$2,$3,$4,$5,$6,$7,$8,$9,$2,$3,0*
0 Add four circle primitives for the rounded corners*
1,1,$1+$1,$2,$3*
1,1,$1+$1,$4,$5*
1,1,$1+$1,$6,$7*
1,1,$1+$1,$8,$9*
0 Add four rect primitives between the rounded corners*
20,1,$1+$1,$2,$3,$4,$5,0*
20,1,$1+$1,$4,$5,$6,$7,0*
20,1,$1+$1,$6,$7,$8,$9,0*
20,1,$1+$1,$8,$9,$2,$3,0*%
%AMFreePoly0*
4,1,33,0.220616,0.727275,0.358262,0.670260,0.482139,0.587488,0.587488,0.482139,0.670260,0.358262,0.727275,0.220616,0.756340,0.074493,0.756340,-0.074493,0.727275,-0.220616,0.670260,-0.358262,0.587488,-0.482139,0.482139,-0.587488,0.358262,-0.670260,0.220616,-0.727275,0.074493,-0.756340,-0.074493,-0.756340,-0.220616,-0.727275,-0.358262,-0.670260,-0.482139,-0.587488,-0.587488,-0.482139,
-0.670260,-0.358262,-0.727275,-0.220616,-0.756340,-0.074493,-0.756340,0.074493,-0.727275,0.220616,-0.670260,0.358262,-0.587488,0.482139,-0.482139,0.587488,-0.358262,0.670260,-0.220616,0.727275,-0.074493,0.756340,0.074493,0.756340,0.220616,0.727275,0.220616,0.727275,$1*%
%AMFreePoly1*
4,1,33,0.230776,0.760768,0.374760,0.701127,0.504343,0.614543,0.614543,0.504343,0.701127,0.374760,0.760768,0.230776,0.791172,0.077924,0.791172,-0.077924,0.760768,-0.230776,0.701127,-0.374760,0.614543,-0.504343,0.504343,-0.614543,0.374760,-0.701127,0.230776,-0.760768,0.077924,-0.791172,-0.077924,-0.791172,-0.230776,-0.760768,-0.374760,-0.701127,-0.504343,-0.614543,-0.614543,-0.504343,
-0.701127,-0.374760,-0.760768,-0.230776,-0.791172,-0.077924,-0.791172,0.077924,-0.760768,0.230776,-0.701127,0.374760,-0.614543,0.504343,-0.504343,0.614543,-0.374760,0.701127,-0.230776,0.760768,-0.077924,0.791172,0.077924,0.791172,0.230776,0.760768,0.230776,0.760768,$1*%
%AMFreePoly2*
4,1,33,0.259805,0.856462,0.421900,0.789320,0.567782,0.691844,0.691844,0.567782,0.789320,0.421900,0.856462,0.259805,0.890690,0.087725,0.890690,-0.087725,0.856462,-0.259805,0.789320,-0.421900,0.691844,-0.567782,0.567782,-0.691844,0.421900,-0.789320,0.259805,-0.856462,0.087725,-0.890690,-0.087725,-0.890690,-0.259805,-0.856462,-0.421900,-0.789320,-0.567782,-0.691844,-0.691844,-0.567782,
-0.789320,-0.421900,-0.856462,-0.259805,-0.890690,-0.087725,-0.890690,0.087725,-0.856462,0.259805,-0.789320,0.421900,-0.691844,0.567782,-0.567782,0.691844,-0.421900,0.789320,-0.259805,0.856462,-0.087725,0.890690,0.087725,0.890690,0.259805,0.856462,0.259805,0.856462,$1*%
%AMFreePoly3*
4,1,41,0.290639,1.210601,0.476441,1.150230,0.650511,1.061537,0.808563,0.946705,0.946705,0.808563,1.061537,0.650511,1.150230,0.476441,1.210601,0.290639,1.241162,0.097682,1.241162,-0.097682,1.210601,-0.290639,1.150230,-0.476441,1.061537,-0.650511,0.946705,-0.808563,0.808563,-0.946705,0.650511,-1.061537,0.476441,-1.150230,0.290639,-1.210601,0.097682,-1.241162,-0.097682,-1.241162,
-0.290639,-1.210601,-0.476441,-1.150230,-0.650511,-1.061537,-0.808563,-0.946705,-0.946705,-0.808563,-1.061537,-0.650511,-1.150230,-0.476441,-1.210601,-0.290639,-1.241162,-0.097682,-1.241162,0.097682,-1.210601,0.290639,-1.150230,0.476441,-1.061537,0.650511,-0.946705,0.808563,-0.808563,0.946705,-0.650511,1.061537,-0.476441,1.150230,-0.290639,1.210601,-0.097682,1.241162,0.097682,1.241162,
0.290639,1.210601,0.290639,1.210601,$1*%
G04 Aperture macros list end*
%ADD10C,0.010000*%
%ADD11RoundRect,0.140000X-0.140000X-0.170000X0.140000X-0.170000X0.140000X0.170000X-0.140000X0.170000X0*%
%ADD12RoundRect,0.140000X0.140000X0.170000X-0.140000X0.170000X-0.140000X-0.170000X0.140000X-0.170000X0*%
%ADD13RoundRect,0.250000X-0.475000X0.250000X-0.475000X-0.250000X0.475000X-0.250000X0.475000X0.250000X0*%
%ADD14RoundRect,0.135000X-0.135000X-0.185000X0.135000X-0.185000X0.135000X0.185000X-0.135000X0.185000X0*%
%ADD15RoundRect,0.250000X0.625000X-0.375000X0.625000X0.375000X-0.625000X0.375000X-0.625000X-0.375000X0*%
%ADD16R,0.280000X0.660000*%
%ADD17R,0.660000X0.280000*%
%ADD18R,1.690000X1.690000*%
%ADD19RoundRect,0.250000X-0.375000X-0.625000X0.375000X-0.625000X0.375000X0.625000X-0.375000X0.625000X0*%
%ADD20O,2.004000X3.804000*%
%ADD21O,3.804000X2.004000*%
%ADD22R,3.500000X2.950000*%
%ADD23R,2.950000X3.500000*%
%ADD24RoundRect,0.218750X0.218750X0.256250X-0.218750X0.256250X-0.218750X-0.256250X0.218750X-0.256250X0*%
%ADD25RoundRect,0.135000X-0.185000X0.135000X-0.185000X-0.135000X0.185000X-0.135000X0.185000X0.135000X0*%
%ADD26RoundRect,0.135000X0.135000X0.185000X-0.135000X0.185000X-0.135000X-0.185000X0.135000X-0.185000X0*%
%ADD27R,0.190000X1.450000*%
%ADD28R,1.450000X0.190000*%
%ADD29R,5.590000X5.590000*%
%ADD30RoundRect,0.250000X0.475000X-0.250000X0.475000X0.250000X-0.475000X0.250000X-0.475000X-0.250000X0*%
%ADD31RoundRect,0.140000X0.170000X-0.140000X0.170000X0.140000X-0.170000X0.140000X-0.170000X-0.140000X0*%
%ADD32C,0.500000*%
%ADD33RoundRect,0.135000X0.185000X-0.135000X0.185000X0.135000X-0.185000X0.135000X-0.185000X-0.135000X0*%
%ADD34RoundRect,0.102000X-1.060000X1.140000X-1.060000X-1.140000X1.060000X-1.140000X1.060000X1.140000X0*%
%ADD35RoundRect,0.140000X-0.170000X0.140000X-0.170000X-0.140000X0.170000X-0.140000X0.170000X0.140000X0*%
%ADD36RoundRect,0.113500X-0.113500X0.288500X-0.113500X-0.288500X0.113500X-0.288500X0.113500X0.288500X0*%
%ADD37RoundRect,0.113500X-0.288500X0.113500X-0.288500X-0.113500X0.288500X-0.113500X0.288500X0.113500X0*%
%ADD38RoundRect,0.113500X-0.838500X0.113500X-0.838500X-0.113500X0.838500X-0.113500X0.838500X0.113500X0*%
%ADD39RoundRect,0.151000X-1.001000X0.151000X-1.001000X-0.151000X1.001000X-0.151000X1.001000X0.151000X0*%
%ADD40R,0.590000X0.250000*%
%ADD41R,0.250000X0.590000*%
%ADD42R,2.450000X2.450000*%
%ADD43RoundRect,0.250000X-0.450000X-0.350000X0.450000X-0.350000X0.450000X0.350000X-0.450000X0.350000X0*%
%ADD44O,0.280000X0.800000*%
%ADD45O,0.800000X0.280000*%
%ADD46R,3.400000X3.400000*%
%ADD47R,0.190000X0.560000*%
%ADD48R,0.390000X0.560000*%
%ADD49RoundRect,0.250000X-0.250000X-0.475000X0.250000X-0.475000X0.250000X0.475000X-0.250000X0.475000X0*%
%ADD50C,0.400000*%
%ADD51RoundRect,0.225000X-0.225000X-0.375000X0.225000X-0.375000X0.225000X0.375000X-0.225000X0.375000X0*%
%ADD52FreePoly0,270.000000*%
%ADD53O,2.990000X1.490000*%
%ADD54RoundRect,0.113500X0.288500X0.113500X-0.288500X0.113500X-0.288500X-0.113500X0.288500X-0.113500X0*%
%ADD55RoundRect,0.113500X0.113500X0.288500X-0.113500X0.288500X-0.113500X-0.288500X0.113500X-0.288500X0*%
%ADD56RoundRect,0.113500X0.113500X0.838500X-0.113500X0.838500X-0.113500X-0.838500X0.113500X-0.838500X0*%
%ADD57RoundRect,0.151000X0.151000X1.001000X-0.151000X1.001000X-0.151000X-1.001000X0.151000X-1.001000X0*%
%ADD58C,2.387600*%
%ADD59C,1.499400*%
%ADD60RoundRect,0.250000X-0.350000X0.850000X-0.350000X-0.850000X0.350000X-0.850000X0.350000X0.850000X0*%
%ADD61RoundRect,0.249997X-2.650003X2.950003X-2.650003X-2.950003X2.650003X-2.950003X2.650003X2.950003X0*%
%ADD62R,2.350000X1.190000*%
%ADD63R,1.190000X2.350000*%
%ADD64R,0.590000X0.390000*%
%ADD65RoundRect,0.250001X-0.799999X1.999999X-0.799999X-1.999999X0.799999X-1.999999X0.799999X1.999999X0*%
%ADD66RoundRect,0.162400X-0.369600X-0.069600X0.369600X-0.069600X0.369600X0.069600X-0.369600X0.069600X0*%
%ADD67RoundRect,0.162400X-0.069600X-0.369600X0.069600X-0.369600X0.069600X0.369600X-0.069600X0.369600X0*%
%ADD68RoundRect,0.102000X-1.650000X-1.650000X1.650000X-1.650000X1.650000X1.650000X-1.650000X1.650000X0*%
%ADD69C,3.300000*%
%ADD70R,1.590000X1.590000*%
%ADD71FreePoly1,270.000000*%
%ADD72FreePoly2,270.000000*%
%ADD73FreePoly3,270.000000*%
G04 APERTURE END LIST*
D10*
%TO.C,U3*%
X131641000Y-128736000D02*
X131648000Y-128737000D01*
X131656000Y-128738000D01*
X131664000Y-128740000D01*
X131671000Y-128742000D01*
X131679000Y-128745000D01*
X131686000Y-128748000D01*
X131693000Y-128751000D01*
X131700000Y-128755000D01*
X131707000Y-128759000D01*
X131713000Y-128764000D01*
X131719000Y-128768000D01*
X131725000Y-128774000D01*
X131731000Y-128779000D01*
X131736000Y-128785000D01*
X131742000Y-128791000D01*
X131746000Y-128797000D01*
X131751000Y-128803000D01*
X131755000Y-128810000D01*
X131759000Y-128817000D01*
X131762000Y-128824000D01*
X131765000Y-128831000D01*
X131768000Y-128839000D01*
X131770000Y-128846000D01*
X131772000Y-128854000D01*
X131773000Y-128862000D01*
X131774000Y-128869000D01*
X131775000Y-128877000D01*
X131775000Y-128885000D01*
X131775000Y-129185000D01*
X131775000Y-129193000D01*
X131774000Y-129201000D01*
X131773000Y-129208000D01*
X131772000Y-129216000D01*
X131770000Y-129224000D01*
X131768000Y-129231000D01*
X131765000Y-129239000D01*
X131762000Y-129246000D01*
X131759000Y-129253000D01*
X131755000Y-129260000D01*
X131751000Y-129267000D01*
X131746000Y-129273000D01*
X131742000Y-129279000D01*
X131736000Y-129285000D01*
X131731000Y-129291000D01*
X131725000Y-129296000D01*
X131719000Y-129302000D01*
X131713000Y-129306000D01*
X131707000Y-129311000D01*
X131700000Y-129315000D01*
X131693000Y-129319000D01*
X131686000Y-129322000D01*
X131679000Y-129325000D01*
X131671000Y-129328000D01*
X131664000Y-129330000D01*
X131656000Y-129332000D01*
X131648000Y-129333000D01*
X131641000Y-129334000D01*
X131633000Y-129335000D01*
X131625000Y-129335000D01*
X130950000Y-129335000D01*
X130950000Y-129745000D01*
X130950000Y-129753000D01*
X130949000Y-129761000D01*
X130948000Y-129768000D01*
X130947000Y-129776000D01*
X130945000Y-129784000D01*
X130943000Y-129791000D01*
X130940000Y-129799000D01*
X130937000Y-129806000D01*
X130934000Y-129813000D01*
X130930000Y-129820000D01*
X130926000Y-129827000D01*
X130921000Y-129833000D01*
X130917000Y-129839000D01*
X130911000Y-129845000D01*
X130906000Y-129851000D01*
X130900000Y-129856000D01*
X130894000Y-129862000D01*
X130888000Y-129866000D01*
X130882000Y-129871000D01*
X130875000Y-129875000D01*
X130868000Y-129879000D01*
X130861000Y-129882000D01*
X130854000Y-129885000D01*
X130846000Y-129888000D01*
X130839000Y-129890000D01*
X130831000Y-129892000D01*
X130823000Y-129893000D01*
X130816000Y-129894000D01*
X130808000Y-129895000D01*
X130800000Y-129895000D01*
X130650000Y-129895000D01*
X130642000Y-129895000D01*
X130634000Y-129894000D01*
X130627000Y-129893000D01*
X130619000Y-129892000D01*
X130611000Y-129890000D01*
X130604000Y-129888000D01*
X130596000Y-129885000D01*
X130589000Y-129882000D01*
X130582000Y-129879000D01*
X130575000Y-129875000D01*
X130568000Y-129871000D01*
X130562000Y-129866000D01*
X130556000Y-129862000D01*
X130550000Y-129856000D01*
X130544000Y-129851000D01*
X130539000Y-129845000D01*
X130533000Y-129839000D01*
X130529000Y-129833000D01*
X130524000Y-129827000D01*
X130520000Y-129820000D01*
X130516000Y-129813000D01*
X130513000Y-129806000D01*
X130510000Y-129799000D01*
X130507000Y-129791000D01*
X130505000Y-129784000D01*
X130503000Y-129776000D01*
X130502000Y-129768000D01*
X130501000Y-129761000D01*
X130500000Y-129753000D01*
X130500000Y-129745000D01*
X130500000Y-129335000D01*
X130450000Y-129335000D01*
X130450000Y-129745000D01*
X130450000Y-129753000D01*
X130449000Y-129761000D01*
X130448000Y-129768000D01*
X130447000Y-129776000D01*
X130445000Y-129784000D01*
X130443000Y-129791000D01*
X130440000Y-129799000D01*
X130437000Y-129806000D01*
X130434000Y-129813000D01*
X130430000Y-129820000D01*
X130426000Y-129827000D01*
X130421000Y-129833000D01*
X130417000Y-129839000D01*
X130411000Y-129845000D01*
X130406000Y-129851000D01*
X130400000Y-129856000D01*
X130394000Y-129862000D01*
X130388000Y-129866000D01*
X130382000Y-129871000D01*
X130375000Y-129875000D01*
X130368000Y-129879000D01*
X130361000Y-129882000D01*
X130354000Y-129885000D01*
X130346000Y-129888000D01*
X130339000Y-129890000D01*
X130331000Y-129892000D01*
X130323000Y-129893000D01*
X130316000Y-129894000D01*
X130308000Y-129895000D01*
X130300000Y-129895000D01*
X130150000Y-129895000D01*
X130142000Y-129895000D01*
X130134000Y-129894000D01*
X130127000Y-129893000D01*
X130119000Y-129892000D01*
X130111000Y-129890000D01*
X130104000Y-129888000D01*
X130096000Y-129885000D01*
X130089000Y-129882000D01*
X130082000Y-129879000D01*
X130075000Y-129875000D01*
X130068000Y-129871000D01*
X130062000Y-129866000D01*
X130056000Y-129862000D01*
X130050000Y-129856000D01*
X130044000Y-129851000D01*
X130039000Y-129845000D01*
X130033000Y-129839000D01*
X130029000Y-129833000D01*
X130024000Y-129827000D01*
X130020000Y-129820000D01*
X130016000Y-129813000D01*
X130013000Y-129806000D01*
X130010000Y-129799000D01*
X130007000Y-129791000D01*
X130005000Y-129784000D01*
X130003000Y-129776000D01*
X130002000Y-129768000D01*
X130001000Y-129761000D01*
X130000000Y-129753000D01*
X130000000Y-129745000D01*
X130000000Y-129335000D01*
X129950000Y-129335000D01*
X129950000Y-129745000D01*
X129949000Y-129752000D01*
X129948000Y-129761000D01*
X129946000Y-129769000D01*
X129944000Y-129777000D01*
X129942000Y-129786000D01*
X129939000Y-129794000D01*
X129935000Y-129801000D01*
X129931000Y-129809000D01*
X129927000Y-129816000D01*
X129923000Y-129824000D01*
X129918000Y-129831000D01*
X129912000Y-129837000D01*
X129907000Y-129844000D01*
X129901000Y-129850000D01*
X129894000Y-129856000D01*
X129888000Y-129861000D01*
X129881000Y-129866000D01*
X129874000Y-129871000D01*
X129867000Y-129875000D01*
X129859000Y-129879000D01*
X129851000Y-129883000D01*
X129843000Y-129886000D01*
X129835000Y-129888000D01*
X129827000Y-129891000D01*
X129819000Y-129892000D01*
X129810000Y-129894000D01*
X129802000Y-129895000D01*
X129793000Y-129895000D01*
X129785000Y-129895000D01*
X129775000Y-129895000D01*
X129675000Y-129895000D01*
X129665000Y-129895000D01*
X129657000Y-129895000D01*
X129648000Y-129895000D01*
X129640000Y-129894000D01*
X129631000Y-129892000D01*
X129623000Y-129891000D01*
X129615000Y-129888000D01*
X129607000Y-129886000D01*
X129599000Y-129883000D01*
X129591000Y-129879000D01*
X129583000Y-129875000D01*
X129576000Y-129871000D01*
X129569000Y-129866000D01*
X129562000Y-129861000D01*
X129556000Y-129856000D01*
X129549000Y-129850000D01*
X129543000Y-129844000D01*
X129538000Y-129837000D01*
X129532000Y-129831000D01*
X129527000Y-129824000D01*
X129523000Y-129816000D01*
X129519000Y-129809000D01*
X129515000Y-129801000D01*
X129511000Y-129794000D01*
X129508000Y-129786000D01*
X129506000Y-129777000D01*
X129504000Y-129769000D01*
X129502000Y-129761000D01*
X129501000Y-129752000D01*
X129500000Y-129745000D01*
X129500000Y-129335000D01*
X129475000Y-129335000D01*
X129475000Y-128885000D01*
X129475000Y-128877000D01*
X129476000Y-128869000D01*
X129477000Y-128862000D01*
X129478000Y-128854000D01*
X129480000Y-128846000D01*
X129482000Y-128839000D01*
X129485000Y-128831000D01*
X129488000Y-128824000D01*
X129491000Y-128817000D01*
X129495000Y-128810000D01*
X129499000Y-128803000D01*
X129504000Y-128797000D01*
X129508000Y-128791000D01*
X129514000Y-128785000D01*
X129519000Y-128779000D01*
X129525000Y-128774000D01*
X129531000Y-128768000D01*
X129537000Y-128764000D01*
X129543000Y-128759000D01*
X129550000Y-128755000D01*
X129557000Y-128751000D01*
X129564000Y-128748000D01*
X129571000Y-128745000D01*
X129579000Y-128742000D01*
X129586000Y-128740000D01*
X129594000Y-128738000D01*
X129602000Y-128737000D01*
X129609000Y-128736000D01*
X129617000Y-128735000D01*
X129625000Y-128735000D01*
X131625000Y-128735000D01*
X131633000Y-128735000D01*
X131641000Y-128736000D01*
G36*
X131641000Y-128736000D02*
G01*
X131648000Y-128737000D01*
X131656000Y-128738000D01*
X131664000Y-128740000D01*
X131671000Y-128742000D01*
X131679000Y-128745000D01*
X131686000Y-128748000D01*
X131693000Y-128751000D01*
X131700000Y-128755000D01*
X131707000Y-128759000D01*
X131713000Y-128764000D01*
X131719000Y-128768000D01*
X131725000Y-128774000D01*
X131731000Y-128779000D01*
X131736000Y-128785000D01*
X131742000Y-128791000D01*
X131746000Y-128797000D01*
X131751000Y-128803000D01*
X131755000Y-128810000D01*
X131759000Y-128817000D01*
X131762000Y-128824000D01*
X131765000Y-128831000D01*
X131768000Y-128839000D01*
X131770000Y-128846000D01*
X131772000Y-128854000D01*
X131773000Y-128862000D01*
X131774000Y-128869000D01*
X131775000Y-128877000D01*
X131775000Y-128885000D01*
X131775000Y-129185000D01*
X131775000Y-129193000D01*
X131774000Y-129201000D01*
X131773000Y-129208000D01*
X131772000Y-129216000D01*
X131770000Y-129224000D01*
X131768000Y-129231000D01*
X131765000Y-129239000D01*
X131762000Y-129246000D01*
X131759000Y-129253000D01*
X131755000Y-129260000D01*
X131751000Y-129267000D01*
X131746000Y-129273000D01*
X131742000Y-129279000D01*
X131736000Y-129285000D01*
X131731000Y-129291000D01*
X131725000Y-129296000D01*
X131719000Y-129302000D01*
X131713000Y-129306000D01*
X131707000Y-129311000D01*
X131700000Y-129315000D01*
X131693000Y-129319000D01*
X131686000Y-129322000D01*
X131679000Y-129325000D01*
X131671000Y-129328000D01*
X131664000Y-129330000D01*
X131656000Y-129332000D01*
X131648000Y-129333000D01*
X131641000Y-129334000D01*
X131633000Y-129335000D01*
X131625000Y-129335000D01*
X130950000Y-129335000D01*
X130950000Y-129745000D01*
X130950000Y-129753000D01*
X130949000Y-129761000D01*
X130948000Y-129768000D01*
X130947000Y-129776000D01*
X130945000Y-129784000D01*
X130943000Y-129791000D01*
X130940000Y-129799000D01*
X130937000Y-129806000D01*
X130934000Y-129813000D01*
X130930000Y-129820000D01*
X130926000Y-129827000D01*
X130921000Y-129833000D01*
X130917000Y-129839000D01*
X130911000Y-129845000D01*
X130906000Y-129851000D01*
X130900000Y-129856000D01*
X130894000Y-129862000D01*
X130888000Y-129866000D01*
X130882000Y-129871000D01*
X130875000Y-129875000D01*
X130868000Y-129879000D01*
X130861000Y-129882000D01*
X130854000Y-129885000D01*
X130846000Y-129888000D01*
X130839000Y-129890000D01*
X130831000Y-129892000D01*
X130823000Y-129893000D01*
X130816000Y-129894000D01*
X130808000Y-129895000D01*
X130800000Y-129895000D01*
X130650000Y-129895000D01*
X130642000Y-129895000D01*
X130634000Y-129894000D01*
X130627000Y-129893000D01*
X130619000Y-129892000D01*
X130611000Y-129890000D01*
X130604000Y-129888000D01*
X130596000Y-129885000D01*
X130589000Y-129882000D01*
X130582000Y-129879000D01*
X130575000Y-129875000D01*
X130568000Y-129871000D01*
X130562000Y-129866000D01*
X130556000Y-129862000D01*
X130550000Y-129856000D01*
X130544000Y-129851000D01*
X130539000Y-129845000D01*
X130533000Y-129839000D01*
X130529000Y-129833000D01*
X130524000Y-129827000D01*
X130520000Y-129820000D01*
X130516000Y-129813000D01*
X130513000Y-129806000D01*
X130510000Y-129799000D01*
X130507000Y-129791000D01*
X130505000Y-129784000D01*
X130503000Y-129776000D01*
X130502000Y-129768000D01*
X130501000Y-129761000D01*
X130500000Y-129753000D01*
X130500000Y-129745000D01*
X130500000Y-129335000D01*
X130450000Y-129335000D01*
X130450000Y-129745000D01*
X130450000Y-129753000D01*
X130449000Y-129761000D01*
X130448000Y-129768000D01*
X130447000Y-129776000D01*
X130445000Y-129784000D01*
X130443000Y-129791000D01*
X130440000Y-129799000D01*
X130437000Y-129806000D01*
X130434000Y-129813000D01*
X130430000Y-129820000D01*
X130426000Y-129827000D01*
X130421000Y-129833000D01*
X130417000Y-129839000D01*
X130411000Y-129845000D01*
X130406000Y-129851000D01*
X130400000Y-129856000D01*
X130394000Y-129862000D01*
X130388000Y-129866000D01*
X130382000Y-129871000D01*
X130375000Y-129875000D01*
X130368000Y-129879000D01*
X130361000Y-129882000D01*
X130354000Y-129885000D01*
X130346000Y-129888000D01*
X130339000Y-129890000D01*
X130331000Y-129892000D01*
X130323000Y-129893000D01*
X130316000Y-129894000D01*
X130308000Y-129895000D01*
X130300000Y-129895000D01*
X130150000Y-129895000D01*
X130142000Y-129895000D01*
X130134000Y-129894000D01*
X130127000Y-129893000D01*
X130119000Y-129892000D01*
X130111000Y-129890000D01*
X130104000Y-129888000D01*
X130096000Y-129885000D01*
X130089000Y-129882000D01*
X130082000Y-129879000D01*
X130075000Y-129875000D01*
X130068000Y-129871000D01*
X130062000Y-129866000D01*
X130056000Y-129862000D01*
X130050000Y-129856000D01*
X130044000Y-129851000D01*
X130039000Y-129845000D01*
X130033000Y-129839000D01*
X130029000Y-129833000D01*
X130024000Y-129827000D01*
X130020000Y-129820000D01*
X130016000Y-129813000D01*
X130013000Y-129806000D01*
X130010000Y-129799000D01*
X130007000Y-129791000D01*
X130005000Y-129784000D01*
X130003000Y-129776000D01*
X130002000Y-129768000D01*
X130001000Y-129761000D01*
X130000000Y-129753000D01*
X130000000Y-129745000D01*
X130000000Y-129335000D01*
X129950000Y-129335000D01*
X129950000Y-129745000D01*
X129949000Y-129752000D01*
X129948000Y-129761000D01*
X129946000Y-129769000D01*
X129944000Y-129777000D01*
X129942000Y-129786000D01*
X129939000Y-129794000D01*
X129935000Y-129801000D01*
X129931000Y-129809000D01*
X129927000Y-129816000D01*
X129923000Y-129824000D01*
X129918000Y-129831000D01*
X129912000Y-129837000D01*
X129907000Y-129844000D01*
X129901000Y-129850000D01*
X129894000Y-129856000D01*
X129888000Y-129861000D01*
X129881000Y-129866000D01*
X129874000Y-129871000D01*
X129867000Y-129875000D01*
X129859000Y-129879000D01*
X129851000Y-129883000D01*
X129843000Y-129886000D01*
X129835000Y-129888000D01*
X129827000Y-129891000D01*
X129819000Y-129892000D01*
X129810000Y-129894000D01*
X129802000Y-129895000D01*
X129793000Y-129895000D01*
X129785000Y-129895000D01*
X129775000Y-129895000D01*
X129675000Y-129895000D01*
X129665000Y-129895000D01*
X129657000Y-129895000D01*
X129648000Y-129895000D01*
X129640000Y-129894000D01*
X129631000Y-129892000D01*
X129623000Y-129891000D01*
X129615000Y-129888000D01*
X129607000Y-129886000D01*
X129599000Y-129883000D01*
X129591000Y-129879000D01*
X129583000Y-129875000D01*
X129576000Y-129871000D01*
X129569000Y-129866000D01*
X129562000Y-129861000D01*
X129556000Y-129856000D01*
X129549000Y-129850000D01*
X129543000Y-129844000D01*
X129538000Y-129837000D01*
X129532000Y-129831000D01*
X129527000Y-129824000D01*
X129523000Y-129816000D01*
X129519000Y-129809000D01*
X129515000Y-129801000D01*
X129511000Y-129794000D01*
X129508000Y-129786000D01*
X129506000Y-129777000D01*
X129504000Y-129769000D01*
X129502000Y-129761000D01*
X129501000Y-129752000D01*
X129500000Y-129745000D01*
X129500000Y-129335000D01*
X129475000Y-129335000D01*
X129475000Y-128885000D01*
X129475000Y-128877000D01*
X129476000Y-128869000D01*
X129477000Y-128862000D01*
X129478000Y-128854000D01*
X129480000Y-128846000D01*
X129482000Y-128839000D01*
X129485000Y-128831000D01*
X129488000Y-128824000D01*
X129491000Y-128817000D01*
X129495000Y-128810000D01*
X129499000Y-128803000D01*
X129504000Y-128797000D01*
X129508000Y-128791000D01*
X129514000Y-128785000D01*
X129519000Y-128779000D01*
X129525000Y-128774000D01*
X129531000Y-128768000D01*
X129537000Y-128764000D01*
X129543000Y-128759000D01*
X129550000Y-128755000D01*
X129557000Y-128751000D01*
X129564000Y-128748000D01*
X129571000Y-128745000D01*
X129579000Y-128742000D01*
X129586000Y-128740000D01*
X129594000Y-128738000D01*
X129602000Y-128737000D01*
X129609000Y-128736000D01*
X129617000Y-128735000D01*
X129625000Y-128735000D01*
X131625000Y-128735000D01*
X131633000Y-128735000D01*
X131641000Y-128736000D01*
G37*
%TO.C,U4*%
X145666000Y-140101000D02*
X145673000Y-140102000D01*
X145681000Y-140103000D01*
X145689000Y-140105000D01*
X145696000Y-140107000D01*
X145704000Y-140110000D01*
X145711000Y-140113000D01*
X145718000Y-140116000D01*
X145725000Y-140120000D01*
X145732000Y-140124000D01*
X145738000Y-140129000D01*
X145744000Y-140133000D01*
X145750000Y-140139000D01*
X145756000Y-140144000D01*
X145761000Y-140150000D01*
X145767000Y-140156000D01*
X145771000Y-140162000D01*
X145776000Y-140168000D01*
X145780000Y-140175000D01*
X145784000Y-140182000D01*
X145787000Y-140189000D01*
X145790000Y-140196000D01*
X145793000Y-140204000D01*
X145795000Y-140211000D01*
X145797000Y-140219000D01*
X145798000Y-140227000D01*
X145799000Y-140234000D01*
X145800000Y-140242000D01*
X145800000Y-140250000D01*
X145800000Y-142250000D01*
X145800000Y-142258000D01*
X145799000Y-142266000D01*
X145798000Y-142273000D01*
X145797000Y-142281000D01*
X145795000Y-142289000D01*
X145793000Y-142296000D01*
X145790000Y-142304000D01*
X145787000Y-142311000D01*
X145784000Y-142318000D01*
X145780000Y-142325000D01*
X145776000Y-142332000D01*
X145771000Y-142338000D01*
X145767000Y-142344000D01*
X145761000Y-142350000D01*
X145756000Y-142356000D01*
X145750000Y-142361000D01*
X145744000Y-142367000D01*
X145738000Y-142371000D01*
X145732000Y-142376000D01*
X145725000Y-142380000D01*
X145718000Y-142384000D01*
X145711000Y-142387000D01*
X145704000Y-142390000D01*
X145696000Y-142393000D01*
X145689000Y-142395000D01*
X145681000Y-142397000D01*
X145673000Y-142398000D01*
X145666000Y-142399000D01*
X145658000Y-142400000D01*
X145650000Y-142400000D01*
X145350000Y-142400000D01*
X145342000Y-142400000D01*
X145334000Y-142399000D01*
X145327000Y-142398000D01*
X145319000Y-142397000D01*
X145311000Y-142395000D01*
X145304000Y-142393000D01*
X145296000Y-142390000D01*
X145289000Y-142387000D01*
X145282000Y-142384000D01*
X145275000Y-142380000D01*
X145268000Y-142376000D01*
X145262000Y-142371000D01*
X145256000Y-142367000D01*
X145250000Y-142361000D01*
X145244000Y-142356000D01*
X145239000Y-142350000D01*
X145233000Y-142344000D01*
X145229000Y-142338000D01*
X145224000Y-142332000D01*
X145220000Y-142325000D01*
X145216000Y-142318000D01*
X145213000Y-142311000D01*
X145210000Y-142304000D01*
X145207000Y-142296000D01*
X145205000Y-142289000D01*
X145203000Y-142281000D01*
X145202000Y-142273000D01*
X145201000Y-142266000D01*
X145200000Y-142258000D01*
X145200000Y-142250000D01*
X145200000Y-141575000D01*
X144790000Y-141575000D01*
X144782000Y-141575000D01*
X144774000Y-141574000D01*
X144767000Y-141573000D01*
X144759000Y-141572000D01*
X144751000Y-141570000D01*
X144744000Y-141568000D01*
X144736000Y-141565000D01*
X144729000Y-141562000D01*
X144722000Y-141559000D01*
X144715000Y-141555000D01*
X144708000Y-141551000D01*
X144702000Y-141546000D01*
X144696000Y-141542000D01*
X144690000Y-141536000D01*
X144684000Y-141531000D01*
X144679000Y-141525000D01*
X144673000Y-141519000D01*
X144669000Y-141513000D01*
X144664000Y-141507000D01*
X144660000Y-141500000D01*
X144656000Y-141493000D01*
X144653000Y-141486000D01*
X144650000Y-141479000D01*
X144647000Y-141471000D01*
X144645000Y-141464000D01*
X144643000Y-141456000D01*
X144642000Y-141448000D01*
X144641000Y-141441000D01*
X144640000Y-141433000D01*
X144640000Y-141425000D01*
X144640000Y-141275000D01*
X144640000Y-141267000D01*
X144641000Y-141259000D01*
X144642000Y-141252000D01*
X144643000Y-141244000D01*
X144645000Y-141236000D01*
X144647000Y-141229000D01*
X144650000Y-141221000D01*
X144653000Y-141214000D01*
X144656000Y-141207000D01*
X144660000Y-141200000D01*
X144664000Y-141193000D01*
X144669000Y-141187000D01*
X144673000Y-141181000D01*
X144679000Y-141175000D01*
X144684000Y-141169000D01*
X144690000Y-141164000D01*
X144696000Y-141158000D01*
X144702000Y-141154000D01*
X144708000Y-141149000D01*
X144715000Y-141145000D01*
X144722000Y-141141000D01*
X144729000Y-141138000D01*
X144736000Y-141135000D01*
X144744000Y-141132000D01*
X144751000Y-141130000D01*
X144759000Y-141128000D01*
X144767000Y-141127000D01*
X144774000Y-141126000D01*
X144782000Y-141125000D01*
X144790000Y-141125000D01*
X145200000Y-141125000D01*
X145200000Y-141075000D01*
X144790000Y-141075000D01*
X144782000Y-141075000D01*
X144774000Y-141074000D01*
X144767000Y-141073000D01*
X144759000Y-141072000D01*
X144751000Y-141070000D01*
X144744000Y-141068000D01*
X144736000Y-141065000D01*
X144729000Y-141062000D01*
X144722000Y-141059000D01*
X144715000Y-141055000D01*
X144708000Y-141051000D01*
X144702000Y-141046000D01*
X144696000Y-141042000D01*
X144690000Y-141036000D01*
X144684000Y-141031000D01*
X144679000Y-141025000D01*
X144673000Y-141019000D01*
X144669000Y-141013000D01*
X144664000Y-141007000D01*
X144660000Y-141000000D01*
X144656000Y-140993000D01*
X144653000Y-140986000D01*
X144650000Y-140979000D01*
X144647000Y-140971000D01*
X144645000Y-140964000D01*
X144643000Y-140956000D01*
X144642000Y-140948000D01*
X144641000Y-140941000D01*
X144640000Y-140933000D01*
X144640000Y-140925000D01*
X144640000Y-140775000D01*
X144640000Y-140767000D01*
X144641000Y-140759000D01*
X144642000Y-140752000D01*
X144643000Y-140744000D01*
X144645000Y-140736000D01*
X144647000Y-140729000D01*
X144650000Y-140721000D01*
X144653000Y-140714000D01*
X144656000Y-140707000D01*
X144660000Y-140700000D01*
X144664000Y-140693000D01*
X144669000Y-140687000D01*
X144673000Y-140681000D01*
X144679000Y-140675000D01*
X144684000Y-140669000D01*
X144690000Y-140664000D01*
X144696000Y-140658000D01*
X144702000Y-140654000D01*
X144708000Y-140649000D01*
X144715000Y-140645000D01*
X144722000Y-140641000D01*
X144729000Y-140638000D01*
X144736000Y-140635000D01*
X144744000Y-140632000D01*
X144751000Y-140630000D01*
X144759000Y-140628000D01*
X144767000Y-140627000D01*
X144774000Y-140626000D01*
X144782000Y-140625000D01*
X144790000Y-140625000D01*
X145200000Y-140625000D01*
X145200000Y-140575000D01*
X144790000Y-140575000D01*
X144783000Y-140574000D01*
X144774000Y-140573000D01*
X144766000Y-140571000D01*
X144758000Y-140569000D01*
X144749000Y-140567000D01*
X144741000Y-140564000D01*
X144734000Y-140560000D01*
X144726000Y-140556000D01*
X144719000Y-140552000D01*
X144711000Y-140548000D01*
X144704000Y-140543000D01*
X144698000Y-140537000D01*
X144691000Y-140532000D01*
X144685000Y-140526000D01*
X144679000Y-140519000D01*
X144674000Y-140513000D01*
X144669000Y-140506000D01*
X144664000Y-140499000D01*
X144660000Y-140492000D01*
X144656000Y-140484000D01*
X144652000Y-140476000D01*
X144649000Y-140468000D01*
X144647000Y-140460000D01*
X144644000Y-140452000D01*
X144643000Y-140444000D01*
X144641000Y-140435000D01*
X144640000Y-140427000D01*
X144640000Y-140418000D01*
X144640000Y-140410000D01*
X144640000Y-140400000D01*
X144640000Y-140300000D01*
X144640000Y-140290000D01*
X144640000Y-140282000D01*
X144640000Y-140273000D01*
X144641000Y-140265000D01*
X144643000Y-140256000D01*
X144644000Y-140248000D01*
X144647000Y-140240000D01*
X144649000Y-140232000D01*
X144652000Y-140224000D01*
X144656000Y-140216000D01*
X144660000Y-140208000D01*
X144664000Y-140201000D01*
X144669000Y-140194000D01*
X144674000Y-140187000D01*
X144679000Y-140181000D01*
X144685000Y-140174000D01*
X144691000Y-140168000D01*
X144698000Y-140163000D01*
X144704000Y-140157000D01*
X144711000Y-140152000D01*
X144719000Y-140148000D01*
X144726000Y-140144000D01*
X144734000Y-140140000D01*
X144741000Y-140136000D01*
X144749000Y-140133000D01*
X144758000Y-140131000D01*
X144766000Y-140129000D01*
X144774000Y-140127000D01*
X144783000Y-140126000D01*
X144790000Y-140125000D01*
X145200000Y-140125000D01*
X145200000Y-140100000D01*
X145650000Y-140100000D01*
X145658000Y-140100000D01*
X145666000Y-140101000D01*
G36*
X145666000Y-140101000D02*
G01*
X145673000Y-140102000D01*
X145681000Y-140103000D01*
X145689000Y-140105000D01*
X145696000Y-140107000D01*
X145704000Y-140110000D01*
X145711000Y-140113000D01*
X145718000Y-140116000D01*
X145725000Y-140120000D01*
X145732000Y-140124000D01*
X145738000Y-140129000D01*
X145744000Y-140133000D01*
X145750000Y-140139000D01*
X145756000Y-140144000D01*
X145761000Y-140150000D01*
X145767000Y-140156000D01*
X145771000Y-140162000D01*
X145776000Y-140168000D01*
X145780000Y-140175000D01*
X145784000Y-140182000D01*
X145787000Y-140189000D01*
X145790000Y-140196000D01*
X145793000Y-140204000D01*
X145795000Y-140211000D01*
X145797000Y-140219000D01*
X145798000Y-140227000D01*
X145799000Y-140234000D01*
X145800000Y-140242000D01*
X145800000Y-140250000D01*
X145800000Y-142250000D01*
X145800000Y-142258000D01*
X145799000Y-142266000D01*
X145798000Y-142273000D01*
X145797000Y-142281000D01*
X145795000Y-142289000D01*
X145793000Y-142296000D01*
X145790000Y-142304000D01*
X145787000Y-142311000D01*
X145784000Y-142318000D01*
X145780000Y-142325000D01*
X145776000Y-142332000D01*
X145771000Y-142338000D01*
X145767000Y-142344000D01*
X145761000Y-142350000D01*
X145756000Y-142356000D01*
X145750000Y-142361000D01*
X145744000Y-142367000D01*
X145738000Y-142371000D01*
X145732000Y-142376000D01*
X145725000Y-142380000D01*
X145718000Y-142384000D01*
X145711000Y-142387000D01*
X145704000Y-142390000D01*
X145696000Y-142393000D01*
X145689000Y-142395000D01*
X145681000Y-142397000D01*
X145673000Y-142398000D01*
X145666000Y-142399000D01*
X145658000Y-142400000D01*
X145650000Y-142400000D01*
X145350000Y-142400000D01*
X145342000Y-142400000D01*
X145334000Y-142399000D01*
X145327000Y-142398000D01*
X145319000Y-142397000D01*
X145311000Y-142395000D01*
X145304000Y-142393000D01*
X145296000Y-142390000D01*
X145289000Y-142387000D01*
X145282000Y-142384000D01*
X145275000Y-142380000D01*
X145268000Y-142376000D01*
X145262000Y-142371000D01*
X145256000Y-142367000D01*
X145250000Y-142361000D01*
X145244000Y-142356000D01*
X145239000Y-142350000D01*
X145233000Y-142344000D01*
X145229000Y-142338000D01*
X145224000Y-142332000D01*
X145220000Y-142325000D01*
X145216000Y-142318000D01*
X145213000Y-142311000D01*
X145210000Y-142304000D01*
X145207000Y-142296000D01*
X145205000Y-142289000D01*
X145203000Y-142281000D01*
X145202000Y-142273000D01*
X145201000Y-142266000D01*
X145200000Y-142258000D01*
X145200000Y-142250000D01*
X145200000Y-141575000D01*
X144790000Y-141575000D01*
X144782000Y-141575000D01*
X144774000Y-141574000D01*
X144767000Y-141573000D01*
X144759000Y-141572000D01*
X144751000Y-141570000D01*
X144744000Y-141568000D01*
X144736000Y-141565000D01*
X144729000Y-141562000D01*
X144722000Y-141559000D01*
X144715000Y-141555000D01*
X144708000Y-141551000D01*
X144702000Y-141546000D01*
X144696000Y-141542000D01*
X144690000Y-141536000D01*
X144684000Y-141531000D01*
X144679000Y-141525000D01*
X144673000Y-141519000D01*
X144669000Y-141513000D01*
X144664000Y-141507000D01*
X144660000Y-141500000D01*
X144656000Y-141493000D01*
X144653000Y-141486000D01*
X144650000Y-141479000D01*
X144647000Y-141471000D01*
X144645000Y-141464000D01*
X144643000Y-141456000D01*
X144642000Y-141448000D01*
X144641000Y-141441000D01*
X144640000Y-141433000D01*
X144640000Y-141425000D01*
X144640000Y-141275000D01*
X144640000Y-141267000D01*
X144641000Y-141259000D01*
X144642000Y-141252000D01*
X144643000Y-141244000D01*
X144645000Y-141236000D01*
X144647000Y-141229000D01*
X144650000Y-141221000D01*
X144653000Y-141214000D01*
X144656000Y-141207000D01*
X144660000Y-141200000D01*
X144664000Y-141193000D01*
X144669000Y-141187000D01*
X144673000Y-141181000D01*
X144679000Y-141175000D01*
X144684000Y-141169000D01*
X144690000Y-141164000D01*
X144696000Y-141158000D01*
X144702000Y-141154000D01*
X144708000Y-141149000D01*
X144715000Y-141145000D01*
X144722000Y-141141000D01*
X144729000Y-141138000D01*
X144736000Y-141135000D01*
X144744000Y-141132000D01*
X144751000Y-141130000D01*
X144759000Y-141128000D01*
X144767000Y-141127000D01*
X144774000Y-141126000D01*
X144782000Y-141125000D01*
X144790000Y-141125000D01*
X145200000Y-141125000D01*
X145200000Y-141075000D01*
X144790000Y-141075000D01*
X144782000Y-141075000D01*
X144774000Y-141074000D01*
X144767000Y-141073000D01*
X144759000Y-141072000D01*
X144751000Y-141070000D01*
X144744000Y-141068000D01*
X144736000Y-141065000D01*
X144729000Y-141062000D01*
X144722000Y-141059000D01*
X144715000Y-141055000D01*
X144708000Y-141051000D01*
X144702000Y-141046000D01*
X144696000Y-141042000D01*
X144690000Y-141036000D01*
X144684000Y-141031000D01*
X144679000Y-141025000D01*
X144673000Y-141019000D01*
X144669000Y-141013000D01*
X144664000Y-141007000D01*
X144660000Y-141000000D01*
X144656000Y-140993000D01*
X144653000Y-140986000D01*
X144650000Y-140979000D01*
X144647000Y-140971000D01*
X144645000Y-140964000D01*
X144643000Y-140956000D01*
X144642000Y-140948000D01*
X144641000Y-140941000D01*
X144640000Y-140933000D01*
X144640000Y-140925000D01*
X144640000Y-140775000D01*
X144640000Y-140767000D01*
X144641000Y-140759000D01*
X144642000Y-140752000D01*
X144643000Y-140744000D01*
X144645000Y-140736000D01*
X144647000Y-140729000D01*
X144650000Y-140721000D01*
X144653000Y-140714000D01*
X144656000Y-140707000D01*
X144660000Y-140700000D01*
X144664000Y-140693000D01*
X144669000Y-140687000D01*
X144673000Y-140681000D01*
X144679000Y-140675000D01*
X144684000Y-140669000D01*
X144690000Y-140664000D01*
X144696000Y-140658000D01*
X144702000Y-140654000D01*
X144708000Y-140649000D01*
X144715000Y-140645000D01*
X144722000Y-140641000D01*
X144729000Y-140638000D01*
X144736000Y-140635000D01*
X144744000Y-140632000D01*
X144751000Y-140630000D01*
X144759000Y-140628000D01*
X144767000Y-140627000D01*
X144774000Y-140626000D01*
X144782000Y-140625000D01*
X144790000Y-140625000D01*
X145200000Y-140625000D01*
X145200000Y-140575000D01*
X144790000Y-140575000D01*
X144783000Y-140574000D01*
X144774000Y-140573000D01*
X144766000Y-140571000D01*
X144758000Y-140569000D01*
X144749000Y-140567000D01*
X144741000Y-140564000D01*
X144734000Y-140560000D01*
X144726000Y-140556000D01*
X144719000Y-140552000D01*
X144711000Y-140548000D01*
X144704000Y-140543000D01*
X144698000Y-140537000D01*
X144691000Y-140532000D01*
X144685000Y-140526000D01*
X144679000Y-140519000D01*
X144674000Y-140513000D01*
X144669000Y-140506000D01*
X144664000Y-140499000D01*
X144660000Y-140492000D01*
X144656000Y-140484000D01*
X144652000Y-140476000D01*
X144649000Y-140468000D01*
X144647000Y-140460000D01*
X144644000Y-140452000D01*
X144643000Y-140444000D01*
X144641000Y-140435000D01*
X144640000Y-140427000D01*
X144640000Y-140418000D01*
X144640000Y-140410000D01*
X144640000Y-140400000D01*
X144640000Y-140300000D01*
X144640000Y-140290000D01*
X144640000Y-140282000D01*
X144640000Y-140273000D01*
X144641000Y-140265000D01*
X144643000Y-140256000D01*
X144644000Y-140248000D01*
X144647000Y-140240000D01*
X144649000Y-140232000D01*
X144652000Y-140224000D01*
X144656000Y-140216000D01*
X144660000Y-140208000D01*
X144664000Y-140201000D01*
X144669000Y-140194000D01*
X144674000Y-140187000D01*
X144679000Y-140181000D01*
X144685000Y-140174000D01*
X144691000Y-140168000D01*
X144698000Y-140163000D01*
X144704000Y-140157000D01*
X144711000Y-140152000D01*
X144719000Y-140148000D01*
X144726000Y-140144000D01*
X144734000Y-140140000D01*
X144741000Y-140136000D01*
X144749000Y-140133000D01*
X144758000Y-140131000D01*
X144766000Y-140129000D01*
X144774000Y-140127000D01*
X144783000Y-140126000D01*
X144790000Y-140125000D01*
X145200000Y-140125000D01*
X145200000Y-140100000D01*
X145650000Y-140100000D01*
X145658000Y-140100000D01*
X145666000Y-140101000D01*
G37*
%TD*%
D11*
%TO.C,C35*%
X106680000Y-103210000D03*
X107640000Y-103210000D03*
%TD*%
D12*
%TO.C,C13*%
X142250000Y-136250000D03*
X141290000Y-136250000D03*
%TD*%
D13*
%TO.C,C7*%
X114625000Y-129175000D03*
X114625000Y-131075000D03*
%TD*%
D14*
%TO.C,R27*%
X181050000Y-90257500D03*
X182070000Y-90257500D03*
%TD*%
D15*
%TO.C,F2*%
X140750000Y-131650000D03*
X140750000Y-128850000D03*
%TD*%
D16*
%TO.C,U1*%
X147540000Y-74200000D03*
X148050000Y-74200000D03*
X148540000Y-74200000D03*
X149050000Y-74200000D03*
D17*
X149750000Y-73500000D03*
X149750000Y-73000000D03*
X149750000Y-72500000D03*
X149750000Y-72000000D03*
D16*
X149050000Y-71300000D03*
X148540000Y-71300000D03*
X148050000Y-71300000D03*
X147540000Y-71300000D03*
D17*
X146840000Y-72000000D03*
X146840000Y-72500000D03*
X146840000Y-73000000D03*
X146840000Y-73500000D03*
D18*
X148300000Y-72750000D03*
%TD*%
D14*
%TO.C,R30*%
X183960000Y-84287500D03*
X184980000Y-84287500D03*
%TD*%
%TO.C,R23*%
X181050000Y-82297500D03*
X182070000Y-82297500D03*
%TD*%
%TO.C,R24*%
X181050000Y-84287500D03*
X182070000Y-84287500D03*
%TD*%
%TO.C,R25*%
X181050000Y-86277500D03*
X182070000Y-86277500D03*
%TD*%
D19*
%TO.C,F3*%
X111475000Y-136125000D03*
X114275000Y-136125000D03*
%TD*%
D20*
%TO.C,J1*%
X107950000Y-138200000D03*
X101750000Y-138200000D03*
D21*
X105000000Y-143000000D03*
%TD*%
D22*
%TO.C,L2*%
X147250000Y-136475000D03*
X147250000Y-131025000D03*
%TD*%
D14*
%TO.C,R26*%
X181050000Y-88267500D03*
X182070000Y-88267500D03*
%TD*%
%TO.C,R10*%
X150990000Y-138750000D03*
X152010000Y-138750000D03*
%TD*%
D11*
%TO.C,C26*%
X189750000Y-84237500D03*
X190710000Y-84237500D03*
%TD*%
D23*
%TO.C,L4*%
X98025000Y-104600000D03*
X103475000Y-104600000D03*
%TD*%
D14*
%TO.C,R17*%
X168210000Y-74580000D03*
X169230000Y-74580000D03*
%TD*%
D24*
%TO.C,FB1*%
X166000000Y-69250000D03*
X164425000Y-69250000D03*
%TD*%
D14*
%TO.C,R35*%
X109580000Y-111120000D03*
X110600000Y-111120000D03*
%TD*%
D13*
%TO.C,C8*%
X112125000Y-129175000D03*
X112125000Y-131075000D03*
%TD*%
D11*
%TO.C,C20*%
X176950000Y-74550000D03*
X177910000Y-74550000D03*
%TD*%
D14*
%TO.C,R22*%
X181050000Y-80307500D03*
X182070000Y-80307500D03*
%TD*%
D25*
%TO.C,R11*%
X152000000Y-136490000D03*
X152000000Y-137510000D03*
%TD*%
D11*
%TO.C,C32*%
X123750000Y-116660000D03*
X124710000Y-116660000D03*
%TD*%
D14*
%TO.C,R38*%
X112490000Y-111120000D03*
X113510000Y-111120000D03*
%TD*%
D26*
%TO.C,R6*%
X129885000Y-122875000D03*
X128865000Y-122875000D03*
%TD*%
D23*
%TO.C,L1*%
X125850000Y-128875000D03*
X120400000Y-128875000D03*
%TD*%
D14*
%TO.C,R39*%
X112490000Y-113110000D03*
X113510000Y-113110000D03*
%TD*%
D27*
%TO.C,U7*%
X111930000Y-89730000D03*
X112330000Y-89730000D03*
X112730000Y-89730000D03*
X113130000Y-89730000D03*
X113530000Y-89730000D03*
X113930000Y-89730000D03*
X114330000Y-89730000D03*
X114730000Y-89730000D03*
X115130000Y-89730000D03*
X115530000Y-89730000D03*
X115930000Y-89730000D03*
X116330000Y-89730000D03*
X116730000Y-89730000D03*
X117130000Y-89730000D03*
X117530000Y-89730000D03*
X117930000Y-89730000D03*
X118330000Y-89730000D03*
X118730000Y-89730000D03*
X119130000Y-89730000D03*
X119530000Y-89730000D03*
X119930000Y-89730000D03*
X120330000Y-89730000D03*
X120730000Y-89730000D03*
X121130000Y-89730000D03*
X121530000Y-89730000D03*
X121930000Y-89730000D03*
X122330000Y-89730000D03*
X122730000Y-89730000D03*
X123130000Y-89730000D03*
X123530000Y-89730000D03*
X123930000Y-89730000D03*
X124330000Y-89730000D03*
D28*
X125760000Y-88300000D03*
X125760000Y-87900000D03*
X125760000Y-87500000D03*
X125760000Y-87100000D03*
X125760000Y-86700000D03*
X125760000Y-86300000D03*
X125760000Y-85900000D03*
X125760000Y-85500000D03*
X125760000Y-85100000D03*
X125760000Y-84700000D03*
X125760000Y-84300000D03*
X125760000Y-83900000D03*
X125760000Y-83500000D03*
X125760000Y-83100000D03*
X125760000Y-82700000D03*
X125760000Y-82300000D03*
X125760000Y-81900000D03*
X125760000Y-81500000D03*
X125760000Y-81100000D03*
X125760000Y-80700000D03*
X125760000Y-80300000D03*
X125760000Y-79900000D03*
X125760000Y-79500000D03*
X125760000Y-79100000D03*
X125760000Y-78700000D03*
X125760000Y-78300000D03*
X125760000Y-77900000D03*
X125760000Y-77500000D03*
X125760000Y-77100000D03*
X125760000Y-76700000D03*
X125760000Y-76300000D03*
X125760000Y-75900000D03*
D27*
X124330000Y-74470000D03*
X123930000Y-74470000D03*
X123530000Y-74470000D03*
X123130000Y-74470000D03*
X122730000Y-74470000D03*
X122330000Y-74470000D03*
X121930000Y-74470000D03*
X121530000Y-74470000D03*
X121130000Y-74470000D03*
X120730000Y-74470000D03*
X120330000Y-74470000D03*
X119930000Y-74470000D03*
X119530000Y-74470000D03*
X119130000Y-74470000D03*
X118730000Y-74470000D03*
X118330000Y-74470000D03*
X117930000Y-74470000D03*
X117530000Y-74470000D03*
X117130000Y-74470000D03*
X116730000Y-74470000D03*
X116330000Y-74470000D03*
X115930000Y-74470000D03*
X115530000Y-74470000D03*
X115130000Y-74470000D03*
X114730000Y-74470000D03*
X114330000Y-74470000D03*
X113930000Y-74470000D03*
X113530000Y-74470000D03*
X113130000Y-74470000D03*
X112730000Y-74470000D03*
X112330000Y-74470000D03*
X111930000Y-74470000D03*
D28*
X110500000Y-75900000D03*
X110500000Y-76300000D03*
X110500000Y-76700000D03*
X110500000Y-77100000D03*
X110500000Y-77500000D03*
X110500000Y-77900000D03*
X110500000Y-78300000D03*
X110500000Y-78700000D03*
X110500000Y-79100000D03*
X110500000Y-79500000D03*
X110500000Y-79900000D03*
X110500000Y-80300000D03*
X110500000Y-80700000D03*
X110500000Y-81100000D03*
X110500000Y-81500000D03*
X110500000Y-81900000D03*
X110500000Y-82300000D03*
X110500000Y-82700000D03*
X110500000Y-83100000D03*
X110500000Y-83500000D03*
X110500000Y-83900000D03*
X110500000Y-84300000D03*
X110500000Y-84700000D03*
X110500000Y-85100000D03*
X110500000Y-85500000D03*
X110500000Y-85900000D03*
X110500000Y-86300000D03*
X110500000Y-86700000D03*
X110500000Y-87100000D03*
X110500000Y-87500000D03*
X110500000Y-87900000D03*
X110500000Y-88300000D03*
D29*
X118130000Y-82100000D03*
%TD*%
D30*
%TO.C,C17*%
X155000000Y-131700000D03*
X155000000Y-129800000D03*
%TD*%
D31*
%TO.C,C3*%
X132825000Y-128855000D03*
X132825000Y-127895000D03*
%TD*%
D14*
%TO.C,R3*%
X126865000Y-122875000D03*
X127885000Y-122875000D03*
%TD*%
D11*
%TO.C,C21*%
X176950000Y-76520000D03*
X177910000Y-76520000D03*
%TD*%
D14*
%TO.C,R37*%
X112490000Y-109130000D03*
X113510000Y-109130000D03*
%TD*%
D12*
%TO.C,C11*%
X142250000Y-133750000D03*
X141290000Y-133750000D03*
%TD*%
D13*
%TO.C,C6*%
X117125000Y-129175000D03*
X117125000Y-131075000D03*
%TD*%
D25*
%TO.C,R15*%
X151750000Y-143490000D03*
X151750000Y-144510000D03*
%TD*%
D11*
%TO.C,C29*%
X123750000Y-110750000D03*
X124710000Y-110750000D03*
%TD*%
D30*
%TO.C,C16*%
X152500000Y-131700000D03*
X152500000Y-129800000D03*
%TD*%
D32*
%TO.C,U2*%
X145750000Y-93250000D03*
X146750000Y-93250000D03*
X147750000Y-93250000D03*
X148750000Y-93250000D03*
X149750000Y-93250000D03*
X150750000Y-93250000D03*
X151750000Y-93250000D03*
X152750000Y-93250000D03*
X153750000Y-93250000D03*
X154750000Y-93250000D03*
X155750000Y-93250000D03*
X156750000Y-93250000D03*
X157750000Y-93250000D03*
X158750000Y-93250000D03*
X159750000Y-93250000D03*
X160750000Y-93250000D03*
X161750000Y-93250000D03*
X162750000Y-93250000D03*
X163750000Y-93250000D03*
X164750000Y-93250000D03*
X165750000Y-93250000D03*
X166750000Y-93250000D03*
X145750000Y-113250000D03*
X146750000Y-113250000D03*
X147750000Y-113250000D03*
X148750000Y-113250000D03*
X149750000Y-113250000D03*
X150750000Y-113250000D03*
X151750000Y-113250000D03*
X152750000Y-113250000D03*
X153750000Y-113250000D03*
X154750000Y-113250000D03*
X155750000Y-113250000D03*
X156750000Y-113250000D03*
X157750000Y-113250000D03*
X158750000Y-113250000D03*
X159750000Y-113250000D03*
X160750000Y-113250000D03*
X161750000Y-113250000D03*
X162750000Y-113250000D03*
X163750000Y-113250000D03*
X164750000Y-113250000D03*
X165750000Y-113250000D03*
X166750000Y-113250000D03*
X145750000Y-114250000D03*
X146750000Y-114250000D03*
X147750000Y-114250000D03*
X148750000Y-114250000D03*
X149750000Y-114250000D03*
X150750000Y-114250000D03*
X151750000Y-114250000D03*
X152750000Y-114250000D03*
X153750000Y-114250000D03*
X154750000Y-114250000D03*
X155750000Y-114250000D03*
X156750000Y-114250000D03*
X157750000Y-114250000D03*
X158750000Y-114250000D03*
X159750000Y-114250000D03*
X160750000Y-114250000D03*
X161750000Y-114250000D03*
X162750000Y-114250000D03*
X163750000Y-114250000D03*
X164750000Y-114250000D03*
X165750000Y-114250000D03*
X166750000Y-114250000D03*
X145750000Y-94250000D03*
X146750000Y-94250000D03*
X147750000Y-94250000D03*
X148750000Y-94250000D03*
X149750000Y-94250000D03*
X150750000Y-94250000D03*
X151750000Y-94250000D03*
X152750000Y-94250000D03*
X153750000Y-94250000D03*
X154750000Y-94250000D03*
X155750000Y-94250000D03*
X156750000Y-94250000D03*
X157750000Y-94250000D03*
X158750000Y-94250000D03*
X159750000Y-94250000D03*
X160750000Y-94250000D03*
X161750000Y-94250000D03*
X162750000Y-94250000D03*
X163750000Y-94250000D03*
X164750000Y-94250000D03*
X165750000Y-94250000D03*
X166750000Y-94250000D03*
X145750000Y-95250000D03*
X146750000Y-95250000D03*
X147750000Y-95250000D03*
X148750000Y-95250000D03*
X149750000Y-95250000D03*
X150750000Y-95250000D03*
X151750000Y-95250000D03*
X152750000Y-95250000D03*
X153750000Y-95250000D03*
X154750000Y-95250000D03*
X155750000Y-95250000D03*
X156750000Y-95250000D03*
X157750000Y-95250000D03*
X158750000Y-95250000D03*
X159750000Y-95250000D03*
X160750000Y-95250000D03*
X161750000Y-95250000D03*
X162750000Y-95250000D03*
X163750000Y-95250000D03*
X164750000Y-95250000D03*
X165750000Y-95250000D03*
X166750000Y-95250000D03*
X145750000Y-96250000D03*
X146750000Y-96250000D03*
X147750000Y-96250000D03*
X148750000Y-96250000D03*
X149750000Y-96250000D03*
X150750000Y-96250000D03*
X151750000Y-96250000D03*
X152750000Y-96250000D03*
X153750000Y-96250000D03*
X154750000Y-96250000D03*
X155750000Y-96250000D03*
X156750000Y-96250000D03*
X157750000Y-96250000D03*
X158750000Y-96250000D03*
X159750000Y-96250000D03*
X160750000Y-96250000D03*
X161750000Y-96250000D03*
X162750000Y-96250000D03*
X163750000Y-96250000D03*
X164750000Y-96250000D03*
X165750000Y-96250000D03*
X166750000Y-96250000D03*
X145750000Y-97250000D03*
X146750000Y-97250000D03*
X147750000Y-97250000D03*
X148750000Y-97250000D03*
X149750000Y-97250000D03*
X150750000Y-97250000D03*
X151750000Y-97250000D03*
X152750000Y-97250000D03*
X153750000Y-97250000D03*
X154750000Y-97250000D03*
X155750000Y-97250000D03*
X156750000Y-97250000D03*
X157750000Y-97250000D03*
X158750000Y-97250000D03*
X159750000Y-97250000D03*
X160750000Y-97250000D03*
X161750000Y-97250000D03*
X162750000Y-97250000D03*
X163750000Y-97250000D03*
X164750000Y-97250000D03*
X165750000Y-97250000D03*
X166750000Y-97250000D03*
X145750000Y-98250000D03*
X146750000Y-98250000D03*
X147750000Y-98250000D03*
X148750000Y-98250000D03*
X149750000Y-98250000D03*
X150750000Y-98250000D03*
X151750000Y-98250000D03*
X152750000Y-98250000D03*
X153750000Y-98250000D03*
X154750000Y-98250000D03*
X155750000Y-98250000D03*
X156750000Y-98250000D03*
X157750000Y-98250000D03*
X158750000Y-98250000D03*
X159750000Y-98250000D03*
X160750000Y-98250000D03*
X161750000Y-98250000D03*
X162750000Y-98250000D03*
X163750000Y-98250000D03*
X164750000Y-98250000D03*
X165750000Y-98250000D03*
X166750000Y-98250000D03*
X145750000Y-99250000D03*
X146750000Y-99250000D03*
X147750000Y-99250000D03*
X148750000Y-99250000D03*
X149750000Y-99250000D03*
X150750000Y-99250000D03*
X151750000Y-99250000D03*
X152750000Y-99250000D03*
X153750000Y-99250000D03*
X154750000Y-99250000D03*
X155750000Y-99250000D03*
X156750000Y-99250000D03*
X157750000Y-99250000D03*
X158750000Y-99250000D03*
X159750000Y-99250000D03*
X160750000Y-99250000D03*
X161750000Y-99250000D03*
X162750000Y-99250000D03*
X163750000Y-99250000D03*
X164750000Y-99250000D03*
X165750000Y-99250000D03*
X166750000Y-99250000D03*
X145750000Y-100250000D03*
X146750000Y-100250000D03*
X147750000Y-100250000D03*
X148750000Y-100250000D03*
X149750000Y-100250000D03*
X150750000Y-100250000D03*
X151750000Y-100250000D03*
X152750000Y-100250000D03*
X153750000Y-100250000D03*
X154750000Y-100250000D03*
X155750000Y-100250000D03*
X156750000Y-100250000D03*
X157750000Y-100250000D03*
X158750000Y-100250000D03*
X159750000Y-100250000D03*
X160750000Y-100250000D03*
X161750000Y-100250000D03*
X162750000Y-100250000D03*
X163750000Y-100250000D03*
X164750000Y-100250000D03*
X165750000Y-100250000D03*
X166750000Y-100250000D03*
X145750000Y-101250000D03*
X146750000Y-101250000D03*
X147750000Y-101250000D03*
X148750000Y-101250000D03*
X149750000Y-101250000D03*
X150750000Y-101250000D03*
X151750000Y-101250000D03*
X152750000Y-101250000D03*
X153750000Y-101250000D03*
X154750000Y-101250000D03*
X155750000Y-101250000D03*
X156750000Y-101250000D03*
X157750000Y-101250000D03*
X158750000Y-101250000D03*
X159750000Y-101250000D03*
X160750000Y-101250000D03*
X161750000Y-101250000D03*
X162750000Y-101250000D03*
X163750000Y-101250000D03*
X164750000Y-101250000D03*
X165750000Y-101250000D03*
X166750000Y-101250000D03*
X145750000Y-102250000D03*
X146750000Y-102250000D03*
X147750000Y-102250000D03*
X148750000Y-102250000D03*
X149750000Y-102250000D03*
X150750000Y-102250000D03*
X151750000Y-102250000D03*
X152750000Y-102250000D03*
X153750000Y-102250000D03*
X154750000Y-102250000D03*
X155750000Y-102250000D03*
X156750000Y-102250000D03*
X157750000Y-102250000D03*
X158750000Y-102250000D03*
X159750000Y-102250000D03*
X160750000Y-102250000D03*
X161750000Y-102250000D03*
X162750000Y-102250000D03*
X163750000Y-102250000D03*
X164750000Y-102250000D03*
X165750000Y-102250000D03*
X166750000Y-102250000D03*
X145750000Y-103250000D03*
X146750000Y-103250000D03*
X147750000Y-103250000D03*
X148750000Y-103250000D03*
X149750000Y-103250000D03*
X150750000Y-103250000D03*
X151750000Y-103250000D03*
X152750000Y-103250000D03*
X153750000Y-103250000D03*
X154750000Y-103250000D03*
X155750000Y-103250000D03*
X156750000Y-103250000D03*
X157750000Y-103250000D03*
X158750000Y-103250000D03*
X159750000Y-103250000D03*
X160750000Y-103250000D03*
X161750000Y-103250000D03*
X162750000Y-103250000D03*
X163750000Y-103250000D03*
X164750000Y-103250000D03*
X165750000Y-103250000D03*
X166750000Y-103250000D03*
X145750000Y-104250000D03*
X146750000Y-104250000D03*
X147750000Y-104250000D03*
X148750000Y-104250000D03*
X149750000Y-104250000D03*
X150750000Y-104250000D03*
X151750000Y-104250000D03*
X152750000Y-104250000D03*
X153750000Y-104250000D03*
X154750000Y-104250000D03*
X155750000Y-104250000D03*
X156750000Y-104250000D03*
X157750000Y-104250000D03*
X158750000Y-104250000D03*
X159750000Y-104250000D03*
X160750000Y-104250000D03*
X161750000Y-104250000D03*
X162750000Y-104250000D03*
X163750000Y-104250000D03*
X164750000Y-104250000D03*
X165750000Y-104250000D03*
X166750000Y-104250000D03*
X145750000Y-105250000D03*
X146750000Y-105250000D03*
X147750000Y-105250000D03*
X148750000Y-105250000D03*
X149750000Y-105250000D03*
X150750000Y-105250000D03*
X151750000Y-105250000D03*
X152750000Y-105250000D03*
X153750000Y-105250000D03*
X154750000Y-105250000D03*
X155750000Y-105250000D03*
X156750000Y-105250000D03*
X157750000Y-105250000D03*
X158750000Y-105250000D03*
X159750000Y-105250000D03*
X160750000Y-105250000D03*
X161750000Y-105250000D03*
X162750000Y-105250000D03*
X163750000Y-105250000D03*
X164750000Y-105250000D03*
X165750000Y-105250000D03*
X166750000Y-105250000D03*
X145750000Y-106250000D03*
X146750000Y-106250000D03*
X147750000Y-106250000D03*
X148750000Y-106250000D03*
X149750000Y-106250000D03*
X150750000Y-106250000D03*
X151750000Y-106250000D03*
X152750000Y-106250000D03*
X153750000Y-106250000D03*
X154750000Y-106250000D03*
X155750000Y-106250000D03*
X156750000Y-106250000D03*
X157750000Y-106250000D03*
X158750000Y-106250000D03*
X159750000Y-106250000D03*
X160750000Y-106250000D03*
X161750000Y-106250000D03*
X162750000Y-106250000D03*
X163750000Y-106250000D03*
X164750000Y-106250000D03*
X165750000Y-106250000D03*
X166750000Y-106250000D03*
X145750000Y-107250000D03*
X146750000Y-107250000D03*
X147750000Y-107250000D03*
X148750000Y-107250000D03*
X149750000Y-107250000D03*
X150750000Y-107250000D03*
X151750000Y-107250000D03*
X152750000Y-107250000D03*
X153750000Y-107250000D03*
X154750000Y-107250000D03*
X155750000Y-107250000D03*
X156750000Y-107250000D03*
X157750000Y-107250000D03*
X158750000Y-107250000D03*
X159750000Y-107250000D03*
X160750000Y-107250000D03*
X161750000Y-107250000D03*
X162750000Y-107250000D03*
X163750000Y-107250000D03*
X164750000Y-107250000D03*
X165750000Y-107250000D03*
X166750000Y-107250000D03*
X145750000Y-108250000D03*
X146750000Y-108250000D03*
X147750000Y-108250000D03*
X148750000Y-108250000D03*
X149750000Y-108250000D03*
X150750000Y-108250000D03*
X151750000Y-108250000D03*
X152750000Y-108250000D03*
X153750000Y-108250000D03*
X154750000Y-108250000D03*
X155750000Y-108250000D03*
X156750000Y-108250000D03*
X157750000Y-108250000D03*
X158750000Y-108250000D03*
X159750000Y-108250000D03*
X160750000Y-108250000D03*
X161750000Y-108250000D03*
X162750000Y-108250000D03*
X163750000Y-108250000D03*
X164750000Y-108250000D03*
X165750000Y-108250000D03*
X166750000Y-108250000D03*
X145750000Y-109250000D03*
X146750000Y-109250000D03*
X147750000Y-109250000D03*
X148750000Y-109250000D03*
X149750000Y-109250000D03*
X150750000Y-109250000D03*
X151750000Y-109250000D03*
X152750000Y-109250000D03*
X153750000Y-109250000D03*
X154750000Y-109250000D03*
X155750000Y-109250000D03*
X156750000Y-109250000D03*
X157750000Y-109250000D03*
X158750000Y-109250000D03*
X159750000Y-109250000D03*
X160750000Y-109250000D03*
X161750000Y-109250000D03*
X162750000Y-109250000D03*
X163750000Y-109250000D03*
X164750000Y-109250000D03*
X165750000Y-109250000D03*
X166750000Y-109250000D03*
X145750000Y-110250000D03*
X146750000Y-110250000D03*
X147750000Y-110250000D03*
X148750000Y-110250000D03*
X149750000Y-110250000D03*
X150750000Y-110250000D03*
X151750000Y-110250000D03*
X152750000Y-110250000D03*
X153750000Y-110250000D03*
X154750000Y-110250000D03*
X155750000Y-110250000D03*
X156750000Y-110250000D03*
X157750000Y-110250000D03*
X158750000Y-110250000D03*
X159750000Y-110250000D03*
X160750000Y-110250000D03*
X161750000Y-110250000D03*
X162750000Y-110250000D03*
X163750000Y-110250000D03*
X164750000Y-110250000D03*
X165750000Y-110250000D03*
X166750000Y-110250000D03*
X145750000Y-111250000D03*
X146750000Y-111250000D03*
X147750000Y-111250000D03*
X148750000Y-111250000D03*
X149750000Y-111250000D03*
X150750000Y-111250000D03*
X151750000Y-111250000D03*
X152750000Y-111250000D03*
X153750000Y-111250000D03*
X154750000Y-111250000D03*
X155750000Y-111250000D03*
X156750000Y-111250000D03*
X157750000Y-111250000D03*
X158750000Y-111250000D03*
X159750000Y-111250000D03*
X160750000Y-111250000D03*
X161750000Y-111250000D03*
X162750000Y-111250000D03*
X163750000Y-111250000D03*
X164750000Y-111250000D03*
X165750000Y-111250000D03*
X166750000Y-111250000D03*
X145750000Y-112250000D03*
X146750000Y-112250000D03*
X147750000Y-112250000D03*
X148750000Y-112250000D03*
X149750000Y-112250000D03*
X150750000Y-112250000D03*
X151750000Y-112250000D03*
X152750000Y-112250000D03*
X153750000Y-112250000D03*
X154750000Y-112250000D03*
X155750000Y-112250000D03*
X156750000Y-112250000D03*
X157750000Y-112250000D03*
X158750000Y-112250000D03*
X159750000Y-112250000D03*
X160750000Y-112250000D03*
X161750000Y-112250000D03*
X162750000Y-112250000D03*
X163750000Y-112250000D03*
X164750000Y-112250000D03*
X165750000Y-112250000D03*
X166750000Y-112250000D03*
%TD*%
D14*
%TO.C,R9*%
X149490000Y-142250000D03*
X150510000Y-142250000D03*
%TD*%
D33*
%TO.C,R13*%
X149500000Y-141010000D03*
X149500000Y-139990000D03*
%TD*%
D11*
%TO.C,C30*%
X123750000Y-112720000D03*
X124710000Y-112720000D03*
%TD*%
D25*
%TO.C,R12*%
X152000000Y-139990000D03*
X152000000Y-141010000D03*
%TD*%
D33*
%TO.C,R2*%
X131625000Y-125135000D03*
X131625000Y-124115000D03*
%TD*%
D26*
%TO.C,R7*%
X114385000Y-142175000D03*
X113365000Y-142175000D03*
%TD*%
D14*
%TO.C,R31*%
X106670000Y-109130000D03*
X107690000Y-109130000D03*
%TD*%
D11*
%TO.C,C22*%
X186880000Y-86207500D03*
X187840000Y-86207500D03*
%TD*%
D34*
%TO.C,D1*%
X127375000Y-138955000D03*
X127375000Y-134625000D03*
%TD*%
D11*
%TO.C,C19*%
X176950000Y-72580000D03*
X177910000Y-72580000D03*
%TD*%
D35*
%TO.C,C5*%
X129125000Y-124145000D03*
X129125000Y-125105000D03*
%TD*%
D36*
%TO.C,U3*%
X130725000Y-126685000D03*
X130225000Y-126685000D03*
X129725000Y-126685000D03*
X129225000Y-126685000D03*
D37*
X128575000Y-127155000D03*
D38*
X129125000Y-128455000D03*
D37*
X128575000Y-128955000D03*
D39*
X130625000Y-127875000D03*
D37*
X131375000Y-127155000D03*
%TD*%
D23*
%TO.C,L3*%
X98025000Y-96450000D03*
X103475000Y-96450000D03*
%TD*%
D31*
%TO.C,C2*%
X134375000Y-128855000D03*
X134375000Y-127895000D03*
%TD*%
D40*
%TO.C,U8*%
X109350000Y-121750000D03*
X109350000Y-122250000D03*
X109350000Y-122750000D03*
X109350000Y-123250000D03*
X109350000Y-123750000D03*
X109350000Y-124250000D03*
D41*
X110000000Y-124900000D03*
X110500000Y-124900000D03*
X111000000Y-124900000D03*
X111500000Y-124900000D03*
X112000000Y-124900000D03*
X112500000Y-124900000D03*
D40*
X113150000Y-124250000D03*
X113150000Y-123750000D03*
X113150000Y-123250000D03*
X113150000Y-122750000D03*
X113150000Y-122250000D03*
X113150000Y-121750000D03*
D41*
X112500000Y-121100000D03*
X112000000Y-121100000D03*
X111500000Y-121100000D03*
X111000000Y-121100000D03*
X110500000Y-121100000D03*
X110000000Y-121100000D03*
D42*
X111250000Y-123000000D03*
%TD*%
D11*
%TO.C,C31*%
X123750000Y-114690000D03*
X124710000Y-114690000D03*
%TD*%
D43*
%TO.C,Y1*%
X187450000Y-92287500D03*
X189650000Y-92287500D03*
X189650000Y-90587500D03*
X187450000Y-90587500D03*
%TD*%
D26*
%TO.C,R8*%
X150510000Y-143500000D03*
X149490000Y-143500000D03*
%TD*%
D44*
%TO.C,U6*%
X184230000Y-75980000D03*
X184730000Y-75980000D03*
X185230000Y-75980000D03*
X185730000Y-75980000D03*
X186230000Y-75980000D03*
X186730000Y-75980000D03*
X187230000Y-75980000D03*
X187730000Y-75980000D03*
D45*
X188380000Y-75330000D03*
X188380000Y-74830000D03*
X188380000Y-74330000D03*
X188380000Y-73830000D03*
X188380000Y-73330000D03*
X188380000Y-72830000D03*
X188380000Y-72330000D03*
X188380000Y-71830000D03*
D44*
X187730000Y-71180000D03*
X187230000Y-71180000D03*
X186730000Y-71180000D03*
X186230000Y-71180000D03*
X185730000Y-71180000D03*
X185230000Y-71180000D03*
X184730000Y-71180000D03*
X184230000Y-71180000D03*
D45*
X183580000Y-71830000D03*
X183580000Y-72330000D03*
X183580000Y-72830000D03*
X183580000Y-73330000D03*
X183580000Y-73830000D03*
X183580000Y-74330000D03*
X183580000Y-74830000D03*
X183580000Y-75330000D03*
D46*
X185980000Y-73580000D03*
%TD*%
D35*
%TO.C,C15*%
X150750000Y-140020000D03*
X150750000Y-140980000D03*
%TD*%
D14*
%TO.C,R16*%
X168210000Y-72590000D03*
X169230000Y-72590000D03*
%TD*%
D11*
%TO.C,C27*%
X189750000Y-86207500D03*
X190710000Y-86207500D03*
%TD*%
D33*
%TO.C,R5*%
X130375000Y-125145000D03*
X130375000Y-124125000D03*
%TD*%
D26*
%TO.C,R1*%
X133885000Y-125125000D03*
X132865000Y-125125000D03*
%TD*%
D14*
%TO.C,R29*%
X183960000Y-82297500D03*
X184980000Y-82297500D03*
%TD*%
D35*
%TO.C,C14*%
X143500000Y-138270000D03*
X143500000Y-139230000D03*
%TD*%
D47*
%TO.C,D3*%
X150205000Y-84630000D03*
X150705000Y-84630000D03*
D48*
X151205000Y-84630000D03*
D47*
X151705000Y-84630000D03*
X152195000Y-84630000D03*
X152195000Y-83830000D03*
X151705000Y-83830000D03*
D48*
X151205000Y-83830000D03*
D47*
X150705000Y-83830000D03*
X150205000Y-83830000D03*
%TD*%
D23*
%TO.C,L5*%
X98025000Y-112750000D03*
X103475000Y-112750000D03*
%TD*%
D49*
%TO.C,C40*%
X109870000Y-102910000D03*
X111770000Y-102910000D03*
%TD*%
D13*
%TO.C,C9*%
X109625000Y-129175000D03*
X109625000Y-131075000D03*
%TD*%
D14*
%TO.C,R21*%
X178140000Y-90257500D03*
X179160000Y-90257500D03*
%TD*%
D47*
%TO.C,D4*%
X137760000Y-86500000D03*
X138260000Y-86500000D03*
D48*
X138760000Y-86500000D03*
D47*
X139260000Y-86500000D03*
X139750000Y-86500000D03*
X139750000Y-85700000D03*
X139260000Y-85700000D03*
D48*
X138760000Y-85700000D03*
D47*
X138260000Y-85700000D03*
X137760000Y-85700000D03*
%TD*%
D31*
%TO.C,C1*%
X135875000Y-128855000D03*
X135875000Y-127895000D03*
%TD*%
D50*
%TO.C,U5*%
X132200000Y-72800000D03*
X132850000Y-72800000D03*
X133500000Y-72800000D03*
X134150000Y-72800000D03*
X134800000Y-72800000D03*
X135450000Y-72800000D03*
X136100000Y-72800000D03*
X136750000Y-72800000D03*
X137400000Y-72800000D03*
X138050000Y-72800000D03*
X138700000Y-72800000D03*
X139350000Y-72800000D03*
X140000000Y-72800000D03*
X140650000Y-72800000D03*
X141300000Y-72800000D03*
X132200000Y-73450000D03*
X132850000Y-73450000D03*
X133500000Y-73450000D03*
X134150000Y-73450000D03*
X134800000Y-73450000D03*
X135450000Y-73450000D03*
X136100000Y-73450000D03*
X136750000Y-73450000D03*
X137400000Y-73450000D03*
X138050000Y-73450000D03*
X138700000Y-73450000D03*
X139350000Y-73450000D03*
X140000000Y-73450000D03*
X140650000Y-73450000D03*
X141300000Y-73450000D03*
X132200000Y-74100000D03*
X132850000Y-74100000D03*
X133500000Y-74100000D03*
X134150000Y-74100000D03*
X134800000Y-74100000D03*
X135450000Y-74100000D03*
X136100000Y-74100000D03*
X136750000Y-74100000D03*
X137400000Y-74100000D03*
X138050000Y-74100000D03*
X138700000Y-74100000D03*
X139350000Y-74100000D03*
X140000000Y-74100000D03*
X140650000Y-74100000D03*
X141300000Y-74100000D03*
X132200000Y-74750000D03*
X132850000Y-74750000D03*
X133500000Y-74750000D03*
X134150000Y-74750000D03*
X134800000Y-74750000D03*
X135450000Y-74750000D03*
X136100000Y-74750000D03*
X136750000Y-74750000D03*
X137400000Y-74750000D03*
X138050000Y-74750000D03*
X138700000Y-74750000D03*
X139350000Y-74750000D03*
X140000000Y-74750000D03*
X140650000Y-74750000D03*
X141300000Y-74750000D03*
X132200000Y-75400000D03*
X132850000Y-75400000D03*
X133500000Y-75400000D03*
X134150000Y-75400000D03*
X139350000Y-75400000D03*
X140000000Y-75400000D03*
X140650000Y-75400000D03*
X141300000Y-75400000D03*
X132200000Y-76050000D03*
X132850000Y-76050000D03*
X133500000Y-76050000D03*
X134150000Y-76050000D03*
X135450000Y-76050000D03*
X136100000Y-76050000D03*
X136750000Y-76050000D03*
X137400000Y-76050000D03*
X138050000Y-76050000D03*
X139350000Y-76050000D03*
X140000000Y-76050000D03*
X140650000Y-76050000D03*
X141300000Y-76050000D03*
X132200000Y-76700000D03*
X132850000Y-76700000D03*
X133500000Y-76700000D03*
X134150000Y-76700000D03*
X135450000Y-76700000D03*
X136100000Y-76700000D03*
X136750000Y-76700000D03*
X137400000Y-76700000D03*
X138050000Y-76700000D03*
X139350000Y-76700000D03*
X140000000Y-76700000D03*
X140650000Y-76700000D03*
X141300000Y-76700000D03*
X132200000Y-77350000D03*
X132850000Y-77350000D03*
X133500000Y-77350000D03*
X134150000Y-77350000D03*
X135450000Y-77350000D03*
X136100000Y-77350000D03*
X136750000Y-77350000D03*
X137400000Y-77350000D03*
X138050000Y-77350000D03*
X139350000Y-77350000D03*
X140000000Y-77350000D03*
X140650000Y-77350000D03*
X141300000Y-77350000D03*
X132200000Y-78000000D03*
X132850000Y-78000000D03*
X133500000Y-78000000D03*
X134150000Y-78000000D03*
X135450000Y-78000000D03*
X136100000Y-78000000D03*
X136750000Y-78000000D03*
X137400000Y-78000000D03*
X138050000Y-78000000D03*
X139350000Y-78000000D03*
X140000000Y-78000000D03*
X140650000Y-78000000D03*
X141300000Y-78000000D03*
X132200000Y-78650000D03*
X132850000Y-78650000D03*
X133500000Y-78650000D03*
X134150000Y-78650000D03*
X135450000Y-78650000D03*
X136100000Y-78650000D03*
X136750000Y-78650000D03*
X137400000Y-78650000D03*
X138050000Y-78650000D03*
X139350000Y-78650000D03*
X140000000Y-78650000D03*
X140650000Y-78650000D03*
X141300000Y-78650000D03*
X132200000Y-79300000D03*
X132850000Y-79300000D03*
X133500000Y-79300000D03*
X134150000Y-79300000D03*
X139350000Y-79300000D03*
X140000000Y-79300000D03*
X140650000Y-79300000D03*
X141300000Y-79300000D03*
X132200000Y-79950000D03*
X132850000Y-79950000D03*
X133500000Y-79950000D03*
X134150000Y-79950000D03*
X134800000Y-79950000D03*
X135450000Y-79950000D03*
X136100000Y-79950000D03*
X136750000Y-79950000D03*
X137400000Y-79950000D03*
X138050000Y-79950000D03*
X138700000Y-79950000D03*
X139350000Y-79950000D03*
X140000000Y-79950000D03*
X140650000Y-79950000D03*
X141300000Y-79950000D03*
X132200000Y-80600000D03*
X132850000Y-80600000D03*
X133500000Y-80600000D03*
X134150000Y-80600000D03*
X134800000Y-80600000D03*
X135450000Y-80600000D03*
X136100000Y-80600000D03*
X136750000Y-80600000D03*
X137400000Y-80600000D03*
X138050000Y-80600000D03*
X138700000Y-80600000D03*
X139350000Y-80600000D03*
X140000000Y-80600000D03*
X140650000Y-80600000D03*
X141300000Y-80600000D03*
X132200000Y-81250000D03*
X132850000Y-81250000D03*
X133500000Y-81250000D03*
X134150000Y-81250000D03*
X134800000Y-81250000D03*
X135450000Y-81250000D03*
X136100000Y-81250000D03*
X136750000Y-81250000D03*
X137400000Y-81250000D03*
X138050000Y-81250000D03*
X138700000Y-81250000D03*
X139350000Y-81250000D03*
X140000000Y-81250000D03*
X140650000Y-81250000D03*
X141300000Y-81250000D03*
X132200000Y-81900000D03*
X132850000Y-81900000D03*
X133500000Y-81900000D03*
X134150000Y-81900000D03*
X134800000Y-81900000D03*
X135450000Y-81900000D03*
X136100000Y-81900000D03*
X136750000Y-81900000D03*
X137400000Y-81900000D03*
X138050000Y-81900000D03*
X138700000Y-81900000D03*
X139350000Y-81900000D03*
X140000000Y-81900000D03*
X140650000Y-81900000D03*
X141300000Y-81900000D03*
%TD*%
D51*
%TO.C,D2*%
X111225000Y-140125000D03*
X114525000Y-140125000D03*
%TD*%
D52*
%TO.C,USB1*%
X107580000Y-55010000D03*
X107580000Y-57510000D03*
X107580000Y-59510000D03*
X107580000Y-62010000D03*
D53*
X104980000Y-52060000D03*
X104980000Y-64960000D03*
%TD*%
D15*
%TO.C,F1*%
X137875000Y-131650000D03*
X137875000Y-128850000D03*
%TD*%
D31*
%TO.C,C4*%
X128375000Y-131625000D03*
X128375000Y-130665000D03*
%TD*%
D23*
%TO.C,L6*%
X98025000Y-120900000D03*
X103475000Y-120900000D03*
%TD*%
D11*
%TO.C,C28*%
X189750000Y-88177500D03*
X190710000Y-88177500D03*
%TD*%
D49*
%TO.C,C36*%
X109870000Y-96890000D03*
X111770000Y-96890000D03*
%TD*%
D14*
%TO.C,R33*%
X106670000Y-113110000D03*
X107690000Y-113110000D03*
%TD*%
%TO.C,R36*%
X109580000Y-113110000D03*
X110600000Y-113110000D03*
%TD*%
%TO.C,R32*%
X106670000Y-111120000D03*
X107690000Y-111120000D03*
%TD*%
D11*
%TO.C,C25*%
X189750000Y-82267500D03*
X190710000Y-82267500D03*
%TD*%
D14*
%TO.C,R20*%
X178140000Y-88267500D03*
X179160000Y-88267500D03*
%TD*%
D49*
%TO.C,C34*%
X109870000Y-93880000D03*
X111770000Y-93880000D03*
%TD*%
D12*
%TO.C,C12*%
X142250000Y-135000000D03*
X141290000Y-135000000D03*
%TD*%
D54*
%TO.C,U4*%
X147850000Y-141350000D03*
X147850000Y-140850000D03*
X147850000Y-140350000D03*
X147850000Y-139850000D03*
D55*
X147380000Y-139200000D03*
D56*
X146080000Y-139750000D03*
D55*
X145580000Y-139200000D03*
D57*
X146660000Y-141250000D03*
D55*
X147380000Y-142000000D03*
%TD*%
D58*
%TO.C,J2*%
X168408600Y-138244600D03*
X191548000Y-138244600D03*
D59*
X156750000Y-137000000D03*
X157740600Y-134993400D03*
X158756600Y-137000000D03*
X159747200Y-134993400D03*
X160737800Y-137000000D03*
X161753800Y-134993400D03*
X162744400Y-137000000D03*
X163760400Y-134993400D03*
X164751000Y-137000000D03*
X165741600Y-134993400D03*
X166757600Y-137000000D03*
X169754800Y-134993400D03*
X170745400Y-137000000D03*
X171761400Y-134993400D03*
X172752000Y-137000000D03*
X173742600Y-134993400D03*
X174758600Y-137000000D03*
X175749200Y-134993400D03*
X176739800Y-137000000D03*
X177755800Y-134993400D03*
X178746400Y-137000000D03*
X179762400Y-134993400D03*
X180753000Y-137000000D03*
X181743600Y-134993400D03*
X182759600Y-137000000D03*
X183750200Y-134993400D03*
X184740800Y-137000000D03*
X185756800Y-134993400D03*
X186747400Y-137000000D03*
X187738000Y-134993400D03*
X188754000Y-137000000D03*
X189744600Y-134993400D03*
X156750000Y-139489200D03*
X157740600Y-141495800D03*
X158756600Y-139489200D03*
X159747200Y-141495800D03*
X160737800Y-139489200D03*
X161753800Y-141495800D03*
X162744400Y-139489200D03*
X163760400Y-141495800D03*
X164751000Y-139489200D03*
X165741600Y-141495800D03*
X166757600Y-139489200D03*
X169754800Y-141495800D03*
X170745400Y-139489200D03*
X171761400Y-141495800D03*
X172752000Y-139489200D03*
X173742600Y-141495800D03*
X174758600Y-139489200D03*
X175749200Y-141495800D03*
X176739800Y-139489200D03*
X177755800Y-141495800D03*
X178746400Y-139489200D03*
X179762400Y-141495800D03*
X180753000Y-139489200D03*
X181743600Y-141495800D03*
X182759600Y-139489200D03*
X183750200Y-141495800D03*
X184740800Y-139489200D03*
X185756800Y-141495800D03*
X186747400Y-139489200D03*
X187738000Y-141495800D03*
X188754000Y-139489200D03*
X189744600Y-141495800D03*
%TD*%
D14*
%TO.C,R28*%
X183960000Y-80307500D03*
X184980000Y-80307500D03*
%TD*%
D11*
%TO.C,C23*%
X186880000Y-88177500D03*
X187840000Y-88177500D03*
%TD*%
D60*
%TO.C,Q1*%
X122430000Y-134500000D03*
D61*
X120150000Y-140800000D03*
D60*
X117870000Y-134500000D03*
%TD*%
D11*
%TO.C,C24*%
X189750000Y-80297500D03*
X190710000Y-80297500D03*
%TD*%
D62*
%TO.C,WIFI1*%
X112250000Y-50750000D03*
X112250000Y-52650000D03*
X112250000Y-54550000D03*
X112250000Y-56450000D03*
X112250000Y-58350000D03*
X112250000Y-60250000D03*
X112250000Y-62150000D03*
X112250000Y-64050000D03*
D63*
X114830000Y-65980000D03*
X116730000Y-65980000D03*
X118630000Y-65980000D03*
X120530000Y-65980000D03*
X122430000Y-65980000D03*
X124330000Y-65980000D03*
X126230000Y-65980000D03*
X128130000Y-65980000D03*
X130030000Y-65980000D03*
D62*
X138400000Y-63200000D03*
X138400000Y-61300000D03*
X138400000Y-59400000D03*
X138400000Y-55400000D03*
X138400000Y-53500000D03*
X138400000Y-51600000D03*
D63*
X130030000Y-48830000D03*
X128130000Y-48830000D03*
X126230000Y-48830000D03*
X124330000Y-48830000D03*
X122430000Y-48830000D03*
X120530000Y-48830000D03*
X118630000Y-48830000D03*
X116730000Y-48830000D03*
X114830000Y-48830000D03*
%TD*%
D30*
%TO.C,C18*%
X157500000Y-131700000D03*
X157500000Y-129800000D03*
%TD*%
D11*
%TO.C,C37*%
X106680000Y-105180000D03*
X107640000Y-105180000D03*
%TD*%
%TO.C,C33*%
X106680000Y-101240000D03*
X107640000Y-101240000D03*
%TD*%
D14*
%TO.C,R34*%
X109580000Y-109130000D03*
X110600000Y-109130000D03*
%TD*%
D11*
%TO.C,C39*%
X106680000Y-107150000D03*
X107640000Y-107150000D03*
%TD*%
D64*
%TO.C,D5*%
X172460000Y-78340000D03*
X173960000Y-78340000D03*
%TD*%
D65*
%TO.C,C10*%
X135125000Y-134425000D03*
X135125000Y-141625000D03*
%TD*%
D25*
%TO.C,R4*%
X127875000Y-124115000D03*
X127875000Y-125135000D03*
%TD*%
D14*
%TO.C,R18*%
X178140000Y-84287500D03*
X179160000Y-84287500D03*
%TD*%
%TO.C,R19*%
X178140000Y-86277500D03*
X179160000Y-86277500D03*
%TD*%
D66*
%TO.C,U10*%
X153380000Y-61050000D03*
X153380000Y-61550000D03*
X153380000Y-62050000D03*
X153380000Y-62550000D03*
X153380000Y-63050000D03*
X153380000Y-63550000D03*
X153380000Y-64050000D03*
X153380000Y-64550000D03*
D67*
X154065000Y-65235000D03*
X154565000Y-65235000D03*
X155065000Y-65235000D03*
X155565000Y-65235000D03*
X156065000Y-65235000D03*
X156565000Y-65235000D03*
X157065000Y-65235000D03*
X157565000Y-65235000D03*
D66*
X158250000Y-64550000D03*
X158250000Y-64050000D03*
X158250000Y-63550000D03*
X158250000Y-63050000D03*
X158250000Y-62550000D03*
X158250000Y-62050000D03*
X158250000Y-61550000D03*
X158250000Y-61050000D03*
D67*
X157565000Y-60365000D03*
X157065000Y-60365000D03*
X156565000Y-60365000D03*
X156065000Y-60365000D03*
X155565000Y-60365000D03*
X155065000Y-60365000D03*
X154565000Y-60365000D03*
X154065000Y-60365000D03*
D68*
X155815000Y-62800000D03*
%TD*%
D69*
%TO.C,J3*%
X171630000Y-52530000D03*
X171630000Y-63960000D03*
D70*
X177980000Y-53790000D03*
D71*
X180520000Y-55060000D03*
X177980000Y-56330000D03*
X180520000Y-57600000D03*
X177980000Y-58870000D03*
X180520000Y-60140000D03*
X177980000Y-61410000D03*
X180520000Y-62680000D03*
D72*
X166730000Y-51620000D03*
X166730000Y-54160000D03*
X166730000Y-62330000D03*
X166730000Y-64870000D03*
D73*
X174680000Y-50500000D03*
X174680000Y-65990000D03*
%TD*%
D49*
%TO.C,C38*%
X109870000Y-99900000D03*
X111770000Y-99900000D03*
%TD*%
D14*
%TO.C,R14*%
X132865000Y-123875000D03*
X133885000Y-123875000D03*
%TD*%
M02*
