%TF.GenerationSoftware,KiCad,Pcbnew,9.0.7*%
%TF.CreationDate,2026-07-29T10:53:37+08:00*%
%TF.ProjectId,TriCore-X,54726943-6f72-4652-9d58-2e6b69636164,rev?*%
%TF.SameCoordinates,Original*%
%TF.FileFunction,Copper,L1,Top*%
%TF.FilePolarity,Positive*%
%FSLAX46Y46*%
G04 Gerber Fmt 4.6, Leading zero omitted, Abs format (unit mm)*
G04 Created by KiCad (PCBNEW 9.0.7) date 2026-07-29 10:53:37*
%MOMM*%
%LPD*%
G01*
G04 APERTURE LIST*
G04 Aperture macros list*
%AMRoundRect*
0 Rectangle with rounded corners*
0 $1 Rounding radius*
0 $2 $3 $4 $5 $6 $7 $8 $9 X,Y pos of 4 corners*
0 Add a 4 corners polygon primitive as box body*
4,1,4,$2,$3,$4,$5,$6,$7,$8,$9,$2,$3,0*
0 Add four circle primitives for the rounded corners*
1,1,$1+$1,$2,$3*
1,1,$1+$1,$4,$5*
1,1,$1+$1,$6,$7*
1,1,$1+$1,$8,$9*
0 Add four rect primitives between the rounded corners*
20,1,$1+$1,$2,$3,$4,$5,0*
20,1,$1+$1,$4,$5,$6,$7,0*
20,1,$1+$1,$6,$7,$8,$9,0*
20,1,$1+$1,$8,$9,$2,$3,0*%
%AMFreePoly0*
4,1,291,0.156581,1.054743,0.158810,1.054000,0.160000,1.054000,0.161581,1.053743,0.163810,1.053000,0.165000,1.053000,0.166581,1.052743,0.169581,1.051743,0.170236,1.051472,0.171920,1.050630,0.173810,1.050000,0.200000,1.050000,0.200000,1.023810,0.200630,1.021920,0.201472,1.020236,0.201743,1.019581,0.202743,1.016581,0.203000,1.015000,0.203000,1.013810,0.203743,1.011581,
0.204000,1.010000,0.204000,1.008810,0.204743,1.006581,0.205000,1.005000,0.205000,0.230000,0.715000,0.230000,0.716581,0.229743,0.718810,0.229000,0.720000,0.229000,0.721581,0.228743,0.723810,0.228000,0.725000,0.228000,0.726581,0.227743,0.729581,0.226743,0.730236,0.226472,0.731920,0.225630,0.734581,0.224743,0.736536,0.223536,0.737964,0.222108,0.739236,0.221472,
0.740536,0.220536,0.741964,0.219108,0.743236,0.218472,0.744536,0.217536,0.752536,0.209536,0.753472,0.208236,0.754108,0.206964,0.755536,0.205536,0.756472,0.204236,0.757108,0.202964,0.758536,0.201536,0.759743,0.199581,0.760630,0.196920,0.761472,0.195236,0.761743,0.194581,0.762743,0.191581,0.763000,0.190000,0.763000,0.188810,0.763743,0.186581,0.764000,0.185000,
0.764000,0.183810,0.764743,0.181581,0.765000,0.180000,0.765000,0.020000,0.764743,0.018419,0.764000,0.016190,0.764000,0.015000,0.763743,0.013419,0.763000,0.011190,0.763000,0.010000,0.762743,0.008419,0.761743,0.005419,0.761472,0.004764,0.760630,0.003080,0.759743,0.000419,0.758536,-0.001536,0.757108,-0.002964,0.756472,-0.004236,0.755536,-0.005536,0.754108,-0.006964,
0.753472,-0.008236,0.752536,-0.009536,0.744536,-0.017536,0.743236,-0.018472,0.741964,-0.019108,0.740536,-0.020536,0.739236,-0.021472,0.737964,-0.022108,0.736536,-0.023536,0.734581,-0.024743,0.731920,-0.025630,0.730236,-0.026472,0.729581,-0.026743,0.726581,-0.027743,0.725000,-0.028000,0.723810,-0.028000,0.721581,-0.028743,0.720000,-0.029000,0.718810,-0.029000,0.716581,-0.029743,
0.715000,-0.030000,0.205000,-0.030000,0.205000,-0.270000,0.715000,-0.270000,0.716581,-0.270257,0.718810,-0.271000,0.720000,-0.271000,0.721581,-0.271257,0.723810,-0.272000,0.725000,-0.272000,0.726581,-0.272257,0.729581,-0.273257,0.730236,-0.273528,0.731920,-0.274370,0.734581,-0.275257,0.736536,-0.276464,0.737964,-0.277892,0.739236,-0.278528,0.740536,-0.279464,0.741964,-0.280892,
0.743236,-0.281528,0.744536,-0.282464,0.752536,-0.290464,0.753472,-0.291764,0.754108,-0.293036,0.755536,-0.294464,0.756472,-0.295764,0.757108,-0.297036,0.758536,-0.298464,0.759743,-0.300419,0.760630,-0.303080,0.761472,-0.304764,0.761743,-0.305419,0.762743,-0.308419,0.763000,-0.310000,0.763000,-0.311190,0.763743,-0.313419,0.764000,-0.315000,0.764000,-0.316190,0.764743,-0.318419,
0.765000,-0.320000,0.765000,-0.480000,0.764743,-0.481581,0.764000,-0.483810,0.764000,-0.485000,0.763743,-0.486581,0.763000,-0.488810,0.763000,-0.490000,0.762743,-0.491581,0.761743,-0.494581,0.761472,-0.495236,0.760630,-0.496920,0.759743,-0.499581,0.758536,-0.501536,0.757108,-0.502964,0.756472,-0.504236,0.755536,-0.505536,0.754108,-0.506964,0.753472,-0.508236,0.752536,-0.509536,
0.744536,-0.517536,0.743236,-0.518472,0.741964,-0.519108,0.740536,-0.520536,0.739236,-0.521472,0.737964,-0.522108,0.736536,-0.523536,0.734581,-0.524743,0.731920,-0.525630,0.730236,-0.526472,0.729581,-0.526743,0.726581,-0.527743,0.725000,-0.528000,0.723810,-0.528000,0.721581,-0.528743,0.720000,-0.529000,0.718810,-0.529000,0.716581,-0.529743,0.715000,-0.530000,0.205000,-0.530000,
0.205000,-0.770000,0.710000,-0.770000,0.711581,-0.770257,0.726581,-0.775257,0.727774,-0.775840,0.730218,-0.777469,0.732581,-0.778257,0.733774,-0.778840,0.739774,-0.782840,0.740536,-0.783464,0.747536,-0.790464,0.748160,-0.791226,0.749884,-0.793812,0.751536,-0.795464,0.752160,-0.796226,0.758160,-0.805226,0.758743,-0.806419,0.759530,-0.808782,0.761160,-0.811226,0.761743,-0.812419,
0.764743,-0.821419,0.765000,-0.823000,0.765000,-0.825383,0.765851,-0.828787,0.766000,-0.830000,0.766000,-0.846000,0.765851,-0.847213,0.765000,-0.850617,0.765000,-0.949383,0.765851,-0.952787,0.766000,-0.954000,0.766000,-0.970000,0.765851,-0.971213,0.765000,-0.974617,0.765000,-0.977000,0.764743,-0.978581,0.761743,-0.987581,0.761160,-0.988774,0.759530,-0.991218,0.758743,-0.993581,
0.758160,-0.994774,0.752160,-1.003774,0.751536,-1.004536,0.749884,-1.006188,0.748160,-1.008774,0.747536,-1.009536,0.740536,-1.016536,0.739774,-1.017160,0.733774,-1.021160,0.732581,-1.021743,0.730218,-1.022530,0.727774,-1.024160,0.726581,-1.024743,0.711581,-1.029743,0.710000,-1.030000,0.205000,-1.030000,0.205000,-1.050000,0.203536,-1.053536,0.200000,-1.055000,-0.155000,-1.055000,
-0.156581,-1.054743,-0.158810,-1.054000,-0.160000,-1.054000,-0.161581,-1.053743,-0.163810,-1.053000,-0.165000,-1.053000,-0.166581,-1.052743,-0.169581,-1.051743,-0.170236,-1.051472,-0.171920,-1.050630,-0.173810,-1.050000,-0.200000,-1.050000,-0.200000,-1.023810,-0.200630,-1.021920,-0.201472,-1.020236,-0.201743,-1.019581,-0.202743,-1.016581,-0.203000,-1.015000,-0.203000,-1.013810,-0.203743,-1.011581,
-0.204000,-1.010000,-0.204000,-1.008810,-0.204743,-1.006581,-0.205000,-1.005000,-0.205000,1.005000,-0.204743,1.006581,-0.204000,1.008810,-0.204000,1.010000,-0.203743,1.011581,-0.203000,1.013810,-0.203000,1.015000,-0.202743,1.016581,-0.201743,1.019581,-0.201472,1.020236,-0.200630,1.021920,-0.200000,1.023810,-0.200000,1.050000,-0.173810,1.050000,-0.171920,1.050630,-0.170236,1.051472,
-0.169581,1.051743,-0.166581,1.052743,-0.165000,1.053000,-0.163810,1.053000,-0.161581,1.053743,-0.160000,1.054000,-0.158810,1.054000,-0.156581,1.054743,-0.155000,1.055000,0.155000,1.055000,0.156581,1.054743,0.156581,1.054743,$1*%
%AMFreePoly1*
4,1,33,0.220616,0.727275,0.358262,0.670260,0.482139,0.587488,0.587488,0.482139,0.670260,0.358262,0.727275,0.220616,0.756340,0.074493,0.756340,-0.074493,0.727275,-0.220616,0.670260,-0.358262,0.587488,-0.482139,0.482139,-0.587488,0.358262,-0.670260,0.220616,-0.727275,0.074493,-0.756340,-0.074493,-0.756340,-0.220616,-0.727275,-0.358262,-0.670260,-0.482139,-0.587488,-0.587488,-0.482139,
-0.670260,-0.358262,-0.727275,-0.220616,-0.756340,-0.074493,-0.756340,0.074493,-0.727275,0.220616,-0.670260,0.358262,-0.587488,0.482139,-0.482139,0.587488,-0.358262,0.670260,-0.220616,0.727275,-0.074493,0.756340,0.074493,0.756340,0.220616,0.727275,0.220616,0.727275,$1*%
%AMFreePoly2*
4,1,33,0.230776,0.760768,0.374760,0.701127,0.504343,0.614543,0.614543,0.504343,0.701127,0.374760,0.760768,0.230776,0.791172,0.077924,0.791172,-0.077924,0.760768,-0.230776,0.701127,-0.374760,0.614543,-0.504343,0.504343,-0.614543,0.374760,-0.701127,0.230776,-0.760768,0.077924,-0.791172,-0.077924,-0.791172,-0.230776,-0.760768,-0.374760,-0.701127,-0.504343,-0.614543,-0.614543,-0.504343,
-0.701127,-0.374760,-0.760768,-0.230776,-0.791172,-0.077924,-0.791172,0.077924,-0.760768,0.230776,-0.701127,0.374760,-0.614543,0.504343,-0.504343,0.614543,-0.374760,0.701127,-0.230776,0.760768,-0.077924,0.791172,0.077924,0.791172,0.230776,0.760768,0.230776,0.760768,$1*%
%AMFreePoly3*
4,1,33,0.259805,0.856462,0.421900,0.789320,0.567782,0.691844,0.691844,0.567782,0.789320,0.421900,0.856462,0.259805,0.890690,0.087725,0.890690,-0.087725,0.856462,-0.259805,0.789320,-0.421900,0.691844,-0.567782,0.567782,-0.691844,0.421900,-0.789320,0.259805,-0.856462,0.087725,-0.890690,-0.087725,-0.890690,-0.259805,-0.856462,-0.421900,-0.789320,-0.567782,-0.691844,-0.691844,-0.567782,
-0.789320,-0.421900,-0.856462,-0.259805,-0.890690,-0.087725,-0.890690,0.087725,-0.856462,0.259805,-0.789320,0.421900,-0.691844,0.567782,-0.567782,0.691844,-0.421900,0.789320,-0.259805,0.856462,-0.087725,0.890690,0.087725,0.890690,0.259805,0.856462,0.259805,0.856462,$1*%
%AMFreePoly4*
4,1,41,0.290639,1.210601,0.476441,1.150230,0.650511,1.061537,0.808563,0.946705,0.946705,0.808563,1.061537,0.650511,1.150230,0.476441,1.210601,0.290639,1.241162,0.097682,1.241162,-0.097682,1.210601,-0.290639,1.150230,-0.476441,1.061537,-0.650511,0.946705,-0.808563,0.808563,-0.946705,0.650511,-1.061537,0.476441,-1.150230,0.290639,-1.210601,0.097682,-1.241162,-0.097682,-1.241162,
-0.290639,-1.210601,-0.476441,-1.150230,-0.650511,-1.061537,-0.808563,-0.946705,-0.946705,-0.808563,-1.061537,-0.650511,-1.150230,-0.476441,-1.210601,-0.290639,-1.241162,-0.097682,-1.241162,0.097682,-1.210601,0.290639,-1.150230,0.476441,-1.061537,0.650511,-0.946705,0.808563,-0.808563,0.946705,-0.650511,1.061537,-0.476441,1.150230,-0.290639,1.210601,-0.097682,1.241162,0.097682,1.241162,
0.290639,1.210601,0.290639,1.210601,$1*%
G04 Aperture macros list end*
%TA.AperFunction,SMDPad,CuDef*%
%ADD10RoundRect,0.140000X-0.140000X-0.170000X0.140000X-0.170000X0.140000X0.170000X-0.140000X0.170000X0*%
%TD*%
%TA.AperFunction,SMDPad,CuDef*%
%ADD11RoundRect,0.140000X0.140000X0.170000X-0.140000X0.170000X-0.140000X-0.170000X0.140000X-0.170000X0*%
%TD*%
%TA.AperFunction,SMDPad,CuDef*%
%ADD12RoundRect,0.250000X-0.475000X0.250000X-0.475000X-0.250000X0.475000X-0.250000X0.475000X0.250000X0*%
%TD*%
%TA.AperFunction,SMDPad,CuDef*%
%ADD13RoundRect,0.135000X-0.135000X-0.185000X0.135000X-0.185000X0.135000X0.185000X-0.135000X0.185000X0*%
%TD*%
%TA.AperFunction,SMDPad,CuDef*%
%ADD14RoundRect,0.250000X0.625000X-0.375000X0.625000X0.375000X-0.625000X0.375000X-0.625000X-0.375000X0*%
%TD*%
%TA.AperFunction,SMDPad,CuDef*%
%ADD15R,0.280000X0.660000*%
%TD*%
%TA.AperFunction,SMDPad,CuDef*%
%ADD16R,0.660000X0.280000*%
%TD*%
%TA.AperFunction,SMDPad,CuDef*%
%ADD17R,1.690000X1.690000*%
%TD*%
%TA.AperFunction,SMDPad,CuDef*%
%ADD18RoundRect,0.250000X-0.375000X-0.625000X0.375000X-0.625000X0.375000X0.625000X-0.375000X0.625000X0*%
%TD*%
%TA.AperFunction,ComponentPad*%
%ADD19O,1.800000X3.600000*%
%TD*%
%TA.AperFunction,ComponentPad*%
%ADD20O,3.600000X1.800000*%
%TD*%
%TA.AperFunction,SMDPad,CuDef*%
%ADD21R,3.500000X2.950000*%
%TD*%
%TA.AperFunction,SMDPad,CuDef*%
%ADD22R,2.950000X3.500000*%
%TD*%
%TA.AperFunction,SMDPad,CuDef*%
%ADD23RoundRect,0.218750X0.218750X0.256250X-0.218750X0.256250X-0.218750X-0.256250X0.218750X-0.256250X0*%
%TD*%
%TA.AperFunction,SMDPad,CuDef*%
%ADD24RoundRect,0.135000X-0.185000X0.135000X-0.185000X-0.135000X0.185000X-0.135000X0.185000X0.135000X0*%
%TD*%
%TA.AperFunction,SMDPad,CuDef*%
%ADD25RoundRect,0.135000X0.135000X0.185000X-0.135000X0.185000X-0.135000X-0.185000X0.135000X-0.185000X0*%
%TD*%
%TA.AperFunction,SMDPad,CuDef*%
%ADD26R,0.190000X1.450000*%
%TD*%
%TA.AperFunction,SMDPad,CuDef*%
%ADD27R,1.450000X0.190000*%
%TD*%
%TA.AperFunction,SMDPad,CuDef*%
%ADD28R,5.590000X5.590000*%
%TD*%
%TA.AperFunction,SMDPad,CuDef*%
%ADD29RoundRect,0.250000X0.475000X-0.250000X0.475000X0.250000X-0.475000X0.250000X-0.475000X-0.250000X0*%
%TD*%
%TA.AperFunction,SMDPad,CuDef*%
%ADD30RoundRect,0.140000X0.170000X-0.140000X0.170000X0.140000X-0.170000X0.140000X-0.170000X-0.140000X0*%
%TD*%
%TA.AperFunction,BGAPad,CuDef*%
%ADD31C,0.500000*%
%TD*%
%TA.AperFunction,SMDPad,CuDef*%
%ADD32RoundRect,0.135000X0.185000X-0.135000X0.185000X0.135000X-0.185000X0.135000X-0.185000X-0.135000X0*%
%TD*%
%TA.AperFunction,SMDPad,CuDef*%
%ADD33R,2.120000X2.280000*%
%TD*%
%TA.AperFunction,SMDPad,CuDef*%
%ADD34RoundRect,0.140000X-0.170000X0.140000X-0.170000X-0.140000X0.170000X-0.140000X0.170000X0.140000X0*%
%TD*%
%TA.AperFunction,SMDPad,CuDef*%
%ADD35RoundRect,0.062500X-0.062500X0.237500X-0.062500X-0.237500X0.062500X-0.237500X0.062500X0.237500X0*%
%TD*%
%TA.AperFunction,SMDPad,CuDef*%
%ADD36RoundRect,0.062500X-0.237500X0.062500X-0.237500X-0.062500X0.237500X-0.062500X0.237500X0.062500X0*%
%TD*%
%TA.AperFunction,SMDPad,CuDef*%
%ADD37RoundRect,0.062500X-0.787500X0.062500X-0.787500X-0.062500X0.787500X-0.062500X0.787500X0.062500X0*%
%TD*%
%TA.AperFunction,SMDPad,CuDef*%
%ADD38FreePoly0,270.000000*%
%TD*%
%TA.AperFunction,SMDPad,CuDef*%
%ADD39RoundRect,0.100000X-0.950000X0.100000X-0.950000X-0.100000X0.950000X-0.100000X0.950000X0.100000X0*%
%TD*%
%TA.AperFunction,SMDPad,CuDef*%
%ADD40R,0.590000X0.250000*%
%TD*%
%TA.AperFunction,SMDPad,CuDef*%
%ADD41R,0.250000X0.590000*%
%TD*%
%TA.AperFunction,SMDPad,CuDef*%
%ADD42R,2.450000X2.450000*%
%TD*%
%TA.AperFunction,SMDPad,CuDef*%
%ADD43RoundRect,0.250000X-0.450000X-0.350000X0.450000X-0.350000X0.450000X0.350000X-0.450000X0.350000X0*%
%TD*%
%TA.AperFunction,SMDPad,CuDef*%
%ADD44O,0.280000X0.800000*%
%TD*%
%TA.AperFunction,SMDPad,CuDef*%
%ADD45O,0.800000X0.280000*%
%TD*%
%TA.AperFunction,SMDPad,CuDef*%
%ADD46R,3.400000X3.400000*%
%TD*%
%TA.AperFunction,SMDPad,CuDef*%
%ADD47R,0.190000X0.560000*%
%TD*%
%TA.AperFunction,SMDPad,CuDef*%
%ADD48R,0.390000X0.560000*%
%TD*%
%TA.AperFunction,SMDPad,CuDef*%
%ADD49RoundRect,0.250000X-0.250000X-0.475000X0.250000X-0.475000X0.250000X0.475000X-0.250000X0.475000X0*%
%TD*%
%TA.AperFunction,BGAPad,CuDef*%
%ADD50C,0.300000*%
%TD*%
%TA.AperFunction,SMDPad,CuDef*%
%ADD51RoundRect,0.225000X-0.225000X-0.375000X0.225000X-0.375000X0.225000X0.375000X-0.225000X0.375000X0*%
%TD*%
%TA.AperFunction,ComponentPad*%
%ADD52FreePoly1,270.000000*%
%TD*%
%TA.AperFunction,ComponentPad*%
%ADD53O,2.990000X1.490000*%
%TD*%
%TA.AperFunction,SMDPad,CuDef*%
%ADD54RoundRect,0.062500X0.237500X0.062500X-0.237500X0.062500X-0.237500X-0.062500X0.237500X-0.062500X0*%
%TD*%
%TA.AperFunction,SMDPad,CuDef*%
%ADD55RoundRect,0.062500X0.062500X0.237500X-0.062500X0.237500X-0.062500X-0.237500X0.062500X-0.237500X0*%
%TD*%
%TA.AperFunction,SMDPad,CuDef*%
%ADD56RoundRect,0.062500X0.062500X0.787500X-0.062500X0.787500X-0.062500X-0.787500X0.062500X-0.787500X0*%
%TD*%
%TA.AperFunction,SMDPad,CuDef*%
%ADD57FreePoly0,180.000000*%
%TD*%
%TA.AperFunction,SMDPad,CuDef*%
%ADD58RoundRect,0.100000X0.100000X0.950000X-0.100000X0.950000X-0.100000X-0.950000X0.100000X-0.950000X0*%
%TD*%
%TA.AperFunction,ComponentPad*%
%ADD59C,1.295400*%
%TD*%
%TA.AperFunction,SMDPad,CuDef*%
%ADD60RoundRect,0.250000X-0.350000X0.850000X-0.350000X-0.850000X0.350000X-0.850000X0.350000X0.850000X0*%
%TD*%
%TA.AperFunction,SMDPad,CuDef*%
%ADD61RoundRect,0.249997X-2.650003X2.950003X-2.650003X-2.950003X2.650003X-2.950003X2.650003X2.950003X0*%
%TD*%
%TA.AperFunction,SMDPad,CuDef*%
%ADD62R,2.350000X1.190000*%
%TD*%
%TA.AperFunction,SMDPad,CuDef*%
%ADD63R,1.190000X2.350000*%
%TD*%
%TA.AperFunction,SMDPad,CuDef*%
%ADD64R,0.590000X0.390000*%
%TD*%
%TA.AperFunction,SMDPad,CuDef*%
%ADD65RoundRect,0.250001X-0.799999X1.999999X-0.799999X-1.999999X0.799999X-1.999999X0.799999X1.999999X0*%
%TD*%
%TA.AperFunction,SMDPad,CuDef*%
%ADD66RoundRect,0.091000X-0.339000X-0.039000X0.339000X-0.039000X0.339000X0.039000X-0.339000X0.039000X0*%
%TD*%
%TA.AperFunction,SMDPad,CuDef*%
%ADD67RoundRect,0.091000X-0.039000X-0.339000X0.039000X-0.339000X0.039000X0.339000X-0.039000X0.339000X0*%
%TD*%
%TA.AperFunction,SMDPad,CuDef*%
%ADD68R,3.300000X3.300000*%
%TD*%
%TA.AperFunction,ComponentPad*%
%ADD69R,1.590000X1.590000*%
%TD*%
%TA.AperFunction,ComponentPad*%
%ADD70FreePoly2,270.000000*%
%TD*%
%TA.AperFunction,ComponentPad*%
%ADD71FreePoly3,270.000000*%
%TD*%
%TA.AperFunction,ComponentPad*%
%ADD72FreePoly4,270.000000*%
%TD*%
%TA.AperFunction,ViaPad*%
%ADD73C,0.450000*%
%TD*%
%TA.AperFunction,ViaPad*%
%ADD74C,0.600000*%
%TD*%
%TA.AperFunction,ViaPad*%
%ADD75C,0.500000*%
%TD*%
%TA.AperFunction,Conductor*%
%ADD76C,0.200000*%
%TD*%
%TA.AperFunction,Conductor*%
%ADD77C,0.800000*%
%TD*%
%TA.AperFunction,Conductor*%
%ADD78C,0.300000*%
%TD*%
%TA.AperFunction,Conductor*%
%ADD79C,0.400000*%
%TD*%
%TA.AperFunction,Conductor*%
%ADD80C,2.000000*%
%TD*%
G04 APERTURE END LIST*
D10*
%TO.P,C35,1*%
%TO.N,+1V8*%
X106680000Y-103210000D03*
%TO.P,C35,2*%
%TO.N,/power/FB2*%
X107640000Y-103210000D03*
%TD*%
D11*
%TO.P,C13,1*%
%TO.N,Net-(U4-VIN)*%
X142250000Y-136250000D03*
%TO.P,C13,2*%
%TO.N,GND*%
X141290000Y-136250000D03*
%TD*%
D12*
%TO.P,C7,1*%
%TO.N,+5V*%
X114625000Y-129175000D03*
%TO.P,C7,2*%
%TO.N,GND*%
X114625000Y-131075000D03*
%TD*%
D13*
%TO.P,R27,1*%
%TO.N,/Expansion_Port/ETH_RX_P*%
X181050000Y-90257500D03*
%TO.P,R27,2*%
%TO.N,Net-(U6-MDI+[1])*%
X182070000Y-90257500D03*
%TD*%
D14*
%TO.P,F2,1*%
%TO.N,/power/Power_Input*%
X140750000Y-131650000D03*
%TO.P,F2,2*%
%TO.N,Net-(U4-VIN)*%
X140750000Y-128850000D03*
%TD*%
D15*
%TO.P,U1,1,XO*%
%TO.N,unconnected-(U1-XO-Pad1)*%
X147540000Y-74200000D03*
%TO.P,U1,2,XI*%
%TO.N,unconnected-(U1-XI-Pad2)*%
X148050000Y-74200000D03*
%TO.P,U1,3,DM4*%
%TO.N,unconnected-(U1-DM4-Pad3)*%
X148540000Y-74200000D03*
%TO.P,U1,4,DP4*%
%TO.N,unconnected-(U1-DP4-Pad4)*%
X149050000Y-74200000D03*
D16*
%TO.P,U1,5,DM3*%
%TO.N,unconnected-(U1-DM3-Pad5)*%
X149750000Y-73500000D03*
%TO.P,U1,6,DP3*%
%TO.N,unconnected-(U1-DP3-Pad6)*%
X149750000Y-73000000D03*
%TO.P,U1,7,DM2*%
%TO.N,unconnected-(U1-DM2-Pad7)*%
X149750000Y-72500000D03*
%TO.P,U1,8,DP2*%
%TO.N,unconnected-(U1-DP2-Pad8)*%
X149750000Y-72000000D03*
D15*
%TO.P,U1,9,DM1*%
%TO.N,unconnected-(U1-DM1-Pad9)*%
X149050000Y-71300000D03*
%TO.P,U1,10,DP1*%
%TO.N,unconnected-(U1-DP1-Pad10)*%
X148540000Y-71300000D03*
%TO.P,U1,11,DMU*%
%TO.N,unconnected-(U1-DMU-Pad11)*%
X148050000Y-71300000D03*
%TO.P,U1,12,DPU*%
%TO.N,unconnected-(U1-DPU-Pad12)*%
X147540000Y-71300000D03*
D16*
%TO.P,U1,13,RESET#/CDP*%
%TO.N,unconnected-(U1-RESET#{slash}CDP-Pad13)*%
X146840000Y-72000000D03*
%TO.P,U1,14,PGANG*%
%TO.N,unconnected-(U1-PGANG-Pad14)*%
X146840000Y-72500000D03*
%TO.P,U1,15,V5*%
%TO.N,unconnected-(U1-V5-Pad15)*%
X146840000Y-73000000D03*
%TO.P,U1,16,VDD33*%
%TO.N,unconnected-(U1-VDD33-Pad16)*%
X146840000Y-73500000D03*
D17*
%TO.P,U1,17,GND*%
%TO.N,unconnected-(U1-GND-Pad17)*%
X148300000Y-72750000D03*
%TD*%
D13*
%TO.P,R30,1*%
%TO.N,GND*%
X183960000Y-84287500D03*
%TO.P,R30,2*%
%TO.N,PHY_RXD1*%
X184980000Y-84287500D03*
%TD*%
%TO.P,R23,1*%
%TO.N,/Expansion_Port/LED_LINK*%
X181050000Y-82297500D03*
%TO.P,R23,2*%
%TO.N,GND*%
X182070000Y-82297500D03*
%TD*%
%TO.P,R24,1*%
%TO.N,GND*%
X181050000Y-84287500D03*
%TO.P,R24,2*%
%TO.N,Net-(U6-RSET)*%
X182070000Y-84287500D03*
%TD*%
%TO.P,R25,1*%
%TO.N,/Expansion_Port/ETH_TX_P*%
X181050000Y-86277500D03*
%TO.P,R25,2*%
%TO.N,Net-(U6-MDI+[0])*%
X182070000Y-86277500D03*
%TD*%
D18*
%TO.P,F3,1*%
%TO.N,Net-(F3-Pad1)*%
X111475000Y-136125000D03*
%TO.P,F3,2*%
%TO.N,Net-(D2-K)*%
X114275000Y-136125000D03*
%TD*%
D19*
%TO.P,J1,1*%
%TO.N,Net-(F3-Pad1)*%
X107950000Y-138200000D03*
%TO.P,J1,2*%
%TO.N,GND*%
X101750000Y-138200000D03*
D20*
%TO.P,J1,3*%
%TO.N,unconnected-(J1-Pad3)*%
X105000000Y-143000000D03*
%TD*%
D21*
%TO.P,L2,1,1*%
%TO.N,Net-(U4-SW)*%
X147250000Y-136475000D03*
%TO.P,L2,2,2*%
%TO.N,+12V*%
X147250000Y-131025000D03*
%TD*%
D13*
%TO.P,R26,1*%
%TO.N,/Expansion_Port/ETH_TX_N*%
X181050000Y-88267500D03*
%TO.P,R26,2*%
%TO.N,Net-(U6-MDI-[0])*%
X182070000Y-88267500D03*
%TD*%
%TO.P,R10,1*%
%TO.N,Net-(C15-Pad1)*%
X150990000Y-138750000D03*
%TO.P,R10,2*%
%TO.N,Net-(R10-Pad2)*%
X152010000Y-138750000D03*
%TD*%
D10*
%TO.P,C26,1*%
%TO.N,Ethernet_3V3*%
X189750000Y-84237500D03*
%TO.P,C26,2*%
%TO.N,GND*%
X190710000Y-84237500D03*
%TD*%
D22*
%TO.P,L4,1,1*%
%TO.N,/power/LX2*%
X98025000Y-104600000D03*
%TO.P,L4,2,2*%
%TO.N,+1V8*%
X103475000Y-104600000D03*
%TD*%
D13*
%TO.P,R17,1*%
%TO.N,/Expansion_Port/LED_LINK*%
X168210000Y-74580000D03*
%TO.P,R17,2*%
%TO.N,Net-(J3-Pad12)*%
X169230000Y-74580000D03*
%TD*%
D23*
%TO.P,FB1,1*%
%TO.N,Net-(FB1-Pad1)*%
X166000000Y-69250000D03*
%TO.P,FB1,2*%
%TO.N,GND*%
X164425000Y-69250000D03*
%TD*%
D13*
%TO.P,R35,1*%
%TO.N,+3.3V*%
X109580000Y-111120000D03*
%TO.P,R35,2*%
%TO.N,/power/FB3*%
X110600000Y-111120000D03*
%TD*%
D12*
%TO.P,C8,1*%
%TO.N,+5V*%
X112125000Y-129175000D03*
%TO.P,C8,2*%
%TO.N,GND*%
X112125000Y-131075000D03*
%TD*%
D10*
%TO.P,C20,1*%
%TO.N,GND*%
X176950000Y-74550000D03*
%TO.P,C20,2*%
%TO.N,Net-(C20-Pad2)*%
X177910000Y-74550000D03*
%TD*%
D13*
%TO.P,R22,1*%
%TO.N,PHY_RXER*%
X181050000Y-80307500D03*
%TO.P,R22,2*%
%TO.N,GND*%
X182070000Y-80307500D03*
%TD*%
D24*
%TO.P,R11,1*%
%TO.N,+12V*%
X152000000Y-136490000D03*
%TO.P,R11,2*%
%TO.N,Net-(R10-Pad2)*%
X152000000Y-137510000D03*
%TD*%
D10*
%TO.P,C32,1*%
%TO.N,+5V*%
X123750000Y-116660000D03*
%TO.P,C32,2*%
%TO.N,GND*%
X124710000Y-116660000D03*
%TD*%
D13*
%TO.P,R38,1*%
%TO.N,/power/FB4*%
X112490000Y-111120000D03*
%TO.P,R38,2*%
%TO.N,GND*%
X113510000Y-111120000D03*
%TD*%
D25*
%TO.P,R6,1*%
%TO.N,Net-(C5-Pad1)*%
X129885000Y-122875000D03*
%TO.P,R6,2*%
%TO.N,Net-(R3-Pad2)*%
X128865000Y-122875000D03*
%TD*%
D22*
%TO.P,L1,1,1*%
%TO.N,Net-(U3-SW)*%
X125850000Y-128875000D03*
%TO.P,L1,2,2*%
%TO.N,+5V*%
X120400000Y-128875000D03*
%TD*%
D13*
%TO.P,R39,1*%
%TO.N,+5V*%
X112490000Y-113110000D03*
%TO.P,R39,2*%
%TO.N,5V_OK*%
X113510000Y-113110000D03*
%TD*%
D26*
%TO.P,U7,1,PG6*%
%TO.N,unconnected-(U7-PG6-Pad1)*%
X111930000Y-89730000D03*
%TO.P,U7,2,PG7*%
%TO.N,unconnected-(U7-PG7-Pad2)*%
X112330000Y-89730000D03*
%TO.P,U7,3,PG8*%
%TO.N,unconnected-(U7-PG8-Pad3)*%
X112730000Y-89730000D03*
%TO.P,U7,4,PG9*%
%TO.N,unconnected-(U7-PG9-Pad4)*%
X113130000Y-89730000D03*
%TO.P,U7,5,PG10*%
%TO.N,unconnected-(U7-PG10-Pad5)*%
X113530000Y-89730000D03*
%TO.P,U7,6,PG11*%
%TO.N,unconnected-(U7-PG11-Pad6)*%
X113930000Y-89730000D03*
%TO.P,U7,7,PF0*%
%TO.N,unconnected-(U7-PF0-Pad7)*%
X114330000Y-89730000D03*
%TO.P,U7,8,PF1*%
%TO.N,unconnected-(U7-PF1-Pad8)*%
X114730000Y-89730000D03*
%TO.P,U7,9,PF2*%
%TO.N,unconnected-(U7-PF2-Pad9)*%
X115130000Y-89730000D03*
%TO.P,U7,10,PF3*%
%TO.N,unconnected-(U7-PF3-Pad10)*%
X115530000Y-89730000D03*
%TO.P,U7,11,PF4*%
%TO.N,unconnected-(U7-PF4-Pad11)*%
X115930000Y-89730000D03*
%TO.P,U7,12,PF5*%
%TO.N,unconnected-(U7-PF5-Pad12)*%
X116330000Y-89730000D03*
%TO.P,U7,13,PF6*%
%TO.N,unconnected-(U7-PF6-Pad13)*%
X116730000Y-89730000D03*
%TO.P,U7,14,PC7*%
%TO.N,unconnected-(U7-PC7-Pad14)*%
X117130000Y-89730000D03*
%TO.P,U7,15,PC6*%
%TO.N,unconnected-(U7-PC6-Pad15)*%
X117530000Y-89730000D03*
%TO.P,U7,16,PC5*%
%TO.N,unconnected-(U7-PC5-Pad16)*%
X117930000Y-89730000D03*
%TO.P,U7,17,PC4*%
%TO.N,unconnected-(U7-PC4-Pad17)*%
X118330000Y-89730000D03*
%TO.P,U7,18,PC3*%
%TO.N,unconnected-(U7-PC3-Pad18)*%
X118730000Y-89730000D03*
%TO.P,U7,19,PC2*%
%TO.N,unconnected-(U7-PC2-Pad19)*%
X119130000Y-89730000D03*
%TO.P,U7,20,VCC-PLL*%
%TO.N,unconnected-(U7-VCC-PLL-Pad20)*%
X119530000Y-89730000D03*
%TO.P,U7,21,REFCLK-OUT*%
%TO.N,unconnected-(U7-REFCLK-OUT-Pad21)*%
X119930000Y-89730000D03*
%TO.P,U7,22,DXOUT*%
%TO.N,unconnected-(U7-DXOUT-Pad22)*%
X120330000Y-89730000D03*
%TO.P,U7,23,DXIN*%
%TO.N,unconnected-(U7-DXIN-Pad23)*%
X120730000Y-89730000D03*
%TO.P,U7,24,X32KOUT*%
%TO.N,unconnected-(U7-X32KOUT-Pad24)*%
X121130000Y-89730000D03*
%TO.P,U7,25,X32KIN*%
%TO.N,unconnected-(U7-X32KIN-Pad25)*%
X121530000Y-89730000D03*
%TO.P,U7,26,VCC-RTC*%
%TO.N,unconnected-(U7-VCC-RTC-Pad26)*%
X121930000Y-89730000D03*
%TO.P,U7,27,RESET*%
%TO.N,unconnected-(U7-RESET-Pad27)*%
X122330000Y-89730000D03*
%TO.P,U7,28,LDOA-OUT*%
%TO.N,unconnected-(U7-LDOA-OUT-Pad28)*%
X122730000Y-89730000D03*
%TO.P,U7,29,LDO-IN*%
%TO.N,unconnected-(U7-LDO-IN-Pad29)*%
X123130000Y-89730000D03*
%TO.P,U7,30,LDOB-OUT*%
%TO.N,unconnected-(U7-LDOB-OUT-Pad30)*%
X123530000Y-89730000D03*
%TO.P,U7,31,PE13*%
%TO.N,unconnected-(U7-PE13-Pad31)*%
X123930000Y-89730000D03*
%TO.P,U7,32,PE12*%
%TO.N,unconnected-(U7-PE12-Pad32)*%
X124330000Y-89730000D03*
D27*
%TO.P,U7,33,PE3*%
%TO.N,unconnected-(U7-PE3-Pad33)*%
X125760000Y-88300000D03*
%TO.P,U7,34,VCC-PE*%
%TO.N,unconnected-(U7-VCC-PE-Pad34)*%
X125760000Y-87900000D03*
%TO.P,U7,35,PE2*%
%TO.N,unconnected-(U7-PE2-Pad35)*%
X125760000Y-87500000D03*
%TO.P,U7,36,PE11*%
%TO.N,unconnected-(U7-PE11-Pad36)*%
X125760000Y-87100000D03*
%TO.P,U7,37,PE10*%
%TO.N,unconnected-(U7-PE10-Pad37)*%
X125760000Y-86700000D03*
%TO.P,U7,38,PE9*%
%TO.N,unconnected-(U7-PE9-Pad38)*%
X125760000Y-86300000D03*
%TO.P,U7,39,PE8*%
%TO.N,unconnected-(U7-PE8-Pad39)*%
X125760000Y-85900000D03*
%TO.P,U7,40,PE7*%
%TO.N,unconnected-(U7-PE7-Pad40)*%
X125760000Y-85500000D03*
%TO.P,U7,41,PE6*%
%TO.N,unconnected-(U7-PE6-Pad41)*%
X125760000Y-85100000D03*
%TO.P,U7,42,PE5*%
%TO.N,unconnected-(U7-PE5-Pad42)*%
X125760000Y-84700000D03*
%TO.P,U7,43,PE4*%
%TO.N,unconnected-(U7-PE4-Pad43)*%
X125760000Y-84300000D03*
%TO.P,U7,44,PE0*%
%TO.N,unconnected-(U7-PE0-Pad44)*%
X125760000Y-83900000D03*
%TO.P,U7,45,PE1*%
%TO.N,unconnected-(U7-PE1-Pad45)*%
X125760000Y-83500000D03*
%TO.P,U7,46,VDD-SYS0*%
%TO.N,unconnected-(U7-VDD-SYS0-Pad46)*%
X125760000Y-83100000D03*
%TO.P,U7,47,DZQ*%
%TO.N,unconnected-(U7-DZQ-Pad47)*%
X125760000Y-82700000D03*
%TO.P,U7,48,VCC-DRAM0*%
%TO.N,unconnected-(U7-VCC-DRAM0-Pad48)*%
X125760000Y-82300000D03*
%TO.P,U7,49,VCC-DRAM1*%
%TO.N,unconnected-(U7-VCC-DRAM1-Pad49)*%
X125760000Y-81900000D03*
%TO.P,U7,50,VDD18-DRAM*%
%TO.N,unconnected-(U7-VDD18-DRAM-Pad50)*%
X125760000Y-81500000D03*
%TO.P,U7,51,VDD-SYS1*%
%TO.N,unconnected-(U7-VDD-SYS1-Pad51)*%
X125760000Y-81100000D03*
%TO.P,U7,52,PD22*%
%TO.N,unconnected-(U7-PD22-Pad52)*%
X125760000Y-80700000D03*
%TO.P,U7,53,PD21*%
%TO.N,unconnected-(U7-PD21-Pad53)*%
X125760000Y-80300000D03*
%TO.P,U7,54,PD20*%
%TO.N,unconnected-(U7-PD20-Pad54)*%
X125760000Y-79900000D03*
%TO.P,U7,55,PD0*%
%TO.N,unconnected-(U7-PD0-Pad55)*%
X125760000Y-79500000D03*
%TO.P,U7,56,PD1*%
%TO.N,unconnected-(U7-PD1-Pad56)*%
X125760000Y-79100000D03*
%TO.P,U7,57,PD2*%
%TO.N,unconnected-(U7-PD2-Pad57)*%
X125760000Y-78700000D03*
%TO.P,U7,58,PD3*%
%TO.N,unconnected-(U7-PD3-Pad58)*%
X125760000Y-78300000D03*
%TO.P,U7,59,PD4*%
%TO.N,unconnected-(U7-PD4-Pad59)*%
X125760000Y-77900000D03*
%TO.P,U7,60,PD5*%
%TO.N,unconnected-(U7-PD5-Pad60)*%
X125760000Y-77500000D03*
%TO.P,U7,61,PD6*%
%TO.N,unconnected-(U7-PD6-Pad61)*%
X125760000Y-77100000D03*
%TO.P,U7,62,PD7*%
%TO.N,unconnected-(U7-PD7-Pad62)*%
X125760000Y-76700000D03*
%TO.P,U7,63,PD8*%
%TO.N,unconnected-(U7-PD8-Pad63)*%
X125760000Y-76300000D03*
%TO.P,U7,64,PD9*%
%TO.N,unconnected-(U7-PD9-Pad64)*%
X125760000Y-75900000D03*
D26*
%TO.P,U7,65,VCC-LVDS*%
%TO.N,unconnected-(U7-VCC-LVDS-Pad65)*%
X124330000Y-74470000D03*
%TO.P,U7,66,VCC-PD*%
%TO.N,unconnected-(U7-VCC-PD-Pad66)*%
X123930000Y-74470000D03*
%TO.P,U7,67,PD10*%
%TO.N,unconnected-(U7-PD10-Pad67)*%
X123530000Y-74470000D03*
%TO.P,U7,68,PD11*%
%TO.N,unconnected-(U7-PD11-Pad68)*%
X123130000Y-74470000D03*
%TO.P,U7,69,PD13*%
%TO.N,unconnected-(U7-PD13-Pad69)*%
X122730000Y-74470000D03*
%TO.P,U7,70,PD12*%
%TO.N,unconnected-(U7-PD12-Pad70)*%
X122330000Y-74470000D03*
%TO.P,U7,71,PD14*%
%TO.N,unconnected-(U7-PD14-Pad71)*%
X121930000Y-74470000D03*
%TO.P,U7,72,PD15*%
%TO.N,unconnected-(U7-PD15-Pad72)*%
X121530000Y-74470000D03*
%TO.P,U7,73,PD16*%
%TO.N,unconnected-(U7-PD16-Pad73)*%
X121130000Y-74470000D03*
%TO.P,U7,74,PD17*%
%TO.N,unconnected-(U7-PD17-Pad74)*%
X120730000Y-74470000D03*
%TO.P,U7,75,PD18*%
%TO.N,unconnected-(U7-PD18-Pad75)*%
X120330000Y-74470000D03*
%TO.P,U7,76,PD19*%
%TO.N,unconnected-(U7-PD19-Pad76)*%
X119930000Y-74470000D03*
%TO.P,U7,77,VCC-TVOUT*%
%TO.N,unconnected-(U7-VCC-TVOUT-Pad77)*%
X119530000Y-74470000D03*
%TO.P,U7,78,TVOUT0*%
%TO.N,unconnected-(U7-TVOUT0-Pad78)*%
X119130000Y-74470000D03*
%TO.P,U7,79,PB7*%
%TO.N,unconnected-(U7-PB7-Pad79)*%
X118730000Y-74470000D03*
%TO.P,U7,80,PB6*%
%TO.N,unconnected-(U7-PB6-Pad80)*%
X118330000Y-74470000D03*
%TO.P,U7,81,VDD-SYS2*%
%TO.N,unconnected-(U7-VDD-SYS2-Pad81)*%
X117930000Y-74470000D03*
%TO.P,U7,82,PB5*%
%TO.N,unconnected-(U7-PB5-Pad82)*%
X117530000Y-74470000D03*
%TO.P,U7,83,VCC-IO*%
%TO.N,unconnected-(U7-VCC-IO-Pad83)*%
X117130000Y-74470000D03*
%TO.P,U7,84,PB4*%
%TO.N,unconnected-(U7-PB4-Pad84)*%
X116730000Y-74470000D03*
%TO.P,U7,85,PB3*%
%TO.N,unconnected-(U7-PB3-Pad85)*%
X116330000Y-74470000D03*
%TO.P,U7,86,PB2*%
%TO.N,unconnected-(U7-PB2-Pad86)*%
X115930000Y-74470000D03*
%TO.P,U7,87,MICIN3P*%
%TO.N,unconnected-(U7-MICIN3P-Pad87)*%
X115530000Y-74470000D03*
%TO.P,U7,88,MICIN3N*%
%TO.N,unconnected-(U7-MICIN3N-Pad88)*%
X115130000Y-74470000D03*
%TO.P,U7,89,AVCC*%
%TO.N,unconnected-(U7-AVCC-Pad89)*%
X114730000Y-74470000D03*
%TO.P,U7,90,VRA2*%
%TO.N,unconnected-(U7-VRA2-Pad90)*%
X114330000Y-74470000D03*
%TO.P,U7,91,AGND*%
%TO.N,unconnected-(U7-AGND-Pad91)*%
X113930000Y-74470000D03*
%TO.P,U7,92,VRA1*%
%TO.N,unconnected-(U7-VRA1-Pad92)*%
X113530000Y-74470000D03*
%TO.P,U7,93,FMINR*%
%TO.N,unconnected-(U7-FMINR-Pad93)*%
X113130000Y-74470000D03*
%TO.P,U7,94,FMINL*%
%TO.N,unconnected-(U7-FMINL-Pad94)*%
X112730000Y-74470000D03*
%TO.P,U7,95,LINEINR*%
%TO.N,unconnected-(U7-LINEINR-Pad95)*%
X112330000Y-74470000D03*
%TO.P,U7,96,LINEINL*%
%TO.N,unconnected-(U7-LINEINL-Pad96)*%
X111930000Y-74470000D03*
D27*
%TO.P,U7,97,HPVCC*%
%TO.N,unconnected-(U7-HPVCC-Pad97)*%
X110500000Y-75900000D03*
%TO.P,U7,98,HPOUTR*%
%TO.N,unconnected-(U7-HPOUTR-Pad98)*%
X110500000Y-76300000D03*
%TO.P,U7,99,HPOUTL*%
%TO.N,unconnected-(U7-HPOUTL-Pad99)*%
X110500000Y-76700000D03*
%TO.P,U7,100,HPOUTFB*%
%TO.N,unconnected-(U7-HPOUTFB-Pad100)*%
X110500000Y-77100000D03*
%TO.P,U7,101,GPADC0*%
%TO.N,unconnected-(U7-GPADC0-Pad101)*%
X110500000Y-77500000D03*
%TO.P,U7,102,TP-X1*%
%TO.N,unconnected-(U7-TP-X1-Pad102)*%
X110500000Y-77900000D03*
%TO.P,U7,103,TP-X2*%
%TO.N,unconnected-(U7-TP-X2-Pad103)*%
X110500000Y-78300000D03*
%TO.P,U7,104,TP-Y1*%
%TO.N,unconnected-(U7-TP-Y1-Pad104)*%
X110500000Y-78700000D03*
%TO.P,U7,105,TP-Y2*%
%TO.N,unconnected-(U7-TP-Y2-Pad105)*%
X110500000Y-79100000D03*
%TO.P,U7,106,NC0*%
%TO.N,unconnected-(U7-NC0-Pad106)*%
X110500000Y-79500000D03*
%TO.P,U7,107,VCC-TVIN*%
%TO.N,unconnected-(U7-VCC-TVIN-Pad107)*%
X110500000Y-79900000D03*
%TO.P,U7,108,TVIN0*%
%TO.N,unconnected-(U7-TVIN0-Pad108)*%
X110500000Y-80300000D03*
%TO.P,U7,109,TVIN1*%
%TO.N,unconnected-(U7-TVIN1-Pad109)*%
X110500000Y-80700000D03*
%TO.P,U7,110,TVIN-VRP*%
%TO.N,unconnected-(U7-TVIN-VRP-Pad110)*%
X110500000Y-81100000D03*
%TO.P,U7,111,TVIN-VRN*%
%TO.N,unconnected-(U7-TVIN-VRN-Pad111)*%
X110500000Y-81500000D03*
%TO.P,U7,112,USB1-DP*%
%TO.N,unconnected-(U7-USB1-DP-Pad112)*%
X110500000Y-81900000D03*
%TO.P,U7,113,USB1-DM*%
%TO.N,unconnected-(U7-USB1-DM-Pad113)*%
X110500000Y-82300000D03*
%TO.P,U7,114,USB0-DM*%
%TO.N,unconnected-(U7-USB0-DM-Pad114)*%
X110500000Y-82700000D03*
%TO.P,U7,115,USB0-DP*%
%TO.N,unconnected-(U7-USB0-DP-Pad115)*%
X110500000Y-83100000D03*
%TO.P,U7,116,VDD-CORE0*%
%TO.N,unconnected-(U7-VDD-CORE0-Pad116)*%
X110500000Y-83500000D03*
%TO.P,U7,117,VDD-CORE1*%
%TO.N,unconnected-(U7-VDD-CORE1-Pad117)*%
X110500000Y-83900000D03*
%TO.P,U7,118,PG1*%
%TO.N,unconnected-(U7-PG1-Pad118)*%
X110500000Y-84300000D03*
%TO.P,U7,119,PG2*%
%TO.N,unconnected-(U7-PG2-Pad119)*%
X110500000Y-84700000D03*
%TO.P,U7,120,PG0*%
%TO.N,unconnected-(U7-PG0-Pad120)*%
X110500000Y-85100000D03*
%TO.P,U7,121,PG3*%
%TO.N,unconnected-(U7-PG3-Pad121)*%
X110500000Y-85500000D03*
%TO.P,U7,122,PG5*%
%TO.N,unconnected-(U7-PG5-Pad122)*%
X110500000Y-85900000D03*
%TO.P,U7,123,PG4*%
%TO.N,unconnected-(U7-PG4-Pad123)*%
X110500000Y-86300000D03*
%TO.P,U7,124,PG12*%
%TO.N,unconnected-(U7-PG12-Pad124)*%
X110500000Y-86700000D03*
%TO.P,U7,125,PG13*%
%TO.N,unconnected-(U7-PG13-Pad125)*%
X110500000Y-87100000D03*
%TO.P,U7,126,PG14*%
%TO.N,unconnected-(U7-PG14-Pad126)*%
X110500000Y-87500000D03*
%TO.P,U7,127,PG15*%
%TO.N,unconnected-(U7-PG15-Pad127)*%
X110500000Y-87900000D03*
%TO.P,U7,128,VCC-PG*%
%TO.N,unconnected-(U7-VCC-PG-Pad128)*%
X110500000Y-88300000D03*
D28*
%TO.P,U7,129,EPAD*%
%TO.N,unconnected-(U7-EPAD-Pad129)*%
X118130000Y-82100000D03*
%TD*%
D29*
%TO.P,C17,1*%
%TO.N,+12V*%
X155000000Y-131700000D03*
%TO.P,C17,2*%
%TO.N,GND*%
X155000000Y-129800000D03*
%TD*%
D30*
%TO.P,C3,1*%
%TO.N,Net-(U3-VIN)*%
X132825000Y-128855000D03*
%TO.P,C3,2*%
%TO.N,GND*%
X132825000Y-127895000D03*
%TD*%
D13*
%TO.P,R3,1*%
%TO.N,+5V*%
X126865000Y-122875000D03*
%TO.P,R3,2*%
%TO.N,Net-(R3-Pad2)*%
X127885000Y-122875000D03*
%TD*%
D10*
%TO.P,C21,1*%
%TO.N,GND*%
X176950000Y-76520000D03*
%TO.P,C21,2*%
%TO.N,Net-(C21-Pad2)*%
X177910000Y-76520000D03*
%TD*%
D13*
%TO.P,R37,1*%
%TO.N,+0.95V*%
X112490000Y-109130000D03*
%TO.P,R37,2*%
%TO.N,/power/FB4*%
X113510000Y-109130000D03*
%TD*%
D11*
%TO.P,C11,1*%
%TO.N,Net-(U4-VIN)*%
X142250000Y-133750000D03*
%TO.P,C11,2*%
%TO.N,GND*%
X141290000Y-133750000D03*
%TD*%
D12*
%TO.P,C6,1*%
%TO.N,+5V*%
X117125000Y-129175000D03*
%TO.P,C6,2*%
%TO.N,GND*%
X117125000Y-131075000D03*
%TD*%
D24*
%TO.P,R15,1*%
%TO.N,GNDA*%
X151750000Y-143490000D03*
%TO.P,R15,2*%
%TO.N,GND*%
X151750000Y-144510000D03*
%TD*%
D10*
%TO.P,C29,1*%
%TO.N,+5V*%
X123750000Y-110750000D03*
%TO.P,C29,2*%
%TO.N,GND*%
X124710000Y-110750000D03*
%TD*%
D29*
%TO.P,C16,1*%
%TO.N,+12V*%
X152500000Y-131700000D03*
%TO.P,C16,2*%
%TO.N,GND*%
X152500000Y-129800000D03*
%TD*%
D31*
%TO.P,U2,A1,IO_L1N_T0_AD4N_35*%
%TO.N,unconnected-(U2C-IO_L1N_T0_AD4N_35-PadA1)*%
X145750000Y-93250000D03*
%TO.P,U2,A2,GND*%
%TO.N,GND*%
X146750000Y-93250000D03*
%TO.P,U2,A3,GND*%
X147750000Y-93250000D03*
%TO.P,U2,A4,MGTPTXN0_216*%
%TO.N,unconnected-(U2D-MGTPTXN0_216-PadA4)*%
X148750000Y-93250000D03*
%TO.P,U2,A5,GND*%
%TO.N,GND*%
X149750000Y-93250000D03*
%TO.P,U2,A6,MGTPTXN2_216*%
%TO.N,unconnected-(U2D-MGTPTXN2_216-PadA6)*%
X150750000Y-93250000D03*
%TO.P,U2,A7,GND*%
%TO.N,GND*%
X151750000Y-93250000D03*
%TO.P,U2,A8,MGTPRXN0_216*%
%TO.N,unconnected-(U2D-MGTPRXN0_216-PadA8)*%
X152750000Y-93250000D03*
%TO.P,U2,A9,GND*%
%TO.N,GND*%
X153750000Y-93250000D03*
%TO.P,U2,A10,MGTPRXN2_216*%
%TO.N,unconnected-(U2D-MGTPRXN2_216-PadA10)*%
X154750000Y-93250000D03*
%TO.P,U2,A11,GND*%
%TO.N,GND*%
X155750000Y-93250000D03*
%TO.P,U2,A12,GND*%
X156750000Y-93250000D03*
%TO.P,U2,A13,IO_L10P_T1_16*%
%TO.N,unconnected-(U2B-IO_L10P_T1_16-PadA13)*%
X157750000Y-93250000D03*
%TO.P,U2,A14,IO_L10N_T1_16*%
%TO.N,unconnected-(U2B-IO_L10N_T1_16-PadA14)*%
X158750000Y-93250000D03*
%TO.P,U2,A15,IO_L9P_T1_DQS_16*%
%TO.N,unconnected-(U2B-IO_L9P_T1_DQS_16-PadA15)*%
X159750000Y-93250000D03*
%TO.P,U2,A16,IO_L9N_T1_DQS_16*%
%TO.N,unconnected-(U2B-IO_L9N_T1_DQS_16-PadA16)*%
X160750000Y-93250000D03*
%TO.P,U2,A17,VCCO_16*%
%TO.N,unconnected-(U2B-VCCO_16-PadA17)*%
X161750000Y-93250000D03*
%TO.P,U2,A18,IO_L17P_T2_16*%
%TO.N,unconnected-(U2B-IO_L17P_T2_16-PadA18)*%
X162750000Y-93250000D03*
%TO.P,U2,A19,IO_L17N_T2_16*%
%TO.N,unconnected-(U2B-IO_L17N_T2_16-PadA19)*%
X163750000Y-93250000D03*
%TO.P,U2,A20,IO_L16N_T2_16*%
%TO.N,unconnected-(U2B-IO_L16N_T2_16-PadA20)*%
X164750000Y-93250000D03*
%TO.P,U2,A21,IO_L21N_T3_DQS_16*%
%TO.N,unconnected-(U2B-IO_L21N_T3_DQS_16-PadA21)*%
X165750000Y-93250000D03*
%TO.P,U2,A22,GND*%
%TO.N,GND*%
X166750000Y-93250000D03*
%TO.P,U2,AA1,IO_L7P_T1_34*%
%TO.N,unconnected-(U2C-IO_L7P_T1_34-PadAA1)*%
X145750000Y-113250000D03*
%TO.P,U2,AA2,GND*%
%TO.N,GND*%
X146750000Y-113250000D03*
%TO.P,U2,AA3,IO_L9N_T1_DQS_34*%
%TO.N,unconnected-(U2C-IO_L9N_T1_DQS_34-PadAA3)*%
X147750000Y-113250000D03*
%TO.P,U2,AA4,IO_L11N_T1_SRCC_34*%
%TO.N,unconnected-(U2C-IO_L11N_T1_SRCC_34-PadAA4)*%
X148750000Y-113250000D03*
%TO.P,U2,AA5,IO_L10P_T1_34*%
%TO.N,unconnected-(U2C-IO_L10P_T1_34-PadAA5)*%
X149750000Y-113250000D03*
%TO.P,U2,AA6,IO_L18N_T2_34*%
%TO.N,unconnected-(U2C-IO_L18N_T2_34-PadAA6)*%
X150750000Y-113250000D03*
%TO.P,U2,AA7,VCCO_34*%
%TO.N,unconnected-(U2C-VCCO_34-PadAA7)*%
X151750000Y-113250000D03*
%TO.P,U2,AA8,IO_L22P_T3_34*%
%TO.N,unconnected-(U2C-IO_L22P_T3_34-PadAA8)*%
X152750000Y-113250000D03*
%TO.P,U2,AA9,IO_L8P_T1_13*%
%TO.N,unconnected-(U2A-IO_L8P_T1_13-PadAA9)*%
X153750000Y-113250000D03*
%TO.P,U2,AA10,IO_L9P_T1_DQS_13*%
%TO.N,unconnected-(U2A-IO_L9P_T1_DQS_13-PadAA10)*%
X154750000Y-113250000D03*
%TO.P,U2,AA11,IO_L9N_T1_DQS_13*%
%TO.N,unconnected-(U2A-IO_L9N_T1_DQS_13-PadAA11)*%
X155750000Y-113250000D03*
%TO.P,U2,AA12,GND*%
%TO.N,GND*%
X156750000Y-113250000D03*
%TO.P,U2,AA13,IO_L3P_T0_DQS_13*%
%TO.N,unconnected-(U2A-IO_L3P_T0_DQS_13-PadAA13)*%
X157750000Y-113250000D03*
%TO.P,U2,AA14,IO_L5N_T0_13*%
%TO.N,unconnected-(U2A-IO_L5N_T0_13-PadAA14)*%
X158750000Y-113250000D03*
%TO.P,U2,AA15,IO_L4P_T0_13*%
%TO.N,unconnected-(U2A-IO_L4P_T0_13-PadAA15)*%
X159750000Y-113250000D03*
%TO.P,U2,AA16,IO_L1N_T0_13*%
%TO.N,unconnected-(U2A-IO_L1N_T0_13-PadAA16)*%
X160750000Y-113250000D03*
%TO.P,U2,AA17,VCCO_13*%
%TO.N,unconnected-(U2A-VCCO_13-PadAA17)*%
X161750000Y-113250000D03*
%TO.P,U2,AA18,IO_L17P_T2_A14_D30_14*%
%TO.N,unconnected-(U2A-IO_L17P_T2_A14_D30_14-PadAA18)*%
X162750000Y-113250000D03*
%TO.P,U2,AA19,IO_L15P_T2_DQS_RDWR_B_14*%
%TO.N,unconnected-(U2A-IO_L15P_T2_DQS_RDWR_B_14-PadAA19)*%
X163750000Y-113250000D03*
%TO.P,U2,AA20,IO_L8P_T1_D11_14*%
%TO.N,unconnected-(U2A-IO_L8P_T1_D11_14-PadAA20)*%
X164750000Y-113250000D03*
%TO.P,U2,AA21,IO_L8N_T1_D12_14*%
%TO.N,unconnected-(U2A-IO_L8N_T1_D12_14-PadAA21)*%
X165750000Y-113250000D03*
%TO.P,U2,AA22,GND*%
%TO.N,GND*%
X166750000Y-113250000D03*
%TO.P,U2,AB1,IO_L7N_T1_34*%
%TO.N,unconnected-(U2C-IO_L7N_T1_34-PadAB1)*%
X145750000Y-114250000D03*
%TO.P,U2,AB2,IO_L8N_T1_34*%
%TO.N,unconnected-(U2C-IO_L8N_T1_34-PadAB2)*%
X146750000Y-114250000D03*
%TO.P,U2,AB3,IO_L8P_T1_34*%
%TO.N,unconnected-(U2C-IO_L8P_T1_34-PadAB3)*%
X147750000Y-114250000D03*
%TO.P,U2,AB4,VCCO_34*%
%TO.N,unconnected-(U2C-VCCO_34-PadAB4)*%
X148750000Y-114250000D03*
%TO.P,U2,AB5,IO_L10N_T1_34*%
%TO.N,unconnected-(U2C-IO_L10N_T1_34-PadAB5)*%
X149750000Y-114250000D03*
%TO.P,U2,AB6,IO_L20N_T3_34*%
%TO.N,unconnected-(U2C-IO_L20N_T3_34-PadAB6)*%
X150750000Y-114250000D03*
%TO.P,U2,AB7,IO_L20P_T3_34*%
%TO.N,unconnected-(U2C-IO_L20P_T3_34-PadAB7)*%
X151750000Y-114250000D03*
%TO.P,U2,AB8,IO_L22N_T3_34*%
%TO.N,unconnected-(U2C-IO_L22N_T3_34-PadAB8)*%
X152750000Y-114250000D03*
%TO.P,U2,AB9,GND*%
%TO.N,GND*%
X153750000Y-114250000D03*
%TO.P,U2,AB10,IO_L8N_T1_13*%
%TO.N,unconnected-(U2A-IO_L8N_T1_13-PadAB10)*%
X154750000Y-114250000D03*
%TO.P,U2,AB11,IO_L7P_T1_13*%
%TO.N,unconnected-(U2A-IO_L7P_T1_13-PadAB11)*%
X155750000Y-114250000D03*
%TO.P,U2,AB12,IO_L7N_T1_13*%
%TO.N,unconnected-(U2A-IO_L7N_T1_13-PadAB12)*%
X156750000Y-114250000D03*
%TO.P,U2,AB13,IO_L3N_T0_DQS_13*%
%TO.N,unconnected-(U2A-IO_L3N_T0_DQS_13-PadAB13)*%
X157750000Y-114250000D03*
%TO.P,U2,AB14,VCCO_13*%
%TO.N,unconnected-(U2A-VCCO_13-PadAB14)*%
X158750000Y-114250000D03*
%TO.P,U2,AB15,IO_L4N_T0_13*%
%TO.N,unconnected-(U2A-IO_L4N_T0_13-PadAB15)*%
X159750000Y-114250000D03*
%TO.P,U2,AB16,IO_L2P_T0_13*%
%TO.N,unconnected-(U2A-IO_L2P_T0_13-PadAB16)*%
X160750000Y-114250000D03*
%TO.P,U2,AB17,IO_L2N_T0_13*%
%TO.N,unconnected-(U2A-IO_L2N_T0_13-PadAB17)*%
X161750000Y-114250000D03*
%TO.P,U2,AB18,IO_L17N_T2_A13_D29_14*%
%TO.N,unconnected-(U2A-IO_L17N_T2_A13_D29_14-PadAB18)*%
X162750000Y-114250000D03*
%TO.P,U2,AB19,GND*%
%TO.N,GND*%
X163750000Y-114250000D03*
%TO.P,U2,AB20,IO_L15N_T2_DQS_DOUT_CSO_B_14*%
%TO.N,unconnected-(U2A-IO_L15N_T2_DQS_DOUT_CSO_B_14-PadAB20)*%
X164750000Y-114250000D03*
%TO.P,U2,AB21,IO_L10P_T1_D14_14*%
%TO.N,unconnected-(U2A-IO_L10P_T1_D14_14-PadAB21)*%
X165750000Y-114250000D03*
%TO.P,U2,AB22,IO_L10N_T1_D15_14*%
%TO.N,unconnected-(U2A-IO_L10N_T1_D15_14-PadAB22)*%
X166750000Y-114250000D03*
%TO.P,U2,B1,IO_L1P_T0_AD4P_35*%
%TO.N,unconnected-(U2C-IO_L1P_T0_AD4P_35-PadB1)*%
X145750000Y-94250000D03*
%TO.P,U2,B2,IO_L2N_T0_AD12N_35*%
%TO.N,unconnected-(U2C-IO_L2N_T0_AD12N_35-PadB2)*%
X146750000Y-94250000D03*
%TO.P,U2,B3,GND*%
%TO.N,GND*%
X147750000Y-94250000D03*
%TO.P,U2,B4,MGTPTXP0_216*%
%TO.N,unconnected-(U2D-MGTPTXP0_216-PadB4)*%
X148750000Y-94250000D03*
%TO.P,U2,B5,MGTAVTT*%
%TO.N,unconnected-(U2E-MGTAVTT-PadB5)*%
X149750000Y-94250000D03*
%TO.P,U2,B6,MGTPTXP2_216*%
%TO.N,unconnected-(U2D-MGTPTXP2_216-PadB6)*%
X150750000Y-94250000D03*
%TO.P,U2,B7,MGTAVTT*%
%TO.N,unconnected-(U2E-MGTAVTT-PadB7)*%
X151750000Y-94250000D03*
%TO.P,U2,B8,MGTPRXP0_216*%
%TO.N,unconnected-(U2D-MGTPRXP0_216-PadB8)*%
X152750000Y-94250000D03*
%TO.P,U2,B9,MGTAVTT*%
%TO.N,unconnected-(U2E-MGTAVTT-PadB9)*%
X153750000Y-94250000D03*
%TO.P,U2,B10,MGTPRXP2_216*%
%TO.N,unconnected-(U2D-MGTPRXP2_216-PadB10)*%
X154750000Y-94250000D03*
%TO.P,U2,B11,MGTAVTT*%
%TO.N,unconnected-(U2E-MGTAVTT-PadB11)*%
X155750000Y-94250000D03*
%TO.P,U2,B12,GND*%
%TO.N,GND*%
X156750000Y-94250000D03*
%TO.P,U2,B13,IO_L8N_T1_16*%
%TO.N,unconnected-(U2B-IO_L8N_T1_16-PadB13)*%
X157750000Y-94250000D03*
%TO.P,U2,B14,VCCO_16*%
%TO.N,unconnected-(U2B-VCCO_16-PadB14)*%
X158750000Y-94250000D03*
%TO.P,U2,B15,IO_L7P_T1_16*%
%TO.N,unconnected-(U2B-IO_L7P_T1_16-PadB15)*%
X159750000Y-94250000D03*
%TO.P,U2,B16,IO_L7N_T1_16*%
%TO.N,unconnected-(U2B-IO_L7N_T1_16-PadB16)*%
X160750000Y-94250000D03*
%TO.P,U2,B17,IO_L11P_T1_SRCC_16*%
%TO.N,unconnected-(U2B-IO_L11P_T1_SRCC_16-PadB17)*%
X161750000Y-94250000D03*
%TO.P,U2,B18,IO_L11N_T1_SRCC_16*%
%TO.N,unconnected-(U2B-IO_L11N_T1_SRCC_16-PadB18)*%
X162750000Y-94250000D03*
%TO.P,U2,B19,GND*%
%TO.N,GND*%
X163750000Y-94250000D03*
%TO.P,U2,B20,IO_L16P_T2_16*%
%TO.N,unconnected-(U2B-IO_L16P_T2_16-PadB20)*%
X164750000Y-94250000D03*
%TO.P,U2,B21,IO_L21P_T3_DQS_16*%
%TO.N,unconnected-(U2B-IO_L21P_T3_DQS_16-PadB21)*%
X165750000Y-94250000D03*
%TO.P,U2,B22,IO_L20N_T3_16*%
%TO.N,unconnected-(U2B-IO_L20N_T3_16-PadB22)*%
X166750000Y-94250000D03*
%TO.P,U2,C1,VCCO_35*%
%TO.N,unconnected-(U2C-VCCO_35-PadC1)*%
X145750000Y-95250000D03*
%TO.P,U2,C2,IO_L2P_T0_AD12P_35*%
%TO.N,unconnected-(U2C-IO_L2P_T0_AD12P_35-PadC2)*%
X146750000Y-95250000D03*
%TO.P,U2,C3,GND*%
%TO.N,GND*%
X147750000Y-95250000D03*
%TO.P,U2,C4,MGTAVTT*%
%TO.N,unconnected-(U2E-MGTAVTT-PadC4)*%
X148750000Y-95250000D03*
%TO.P,U2,C5,MGTPTXN1_216*%
%TO.N,unconnected-(U2D-MGTPTXN1_216-PadC5)*%
X149750000Y-95250000D03*
%TO.P,U2,C6,GND*%
%TO.N,GND*%
X150750000Y-95250000D03*
%TO.P,U2,C7,MGTPTXN3_216*%
%TO.N,unconnected-(U2D-MGTPTXN3_216-PadC7)*%
X151750000Y-95250000D03*
%TO.P,U2,C8,MGTAVTT*%
%TO.N,unconnected-(U2E-MGTAVTT-PadC8)*%
X152750000Y-95250000D03*
%TO.P,U2,C9,MGTPRXN3_216*%
%TO.N,unconnected-(U2D-MGTPRXN3_216-PadC9)*%
X153750000Y-95250000D03*
%TO.P,U2,C10,GND*%
%TO.N,GND*%
X154750000Y-95250000D03*
%TO.P,U2,C11,MGTPRXN1_216*%
%TO.N,unconnected-(U2D-MGTPRXN1_216-PadC11)*%
X155750000Y-95250000D03*
%TO.P,U2,C12,GND*%
%TO.N,GND*%
X156750000Y-95250000D03*
%TO.P,U2,C13,IO_L8P_T1_16*%
%TO.N,unconnected-(U2B-IO_L8P_T1_16-PadC13)*%
X157750000Y-95250000D03*
%TO.P,U2,C14,IO_L3P_T0_DQS_16*%
%TO.N,unconnected-(U2B-IO_L3P_T0_DQS_16-PadC14)*%
X158750000Y-95250000D03*
%TO.P,U2,C15,IO_L3N_T0_DQS_16*%
%TO.N,unconnected-(U2B-IO_L3N_T0_DQS_16-PadC15)*%
X159750000Y-95250000D03*
%TO.P,U2,C16,GND*%
%TO.N,GND*%
X160750000Y-95250000D03*
%TO.P,U2,C17,IO_L12N_T1_MRCC_16*%
%TO.N,unconnected-(U2B-IO_L12N_T1_MRCC_16-PadC17)*%
X161750000Y-95250000D03*
%TO.P,U2,C18,IO_L13P_T2_MRCC_16*%
%TO.N,unconnected-(U2B-IO_L13P_T2_MRCC_16-PadC18)*%
X162750000Y-95250000D03*
%TO.P,U2,C19,IO_L13N_T2_MRCC_16*%
%TO.N,unconnected-(U2B-IO_L13N_T2_MRCC_16-PadC19)*%
X163750000Y-95250000D03*
%TO.P,U2,C20,IO_L19N_T3_VREF_16*%
%TO.N,unconnected-(U2B-IO_L19N_T3_VREF_16-PadC20)*%
X164750000Y-95250000D03*
%TO.P,U2,C21,VCCO_16*%
%TO.N,unconnected-(U2B-VCCO_16-PadC21)*%
X165750000Y-95250000D03*
%TO.P,U2,C22,IO_L20P_T3_16*%
%TO.N,unconnected-(U2B-IO_L20P_T3_16-PadC22)*%
X166750000Y-95250000D03*
%TO.P,U2,D1,IO_L3N_T0_DQS_AD5N_35*%
%TO.N,unconnected-(U2C-IO_L3N_T0_DQS_AD5N_35-PadD1)*%
X145750000Y-96250000D03*
%TO.P,U2,D2,IO_L4N_T0_35*%
%TO.N,unconnected-(U2C-IO_L4N_T0_35-PadD2)*%
X146750000Y-96250000D03*
%TO.P,U2,D3,GND*%
%TO.N,GND*%
X147750000Y-96250000D03*
%TO.P,U2,D4,GND*%
X148750000Y-96250000D03*
%TO.P,U2,D5,MGTPTXP1_216*%
%TO.N,unconnected-(U2D-MGTPTXP1_216-PadD5)*%
X149750000Y-96250000D03*
%TO.P,U2,D6,MGTAVCC*%
%TO.N,unconnected-(U2E-MGTAVCC-PadD6)*%
X150750000Y-96250000D03*
%TO.P,U2,D7,MGTPTXP3_216*%
%TO.N,unconnected-(U2D-MGTPTXP3_216-PadD7)*%
X151750000Y-96250000D03*
%TO.P,U2,D8,GND*%
%TO.N,GND*%
X152750000Y-96250000D03*
%TO.P,U2,D9,MGTPRXP3_216*%
%TO.N,unconnected-(U2D-MGTPRXP3_216-PadD9)*%
X153750000Y-96250000D03*
%TO.P,U2,D10,MGTAVCC*%
%TO.N,unconnected-(U2E-MGTAVCC-PadD10)*%
X154750000Y-96250000D03*
%TO.P,U2,D11,MGTPRXP1_216*%
%TO.N,unconnected-(U2D-MGTPRXP1_216-PadD11)*%
X155750000Y-96250000D03*
%TO.P,U2,D12,GND*%
%TO.N,GND*%
X156750000Y-96250000D03*
%TO.P,U2,D13,GND*%
X157750000Y-96250000D03*
%TO.P,U2,D14,IO_L6P_T0_16*%
%TO.N,unconnected-(U2B-IO_L6P_T0_16-PadD14)*%
X158750000Y-96250000D03*
%TO.P,U2,D15,IO_L6N_T0_VREF_16*%
%TO.N,unconnected-(U2B-IO_L6N_T0_VREF_16-PadD15)*%
X159750000Y-96250000D03*
%TO.P,U2,D16,IO_L5N_T0_16*%
%TO.N,unconnected-(U2B-IO_L5N_T0_16-PadD16)*%
X160750000Y-96250000D03*
%TO.P,U2,D17,IO_L12P_T1_MRCC_16*%
%TO.N,unconnected-(U2B-IO_L12P_T1_MRCC_16-PadD17)*%
X161750000Y-96250000D03*
%TO.P,U2,D18,VCCO_16*%
%TO.N,unconnected-(U2B-VCCO_16-PadD18)*%
X162750000Y-96250000D03*
%TO.P,U2,D19,IO_L14N_T2_SRCC_16*%
%TO.N,unconnected-(U2B-IO_L14N_T2_SRCC_16-PadD19)*%
X163750000Y-96250000D03*
%TO.P,U2,D20,IO_L19P_T3_16*%
%TO.N,unconnected-(U2B-IO_L19P_T3_16-PadD20)*%
X164750000Y-96250000D03*
%TO.P,U2,D21,IO_L23N_T3_16*%
%TO.N,unconnected-(U2B-IO_L23N_T3_16-PadD21)*%
X165750000Y-96250000D03*
%TO.P,U2,D22,IO_L22N_T3_16*%
%TO.N,unconnected-(U2B-IO_L22N_T3_16-PadD22)*%
X166750000Y-96250000D03*
%TO.P,U2,E1,IO_L3P_T0_DQS_AD5P_35*%
%TO.N,unconnected-(U2C-IO_L3P_T0_DQS_AD5P_35-PadE1)*%
X145750000Y-97250000D03*
%TO.P,U2,E2,IO_L4P_T0_35*%
%TO.N,unconnected-(U2C-IO_L4P_T0_35-PadE2)*%
X146750000Y-97250000D03*
%TO.P,U2,E3,IO_L6N_T0_VREF_35*%
%TO.N,unconnected-(U2C-IO_L6N_T0_VREF_35-PadE3)*%
X147750000Y-97250000D03*
%TO.P,U2,E4,GND*%
%TO.N,GND*%
X148750000Y-97250000D03*
%TO.P,U2,E5,GND*%
X149750000Y-97250000D03*
%TO.P,U2,E6,MGTREFCLK0N_216*%
%TO.N,unconnected-(U2D-MGTREFCLK0N_216-PadE6)*%
X150750000Y-97250000D03*
%TO.P,U2,E7,GND*%
%TO.N,GND*%
X151750000Y-97250000D03*
%TO.P,U2,E8,MGTAVCC*%
%TO.N,unconnected-(U2E-MGTAVCC-PadE8)*%
X152750000Y-97250000D03*
%TO.P,U2,E9,GND*%
%TO.N,GND*%
X153750000Y-97250000D03*
%TO.P,U2,E10,MGTREFCLK1N_216*%
%TO.N,unconnected-(U2D-MGTREFCLK1N_216-PadE10)*%
X154750000Y-97250000D03*
%TO.P,U2,E11,GND*%
%TO.N,GND*%
X155750000Y-97250000D03*
%TO.P,U2,E12,VCCBATT_0*%
%TO.N,unconnected-(U2G-VCCBATT_0-PadE12)*%
X156750000Y-97250000D03*
%TO.P,U2,E13,IO_L4P_T0_16*%
%TO.N,unconnected-(U2B-IO_L4P_T0_16-PadE13)*%
X157750000Y-97250000D03*
%TO.P,U2,E14,IO_L4N_T0_16*%
%TO.N,unconnected-(U2B-IO_L4N_T0_16-PadE14)*%
X158750000Y-97250000D03*
%TO.P,U2,E15,VCCO_16*%
%TO.N,unconnected-(U2B-VCCO_16-PadE15)*%
X159750000Y-97250000D03*
%TO.P,U2,E16,IO_L5P_T0_16*%
%TO.N,unconnected-(U2B-IO_L5P_T0_16-PadE16)*%
X160750000Y-97250000D03*
%TO.P,U2,E17,IO_L2N_T0_16*%
%TO.N,unconnected-(U2B-IO_L2N_T0_16-PadE17)*%
X161750000Y-97250000D03*
%TO.P,U2,E18,IO_L15N_T2_DQS_16*%
%TO.N,unconnected-(U2B-IO_L15N_T2_DQS_16-PadE18)*%
X162750000Y-97250000D03*
%TO.P,U2,E19,IO_L14P_T2_SRCC_16*%
%TO.N,unconnected-(U2B-IO_L14P_T2_SRCC_16-PadE19)*%
X163750000Y-97250000D03*
%TO.P,U2,E20,GND*%
%TO.N,GND*%
X164750000Y-97250000D03*
%TO.P,U2,E21,IO_L23P_T3_16*%
%TO.N,unconnected-(U2B-IO_L23P_T3_16-PadE21)*%
X165750000Y-97250000D03*
%TO.P,U2,E22,IO_L22P_T3_16*%
%TO.N,unconnected-(U2B-IO_L22P_T3_16-PadE22)*%
X166750000Y-97250000D03*
%TO.P,U2,F1,IO_L5N_T0_AD13N_35*%
%TO.N,unconnected-(U2C-IO_L5N_T0_AD13N_35-PadF1)*%
X145750000Y-98250000D03*
%TO.P,U2,F2,VCCO_35*%
%TO.N,unconnected-(U2C-VCCO_35-PadF2)*%
X146750000Y-98250000D03*
%TO.P,U2,F3,IO_L6P_T0_35*%
%TO.N,unconnected-(U2C-IO_L6P_T0_35-PadF3)*%
X147750000Y-98250000D03*
%TO.P,U2,F4,IO_0_35*%
%TO.N,unconnected-(U2C-IO_0_35-PadF4)*%
X148750000Y-98250000D03*
%TO.P,U2,F5,GND*%
%TO.N,GND*%
X149750000Y-98250000D03*
%TO.P,U2,F6,MGTREFCLK0P_216*%
%TO.N,unconnected-(U2D-MGTREFCLK0P_216-PadF6)*%
X150750000Y-98250000D03*
%TO.P,U2,F7,MGTAVCC*%
%TO.N,unconnected-(U2E-MGTAVCC-PadF7)*%
X151750000Y-98250000D03*
%TO.P,U2,F8,MGTRREF_216*%
%TO.N,unconnected-(U2E-MGTRREF_216-PadF8)*%
X152750000Y-98250000D03*
%TO.P,U2,F9,MGTAVCC*%
%TO.N,unconnected-(U2E-MGTAVCC-PadF9)*%
X153750000Y-98250000D03*
%TO.P,U2,F10,MGTREFCLK1P_216*%
%TO.N,unconnected-(U2D-MGTREFCLK1P_216-PadF10)*%
X154750000Y-98250000D03*
%TO.P,U2,F11,GND*%
%TO.N,GND*%
X155750000Y-98250000D03*
%TO.P,U2,F12,VCCO_0*%
%TO.N,unconnected-(U2F-VCCO_0-PadF12)*%
X156750000Y-98250000D03*
%TO.P,U2,F13,IO_L1P_T0_16*%
%TO.N,unconnected-(U2B-IO_L1P_T0_16-PadF13)*%
X157750000Y-98250000D03*
%TO.P,U2,F14,IO_L1N_T0_16*%
%TO.N,unconnected-(U2B-IO_L1N_T0_16-PadF14)*%
X158750000Y-98250000D03*
%TO.P,U2,F15,IO_0_16*%
%TO.N,unconnected-(U2B-IO_0_16-PadF15)*%
X159750000Y-98250000D03*
%TO.P,U2,F16,IO_L2P_T0_16*%
%TO.N,unconnected-(U2B-IO_L2P_T0_16-PadF16)*%
X160750000Y-98250000D03*
%TO.P,U2,F17,GND*%
%TO.N,GND*%
X161750000Y-98250000D03*
%TO.P,U2,F18,IO_L15P_T2_DQS_16*%
%TO.N,unconnected-(U2B-IO_L15P_T2_DQS_16-PadF18)*%
X162750000Y-98250000D03*
%TO.P,U2,F19,IO_L18P_T2_16*%
%TO.N,unconnected-(U2B-IO_L18P_T2_16-PadF19)*%
X163750000Y-98250000D03*
%TO.P,U2,F20,IO_L18N_T2_16*%
%TO.N,unconnected-(U2B-IO_L18N_T2_16-PadF20)*%
X164750000Y-98250000D03*
%TO.P,U2,F21,IO_25_16*%
%TO.N,unconnected-(U2B-IO_25_16-PadF21)*%
X165750000Y-98250000D03*
%TO.P,U2,F22,VCCO_16*%
%TO.N,unconnected-(U2B-VCCO_16-PadF22)*%
X166750000Y-98250000D03*
%TO.P,U2,G1,IO_L5P_T0_AD13P_35*%
%TO.N,unconnected-(U2C-IO_L5P_T0_AD13P_35-PadG1)*%
X145750000Y-99250000D03*
%TO.P,U2,G2,IO_L8N_T1_AD14N_35*%
%TO.N,unconnected-(U2C-IO_L8N_T1_AD14N_35-PadG2)*%
X146750000Y-99250000D03*
%TO.P,U2,G3,IO_L11N_T1_SRCC_35*%
%TO.N,unconnected-(U2C-IO_L11N_T1_SRCC_35-PadG3)*%
X147750000Y-99250000D03*
%TO.P,U2,G4,IO_L12N_T1_MRCC_35*%
%TO.N,unconnected-(U2C-IO_L12N_T1_MRCC_35-PadG4)*%
X148750000Y-99250000D03*
%TO.P,U2,G5,GND*%
%TO.N,GND*%
X149750000Y-99250000D03*
%TO.P,U2,G6,GND*%
X150750000Y-99250000D03*
%TO.P,U2,G7,GND*%
X151750000Y-99250000D03*
%TO.P,U2,G8,GND*%
X152750000Y-99250000D03*
%TO.P,U2,G9,GND*%
X153750000Y-99250000D03*
%TO.P,U2,G10,GND*%
X154750000Y-99250000D03*
%TO.P,U2,G11,DONE_0*%
%TO.N,unconnected-(U2F-DONE_0-PadG11)*%
X155750000Y-99250000D03*
%TO.P,U2,G12,GND*%
%TO.N,GND*%
X156750000Y-99250000D03*
%TO.P,U2,G13,IO_L1N_T0_AD0N_15*%
%TO.N,unconnected-(U2B-IO_L1N_T0_AD0N_15-PadG13)*%
X157750000Y-99250000D03*
%TO.P,U2,G14,GND*%
%TO.N,GND*%
X158750000Y-99250000D03*
%TO.P,U2,G15,IO_L2P_T0_AD8P_15*%
%TO.N,unconnected-(U2B-IO_L2P_T0_AD8P_15-PadG15)*%
X159750000Y-99250000D03*
%TO.P,U2,G16,IO_L2N_T0_AD8N_15*%
%TO.N,unconnected-(U2B-IO_L2N_T0_AD8N_15-PadG16)*%
X160750000Y-99250000D03*
%TO.P,U2,G17,IO_L4P_T0_15*%
%TO.N,unconnected-(U2B-IO_L4P_T0_15-PadG17)*%
X161750000Y-99250000D03*
%TO.P,U2,G18,IO_L4N_T0_15*%
%TO.N,unconnected-(U2B-IO_L4N_T0_15-PadG18)*%
X162750000Y-99250000D03*
%TO.P,U2,G19,VCCO_15*%
%TO.N,unconnected-(U2B-VCCO_15-PadG19)*%
X163750000Y-99250000D03*
%TO.P,U2,G20,IO_L8N_T1_AD10N_15*%
%TO.N,unconnected-(U2B-IO_L8N_T1_AD10N_15-PadG20)*%
X164750000Y-99250000D03*
%TO.P,U2,G21,IO_L24P_T3_16*%
%TO.N,unconnected-(U2B-IO_L24P_T3_16-PadG21)*%
X165750000Y-99250000D03*
%TO.P,U2,G22,IO_L24N_T3_16*%
%TO.N,unconnected-(U2B-IO_L24N_T3_16-PadG22)*%
X166750000Y-99250000D03*
%TO.P,U2,H1,GND*%
%TO.N,GND*%
X145750000Y-100250000D03*
%TO.P,U2,H2,IO_L8P_T1_AD14P_35*%
%TO.N,unconnected-(U2C-IO_L8P_T1_AD14P_35-PadH2)*%
X146750000Y-100250000D03*
%TO.P,U2,H3,IO_L11P_T1_SRCC_35*%
%TO.N,unconnected-(U2C-IO_L11P_T1_SRCC_35-PadH3)*%
X147750000Y-100250000D03*
%TO.P,U2,H4,IO_L12P_T1_MRCC_35*%
%TO.N,unconnected-(U2C-IO_L12P_T1_MRCC_35-PadH4)*%
X148750000Y-100250000D03*
%TO.P,U2,H5,IO_L10N_T1_AD15N_35*%
%TO.N,unconnected-(U2C-IO_L10N_T1_AD15N_35-PadH5)*%
X149750000Y-100250000D03*
%TO.P,U2,H6,VCCO_35*%
%TO.N,unconnected-(U2C-VCCO_35-PadH6)*%
X150750000Y-100250000D03*
%TO.P,U2,H7,GND*%
%TO.N,GND*%
X151750000Y-100250000D03*
%TO.P,U2,H8,VCCINT*%
%TO.N,unconnected-(U2G-VCCINT-PadH8)*%
X152750000Y-100250000D03*
%TO.P,U2,H9,GND*%
%TO.N,GND*%
X153750000Y-100250000D03*
%TO.P,U2,H10,VCCINT*%
%TO.N,unconnected-(U2G-VCCINT-PadH10)*%
X154750000Y-100250000D03*
%TO.P,U2,H11,GND*%
%TO.N,GND*%
X155750000Y-100250000D03*
%TO.P,U2,H12,VCCAUX*%
%TO.N,unconnected-(U2G-VCCAUX-PadH12)*%
X156750000Y-100250000D03*
%TO.P,U2,H13,IO_L1P_T0_AD0P_15*%
%TO.N,unconnected-(U2B-IO_L1P_T0_AD0P_15-PadH13)*%
X157750000Y-100250000D03*
%TO.P,U2,H14,IO_L3N_T0_DQS_AD1N_15*%
%TO.N,unconnected-(U2B-IO_L3N_T0_DQS_AD1N_15-PadH14)*%
X158750000Y-100250000D03*
%TO.P,U2,H15,IO_L5N_T0_AD9N_15*%
%TO.N,unconnected-(U2B-IO_L5N_T0_AD9N_15-PadH15)*%
X159750000Y-100250000D03*
%TO.P,U2,H16,VCCO_15*%
%TO.N,unconnected-(U2B-VCCO_15-PadH16)*%
X160750000Y-100250000D03*
%TO.P,U2,H17,IO_L6P_T0_15*%
%TO.N,unconnected-(U2B-IO_L6P_T0_15-PadH17)*%
X161750000Y-100250000D03*
%TO.P,U2,H18,IO_L6N_T0_VREF_15*%
%TO.N,unconnected-(U2B-IO_L6N_T0_VREF_15-PadH18)*%
X162750000Y-100250000D03*
%TO.P,U2,H19,IO_L12N_T1_MRCC_15*%
%TO.N,unconnected-(U2B-IO_L12N_T1_MRCC_15-PadH19)*%
X163750000Y-100250000D03*
%TO.P,U2,H20,IO_L8P_T1_AD10P_15*%
%TO.N,unconnected-(U2B-IO_L8P_T1_AD10P_15-PadH20)*%
X164750000Y-100250000D03*
%TO.P,U2,H21,GND*%
%TO.N,GND*%
X165750000Y-100250000D03*
%TO.P,U2,H22,IO_L7N_T1_AD2N_15*%
%TO.N,unconnected-(U2B-IO_L7N_T1_AD2N_15-PadH22)*%
X166750000Y-100250000D03*
%TO.P,U2,J1,IO_L7N_T1_AD6N_35*%
%TO.N,unconnected-(U2C-IO_L7N_T1_AD6N_35-PadJ1)*%
X145750000Y-101250000D03*
%TO.P,U2,J2,IO_L9N_T1_DQS_AD7N_35*%
%TO.N,unconnected-(U2C-IO_L9N_T1_DQS_AD7N_35-PadJ2)*%
X146750000Y-101250000D03*
%TO.P,U2,J3,VCCO_35*%
%TO.N,unconnected-(U2C-VCCO_35-PadJ3)*%
X147750000Y-101250000D03*
%TO.P,U2,J4,IO_L13N_T2_MRCC_35*%
%TO.N,unconnected-(U2C-IO_L13N_T2_MRCC_35-PadJ4)*%
X148750000Y-101250000D03*
%TO.P,U2,J5,IO_L10P_T1_AD15P_35*%
%TO.N,unconnected-(U2C-IO_L10P_T1_AD15P_35-PadJ5)*%
X149750000Y-101250000D03*
%TO.P,U2,J6,IO_L17N_T2_35*%
%TO.N,unconnected-(U2C-IO_L17N_T2_35-PadJ6)*%
X150750000Y-101250000D03*
%TO.P,U2,J7,VCCINT*%
%TO.N,unconnected-(U2G-VCCINT-PadJ7)*%
X151750000Y-101250000D03*
%TO.P,U2,J8,GND*%
%TO.N,GND*%
X152750000Y-101250000D03*
%TO.P,U2,J9,VCCINT*%
%TO.N,unconnected-(U2G-VCCINT-PadJ9)*%
X153750000Y-101250000D03*
%TO.P,U2,J10,GND*%
%TO.N,GND*%
X154750000Y-101250000D03*
%TO.P,U2,J11,VCCBRAM*%
%TO.N,unconnected-(U2G-VCCBRAM-PadJ11)*%
X155750000Y-101250000D03*
%TO.P,U2,J12,GND*%
%TO.N,GND*%
X156750000Y-101250000D03*
%TO.P,U2,J13,VCCO_15*%
%TO.N,unconnected-(U2B-VCCO_15-PadJ13)*%
X157750000Y-101250000D03*
%TO.P,U2,J14,IO_L3P_T0_DQS_AD1P_15*%
%TO.N,unconnected-(U2B-IO_L3P_T0_DQS_AD1P_15-PadJ14)*%
X158750000Y-101250000D03*
%TO.P,U2,J15,IO_L5P_T0_AD9P_15*%
%TO.N,unconnected-(U2B-IO_L5P_T0_AD9P_15-PadJ15)*%
X159750000Y-101250000D03*
%TO.P,U2,J16,IO_0_15*%
%TO.N,unconnected-(U2B-IO_0_15-PadJ16)*%
X160750000Y-101250000D03*
%TO.P,U2,J17,IO_L21N_T3_DQS_A18_15*%
%TO.N,unconnected-(U2B-IO_L21N_T3_DQS_A18_15-PadJ17)*%
X161750000Y-101250000D03*
%TO.P,U2,J18,GND*%
%TO.N,GND*%
X162750000Y-101250000D03*
%TO.P,U2,J19,IO_L12P_T1_MRCC_15*%
%TO.N,unconnected-(U2B-IO_L12P_T1_MRCC_15-PadJ19)*%
X163750000Y-101250000D03*
%TO.P,U2,J20,IO_L11P_T1_SRCC_15*%
%TO.N,unconnected-(U2B-IO_L11P_T1_SRCC_15-PadJ20)*%
X164750000Y-101250000D03*
%TO.P,U2,J21,IO_L11N_T1_SRCC_15*%
%TO.N,unconnected-(U2B-IO_L11N_T1_SRCC_15-PadJ21)*%
X165750000Y-101250000D03*
%TO.P,U2,J22,IO_L7P_T1_AD2P_15*%
%TO.N,unconnected-(U2B-IO_L7P_T1_AD2P_15-PadJ22)*%
X166750000Y-101250000D03*
%TO.P,U2,K1,IO_L7P_T1_AD6P_35*%
%TO.N,unconnected-(U2C-IO_L7P_T1_AD6P_35-PadK1)*%
X145750000Y-102250000D03*
%TO.P,U2,K2,IO_L9P_T1_DQS_AD7P_35*%
%TO.N,unconnected-(U2C-IO_L9P_T1_DQS_AD7P_35-PadK2)*%
X146750000Y-102250000D03*
%TO.P,U2,K3,IO_L14N_T2_SRCC_35*%
%TO.N,unconnected-(U2C-IO_L14N_T2_SRCC_35-PadK3)*%
X147750000Y-102250000D03*
%TO.P,U2,K4,IO_L13P_T2_MRCC_35*%
%TO.N,unconnected-(U2C-IO_L13P_T2_MRCC_35-PadK4)*%
X148750000Y-102250000D03*
%TO.P,U2,K5,GND*%
%TO.N,GND*%
X149750000Y-102250000D03*
%TO.P,U2,K6,IO_L17P_T2_35*%
%TO.N,unconnected-(U2C-IO_L17P_T2_35-PadK6)*%
X150750000Y-102250000D03*
%TO.P,U2,K7,GND*%
%TO.N,GND*%
X151750000Y-102250000D03*
%TO.P,U2,K8,VCCINT*%
%TO.N,unconnected-(U2G-VCCINT-PadK8)*%
X152750000Y-102250000D03*
%TO.P,U2,K9,GNDADC_0*%
%TO.N,unconnected-(U2G-GNDADC_0-PadK9)*%
X153750000Y-102250000D03*
%TO.P,U2,K10,VCCADC_0*%
%TO.N,unconnected-(U2G-VCCADC_0-PadK10)*%
X154750000Y-102250000D03*
%TO.P,U2,K11,GND*%
%TO.N,GND*%
X155750000Y-102250000D03*
%TO.P,U2,K12,VCCAUX*%
%TO.N,unconnected-(U2G-VCCAUX-PadK12)*%
X156750000Y-102250000D03*
%TO.P,U2,K13,IO_L19P_T3_A22_15*%
%TO.N,unconnected-(U2B-IO_L19P_T3_A22_15-PadK13)*%
X157750000Y-102250000D03*
%TO.P,U2,K14,IO_L19N_T3_A21_VREF_15*%
%TO.N,unconnected-(U2B-IO_L19N_T3_A21_VREF_15-PadK14)*%
X158750000Y-102250000D03*
%TO.P,U2,K15,GND*%
%TO.N,GND*%
X159750000Y-102250000D03*
%TO.P,U2,K16,IO_L23N_T3_FWE_B_15*%
%TO.N,unconnected-(U2B-IO_L23N_T3_FWE_B_15-PadK16)*%
X160750000Y-102250000D03*
%TO.P,U2,K17,IO_L21P_T3_DQS_15*%
%TO.N,unconnected-(U2B-IO_L21P_T3_DQS_15-PadK17)*%
X161750000Y-102250000D03*
%TO.P,U2,K18,IO_L13P_T2_MRCC_15*%
%TO.N,unconnected-(U2B-IO_L13P_T2_MRCC_15-PadK18)*%
X162750000Y-102250000D03*
%TO.P,U2,K19,IO_L13N_T2_MRCC_15*%
%TO.N,unconnected-(U2B-IO_L13N_T2_MRCC_15-PadK19)*%
X163750000Y-102250000D03*
%TO.P,U2,K20,VCCO_15*%
%TO.N,unconnected-(U2B-VCCO_15-PadK20)*%
X164750000Y-102250000D03*
%TO.P,U2,K21,IO_L9P_T1_DQS_AD3P_15*%
%TO.N,unconnected-(U2B-IO_L9P_T1_DQS_AD3P_15-PadK21)*%
X165750000Y-102250000D03*
%TO.P,U2,K22,IO_L9N_T1_DQS_AD3N_15*%
%TO.N,unconnected-(U2B-IO_L9N_T1_DQS_AD3N_15-PadK22)*%
X166750000Y-102250000D03*
%TO.P,U2,L1,IO_L15N_T2_DQS_35*%
%TO.N,unconnected-(U2C-IO_L15N_T2_DQS_35-PadL1)*%
X145750000Y-103250000D03*
%TO.P,U2,L2,GND*%
%TO.N,GND*%
X146750000Y-103250000D03*
%TO.P,U2,L3,IO_L14P_T2_SRCC_35*%
%TO.N,unconnected-(U2C-IO_L14P_T2_SRCC_35-PadL3)*%
X147750000Y-103250000D03*
%TO.P,U2,L4,IO_L18N_T2_35*%
%TO.N,unconnected-(U2C-IO_L18N_T2_35-PadL4)*%
X148750000Y-103250000D03*
%TO.P,U2,L5,IO_L18P_T2_35*%
%TO.N,unconnected-(U2C-IO_L18P_T2_35-PadL5)*%
X149750000Y-103250000D03*
%TO.P,U2,L6,IO_25_35*%
%TO.N,unconnected-(U2C-IO_25_35-PadL6)*%
X150750000Y-103250000D03*
%TO.P,U2,L7,VCCINT*%
%TO.N,unconnected-(U2G-VCCINT-PadL7)*%
X151750000Y-103250000D03*
%TO.P,U2,L8,GND*%
%TO.N,GND*%
X152750000Y-103250000D03*
%TO.P,U2,L9,VREFN_0*%
%TO.N,unconnected-(U2F-VREFN_0-PadL9)*%
X153750000Y-103250000D03*
%TO.P,U2,L10,VP_0*%
%TO.N,unconnected-(U2F-VP_0-PadL10)*%
X154750000Y-103250000D03*
%TO.P,U2,L11,VCCBRAM*%
%TO.N,unconnected-(U2G-VCCBRAM-PadL11)*%
X155750000Y-103250000D03*
%TO.P,U2,L12,CCLK_0*%
%TO.N,unconnected-(U2F-CCLK_0-PadL12)*%
X156750000Y-103250000D03*
%TO.P,U2,L13,IO_L20N_T3_A19_15*%
%TO.N,unconnected-(U2B-IO_L20N_T3_A19_15-PadL13)*%
X157750000Y-103250000D03*
%TO.P,U2,L14,IO_L22P_T3_A17_15*%
%TO.N,unconnected-(U2B-IO_L22P_T3_A17_15-PadL14)*%
X158750000Y-103250000D03*
%TO.P,U2,L15,IO_L22N_T3_A16_15*%
%TO.N,unconnected-(U2B-IO_L22N_T3_A16_15-PadL15)*%
X159750000Y-103250000D03*
%TO.P,U2,L16,IO_L23P_T3_FOE_B_15*%
%TO.N,unconnected-(U2B-IO_L23P_T3_FOE_B_15-PadL16)*%
X160750000Y-103250000D03*
%TO.P,U2,L17,VCCO_15*%
%TO.N,unconnected-(U2B-VCCO_15-PadL17)*%
X161750000Y-103250000D03*
%TO.P,U2,L18,IO_L16N_T2_A27_15*%
%TO.N,unconnected-(U2B-IO_L16N_T2_A27_15-PadL18)*%
X162750000Y-103250000D03*
%TO.P,U2,L19,IO_L14P_T2_SRCC_15*%
%TO.N,unconnected-(U2B-IO_L14P_T2_SRCC_15-PadL19)*%
X163750000Y-103250000D03*
%TO.P,U2,L20,IO_L14N_T2_SRCC_15*%
%TO.N,unconnected-(U2B-IO_L14N_T2_SRCC_15-PadL20)*%
X164750000Y-103250000D03*
%TO.P,U2,L21,IO_L10N_T1_AD11N_15*%
%TO.N,unconnected-(U2B-IO_L10N_T1_AD11N_15-PadL21)*%
X165750000Y-103250000D03*
%TO.P,U2,L22,GND*%
%TO.N,GND*%
X166750000Y-103250000D03*
%TO.P,U2,M1,IO_L15P_T2_DQS_35*%
%TO.N,unconnected-(U2C-IO_L15P_T2_DQS_35-PadM1)*%
X145750000Y-104250000D03*
%TO.P,U2,M2,IO_L16N_T2_35*%
%TO.N,unconnected-(U2C-IO_L16N_T2_35-PadM2)*%
X146750000Y-104250000D03*
%TO.P,U2,M3,IO_L16P_T2_35*%
%TO.N,unconnected-(U2C-IO_L16P_T2_35-PadM3)*%
X147750000Y-104250000D03*
%TO.P,U2,M4,VCCO_35*%
%TO.N,unconnected-(U2C-VCCO_35-PadM4)*%
X148750000Y-104250000D03*
%TO.P,U2,M5,IO_L23N_T3_35*%
%TO.N,unconnected-(U2C-IO_L23N_T3_35-PadM5)*%
X149750000Y-104250000D03*
%TO.P,U2,M6,IO_L23P_T3_35*%
%TO.N,unconnected-(U2C-IO_L23P_T3_35-PadM6)*%
X150750000Y-104250000D03*
%TO.P,U2,M7,GND*%
%TO.N,GND*%
X151750000Y-104250000D03*
%TO.P,U2,M8,VCCINT*%
%TO.N,unconnected-(U2G-VCCINT-PadM8)*%
X152750000Y-104250000D03*
%TO.P,U2,M9,VN_0*%
%TO.N,unconnected-(U2F-VN_0-PadM9)*%
X153750000Y-104250000D03*
%TO.P,U2,M10,VREFP_0*%
%TO.N,unconnected-(U2F-VREFP_0-PadM10)*%
X154750000Y-104250000D03*
%TO.P,U2,M11,GND*%
%TO.N,GND*%
X155750000Y-104250000D03*
%TO.P,U2,M12,VCCAUX*%
%TO.N,unconnected-(U2G-VCCAUX-PadM12)*%
X156750000Y-104250000D03*
%TO.P,U2,M13,IO_L20P_T3_A20_15*%
%TO.N,unconnected-(U2B-IO_L20P_T3_A20_15-PadM13)*%
X157750000Y-104250000D03*
%TO.P,U2,M14,VCCO_14*%
%TO.N,unconnected-(U2A-VCCO_14-PadM14)*%
X158750000Y-104250000D03*
%TO.P,U2,M15,IO_L24P_T3_RS1_15*%
%TO.N,unconnected-(U2B-IO_L24P_T3_RS1_15-PadM15)*%
X159750000Y-104250000D03*
%TO.P,U2,M16,IO_L24N_T3_RS0_15*%
%TO.N,unconnected-(U2B-IO_L24N_T3_RS0_15-PadM16)*%
X160750000Y-104250000D03*
%TO.P,U2,M17,IO_25_15*%
%TO.N,unconnected-(U2B-IO_25_15-PadM17)*%
X161750000Y-104250000D03*
%TO.P,U2,M18,IO_L16P_T2_A28_15*%
%TO.N,unconnected-(U2B-IO_L16P_T2_A28_15-PadM18)*%
X162750000Y-104250000D03*
%TO.P,U2,M19,GND*%
%TO.N,GND*%
X163750000Y-104250000D03*
%TO.P,U2,M20,IO_L18N_T2_A23_15*%
%TO.N,unconnected-(U2B-IO_L18N_T2_A23_15-PadM20)*%
X164750000Y-104250000D03*
%TO.P,U2,M21,IO_L10P_T1_AD11P_15*%
%TO.N,unconnected-(U2B-IO_L10P_T1_AD11P_15-PadM21)*%
X165750000Y-104250000D03*
%TO.P,U2,M22,IO_L15N_T2_DQS_ADV_B_15*%
%TO.N,unconnected-(U2B-IO_L15N_T2_DQS_ADV_B_15-PadM22)*%
X166750000Y-104250000D03*
%TO.P,U2,N1,VCCO_35*%
%TO.N,unconnected-(U2C-VCCO_35-PadN1)*%
X145750000Y-105250000D03*
%TO.P,U2,N2,IO_L22N_T3_35*%
%TO.N,unconnected-(U2C-IO_L22N_T3_35-PadN2)*%
X146750000Y-105250000D03*
%TO.P,U2,N3,IO_L19N_T3_VREF_35*%
%TO.N,unconnected-(U2C-IO_L19N_T3_VREF_35-PadN3)*%
X147750000Y-105250000D03*
%TO.P,U2,N4,IO_L19P_T3_35*%
%TO.N,unconnected-(U2C-IO_L19P_T3_35-PadN4)*%
X148750000Y-105250000D03*
%TO.P,U2,N5,IO_L24N_T3_35*%
%TO.N,unconnected-(U2C-IO_L24N_T3_35-PadN5)*%
X149750000Y-105250000D03*
%TO.P,U2,N6,GND*%
%TO.N,GND*%
X150750000Y-105250000D03*
%TO.P,U2,N7,VCCINT*%
%TO.N,unconnected-(U2G-VCCINT-PadN7)*%
X151750000Y-105250000D03*
%TO.P,U2,N8,GND*%
%TO.N,GND*%
X152750000Y-105250000D03*
%TO.P,U2,N9,DXN_0*%
%TO.N,unconnected-(U2F-DXN_0-PadN9)*%
X153750000Y-105250000D03*
%TO.P,U2,N10,DXP_0*%
%TO.N,unconnected-(U2F-DXP_0-PadN10)*%
X154750000Y-105250000D03*
%TO.P,U2,N11,VCCBRAM*%
%TO.N,unconnected-(U2G-VCCBRAM-PadN11)*%
X155750000Y-105250000D03*
%TO.P,U2,N12,PROGRAM_B_0*%
%TO.N,unconnected-(U2F-PROGRAM_B_0-PadN12)*%
X156750000Y-105250000D03*
%TO.P,U2,N13,IO_L23P_T3_A03_D19_14*%
%TO.N,unconnected-(U2A-IO_L23P_T3_A03_D19_14-PadN13)*%
X157750000Y-105250000D03*
%TO.P,U2,N14,IO_L23N_T3_A02_D18_14*%
%TO.N,unconnected-(U2A-IO_L23N_T3_A02_D18_14-PadN14)*%
X158750000Y-105250000D03*
%TO.P,U2,N15,IO_25_14*%
%TO.N,unconnected-(U2A-IO_25_14-PadN15)*%
X159750000Y-105250000D03*
%TO.P,U2,N16,GND*%
%TO.N,GND*%
X160750000Y-105250000D03*
%TO.P,U2,N17,IO_L21P_T3_DQS_14*%
%TO.N,unconnected-(U2A-IO_L21P_T3_DQS_14-PadN17)*%
X161750000Y-105250000D03*
%TO.P,U2,N18,IO_L17P_T2_A26_15*%
%TO.N,unconnected-(U2B-IO_L17P_T2_A26_15-PadN18)*%
X162750000Y-105250000D03*
%TO.P,U2,N19,IO_L17N_T2_A25_15*%
%TO.N,unconnected-(U2B-IO_L17N_T2_A25_15-PadN19)*%
X163750000Y-105250000D03*
%TO.P,U2,N20,IO_L18P_T2_A24_15*%
%TO.N,unconnected-(U2B-IO_L18P_T2_A24_15-PadN20)*%
X164750000Y-105250000D03*
%TO.P,U2,N21,VCCO_15*%
%TO.N,unconnected-(U2B-VCCO_15-PadN21)*%
X165750000Y-105250000D03*
%TO.P,U2,N22,IO_L15P_T2_DQS_15*%
%TO.N,unconnected-(U2B-IO_L15P_T2_DQS_15-PadN22)*%
X166750000Y-105250000D03*
%TO.P,U2,P1,IO_L20N_T3_35*%
%TO.N,unconnected-(U2C-IO_L20N_T3_35-PadP1)*%
X145750000Y-106250000D03*
%TO.P,U2,P2,IO_L22P_T3_35*%
%TO.N,unconnected-(U2C-IO_L22P_T3_35-PadP2)*%
X146750000Y-106250000D03*
%TO.P,U2,P3,GND*%
%TO.N,GND*%
X147750000Y-106250000D03*
%TO.P,U2,P4,IO_L21N_T3_DQS_35*%
%TO.N,unconnected-(U2C-IO_L21N_T3_DQS_35-PadP4)*%
X148750000Y-106250000D03*
%TO.P,U2,P5,IO_L21P_T3_DQS_35*%
%TO.N,unconnected-(U2C-IO_L21P_T3_DQS_35-PadP5)*%
X149750000Y-106250000D03*
%TO.P,U2,P6,IO_L24P_T3_35*%
%TO.N,unconnected-(U2C-IO_L24P_T3_35-PadP6)*%
X150750000Y-106250000D03*
%TO.P,U2,P7,GND*%
%TO.N,GND*%
X151750000Y-106250000D03*
%TO.P,U2,P8,VCCINT*%
%TO.N,unconnected-(U2G-VCCINT-PadP8)*%
X152750000Y-106250000D03*
%TO.P,U2,P9,GND*%
%TO.N,GND*%
X153750000Y-106250000D03*
%TO.P,U2,P10,VCCINT*%
%TO.N,unconnected-(U2G-VCCINT-PadP10)*%
X154750000Y-106250000D03*
%TO.P,U2,P11,GND*%
%TO.N,GND*%
X155750000Y-106250000D03*
%TO.P,U2,P12,VCCAUX*%
%TO.N,unconnected-(U2G-VCCAUX-PadP12)*%
X156750000Y-106250000D03*
%TO.P,U2,P13,GND*%
%TO.N,GND*%
X157750000Y-106250000D03*
%TO.P,U2,P14,IO_L19P_T3_A10_D26_14*%
%TO.N,unconnected-(U2A-IO_L19P_T3_A10_D26_14-PadP14)*%
X158750000Y-106250000D03*
%TO.P,U2,P15,IO_L22P_T3_A05_D21_14*%
%TO.N,unconnected-(U2A-IO_L22P_T3_A05_D21_14-PadP15)*%
X159750000Y-106250000D03*
%TO.P,U2,P16,IO_L24P_T3_A01_D17_14*%
%TO.N,unconnected-(U2A-IO_L24P_T3_A01_D17_14-PadP16)*%
X160750000Y-106250000D03*
%TO.P,U2,P17,IO_L21N_T3_DQS_A06_D22_14*%
%TO.N,unconnected-(U2A-IO_L21N_T3_DQS_A06_D22_14-PadP17)*%
X161750000Y-106250000D03*
%TO.P,U2,P18,VCCO_14*%
%TO.N,unconnected-(U2A-VCCO_14-PadP18)*%
X162750000Y-106250000D03*
%TO.P,U2,P19,IO_L5P_T0_D06_14*%
%TO.N,unconnected-(U2A-IO_L5P_T0_D06_14-PadP19)*%
X163750000Y-106250000D03*
%TO.P,U2,P20,IO_0_14*%
%TO.N,unconnected-(U2A-IO_0_14-PadP20)*%
X164750000Y-106250000D03*
%TO.P,U2,P21,IO_L2P_T0_D02_14*%
%TO.N,unconnected-(U2A-IO_L2P_T0_D02_14-PadP21)*%
X165750000Y-106250000D03*
%TO.P,U2,P22,IO_L1P_T0_D00_MOSI_14*%
%TO.N,unconnected-(U2A-IO_L1P_T0_D00_MOSI_14-PadP22)*%
X166750000Y-106250000D03*
%TO.P,U2,R1,IO_L20P_T3_35*%
%TO.N,unconnected-(U2C-IO_L20P_T3_35-PadR1)*%
X145750000Y-107250000D03*
%TO.P,U2,R2,IO_L3N_T0_DQS_34*%
%TO.N,unconnected-(U2C-IO_L3N_T0_DQS_34-PadR2)*%
X146750000Y-107250000D03*
%TO.P,U2,R3,IO_L3P_T0_DQS_34*%
%TO.N,unconnected-(U2C-IO_L3P_T0_DQS_34-PadR3)*%
X147750000Y-107250000D03*
%TO.P,U2,R4,IO_L13P_T2_MRCC_34*%
%TO.N,unconnected-(U2C-IO_L13P_T2_MRCC_34-PadR4)*%
X148750000Y-107250000D03*
%TO.P,U2,R5,VCCO_34*%
%TO.N,unconnected-(U2C-VCCO_34-PadR5)*%
X149750000Y-107250000D03*
%TO.P,U2,R6,IO_L17P_T2_34*%
%TO.N,unconnected-(U2C-IO_L17P_T2_34-PadR6)*%
X150750000Y-107250000D03*
%TO.P,U2,R7,VCCINT*%
%TO.N,unconnected-(U2G-VCCINT-PadR7)*%
X151750000Y-107250000D03*
%TO.P,U2,R8,GND*%
%TO.N,GND*%
X152750000Y-107250000D03*
%TO.P,U2,R9,VCCINT*%
%TO.N,unconnected-(U2G-VCCINT-PadR9)*%
X153750000Y-107250000D03*
%TO.P,U2,R10,GND*%
%TO.N,GND*%
X154750000Y-107250000D03*
%TO.P,U2,R11,VCCAUX*%
%TO.N,unconnected-(U2G-VCCAUX-PadR11)*%
X155750000Y-107250000D03*
%TO.P,U2,R12,GND*%
%TO.N,GND*%
X156750000Y-107250000D03*
%TO.P,U2,R13,TDI_0*%
%TO.N,unconnected-(U2F-TDI_0-PadR13)*%
X157750000Y-107250000D03*
%TO.P,U2,R14,IO_L19N_T3_A09_D25_VREF_14*%
%TO.N,unconnected-(U2A-IO_L19N_T3_A09_D25_VREF_14-PadR14)*%
X158750000Y-107250000D03*
%TO.P,U2,R15,VCCO_14*%
%TO.N,unconnected-(U2A-VCCO_14-PadR15)*%
X159750000Y-107250000D03*
%TO.P,U2,R16,IO_L22N_T3_A04_D20_14*%
%TO.N,unconnected-(U2A-IO_L22N_T3_A04_D20_14-PadR16)*%
X160750000Y-107250000D03*
%TO.P,U2,R17,IO_L24N_T3_A00_D16_14*%
%TO.N,unconnected-(U2A-IO_L24N_T3_A00_D16_14-PadR17)*%
X161750000Y-107250000D03*
%TO.P,U2,R18,IO_L20P_T3_A08_D24_14*%
%TO.N,unconnected-(U2A-IO_L20P_T3_A08_D24_14-PadR18)*%
X162750000Y-107250000D03*
%TO.P,U2,R19,IO_L5N_T0_D07_14*%
%TO.N,unconnected-(U2A-IO_L5N_T0_D07_14-PadR19)*%
X163750000Y-107250000D03*
%TO.P,U2,R20,GND*%
%TO.N,GND*%
X164750000Y-107250000D03*
%TO.P,U2,R21,IO_L2N_T0_D03_14*%
%TO.N,unconnected-(U2A-IO_L2N_T0_D03_14-PadR21)*%
X165750000Y-107250000D03*
%TO.P,U2,R22,IO_L1N_T0_D01_DIN_14*%
%TO.N,unconnected-(U2A-IO_L1N_T0_D01_DIN_14-PadR22)*%
X166750000Y-107250000D03*
%TO.P,U2,T1,IO_L1P_T0_34*%
%TO.N,unconnected-(U2C-IO_L1P_T0_34-PadT1)*%
X145750000Y-108250000D03*
%TO.P,U2,T2,VCCO_34*%
%TO.N,unconnected-(U2C-VCCO_34-PadT2)*%
X146750000Y-108250000D03*
%TO.P,U2,T3,IO_0_34*%
%TO.N,unconnected-(U2C-IO_0_34-PadT3)*%
X147750000Y-108250000D03*
%TO.P,U2,T4,IO_L13N_T2_MRCC_34*%
%TO.N,unconnected-(U2C-IO_L13N_T2_MRCC_34-PadT4)*%
X148750000Y-108250000D03*
%TO.P,U2,T5,IO_L14P_T2_SRCC_34*%
%TO.N,unconnected-(U2C-IO_L14P_T2_SRCC_34-PadT5)*%
X149750000Y-108250000D03*
%TO.P,U2,T6,IO_L17N_T2_34*%
%TO.N,unconnected-(U2C-IO_L17N_T2_34-PadT6)*%
X150750000Y-108250000D03*
%TO.P,U2,T7,GND*%
%TO.N,GND*%
X151750000Y-108250000D03*
%TO.P,U2,T8,VCCINT*%
%TO.N,unconnected-(U2G-VCCINT-PadT8)*%
X152750000Y-108250000D03*
%TO.P,U2,T9,GND*%
%TO.N,GND*%
X153750000Y-108250000D03*
%TO.P,U2,T10,VCCINT*%
%TO.N,unconnected-(U2G-VCCINT-PadT10)*%
X154750000Y-108250000D03*
%TO.P,U2,T11,GND*%
%TO.N,GND*%
X155750000Y-108250000D03*
%TO.P,U2,T12,VCCO_0*%
%TO.N,unconnected-(U2F-VCCO_0-PadT12)*%
X156750000Y-108250000D03*
%TO.P,U2,T13,TMS_0*%
%TO.N,unconnected-(U2F-TMS_0-PadT13)*%
X157750000Y-108250000D03*
%TO.P,U2,T14,IO_L15P_T2_DQS_13*%
%TO.N,unconnected-(U2A-IO_L15P_T2_DQS_13-PadT14)*%
X158750000Y-108250000D03*
%TO.P,U2,T15,IO_L15N_T2_DQS_13*%
%TO.N,unconnected-(U2A-IO_L15N_T2_DQS_13-PadT15)*%
X159750000Y-108250000D03*
%TO.P,U2,T16,IO_L17P_T2_13*%
%TO.N,unconnected-(U2A-IO_L17P_T2_13-PadT16)*%
X160750000Y-108250000D03*
%TO.P,U2,T17,GND*%
%TO.N,GND*%
X161750000Y-108250000D03*
%TO.P,U2,T18,IO_L20N_T3_A07_D23_14*%
%TO.N,unconnected-(U2A-IO_L20N_T3_A07_D23_14-PadT18)*%
X162750000Y-108250000D03*
%TO.P,U2,T19,IO_L6P_T0_FCS_B_14*%
%TO.N,unconnected-(U2A-IO_L6P_T0_FCS_B_14-PadT19)*%
X163750000Y-108250000D03*
%TO.P,U2,T20,IO_L6N_T0_D08_VREF_14*%
%TO.N,unconnected-(U2A-IO_L6N_T0_D08_VREF_14-PadT20)*%
X164750000Y-108250000D03*
%TO.P,U2,T21,IO_L4P_T0_D04_14*%
%TO.N,unconnected-(U2A-IO_L4P_T0_D04_14-PadT21)*%
X165750000Y-108250000D03*
%TO.P,U2,T22,VCCO_14*%
%TO.N,unconnected-(U2A-VCCO_14-PadT22)*%
X166750000Y-108250000D03*
%TO.P,U2,U1,IO_L1N_T0_34*%
%TO.N,unconnected-(U2C-IO_L1N_T0_34-PadU1)*%
X145750000Y-109250000D03*
%TO.P,U2,U2,IO_L2P_T0_34*%
%TO.N,unconnected-(U2C-IO_L2P_T0_34-PadU2)*%
X146750000Y-109250000D03*
%TO.P,U2,U3,IO_L6P_T0_34*%
%TO.N,unconnected-(U2C-IO_L6P_T0_34-PadU3)*%
X147750000Y-109250000D03*
%TO.P,U2,U4,GND*%
%TO.N,GND*%
X148750000Y-109250000D03*
%TO.P,U2,U5,IO_L14N_T2_SRCC_34*%
%TO.N,unconnected-(U2C-IO_L14N_T2_SRCC_34-PadU5)*%
X149750000Y-109250000D03*
%TO.P,U2,U6,IO_L16P_T2_34*%
%TO.N,unconnected-(U2C-IO_L16P_T2_34-PadU6)*%
X150750000Y-109250000D03*
%TO.P,U2,U7,IO_25_34*%
%TO.N,unconnected-(U2C-IO_25_34-PadU7)*%
X151750000Y-109250000D03*
%TO.P,U2,U8,CFGBVS_0*%
%TO.N,unconnected-(U2F-CFGBVS_0-PadU8)*%
X152750000Y-109250000D03*
%TO.P,U2,U9,M2_0*%
%TO.N,unconnected-(U2F-M2_0-PadU9)*%
X153750000Y-109250000D03*
%TO.P,U2,U10,M1_0*%
%TO.N,unconnected-(U2F-M1_0-PadU10)*%
X154750000Y-109250000D03*
%TO.P,U2,U11,M0_0*%
%TO.N,unconnected-(U2F-M0_0-PadU11)*%
X155750000Y-109250000D03*
%TO.P,U2,U12,INIT_B_0*%
%TO.N,unconnected-(U2F-INIT_B_0-PadU12)*%
X156750000Y-109250000D03*
%TO.P,U2,U13,TDO_0*%
%TO.N,unconnected-(U2F-TDO_0-PadU13)*%
X157750000Y-109250000D03*
%TO.P,U2,U14,GND*%
%TO.N,GND*%
X158750000Y-109250000D03*
%TO.P,U2,U15,IO_L14P_T2_SRCC_13*%
%TO.N,unconnected-(U2A-IO_L14P_T2_SRCC_13-PadU15)*%
X159750000Y-109250000D03*
%TO.P,U2,U16,IO_L17N_T2_13*%
%TO.N,unconnected-(U2A-IO_L17N_T2_13-PadU16)*%
X160750000Y-109250000D03*
%TO.P,U2,U17,IO_L18P_T2_A12_D28_14*%
%TO.N,unconnected-(U2A-IO_L18P_T2_A12_D28_14-PadU17)*%
X161750000Y-109250000D03*
%TO.P,U2,U18,IO_L18N_T2_A11_D27_14*%
%TO.N,unconnected-(U2A-IO_L18N_T2_A11_D27_14-PadU18)*%
X162750000Y-109250000D03*
%TO.P,U2,U19,VCCO_14*%
%TO.N,unconnected-(U2A-VCCO_14-PadU19)*%
X163750000Y-109250000D03*
%TO.P,U2,U20,IO_L11P_T1_SRCC_14*%
%TO.N,unconnected-(U2A-IO_L11P_T1_SRCC_14-PadU20)*%
X164750000Y-109250000D03*
%TO.P,U2,U21,IO_L4N_T0_D05_14*%
%TO.N,unconnected-(U2A-IO_L4N_T0_D05_14-PadU21)*%
X165750000Y-109250000D03*
%TO.P,U2,U22,IO_L3P_T0_DQS_PUDC_B_14*%
%TO.N,unconnected-(U2A-IO_L3P_T0_DQS_PUDC_B_14-PadU22)*%
X166750000Y-109250000D03*
%TO.P,U2,V1,GND*%
%TO.N,GND*%
X145750000Y-110250000D03*
%TO.P,U2,V2,IO_L2N_T0_34*%
%TO.N,unconnected-(U2C-IO_L2N_T0_34-PadV2)*%
X146750000Y-110250000D03*
%TO.P,U2,V3,IO_L6N_T0_VREF_34*%
%TO.N,unconnected-(U2C-IO_L6N_T0_VREF_34-PadV3)*%
X147750000Y-110250000D03*
%TO.P,U2,V4,IO_L12P_T1_MRCC_34*%
%TO.N,unconnected-(U2C-IO_L12P_T1_MRCC_34-PadV4)*%
X148750000Y-110250000D03*
%TO.P,U2,V5,IO_L16N_T2_34*%
%TO.N,unconnected-(U2C-IO_L16N_T2_34-PadV5)*%
X149750000Y-110250000D03*
%TO.P,U2,V6,VCCO_34*%
%TO.N,unconnected-(U2C-VCCO_34-PadV6)*%
X150750000Y-110250000D03*
%TO.P,U2,V7,IO_L19P_T3_34*%
%TO.N,unconnected-(U2C-IO_L19P_T3_34-PadV7)*%
X151750000Y-110250000D03*
%TO.P,U2,V8,IO_L21N_T3_DQS_34*%
%TO.N,unconnected-(U2C-IO_L21N_T3_DQS_34-PadV8)*%
X152750000Y-110250000D03*
%TO.P,U2,V9,IO_L21P_T3_DQS_34*%
%TO.N,unconnected-(U2C-IO_L21P_T3_DQS_34-PadV9)*%
X153750000Y-110250000D03*
%TO.P,U2,V10,IO_L10P_T1_13*%
%TO.N,unconnected-(U2A-IO_L10P_T1_13-PadV10)*%
X154750000Y-110250000D03*
%TO.P,U2,V11,GND*%
%TO.N,GND*%
X155750000Y-110250000D03*
%TO.P,U2,V12,TCK_0*%
%TO.N,unconnected-(U2F-TCK_0-PadV12)*%
X156750000Y-110250000D03*
%TO.P,U2,V13,IO_L13P_T2_MRCC_13*%
%TO.N,unconnected-(U2A-IO_L13P_T2_MRCC_13-PadV13)*%
X157750000Y-110250000D03*
%TO.P,U2,V14,IO_L13N_T2_MRCC_13*%
%TO.N,unconnected-(U2A-IO_L13N_T2_MRCC_13-PadV14)*%
X158750000Y-110250000D03*
%TO.P,U2,V15,IO_L14N_T2_SRCC_13*%
%TO.N,unconnected-(U2A-IO_L14N_T2_SRCC_13-PadV15)*%
X159750000Y-110250000D03*
%TO.P,U2,V16,VCCO_13*%
%TO.N,unconnected-(U2A-VCCO_13-PadV16)*%
X160750000Y-110250000D03*
%TO.P,U2,V17,IO_L16P_T2_CSI_B_14*%
%TO.N,unconnected-(U2A-IO_L16P_T2_CSI_B_14-PadV17)*%
X161750000Y-110250000D03*
%TO.P,U2,V18,IO_L14P_T2_SRCC_14*%
%TO.N,unconnected-(U2A-IO_L14P_T2_SRCC_14-PadV18)*%
X162750000Y-110250000D03*
%TO.P,U2,V19,IO_L14N_T2_SRCC_14*%
%TO.N,unconnected-(U2A-IO_L14N_T2_SRCC_14-PadV19)*%
X163750000Y-110250000D03*
%TO.P,U2,V20,IO_L11N_T1_SRCC_14*%
%TO.N,unconnected-(U2A-IO_L11N_T1_SRCC_14-PadV20)*%
X164750000Y-110250000D03*
%TO.P,U2,V21,GND*%
%TO.N,GND*%
X165750000Y-110250000D03*
%TO.P,U2,V22,IO_L3N_T0_DQS_EMCCLK_14*%
%TO.N,unconnected-(U2A-IO_L3N_T0_DQS_EMCCLK_14-PadV22)*%
X166750000Y-110250000D03*
%TO.P,U2,W1,IO_L5P_T0_34*%
%TO.N,unconnected-(U2C-IO_L5P_T0_34-PadW1)*%
X145750000Y-111250000D03*
%TO.P,U2,W2,IO_L4P_T0_34*%
%TO.N,unconnected-(U2C-IO_L4P_T0_34-PadW2)*%
X146750000Y-111250000D03*
%TO.P,U2,W3,VCCO_34*%
%TO.N,unconnected-(U2C-VCCO_34-PadW3)*%
X147750000Y-111250000D03*
%TO.P,U2,W4,IO_L12N_T1_MRCC_34*%
%TO.N,unconnected-(U2C-IO_L12N_T1_MRCC_34-PadW4)*%
X148750000Y-111250000D03*
%TO.P,U2,W5,IO_L15N_T2_DQS_34*%
%TO.N,unconnected-(U2C-IO_L15N_T2_DQS_34-PadW5)*%
X149750000Y-111250000D03*
%TO.P,U2,W6,IO_L15P_T2_DQS_34*%
%TO.N,unconnected-(U2C-IO_L15P_T2_DQS_34-PadW6)*%
X150750000Y-111250000D03*
%TO.P,U2,W7,IO_L19N_T3_VREF_34*%
%TO.N,unconnected-(U2C-IO_L19N_T3_VREF_34-PadW7)*%
X151750000Y-111250000D03*
%TO.P,U2,W8,GND*%
%TO.N,GND*%
X152750000Y-111250000D03*
%TO.P,U2,W9,IO_L24P_T3_34*%
%TO.N,unconnected-(U2C-IO_L24P_T3_34-PadW9)*%
X153750000Y-111250000D03*
%TO.P,U2,W10,IO_L10N_T1_13*%
%TO.N,unconnected-(U2A-IO_L10N_T1_13-PadW10)*%
X154750000Y-111250000D03*
%TO.P,U2,W11,IO_L12P_T1_MRCC_13*%
%TO.N,unconnected-(U2A-IO_L12P_T1_MRCC_13-PadW11)*%
X155750000Y-111250000D03*
%TO.P,U2,W12,IO_L12N_T1_MRCC_13*%
%TO.N,unconnected-(U2A-IO_L12N_T1_MRCC_13-PadW12)*%
X156750000Y-111250000D03*
%TO.P,U2,W13,VCCO_13*%
%TO.N,unconnected-(U2A-VCCO_13-PadW13)*%
X157750000Y-111250000D03*
%TO.P,U2,W14,IO_L6P_T0_13*%
%TO.N,unconnected-(U2A-IO_L6P_T0_13-PadW14)*%
X158750000Y-111250000D03*
%TO.P,U2,W15,IO_L16P_T2_13*%
%TO.N,unconnected-(U2A-IO_L16P_T2_13-PadW15)*%
X159750000Y-111250000D03*
%TO.P,U2,W16,IO_L16N_T2_13*%
%TO.N,unconnected-(U2A-IO_L16N_T2_13-PadW16)*%
X160750000Y-111250000D03*
%TO.P,U2,W17,IO_L16N_T2_A15_D31_14*%
%TO.N,unconnected-(U2A-IO_L16N_T2_A15_D31_14-PadW17)*%
X161750000Y-111250000D03*
%TO.P,U2,W18,GND*%
%TO.N,GND*%
X162750000Y-111250000D03*
%TO.P,U2,W19,IO_L12P_T1_MRCC_14*%
%TO.N,unconnected-(U2A-IO_L12P_T1_MRCC_14-PadW19)*%
X163750000Y-111250000D03*
%TO.P,U2,W20,IO_L12N_T1_MRCC_14*%
%TO.N,unconnected-(U2A-IO_L12N_T1_MRCC_14-PadW20)*%
X164750000Y-111250000D03*
%TO.P,U2,W21,IO_L7P_T1_D09_14*%
%TO.N,unconnected-(U2A-IO_L7P_T1_D09_14-PadW21)*%
X165750000Y-111250000D03*
%TO.P,U2,W22,IO_L7N_T1_D10_14*%
%TO.N,unconnected-(U2A-IO_L7N_T1_D10_14-PadW22)*%
X166750000Y-111250000D03*
%TO.P,U2,Y1,IO_L5N_T0_34*%
%TO.N,unconnected-(U2C-IO_L5N_T0_34-PadY1)*%
X145750000Y-112250000D03*
%TO.P,U2,Y2,IO_L4N_T0_34*%
%TO.N,unconnected-(U2C-IO_L4N_T0_34-PadY2)*%
X146750000Y-112250000D03*
%TO.P,U2,Y3,IO_L9P_T1_DQS_34*%
%TO.N,unconnected-(U2C-IO_L9P_T1_DQS_34-PadY3)*%
X147750000Y-112250000D03*
%TO.P,U2,Y4,IO_L11P_T1_SRCC_34*%
%TO.N,unconnected-(U2C-IO_L11P_T1_SRCC_34-PadY4)*%
X148750000Y-112250000D03*
%TO.P,U2,Y5,GND*%
%TO.N,GND*%
X149750000Y-112250000D03*
%TO.P,U2,Y6,IO_L18P_T2_34*%
%TO.N,unconnected-(U2C-IO_L18P_T2_34-PadY6)*%
X150750000Y-112250000D03*
%TO.P,U2,Y7,IO_L23N_T3_34*%
%TO.N,unconnected-(U2C-IO_L23N_T3_34-PadY7)*%
X151750000Y-112250000D03*
%TO.P,U2,Y8,IO_L23P_T3_34*%
%TO.N,unconnected-(U2C-IO_L23P_T3_34-PadY8)*%
X152750000Y-112250000D03*
%TO.P,U2,Y9,IO_L24N_T3_34*%
%TO.N,unconnected-(U2C-IO_L24N_T3_34-PadY9)*%
X153750000Y-112250000D03*
%TO.P,U2,Y10,VCCO_13*%
%TO.N,unconnected-(U2A-VCCO_13-PadY10)*%
X154750000Y-112250000D03*
%TO.P,U2,Y11,IO_L11P_T1_SRCC_13*%
%TO.N,unconnected-(U2A-IO_L11P_T1_SRCC_13-PadY11)*%
X155750000Y-112250000D03*
%TO.P,U2,Y12,IO_L11N_T1_SRCC_13*%
%TO.N,unconnected-(U2A-IO_L11N_T1_SRCC_13-PadY12)*%
X156750000Y-112250000D03*
%TO.P,U2,Y13,IO_L5P_T0_13*%
%TO.N,unconnected-(U2A-IO_L5P_T0_13-PadY13)*%
X157750000Y-112250000D03*
%TO.P,U2,Y14,IO_L6N_T0_VREF_13*%
%TO.N,unconnected-(U2A-IO_L6N_T0_VREF_13-PadY14)*%
X158750000Y-112250000D03*
%TO.P,U2,Y15,GND*%
%TO.N,GND*%
X159750000Y-112250000D03*
%TO.P,U2,Y16,IO_L1P_T0_13*%
%TO.N,unconnected-(U2A-IO_L1P_T0_13-PadY16)*%
X160750000Y-112250000D03*
%TO.P,U2,Y17,IO_0_13*%
%TO.N,unconnected-(U2A-IO_0_13-PadY17)*%
X161750000Y-112250000D03*
%TO.P,U2,Y18,IO_L13P_T2_MRCC_14*%
%TO.N,unconnected-(U2A-IO_L13P_T2_MRCC_14-PadY18)*%
X162750000Y-112250000D03*
%TO.P,U2,Y19,IO_L13N_T2_MRCC_14*%
%TO.N,unconnected-(U2A-IO_L13N_T2_MRCC_14-PadY19)*%
X163750000Y-112250000D03*
%TO.P,U2,Y20,VCCO_14*%
%TO.N,unconnected-(U2A-VCCO_14-PadY20)*%
X164750000Y-112250000D03*
%TO.P,U2,Y21,IO_L9P_T1_DQS_14*%
%TO.N,unconnected-(U2A-IO_L9P_T1_DQS_14-PadY21)*%
X165750000Y-112250000D03*
%TO.P,U2,Y22,IO_L9N_T1_DQS_D13_14*%
%TO.N,unconnected-(U2A-IO_L9N_T1_DQS_D13_14-PadY22)*%
X166750000Y-112250000D03*
%TD*%
D13*
%TO.P,R9,1*%
%TO.N,Net-(U4-EN)*%
X149490000Y-142250000D03*
%TO.P,R9,2*%
%TO.N,GNDA*%
X150510000Y-142250000D03*
%TD*%
D32*
%TO.P,R13,1*%
%TO.N,Net-(U4-FB)*%
X149500000Y-141010000D03*
%TO.P,R13,2*%
%TO.N,GNDA*%
X149500000Y-139990000D03*
%TD*%
D10*
%TO.P,C30,1*%
%TO.N,+5V*%
X123750000Y-112720000D03*
%TO.P,C30,2*%
%TO.N,GND*%
X124710000Y-112720000D03*
%TD*%
D24*
%TO.P,R12,1*%
%TO.N,Net-(R10-Pad2)*%
X152000000Y-139990000D03*
%TO.P,R12,2*%
%TO.N,Net-(U4-FB)*%
X152000000Y-141010000D03*
%TD*%
D32*
%TO.P,R2,1*%
%TO.N,Net-(U3-EN)*%
X131625000Y-125135000D03*
%TO.P,R2,2*%
%TO.N,GNDA*%
X131625000Y-124115000D03*
%TD*%
D25*
%TO.P,R7,1*%
%TO.N,Net-(D2-A)*%
X114385000Y-142175000D03*
%TO.P,R7,2*%
%TO.N,GND*%
X113365000Y-142175000D03*
%TD*%
D13*
%TO.P,R31,1*%
%TO.N,+1V0*%
X106670000Y-109130000D03*
%TO.P,R31,2*%
%TO.N,/power/FB1*%
X107690000Y-109130000D03*
%TD*%
D10*
%TO.P,C22,1*%
%TO.N,Net-(U6-DVDD10OUT)*%
X186880000Y-86207500D03*
%TO.P,C22,2*%
%TO.N,GND*%
X187840000Y-86207500D03*
%TD*%
D33*
%TO.P,D1,A*%
%TO.N,GND*%
X127375000Y-138955000D03*
%TO.P,D1,C*%
%TO.N,/power/Power_Input*%
X127375000Y-134625000D03*
%TD*%
D10*
%TO.P,C19,1*%
%TO.N,GND*%
X176950000Y-72580000D03*
%TO.P,C19,2*%
%TO.N,Net-(J3-CHSGND)*%
X177910000Y-72580000D03*
%TD*%
D34*
%TO.P,C5,1*%
%TO.N,Net-(C5-Pad1)*%
X129125000Y-124145000D03*
%TO.P,C5,2*%
%TO.N,Net-(U3-FB)*%
X129125000Y-125105000D03*
%TD*%
D35*
%TO.P,U3,1,EN*%
%TO.N,Net-(U3-EN)*%
X130725000Y-126685000D03*
%TO.P,U3,2,FB*%
%TO.N,Net-(U3-FB)*%
X130225000Y-126685000D03*
%TO.P,U3,3,AGND*%
%TO.N,GNDA*%
X129725000Y-126685000D03*
%TO.P,U3,4,PG*%
%TO.N,5V_OK*%
X129225000Y-126685000D03*
D36*
%TO.P,U3,5*%
%TO.N,N/C*%
X128575000Y-127155000D03*
D37*
%TO.P,U3,6,SW*%
%TO.N,Net-(U3-SW)*%
X129125000Y-128455000D03*
D36*
%TO.P,U3,7,BOOT*%
%TO.N,Net-(U3-BOOT)*%
X128575000Y-128955000D03*
D38*
%TO.P,U3,8,VIN*%
%TO.N,Net-(U3-VIN)*%
X130625000Y-129035000D03*
D39*
%TO.P,U3,9,PGND*%
%TO.N,GND*%
X130625000Y-127875000D03*
D36*
%TO.P,U3,10,MODE*%
%TO.N,GNDA*%
X131375000Y-127155000D03*
%TD*%
D22*
%TO.P,L3,1,1*%
%TO.N,/power/LX1*%
X98025000Y-96450000D03*
%TO.P,L3,2,2*%
%TO.N,+1V0*%
X103475000Y-96450000D03*
%TD*%
D30*
%TO.P,C2,1*%
%TO.N,Net-(U3-VIN)*%
X134375000Y-128855000D03*
%TO.P,C2,2*%
%TO.N,GND*%
X134375000Y-127895000D03*
%TD*%
D40*
%TO.P,U8,1,GND3*%
%TO.N,GND*%
X109350000Y-121750000D03*
%TO.P,U8,2,FB3*%
%TO.N,/power/FB3*%
X109350000Y-122250000D03*
%TO.P,U8,3,VCC*%
%TO.N,+5V*%
X109350000Y-122750000D03*
%TO.P,U8,4,AGND*%
%TO.N,GND*%
X109350000Y-123250000D03*
%TO.P,U8,5,FB2*%
%TO.N,/power/FB2*%
X109350000Y-123750000D03*
%TO.P,U8,6,GND2*%
%TO.N,GND*%
X109350000Y-124250000D03*
D41*
%TO.P,U8,7,LX2*%
%TO.N,/power/LX2*%
X110000000Y-124900000D03*
%TO.P,U8,8,VIN2*%
%TO.N,+5V*%
X110500000Y-124900000D03*
%TO.P,U8,9,EN2*%
%TO.N,unconnected-(U8-EN2-Pad9)*%
X111000000Y-124900000D03*
%TO.P,U8,10,EN1*%
%TO.N,unconnected-(U8-EN1-Pad10)*%
X111500000Y-124900000D03*
%TO.P,U8,11,VIN1*%
%TO.N,+5V*%
X112000000Y-124900000D03*
%TO.P,U8,12,LX1*%
%TO.N,/power/LX1*%
X112500000Y-124900000D03*
D40*
%TO.P,U8,13,GND1*%
%TO.N,GND*%
X113150000Y-124250000D03*
%TO.P,U8,14,FB1*%
%TO.N,/power/FB1*%
X113150000Y-123750000D03*
%TO.P,U8,15,NC*%
%TO.N,unconnected-(U8-NC-Pad15)*%
X113150000Y-123250000D03*
%TO.P,U8,16,NC*%
%TO.N,unconnected-(U8-NC-Pad16)*%
X113150000Y-122750000D03*
%TO.P,U8,17,FB4*%
%TO.N,/power/FB4*%
X113150000Y-122250000D03*
%TO.P,U8,18,GND4*%
%TO.N,GND*%
X113150000Y-121750000D03*
D41*
%TO.P,U8,19,LX4*%
%TO.N,/power/LX4*%
X112500000Y-121100000D03*
%TO.P,U8,20,VIN4*%
%TO.N,+5V*%
X112000000Y-121100000D03*
%TO.P,U8,21,EN4*%
%TO.N,unconnected-(U8-EN4-Pad21)*%
X111500000Y-121100000D03*
%TO.P,U8,22,EN3*%
%TO.N,5V_OK*%
X111000000Y-121100000D03*
%TO.P,U8,23,VIN3*%
%TO.N,+5V*%
X110500000Y-121100000D03*
%TO.P,U8,24,LX3*%
%TO.N,/power/LX3*%
X110000000Y-121100000D03*
D42*
%TO.P,U8,25,EP*%
%TO.N,GND*%
X111250000Y-123000000D03*
%TD*%
D10*
%TO.P,C31,1*%
%TO.N,+5V*%
X123750000Y-114690000D03*
%TO.P,C31,2*%
%TO.N,GND*%
X124710000Y-114690000D03*
%TD*%
D43*
%TO.P,Y1,1,1*%
%TO.N,Net-(U6-CKXTAL1)*%
X187450000Y-92287500D03*
%TO.P,Y1,2,G*%
%TO.N,GND*%
X189650000Y-92287500D03*
%TO.P,Y1,3,3*%
%TO.N,Net-(U6-CKXTAL2)*%
X189650000Y-90587500D03*
%TO.P,Y1,4,G*%
%TO.N,GND*%
X187450000Y-90587500D03*
%TD*%
D25*
%TO.P,R8,1*%
%TO.N,Net-(U4-VIN)*%
X150510000Y-143500000D03*
%TO.P,R8,2*%
%TO.N,Net-(U4-EN)*%
X149490000Y-143500000D03*
%TD*%
D44*
%TO.P,U6,1,RSET*%
%TO.N,Net-(U6-RSET)*%
X184230000Y-75980000D03*
%TO.P,U6,2,AVDD10OUT*%
%TO.N,Net-(U6-AVDD10OUT)*%
X184730000Y-75980000D03*
%TO.P,U6,3,MDI+[0]*%
%TO.N,Net-(U6-MDI+[0])*%
X185230000Y-75980000D03*
%TO.P,U6,4,MDI-[0]*%
%TO.N,Net-(U6-MDI-[0])*%
X185730000Y-75980000D03*
%TO.P,U6,5,MDI+[1]*%
%TO.N,Net-(U6-MDI+[1])*%
X186230000Y-75980000D03*
%TO.P,U6,6,MDI-[1]*%
%TO.N,Net-(U6-MDI-[1])*%
X186730000Y-75980000D03*
%TO.P,U6,7,AVDD33*%
%TO.N,Ethernet_3V3*%
X187230000Y-75980000D03*
%TO.P,U6,8,RXDV*%
%TO.N,Net-(U6-RXDV)*%
X187730000Y-75980000D03*
D45*
%TO.P,U6,9,RXD[0]*%
%TO.N,PHY_RXD0*%
X188380000Y-75330000D03*
%TO.P,U6,10,RXD[1]*%
%TO.N,PHY_RXD1*%
X188380000Y-74830000D03*
%TO.P,U6,11,RXD[2]/INTB*%
%TO.N,unconnected-(U6-RXD[2]{slash}INTB-Pad11)*%
X188380000Y-74330000D03*
%TO.P,U6,12,RXD[3]/CLK_CTL*%
%TO.N,unconnected-(U6-RXD[3]{slash}CLK_CTL-Pad12)*%
X188380000Y-73830000D03*
%TO.P,U6,13,RXC*%
%TO.N,unconnected-(U6-RXC-Pad13)*%
X188380000Y-73330000D03*
%TO.P,U6,14,DVDD33*%
%TO.N,Ethernet_3V3*%
X188380000Y-72830000D03*
%TO.P,U6,15,TXC*%
%TO.N,PHY_TXCLK*%
X188380000Y-72330000D03*
%TO.P,U6,16,TXD[0]*%
%TO.N,PHY_TXD0*%
X188380000Y-71830000D03*
D44*
%TO.P,U6,17,TXD[1]*%
%TO.N,PHY_TXD1*%
X187730000Y-71180000D03*
%TO.P,U6,18,TXD[2]*%
%TO.N,unconnected-(U6-TXD[2]-Pad18)*%
X187230000Y-71180000D03*
%TO.P,U6,19,TXD[3]*%
%TO.N,unconnected-(U6-TXD[3]-Pad19)*%
X186730000Y-71180000D03*
%TO.P,U6,20,TXEN*%
%TO.N,PHY_TXEN*%
X186230000Y-71180000D03*
%TO.P,U6,21,PHYRSTB*%
%TO.N,PHY_RSTN*%
X185730000Y-71180000D03*
%TO.P,U6,22,MDC*%
%TO.N,PHY_MDC*%
X185230000Y-71180000D03*
%TO.P,U6,23,MDIO*%
%TO.N,PHY_MDIO*%
X184730000Y-71180000D03*
%TO.P,U6,24,LED0/PHYAD[0]/PMEB*%
%TO.N,/Expansion_Port/LED_ACT*%
X184230000Y-71180000D03*
D45*
%TO.P,U6,25,LED1/PHYAD[1]*%
%TO.N,/Expansion_Port/LED_LINK*%
X183580000Y-71830000D03*
%TO.P,U6,26,CRS/CRS_DV*%
%TO.N,PHY_CRS_DV*%
X183580000Y-72330000D03*
%TO.P,U6,27,COL*%
%TO.N,unconnected-(U6-COL-Pad27)*%
X183580000Y-72830000D03*
%TO.P,U6,28,RXER/FXEN*%
%TO.N,PHY_RXER*%
X183580000Y-73330000D03*
%TO.P,U6,29,DVDD10OUT*%
%TO.N,Net-(U6-DVDD10OUT)*%
X183580000Y-73830000D03*
%TO.P,U6,30,AVDD33*%
%TO.N,Ethernet_3V3*%
X183580000Y-74330000D03*
%TO.P,U6,31,CKXTAL1*%
%TO.N,Net-(U6-CKXTAL1)*%
X183580000Y-74830000D03*
%TO.P,U6,32,CKXTAL2*%
%TO.N,Net-(U6-CKXTAL2)*%
X183580000Y-75330000D03*
D46*
%TO.P,U6,33,EP*%
%TO.N,GND*%
X185980000Y-73580000D03*
%TD*%
D34*
%TO.P,C15,1*%
%TO.N,Net-(C15-Pad1)*%
X150750000Y-140020000D03*
%TO.P,C15,2*%
%TO.N,Net-(U4-FB)*%
X150750000Y-140980000D03*
%TD*%
D13*
%TO.P,R16,1*%
%TO.N,/Expansion_Port/LED_ACT*%
X168210000Y-72590000D03*
%TO.P,R16,2*%
%TO.N,Net-(J3-Pad10)*%
X169230000Y-72590000D03*
%TD*%
D10*
%TO.P,C27,1*%
%TO.N,Ethernet_3V3*%
X189750000Y-86207500D03*
%TO.P,C27,2*%
%TO.N,GND*%
X190710000Y-86207500D03*
%TD*%
D32*
%TO.P,R5,1*%
%TO.N,Net-(U3-FB)*%
X130375000Y-125145000D03*
%TO.P,R5,2*%
%TO.N,GNDA*%
X130375000Y-124125000D03*
%TD*%
D25*
%TO.P,R1,1*%
%TO.N,Net-(U3-VIN)*%
X133885000Y-125125000D03*
%TO.P,R1,2*%
%TO.N,Net-(U3-EN)*%
X132865000Y-125125000D03*
%TD*%
D13*
%TO.P,R29,1*%
%TO.N,Ethernet_3V3*%
X183960000Y-82297500D03*
%TO.P,R29,2*%
%TO.N,Net-(U6-RXDV)*%
X184980000Y-82297500D03*
%TD*%
D34*
%TO.P,C14,1*%
%TO.N,Net-(U4-SW)*%
X143500000Y-138270000D03*
%TO.P,C14,2*%
%TO.N,Net-(U4-BOOT)*%
X143500000Y-139230000D03*
%TD*%
D47*
%TO.P,D3,1,IO1_C*%
%TO.N,unconnected-(D3-IO1_C-Pad1)*%
X150205000Y-84630000D03*
%TO.P,D3,2,IO2_C*%
%TO.N,unconnected-(D3-IO2_C-Pad2)*%
X150705000Y-84630000D03*
D48*
%TO.P,D3,3,GND*%
%TO.N,unconnected-(D3-GND-Pad3)*%
X151205000Y-84630000D03*
D47*
%TO.P,D3,4,IO3_C*%
%TO.N,unconnected-(D3-IO3_C-Pad4)*%
X151705000Y-84630000D03*
%TO.P,D3,5,IO4_C*%
%TO.N,unconnected-(D3-IO4_C-Pad5)*%
X152195000Y-84630000D03*
%TO.P,D3,6,IO4_S*%
%TO.N,unconnected-(D3-IO4_S-Pad6)*%
X152195000Y-83830000D03*
%TO.P,D3,7,IO3_S*%
%TO.N,unconnected-(D3-IO3_S-Pad7)*%
X151705000Y-83830000D03*
D48*
%TO.P,D3,8,GND*%
%TO.N,unconnected-(D3-GND-Pad8)*%
X151205000Y-83830000D03*
D47*
%TO.P,D3,9,IO2_S*%
%TO.N,unconnected-(D3-IO2_S-Pad9)*%
X150705000Y-83830000D03*
%TO.P,D3,10,IO1_S*%
%TO.N,unconnected-(D3-IO1_S-Pad10)*%
X150205000Y-83830000D03*
%TD*%
D22*
%TO.P,L5,1,1*%
%TO.N,/power/LX3*%
X98025000Y-112750000D03*
%TO.P,L5,2,2*%
%TO.N,+3.3V*%
X103475000Y-112750000D03*
%TD*%
D49*
%TO.P,C40,1*%
%TO.N,+0.95V*%
X109870000Y-102910000D03*
%TO.P,C40,2*%
%TO.N,GND*%
X111770000Y-102910000D03*
%TD*%
D12*
%TO.P,C9,1*%
%TO.N,+5V*%
X109625000Y-129175000D03*
%TO.P,C9,2*%
%TO.N,GND*%
X109625000Y-131075000D03*
%TD*%
D13*
%TO.P,R21,1*%
%TO.N,PHY_RSTN*%
X178140000Y-90257500D03*
%TO.P,R21,2*%
%TO.N,Ethernet_3V3*%
X179160000Y-90257500D03*
%TD*%
D47*
%TO.P,D4,1,IO1_C*%
%TO.N,unconnected-(D4-IO1_C-Pad1)*%
X137760000Y-86500000D03*
%TO.P,D4,2,IO2_C*%
%TO.N,unconnected-(D4-IO2_C-Pad2)*%
X138260000Y-86500000D03*
D48*
%TO.P,D4,3,GND*%
%TO.N,unconnected-(D4-GND-Pad3)*%
X138760000Y-86500000D03*
D47*
%TO.P,D4,4,IO3_C*%
%TO.N,unconnected-(D4-IO3_C-Pad4)*%
X139260000Y-86500000D03*
%TO.P,D4,5,IO4_C*%
%TO.N,unconnected-(D4-IO4_C-Pad5)*%
X139750000Y-86500000D03*
%TO.P,D4,6,IO4_S*%
%TO.N,unconnected-(D4-IO4_S-Pad6)*%
X139750000Y-85700000D03*
%TO.P,D4,7,IO3_S*%
%TO.N,unconnected-(D4-IO3_S-Pad7)*%
X139260000Y-85700000D03*
D48*
%TO.P,D4,8,GND*%
%TO.N,unconnected-(D4-GND-Pad8)*%
X138760000Y-85700000D03*
D47*
%TO.P,D4,9,IO2_S*%
%TO.N,unconnected-(D4-IO2_S-Pad9)*%
X138260000Y-85700000D03*
%TO.P,D4,10,IO1_S*%
%TO.N,unconnected-(D4-IO1_S-Pad10)*%
X137760000Y-85700000D03*
%TD*%
D30*
%TO.P,C1,1*%
%TO.N,Net-(U3-VIN)*%
X135875000Y-128855000D03*
%TO.P,C1,2*%
%TO.N,GND*%
X135875000Y-127895000D03*
%TD*%
D50*
%TO.P,U5,A1,PE3*%
%TO.N,unconnected-(U5-PE3-PadA1)*%
X132200000Y-72800000D03*
%TO.P,U5,A2,PE2*%
%TO.N,unconnected-(U5-PE2-PadA2)*%
X132850000Y-72800000D03*
%TO.P,U5,A3,PE1*%
%TO.N,unconnected-(U5-PE1-PadA3)*%
X133500000Y-72800000D03*
%TO.P,U5,A4,PE0*%
%TO.N,unconnected-(U5-PE0-PadA4)*%
X134150000Y-72800000D03*
%TO.P,U5,A5,PB8*%
%TO.N,unconnected-(U5-PB8-PadA5)*%
X134800000Y-72800000D03*
%TO.P,U5,A6,PB5*%
%TO.N,unconnected-(U5-PB5-PadA6)*%
X135450000Y-72800000D03*
%TO.P,U5,A7,PG14*%
%TO.N,unconnected-(U5-PG14-PadA7)*%
X136100000Y-72800000D03*
%TO.P,U5,A8,PG13*%
%TO.N,unconnected-(U5-PG13-PadA8)*%
X136750000Y-72800000D03*
%TO.P,U5,A9,PB4*%
%TO.N,unconnected-(U5-PB4-PadA9)*%
X137400000Y-72800000D03*
%TO.P,U5,A10,PB3*%
%TO.N,unconnected-(U5-PB3-PadA10)*%
X138050000Y-72800000D03*
%TO.P,U5,A11,PD7*%
%TO.N,unconnected-(U5-PD7-PadA11)*%
X138700000Y-72800000D03*
%TO.P,U5,A12,PC12*%
%TO.N,unconnected-(U5-PC12-PadA12)*%
X139350000Y-72800000D03*
%TO.P,U5,A13,PA15*%
%TO.N,unconnected-(U5-PA15-PadA13)*%
X140000000Y-72800000D03*
%TO.P,U5,A14,PA14*%
%TO.N,unconnected-(U5-PA14-PadA14)*%
X140650000Y-72800000D03*
%TO.P,U5,A15,PA13*%
%TO.N,unconnected-(U5-PA13-PadA15)*%
X141300000Y-72800000D03*
%TO.P,U5,B1,PE4*%
%TO.N,unconnected-(U5-PE4-PadB1)*%
X132200000Y-73450000D03*
%TO.P,U5,B2,PE5*%
%TO.N,unconnected-(U5-PE5-PadB2)*%
X132850000Y-73450000D03*
%TO.P,U5,B3,PE6*%
%TO.N,unconnected-(U5-PE6-PadB3)*%
X133500000Y-73450000D03*
%TO.P,U5,B4,PB9*%
%TO.N,unconnected-(U5-PB9-PadB4)*%
X134150000Y-73450000D03*
%TO.P,U5,B5,PB7*%
%TO.N,unconnected-(U5-PB7-PadB5)*%
X134800000Y-73450000D03*
%TO.P,U5,B6,PB6*%
%TO.N,unconnected-(U5-PB6-PadB6)*%
X135450000Y-73450000D03*
%TO.P,U5,B7,PG15*%
%TO.N,unconnected-(U5-PG15-PadB7)*%
X136100000Y-73450000D03*
%TO.P,U5,B8,PG12*%
%TO.N,unconnected-(U5-PG12-PadB8)*%
X136750000Y-73450000D03*
%TO.P,U5,B9,PG11*%
%TO.N,unconnected-(U5-PG11-PadB9)*%
X137400000Y-73450000D03*
%TO.P,U5,B10,PG10*%
%TO.N,unconnected-(U5-PG10-PadB10)*%
X138050000Y-73450000D03*
%TO.P,U5,B11,PD6*%
%TO.N,unconnected-(U5-PD6-PadB11)*%
X138700000Y-73450000D03*
%TO.P,U5,B12,PD0*%
%TO.N,unconnected-(U5-PD0-PadB12)*%
X139350000Y-73450000D03*
%TO.P,U5,B13,PC11*%
%TO.N,unconnected-(U5-PC11-PadB13)*%
X140000000Y-73450000D03*
%TO.P,U5,B14,PC10*%
%TO.N,unconnected-(U5-PC10-PadB14)*%
X140650000Y-73450000D03*
%TO.P,U5,B15,PA12*%
%TO.N,unconnected-(U5-PA12-PadB15)*%
X141300000Y-73450000D03*
%TO.P,U5,C1,VBAT*%
%TO.N,unconnected-(U5-VBAT-PadC1)*%
X132200000Y-74100000D03*
%TO.P,U5,C2,PI7*%
%TO.N,unconnected-(U5-PI7-PadC2)*%
X132850000Y-74100000D03*
%TO.P,U5,C3,PI6*%
%TO.N,unconnected-(U5-PI6-PadC3)*%
X133500000Y-74100000D03*
%TO.P,U5,C4,PI5*%
%TO.N,unconnected-(U5-PI5-PadC4)*%
X134150000Y-74100000D03*
%TO.P,U5,C5,VDD*%
%TO.N,unconnected-(U5-VDD-PadC5)*%
X134800000Y-74100000D03*
%TO.P,U5,C6,PDR_ON*%
%TO.N,unconnected-(U5-PDR_ON-PadC6)*%
X135450000Y-74100000D03*
%TO.P,U5,C7,VDD*%
%TO.N,unconnected-(U5-VDD-PadC7)*%
X136100000Y-74100000D03*
%TO.P,U5,C8,VDD*%
%TO.N,unconnected-(U5-VDD-PadC8)*%
X136750000Y-74100000D03*
%TO.P,U5,C9,VDD*%
%TO.N,unconnected-(U5-VDD-PadC9)*%
X137400000Y-74100000D03*
%TO.P,U5,C10,PG9*%
%TO.N,unconnected-(U5-PG9-PadC10)*%
X138050000Y-74100000D03*
%TO.P,U5,C11,PD5*%
%TO.N,unconnected-(U5-PD5-PadC11)*%
X138700000Y-74100000D03*
%TO.P,U5,C12,PD1*%
%TO.N,unconnected-(U5-PD1-PadC12)*%
X139350000Y-74100000D03*
%TO.P,U5,C13,PI3*%
%TO.N,unconnected-(U5-PI3-PadC13)*%
X140000000Y-74100000D03*
%TO.P,U5,C14,PI2*%
%TO.N,unconnected-(U5-PI2-PadC14)*%
X140650000Y-74100000D03*
%TO.P,U5,C15,PA11*%
%TO.N,unconnected-(U5-PA11-PadC15)*%
X141300000Y-74100000D03*
%TO.P,U5,D1,PC13*%
%TO.N,unconnected-(U5-PC13-PadD1)*%
X132200000Y-74750000D03*
%TO.P,U5,D2,PI8*%
%TO.N,unconnected-(U5-PI8-PadD2)*%
X132850000Y-74750000D03*
%TO.P,U5,D3,PI9*%
%TO.N,unconnected-(U5-PI9-PadD3)*%
X133500000Y-74750000D03*
%TO.P,U5,D4,PI4*%
%TO.N,unconnected-(U5-PI4-PadD4)*%
X134150000Y-74750000D03*
%TO.P,U5,D5,VSS*%
%TO.N,GND*%
X134800000Y-74750000D03*
%TO.P,U5,D6,BOOT0*%
%TO.N,unconnected-(U5-BOOT0-PadD6)*%
X135450000Y-74750000D03*
%TO.P,U5,D7,VSS*%
%TO.N,GND*%
X136100000Y-74750000D03*
%TO.P,U5,D8,VSS*%
X136750000Y-74750000D03*
%TO.P,U5,D9,VSS*%
X137400000Y-74750000D03*
%TO.P,U5,D10,PD4*%
%TO.N,unconnected-(U5-PD4-PadD10)*%
X138050000Y-74750000D03*
%TO.P,U5,D11,PD3*%
%TO.N,unconnected-(U5-PD3-PadD11)*%
X138700000Y-74750000D03*
%TO.P,U5,D12,PD2*%
%TO.N,unconnected-(U5-PD2-PadD12)*%
X139350000Y-74750000D03*
%TO.P,U5,D13,PH15*%
%TO.N,unconnected-(U5-PH15-PadD13)*%
X140000000Y-74750000D03*
%TO.P,U5,D14,PI1*%
%TO.N,unconnected-(U5-PI1-PadD14)*%
X140650000Y-74750000D03*
%TO.P,U5,D15,PA10*%
%TO.N,unconnected-(U5-PA10-PadD15)*%
X141300000Y-74750000D03*
%TO.P,U5,E1,PC14*%
%TO.N,unconnected-(U5-PC14-PadE1)*%
X132200000Y-75400000D03*
%TO.P,U5,E2,PF0*%
%TO.N,unconnected-(U5-PF0-PadE2)*%
X132850000Y-75400000D03*
%TO.P,U5,E3,PI10*%
%TO.N,unconnected-(U5-PI10-PadE3)*%
X133500000Y-75400000D03*
%TO.P,U5,E4,PI11*%
%TO.N,unconnected-(U5-PI11-PadE4)*%
X134150000Y-75400000D03*
%TO.P,U5,E12,PH13*%
%TO.N,unconnected-(U5-PH13-PadE12)*%
X139350000Y-75400000D03*
%TO.P,U5,E13,PH14*%
%TO.N,unconnected-(U5-PH14-PadE13)*%
X140000000Y-75400000D03*
%TO.P,U5,E14,PI0*%
%TO.N,unconnected-(U5-PI0-PadE14)*%
X140650000Y-75400000D03*
%TO.P,U5,E15,PA9*%
%TO.N,unconnected-(U5-PA9-PadE15)*%
X141300000Y-75400000D03*
%TO.P,U5,F1,PC15*%
%TO.N,unconnected-(U5-PC15-PadF1)*%
X132200000Y-76050000D03*
%TO.P,U5,F2,VSS*%
%TO.N,GND*%
X132850000Y-76050000D03*
%TO.P,U5,F3,VDD*%
%TO.N,unconnected-(U5-VDD-PadF3)*%
X133500000Y-76050000D03*
%TO.P,U5,F4,PH2*%
%TO.N,unconnected-(U5-PH2-PadF4)*%
X134150000Y-76050000D03*
%TO.P,U5,F6,VSS*%
%TO.N,GND*%
X135450000Y-76050000D03*
%TO.P,U5,F7,VSS*%
X136100000Y-76050000D03*
%TO.P,U5,F8,VSS*%
X136750000Y-76050000D03*
%TO.P,U5,F9,VSS*%
X137400000Y-76050000D03*
%TO.P,U5,F10,VSS*%
X138050000Y-76050000D03*
%TO.P,U5,F12,VSS*%
X139350000Y-76050000D03*
%TO.P,U5,F13,VCAP*%
%TO.N,unconnected-(U5-VCAP-PadF13)*%
X140000000Y-76050000D03*
%TO.P,U5,F14,PC9*%
%TO.N,unconnected-(U5-PC9-PadF14)*%
X140650000Y-76050000D03*
%TO.P,U5,F15,PA8*%
%TO.N,unconnected-(U5-PA8-PadF15)*%
X141300000Y-76050000D03*
%TO.P,U5,G1,PH0*%
%TO.N,unconnected-(U5-PH0-PadG1)*%
X132200000Y-76700000D03*
%TO.P,U5,G2,VSS*%
%TO.N,GND*%
X132850000Y-76700000D03*
%TO.P,U5,G3,VDD*%
%TO.N,unconnected-(U5-VDD-PadG3)*%
X133500000Y-76700000D03*
%TO.P,U5,G4,PH3*%
%TO.N,unconnected-(U5-PH3-PadG4)*%
X134150000Y-76700000D03*
%TO.P,U5,G6,VSS*%
%TO.N,GND*%
X135450000Y-76700000D03*
%TO.P,U5,G7,VSS*%
X136100000Y-76700000D03*
%TO.P,U5,G8,VSS*%
X136750000Y-76700000D03*
%TO.P,U5,G9,VSS*%
X137400000Y-76700000D03*
%TO.P,U5,G10,VSS*%
X138050000Y-76700000D03*
%TO.P,U5,G12,VSS*%
X139350000Y-76700000D03*
%TO.P,U5,G13,VDD*%
%TO.N,unconnected-(U5-VDD-PadG13)*%
X140000000Y-76700000D03*
%TO.P,U5,G14,PC8*%
%TO.N,unconnected-(U5-PC8-PadG14)*%
X140650000Y-76700000D03*
%TO.P,U5,G15,PC7*%
%TO.N,unconnected-(U5-PC7-PadG15)*%
X141300000Y-76700000D03*
%TO.P,U5,H1,PH1*%
%TO.N,unconnected-(U5-PH1-PadH1)*%
X132200000Y-77350000D03*
%TO.P,U5,H2,PF2*%
%TO.N,unconnected-(U5-PF2-PadH2)*%
X132850000Y-77350000D03*
%TO.P,U5,H3,PF1*%
%TO.N,unconnected-(U5-PF1-PadH3)*%
X133500000Y-77350000D03*
%TO.P,U5,H4,PH4*%
%TO.N,unconnected-(U5-PH4-PadH4)*%
X134150000Y-77350000D03*
%TO.P,U5,H6,VSS*%
%TO.N,GND*%
X135450000Y-77350000D03*
%TO.P,U5,H7,VSS*%
X136100000Y-77350000D03*
%TO.P,U5,H8,VSS*%
X136750000Y-77350000D03*
%TO.P,U5,H9,VSS*%
X137400000Y-77350000D03*
%TO.P,U5,H10,VSS*%
X138050000Y-77350000D03*
%TO.P,U5,H12,VSS*%
X139350000Y-77350000D03*
%TO.P,U5,H13,VDD33_USB*%
%TO.N,unconnected-(U5-VDD33_USB-PadH13)*%
X140000000Y-77350000D03*
%TO.P,U5,H14,PG8*%
%TO.N,unconnected-(U5-PG8-PadH14)*%
X140650000Y-77350000D03*
%TO.P,U5,H15,PC6*%
%TO.N,unconnected-(U5-PC6-PadH15)*%
X141300000Y-77350000D03*
%TO.P,U5,J1,NRST*%
%TO.N,unconnected-(U5-NRST-PadJ1)*%
X132200000Y-78000000D03*
%TO.P,U5,J2,PF3*%
%TO.N,unconnected-(U5-PF3-PadJ2)*%
X132850000Y-78000000D03*
%TO.P,U5,J3,PF4*%
%TO.N,unconnected-(U5-PF4-PadJ3)*%
X133500000Y-78000000D03*
%TO.P,U5,J4,PH5*%
%TO.N,unconnected-(U5-PH5-PadJ4)*%
X134150000Y-78000000D03*
%TO.P,U5,J6,VSS*%
%TO.N,GND*%
X135450000Y-78000000D03*
%TO.P,U5,J7,VSS*%
X136100000Y-78000000D03*
%TO.P,U5,J8,VSS*%
X136750000Y-78000000D03*
%TO.P,U5,J9,VSS*%
X137400000Y-78000000D03*
%TO.P,U5,J10,VSS*%
X138050000Y-78000000D03*
%TO.P,U5,J12,VDD*%
%TO.N,unconnected-(U5-VDD-PadJ12)*%
X139350000Y-78000000D03*
%TO.P,U5,J13,VDD*%
%TO.N,unconnected-(U5-VDD-PadJ13)*%
X140000000Y-78000000D03*
%TO.P,U5,J14,PG7*%
%TO.N,unconnected-(U5-PG7-PadJ14)*%
X140650000Y-78000000D03*
%TO.P,U5,J15,PG6*%
%TO.N,unconnected-(U5-PG6-PadJ15)*%
X141300000Y-78000000D03*
%TO.P,U5,K1,PF7*%
%TO.N,unconnected-(U5-PF7-PadK1)*%
X132200000Y-78650000D03*
%TO.P,U5,K2,PF6*%
%TO.N,unconnected-(U5-PF6-PadK2)*%
X132850000Y-78650000D03*
%TO.P,U5,K3,PF5*%
%TO.N,unconnected-(U5-PF5-PadK3)*%
X133500000Y-78650000D03*
%TO.P,U5,K4,VDD*%
%TO.N,unconnected-(U5-VDD-PadK4)*%
X134150000Y-78650000D03*
%TO.P,U5,K6,VSS*%
%TO.N,GND*%
X135450000Y-78650000D03*
%TO.P,U5,K7,VSS*%
X136100000Y-78650000D03*
%TO.P,U5,K8,VSS*%
X136750000Y-78650000D03*
%TO.P,U5,K9,VSS*%
X137400000Y-78650000D03*
%TO.P,U5,K10,VSS*%
X138050000Y-78650000D03*
%TO.P,U5,K12,PH12*%
%TO.N,unconnected-(U5-PH12-PadK12)*%
X139350000Y-78650000D03*
%TO.P,U5,K13,PG5*%
%TO.N,unconnected-(U5-PG5-PadK13)*%
X140000000Y-78650000D03*
%TO.P,U5,K14,PG4*%
%TO.N,unconnected-(U5-PG4-PadK14)*%
X140650000Y-78650000D03*
%TO.P,U5,K15,PG3*%
%TO.N,unconnected-(U5-PG3-PadK15)*%
X141300000Y-78650000D03*
%TO.P,U5,L1,PF10*%
%TO.N,unconnected-(U5-PF10-PadL1)*%
X132200000Y-79300000D03*
%TO.P,U5,L2,PF9*%
%TO.N,unconnected-(U5-PF9-PadL2)*%
X132850000Y-79300000D03*
%TO.P,U5,L3,PF8*%
%TO.N,unconnected-(U5-PF8-PadL3)*%
X133500000Y-79300000D03*
%TO.P,U5,L4,VSS*%
%TO.N,GND*%
X134150000Y-79300000D03*
%TO.P,U5,L12,PH11*%
%TO.N,unconnected-(U5-PH11-PadL12)*%
X139350000Y-79300000D03*
%TO.P,U5,L13,PH10*%
%TO.N,unconnected-(U5-PH10-PadL13)*%
X140000000Y-79300000D03*
%TO.P,U5,L14,PD15*%
%TO.N,unconnected-(U5-PD15-PadL14)*%
X140650000Y-79300000D03*
%TO.P,U5,L15,PG2*%
%TO.N,unconnected-(U5-PG2-PadL15)*%
X141300000Y-79300000D03*
%TO.P,U5,M1,VSSA*%
%TO.N,GND*%
X132200000Y-79950000D03*
%TO.P,U5,M2,PC0*%
%TO.N,unconnected-(U5-PC0-PadM2)*%
X132850000Y-79950000D03*
%TO.P,U5,M3,PC1*%
%TO.N,unconnected-(U5-PC1-PadM3)*%
X133500000Y-79950000D03*
%TO.P,U5,M4,PC2_C*%
%TO.N,unconnected-(U5-PC2_C-PadM4)*%
X134150000Y-79950000D03*
%TO.P,U5,M5,PC3_C*%
%TO.N,unconnected-(U5-PC3_C-PadM5)*%
X134800000Y-79950000D03*
%TO.P,U5,M6,PB2*%
%TO.N,unconnected-(U5-PB2-PadM6)*%
X135450000Y-79950000D03*
%TO.P,U5,M7,PG1*%
%TO.N,unconnected-(U5-PG1-PadM7)*%
X136100000Y-79950000D03*
%TO.P,U5,M8,VSS*%
%TO.N,GND*%
X136750000Y-79950000D03*
%TO.P,U5,M9,VSS*%
X137400000Y-79950000D03*
%TO.P,U5,M10,VCAP*%
%TO.N,unconnected-(U5-VCAP-PadM10)*%
X138050000Y-79950000D03*
%TO.P,U5,M11,PH6*%
%TO.N,unconnected-(U5-PH6-PadM11)*%
X138700000Y-79950000D03*
%TO.P,U5,M12,PH8*%
%TO.N,unconnected-(U5-PH8-PadM12)*%
X139350000Y-79950000D03*
%TO.P,U5,M13,PH9*%
%TO.N,unconnected-(U5-PH9-PadM13)*%
X140000000Y-79950000D03*
%TO.P,U5,M14,PD14*%
%TO.N,unconnected-(U5-PD14-PadM14)*%
X140650000Y-79950000D03*
%TO.P,U5,M15,PD13*%
%TO.N,unconnected-(U5-PD13-PadM15)*%
X141300000Y-79950000D03*
%TO.P,U5,N1,VREF-*%
%TO.N,unconnected-(U5-VREF--PadN1)*%
X132200000Y-80600000D03*
%TO.P,U5,N2,PA1*%
%TO.N,unconnected-(U5-PA1-PadN2)*%
X132850000Y-80600000D03*
%TO.P,U5,N3,PA0*%
%TO.N,unconnected-(U5-PA0-PadN3)*%
X133500000Y-80600000D03*
%TO.P,U5,N4,PA4*%
%TO.N,unconnected-(U5-PA4-PadN4)*%
X134150000Y-80600000D03*
%TO.P,U5,N5,PC4*%
%TO.N,unconnected-(U5-PC4-PadN5)*%
X134800000Y-80600000D03*
%TO.P,U5,N6,PF13*%
%TO.N,unconnected-(U5-PF13-PadN6)*%
X135450000Y-80600000D03*
%TO.P,U5,N7,PG0*%
%TO.N,unconnected-(U5-PG0-PadN7)*%
X136100000Y-80600000D03*
%TO.P,U5,N8,VDD*%
%TO.N,unconnected-(U5-VDD-PadN8)*%
X136750000Y-80600000D03*
%TO.P,U5,N9,VDD*%
%TO.N,unconnected-(U5-VDD-PadN9)*%
X137400000Y-80600000D03*
%TO.P,U5,N10,VDD*%
%TO.N,unconnected-(U5-VDD-PadN10)*%
X138050000Y-80600000D03*
%TO.P,U5,N11,PE13*%
%TO.N,unconnected-(U5-PE13-PadN11)*%
X138700000Y-80600000D03*
%TO.P,U5,N12,PH7*%
%TO.N,unconnected-(U5-PH7-PadN12)*%
X139350000Y-80600000D03*
%TO.P,U5,N13,PD12*%
%TO.N,unconnected-(U5-PD12-PadN13)*%
X140000000Y-80600000D03*
%TO.P,U5,N14,PD11*%
%TO.N,unconnected-(U5-PD11-PadN14)*%
X140650000Y-80600000D03*
%TO.P,U5,N15,PD10*%
%TO.N,unconnected-(U5-PD10-PadN15)*%
X141300000Y-80600000D03*
%TO.P,U5,P1,VREF+*%
%TO.N,unconnected-(U5-VREF+-PadP1)*%
X132200000Y-81250000D03*
%TO.P,U5,P2,PA2*%
%TO.N,unconnected-(U5-PA2-PadP2)*%
X132850000Y-81250000D03*
%TO.P,U5,P3,PA6*%
%TO.N,unconnected-(U5-PA6-PadP3)*%
X133500000Y-81250000D03*
%TO.P,U5,P4,PA5*%
%TO.N,unconnected-(U5-PA5-PadP4)*%
X134150000Y-81250000D03*
%TO.P,U5,P5,PC5*%
%TO.N,unconnected-(U5-PC5-PadP5)*%
X134800000Y-81250000D03*
%TO.P,U5,P6,PF12*%
%TO.N,unconnected-(U5-PF12-PadP6)*%
X135450000Y-81250000D03*
%TO.P,U5,P7,PF15*%
%TO.N,unconnected-(U5-PF15-PadP7)*%
X136100000Y-81250000D03*
%TO.P,U5,P8,PE8*%
%TO.N,unconnected-(U5-PE8-PadP8)*%
X136750000Y-81250000D03*
%TO.P,U5,P9,PE9*%
%TO.N,unconnected-(U5-PE9-PadP9)*%
X137400000Y-81250000D03*
%TO.P,U5,P10,PE11*%
%TO.N,unconnected-(U5-PE11-PadP10)*%
X138050000Y-81250000D03*
%TO.P,U5,P11,PE14*%
%TO.N,unconnected-(U5-PE14-PadP11)*%
X138700000Y-81250000D03*
%TO.P,U5,P12,PB12*%
%TO.N,unconnected-(U5-PB12-PadP12)*%
X139350000Y-81250000D03*
%TO.P,U5,P13,PB13*%
%TO.N,unconnected-(U5-PB13-PadP13)*%
X140000000Y-81250000D03*
%TO.P,U5,P14,PD9*%
%TO.N,unconnected-(U5-PD9-PadP14)*%
X140650000Y-81250000D03*
%TO.P,U5,P15,PD8*%
%TO.N,unconnected-(U5-PD8-PadP15)*%
X141300000Y-81250000D03*
%TO.P,U5,R1,VDDA*%
%TO.N,unconnected-(U5-VDDA-PadR1)*%
X132200000Y-81900000D03*
%TO.P,U5,R2,PA3*%
%TO.N,unconnected-(U5-PA3-PadR2)*%
X132850000Y-81900000D03*
%TO.P,U5,R3,PA7*%
%TO.N,unconnected-(U5-PA7-PadR3)*%
X133500000Y-81900000D03*
%TO.P,U5,R4,PB1*%
%TO.N,unconnected-(U5-PB1-PadR4)*%
X134150000Y-81900000D03*
%TO.P,U5,R5,PB0*%
%TO.N,unconnected-(U5-PB0-PadR5)*%
X134800000Y-81900000D03*
%TO.P,U5,R6,PF11*%
%TO.N,unconnected-(U5-PF11-PadR6)*%
X135450000Y-81900000D03*
%TO.P,U5,R7,PF14*%
%TO.N,unconnected-(U5-PF14-PadR7)*%
X136100000Y-81900000D03*
%TO.P,U5,R8,PE7*%
%TO.N,unconnected-(U5-PE7-PadR8)*%
X136750000Y-81900000D03*
%TO.P,U5,R9,PE10*%
%TO.N,unconnected-(U5-PE10-PadR9)*%
X137400000Y-81900000D03*
%TO.P,U5,R10,PE12*%
%TO.N,unconnected-(U5-PE12-PadR10)*%
X138050000Y-81900000D03*
%TO.P,U5,R11,PE15*%
%TO.N,unconnected-(U5-PE15-PadR11)*%
X138700000Y-81900000D03*
%TO.P,U5,R12,PB10*%
%TO.N,unconnected-(U5-PB10-PadR12)*%
X139350000Y-81900000D03*
%TO.P,U5,R13,PB11*%
%TO.N,unconnected-(U5-PB11-PadR13)*%
X140000000Y-81900000D03*
%TO.P,U5,R14,PB14*%
%TO.N,unconnected-(U5-PB14-PadR14)*%
X140650000Y-81900000D03*
%TO.P,U5,R15,PB15*%
%TO.N,unconnected-(U5-PB15-PadR15)*%
X141300000Y-81900000D03*
%TD*%
D51*
%TO.P,D2,1,K*%
%TO.N,Net-(D2-K)*%
X111225000Y-140125000D03*
%TO.P,D2,2,A*%
%TO.N,Net-(D2-A)*%
X114525000Y-140125000D03*
%TD*%
D52*
%TO.P,USB1,1,VCC*%
%TO.N,unconnected-(USB1-VCC-Pad1)*%
X107580000Y-55010000D03*
%TO.P,USB1,2,D-*%
%TO.N,unconnected-(USB1-D--Pad2)*%
X107580000Y-57510000D03*
%TO.P,USB1,3,D+*%
%TO.N,unconnected-(USB1-D+-Pad3)*%
X107580000Y-59510000D03*
%TO.P,USB1,4,GND*%
%TO.N,unconnected-(USB1-GND-Pad4)*%
X107580000Y-62010000D03*
D53*
%TO.P,USB1,5,5*%
%TO.N,unconnected-(USB1-Pad5)*%
X104980000Y-52060000D03*
%TO.P,USB1,6,6*%
%TO.N,unconnected-(USB1-Pad6)*%
X104980000Y-64960000D03*
%TD*%
D14*
%TO.P,F1,1*%
%TO.N,/power/Power_Input*%
X137875000Y-131650000D03*
%TO.P,F1,2*%
%TO.N,Net-(U3-VIN)*%
X137875000Y-128850000D03*
%TD*%
D30*
%TO.P,C4,1*%
%TO.N,Net-(U3-SW)*%
X128375000Y-131625000D03*
%TO.P,C4,2*%
%TO.N,Net-(U3-BOOT)*%
X128375000Y-130665000D03*
%TD*%
D22*
%TO.P,L6,1,1*%
%TO.N,/power/LX4*%
X98025000Y-120900000D03*
%TO.P,L6,2,2*%
%TO.N,+0.95V*%
X103475000Y-120900000D03*
%TD*%
D10*
%TO.P,C28,1*%
%TO.N,Ethernet_3V3*%
X189750000Y-88177500D03*
%TO.P,C28,2*%
%TO.N,GND*%
X190710000Y-88177500D03*
%TD*%
D49*
%TO.P,C36,1*%
%TO.N,+1V8*%
X109870000Y-96890000D03*
%TO.P,C36,2*%
%TO.N,GND*%
X111770000Y-96890000D03*
%TD*%
D13*
%TO.P,R33,1*%
%TO.N,+1V8*%
X106670000Y-113110000D03*
%TO.P,R33,2*%
%TO.N,/power/FB2*%
X107690000Y-113110000D03*
%TD*%
%TO.P,R36,1*%
%TO.N,/power/FB3*%
X109580000Y-113110000D03*
%TO.P,R36,2*%
%TO.N,GND*%
X110600000Y-113110000D03*
%TD*%
%TO.P,R32,1*%
%TO.N,/power/FB1*%
X106670000Y-111120000D03*
%TO.P,R32,2*%
%TO.N,GND*%
X107690000Y-111120000D03*
%TD*%
D10*
%TO.P,C25,1*%
%TO.N,GND*%
X189750000Y-82267500D03*
%TO.P,C25,2*%
%TO.N,Net-(U6-AVDD10OUT)*%
X190710000Y-82267500D03*
%TD*%
D13*
%TO.P,R20,1*%
%TO.N,PHY_MDC*%
X178140000Y-88267500D03*
%TO.P,R20,2*%
%TO.N,Ethernet_3V3*%
X179160000Y-88267500D03*
%TD*%
D49*
%TO.P,C34,1*%
%TO.N,+1V0*%
X109870000Y-93880000D03*
%TO.P,C34,2*%
%TO.N,GND*%
X111770000Y-93880000D03*
%TD*%
D11*
%TO.P,C12,1*%
%TO.N,Net-(U4-VIN)*%
X142250000Y-135000000D03*
%TO.P,C12,2*%
%TO.N,GND*%
X141290000Y-135000000D03*
%TD*%
D54*
%TO.P,U4,1,EN*%
%TO.N,Net-(U4-EN)*%
X147850000Y-141350000D03*
%TO.P,U4,2,FB*%
%TO.N,Net-(U4-FB)*%
X147850000Y-140850000D03*
%TO.P,U4,3,AGND*%
%TO.N,GNDA*%
X147850000Y-140350000D03*
%TO.P,U4,4,PG*%
%TO.N,12V_OK*%
X147850000Y-139850000D03*
D55*
%TO.P,U4,5*%
%TO.N,N/C*%
X147380000Y-139200000D03*
D56*
%TO.P,U4,6,SW*%
%TO.N,Net-(U4-SW)*%
X146080000Y-139750000D03*
D55*
%TO.P,U4,7,BOOT*%
%TO.N,Net-(U4-BOOT)*%
X145580000Y-139200000D03*
D57*
%TO.P,U4,8,VIN*%
%TO.N,Net-(U4-VIN)*%
X145500000Y-141250000D03*
D58*
%TO.P,U4,9,PGND*%
%TO.N,GND*%
X146660000Y-141250000D03*
D55*
%TO.P,U4,10,MODE*%
%TO.N,GNDA*%
X147380000Y-142000000D03*
%TD*%
D59*
%TO.P,J2,A1*%
%TO.N,unconnected-(J2-PadA1)*%
X156750000Y-137000000D03*
%TO.P,J2,A2*%
%TO.N,+12V*%
X157740600Y-134993400D03*
%TO.P,J2,A3*%
X158756600Y-137000000D03*
%TO.P,J2,A4*%
%TO.N,GND*%
X159747200Y-134993400D03*
%TO.P,J2,A5*%
%TO.N,unconnected-(J2-PadA5)*%
X160737800Y-137000000D03*
%TO.P,J2,A6*%
%TO.N,unconnected-(J2-PadA6)*%
X161753800Y-134993400D03*
%TO.P,J2,A7*%
%TO.N,unconnected-(J2-PadA7)*%
X162744400Y-137000000D03*
%TO.P,J2,A8*%
%TO.N,unconnected-(J2-PadA8)*%
X163760400Y-134993400D03*
%TO.P,J2,A9*%
%TO.N,unconnected-(J2-PadA9)*%
X164751000Y-137000000D03*
%TO.P,J2,A10*%
%TO.N,unconnected-(J2-PadA10)*%
X165741600Y-134993400D03*
%TO.P,J2,A11*%
%TO.N,unconnected-(J2-PadA11)*%
X166757600Y-137000000D03*
%TO.P,J2,A12*%
%TO.N,unconnected-(J2-PadA12)*%
X169754800Y-134993400D03*
%TO.P,J2,A13*%
%TO.N,unconnected-(J2-PadA13)*%
X170745400Y-137000000D03*
%TO.P,J2,A14*%
%TO.N,unconnected-(J2-PadA14)*%
X171761400Y-134993400D03*
%TO.P,J2,A15*%
%TO.N,unconnected-(J2-PadA15)*%
X172752000Y-137000000D03*
%TO.P,J2,A16*%
%TO.N,unconnected-(J2-PadA16)*%
X173742600Y-134993400D03*
%TO.P,J2,A17*%
%TO.N,unconnected-(J2-PadA17)*%
X174758600Y-137000000D03*
%TO.P,J2,A18*%
%TO.N,unconnected-(J2-PadA18)*%
X175749200Y-134993400D03*
%TO.P,J2,A19*%
%TO.N,unconnected-(J2-PadA19)*%
X176739800Y-137000000D03*
%TO.P,J2,A20*%
%TO.N,unconnected-(J2-PadA20)*%
X177755800Y-134993400D03*
%TO.P,J2,A21*%
%TO.N,unconnected-(J2-PadA21)*%
X178746400Y-137000000D03*
%TO.P,J2,A22*%
%TO.N,unconnected-(J2-PadA22)*%
X179762400Y-134993400D03*
%TO.P,J2,A23*%
%TO.N,unconnected-(J2-PadA23)*%
X180753000Y-137000000D03*
%TO.P,J2,A24*%
%TO.N,unconnected-(J2-PadA24)*%
X181743600Y-134993400D03*
%TO.P,J2,A25*%
%TO.N,unconnected-(J2-PadA25)*%
X182759600Y-137000000D03*
%TO.P,J2,A26*%
%TO.N,unconnected-(J2-PadA26)*%
X183750200Y-134993400D03*
%TO.P,J2,A27*%
%TO.N,unconnected-(J2-PadA27)*%
X184740800Y-137000000D03*
%TO.P,J2,A28*%
%TO.N,unconnected-(J2-PadA28)*%
X185756800Y-134993400D03*
%TO.P,J2,A29*%
%TO.N,unconnected-(J2-PadA29)*%
X186747400Y-137000000D03*
%TO.P,J2,A30*%
%TO.N,unconnected-(J2-PadA30)*%
X187738000Y-134993400D03*
%TO.P,J2,A31*%
%TO.N,unconnected-(J2-PadA31)*%
X188754000Y-137000000D03*
%TO.P,J2,A32*%
%TO.N,unconnected-(J2-PadA32)*%
X189744600Y-134993400D03*
%TO.P,J2,B1*%
%TO.N,+12V*%
X156750000Y-139489200D03*
%TO.P,J2,B2*%
X157740600Y-141495800D03*
%TO.P,J2,B3*%
X158756600Y-139489200D03*
%TO.P,J2,B4*%
%TO.N,GND*%
X159747200Y-141495800D03*
%TO.P,J2,B5*%
%TO.N,unconnected-(J2-PadB5)*%
X160737800Y-139489200D03*
%TO.P,J2,B6*%
%TO.N,unconnected-(J2-PadB6)*%
X161753800Y-141495800D03*
%TO.P,J2,B7*%
%TO.N,unconnected-(J2-PadB7)*%
X162744400Y-139489200D03*
%TO.P,J2,B8*%
%TO.N,unconnected-(J2-PadB8)*%
X163760400Y-141495800D03*
%TO.P,J2,B9*%
%TO.N,unconnected-(J2-PadB9)*%
X164751000Y-139489200D03*
%TO.P,J2,B10*%
%TO.N,unconnected-(J2-PadB10)*%
X165741600Y-141495800D03*
%TO.P,J2,B11*%
%TO.N,unconnected-(J2-PadB11)*%
X166757600Y-139489200D03*
%TO.P,J2,B12*%
%TO.N,unconnected-(J2-PadB12)*%
X169754800Y-141495800D03*
%TO.P,J2,B13*%
%TO.N,unconnected-(J2-PadB13)*%
X170745400Y-139489200D03*
%TO.P,J2,B14*%
%TO.N,unconnected-(J2-PadB14)*%
X171761400Y-141495800D03*
%TO.P,J2,B15*%
%TO.N,unconnected-(J2-PadB15)*%
X172752000Y-139489200D03*
%TO.P,J2,B16*%
%TO.N,unconnected-(J2-PadB16)*%
X173742600Y-141495800D03*
%TO.P,J2,B17*%
%TO.N,unconnected-(J2-PadB17)*%
X174758600Y-139489200D03*
%TO.P,J2,B18*%
%TO.N,unconnected-(J2-PadB18)*%
X175749200Y-141495800D03*
%TO.P,J2,B19*%
%TO.N,unconnected-(J2-PadB19)*%
X176739800Y-139489200D03*
%TO.P,J2,B20*%
%TO.N,unconnected-(J2-PadB20)*%
X177755800Y-141495800D03*
%TO.P,J2,B21*%
%TO.N,unconnected-(J2-PadB21)*%
X178746400Y-139489200D03*
%TO.P,J2,B22*%
%TO.N,unconnected-(J2-PadB22)*%
X179762400Y-141495800D03*
%TO.P,J2,B23*%
%TO.N,unconnected-(J2-PadB23)*%
X180753000Y-139489200D03*
%TO.P,J2,B24*%
%TO.N,unconnected-(J2-PadB24)*%
X181743600Y-141495800D03*
%TO.P,J2,B25*%
%TO.N,unconnected-(J2-PadB25)*%
X182759600Y-139489200D03*
%TO.P,J2,B26*%
%TO.N,unconnected-(J2-PadB26)*%
X183750200Y-141495800D03*
%TO.P,J2,B27*%
%TO.N,unconnected-(J2-PadB27)*%
X184740800Y-139489200D03*
%TO.P,J2,B28*%
%TO.N,unconnected-(J2-PadB28)*%
X185756800Y-141495800D03*
%TO.P,J2,B29*%
%TO.N,unconnected-(J2-PadB29)*%
X186747400Y-139489200D03*
%TO.P,J2,B30*%
%TO.N,unconnected-(J2-PadB30)*%
X187738000Y-141495800D03*
%TO.P,J2,B31*%
%TO.N,unconnected-(J2-PadB31)*%
X188754000Y-139489200D03*
%TO.P,J2,B32*%
%TO.N,unconnected-(J2-PadB32)*%
X189744600Y-141495800D03*
%TD*%
D13*
%TO.P,R28,1*%
%TO.N,/Expansion_Port/ETH_RX_N*%
X183960000Y-80307500D03*
%TO.P,R28,2*%
%TO.N,Net-(U6-MDI-[1])*%
X184980000Y-80307500D03*
%TD*%
D10*
%TO.P,C23,1*%
%TO.N,GND*%
X186880000Y-88177500D03*
%TO.P,C23,2*%
%TO.N,Net-(U6-CKXTAL2)*%
X187840000Y-88177500D03*
%TD*%
D60*
%TO.P,Q1,1,D*%
%TO.N,/power/Power_Input*%
X122430000Y-134500000D03*
D61*
%TO.P,Q1,2,G*%
%TO.N,Net-(D2-A)*%
X120150000Y-140800000D03*
D60*
%TO.P,Q1,3,S*%
%TO.N,Net-(D2-K)*%
X117870000Y-134500000D03*
%TD*%
D10*
%TO.P,C24,1*%
%TO.N,GND*%
X189750000Y-80297500D03*
%TO.P,C24,2*%
%TO.N,Net-(U6-CKXTAL1)*%
X190710000Y-80297500D03*
%TD*%
D62*
%TO.P,WIFI1,1,NC*%
%TO.N,unconnected-(WIFI1-NC-Pad1)*%
X112250000Y-50750000D03*
%TO.P,WIFI1,2,NC*%
%TO.N,unconnected-(WIFI1-NC-Pad2)*%
X112250000Y-52650000D03*
%TO.P,WIFI1,3,NC*%
%TO.N,unconnected-(WIFI1-NC-Pad3)*%
X112250000Y-54550000D03*
%TO.P,WIFI1,4,NC*%
%TO.N,unconnected-(WIFI1-NC-Pad4)*%
X112250000Y-56450000D03*
%TO.P,WIFI1,5,GND*%
%TO.N,GND*%
X112250000Y-58350000D03*
%TO.P,WIFI1,6,USB2.0_DP*%
%TO.N,unconnected-(WIFI1-USB2.0_DP-Pad6)*%
X112250000Y-60250000D03*
%TO.P,WIFI1,7,USB2.0_DM*%
%TO.N,unconnected-(WIFI1-USB2.0_DM-Pad7)*%
X112250000Y-62150000D03*
%TO.P,WIFI1,8,GND*%
%TO.N,GND*%
X112250000Y-64050000D03*
D63*
%TO.P,WIFI1,9,NC*%
%TO.N,unconnected-(WIFI1-NC-Pad9)*%
X114830000Y-65980000D03*
%TO.P,WIFI1,10,SUS_CLK*%
%TO.N,unconnected-(WIFI1-SUS_CLK-Pad10)*%
X116730000Y-65980000D03*
%TO.P,WIFI1,11,GND*%
%TO.N,GND*%
X118630000Y-65980000D03*
%TO.P,WIFI1,12,BTRF*%
%TO.N,unconnected-(WIFI1-BTRF-Pad12)*%
X120530000Y-65980000D03*
%TO.P,WIFI1,13,GND*%
%TO.N,GND*%
X122430000Y-65980000D03*
%TO.P,WIFI1,14,BT_WAKE_HOST*%
%TO.N,unconnected-(WIFI1-BT_WAKE_HOST-Pad14)*%
X124330000Y-65980000D03*
%TO.P,WIFI1,15,HOST_WAKE_BT*%
%TO.N,unconnected-(WIFI1-HOST_WAKE_BT-Pad15)*%
X126230000Y-65980000D03*
%TO.P,WIFI1,16,EESK*%
%TO.N,unconnected-(WIFI1-EESK-Pad16)*%
X128130000Y-65980000D03*
%TO.P,WIFI1,17,GPIO4*%
%TO.N,unconnected-(WIFI1-GPIO4-Pad17)*%
X130030000Y-65980000D03*
D62*
%TO.P,WIFI1,18,GND*%
%TO.N,GND*%
X138400000Y-63200000D03*
%TO.P,WIFI1,19,WLANANT1*%
%TO.N,unconnected-(WIFI1-WLANANT1-Pad19)*%
X138400000Y-61300000D03*
%TO.P,WIFI1,20,GND*%
%TO.N,GND*%
X138400000Y-59400000D03*
%TO.P,WIFI1,21,GND*%
X138400000Y-55400000D03*
%TO.P,WIFI1,22,WLANANT0*%
%TO.N,unconnected-(WIFI1-WLANANT0-Pad22)*%
X138400000Y-53500000D03*
%TO.P,WIFI1,23,GND*%
%TO.N,GND*%
X138400000Y-51600000D03*
D63*
%TO.P,WIFI1,24,GND*%
X130030000Y-48830000D03*
%TO.P,WIFI1,25,GND*%
X128130000Y-48830000D03*
%TO.P,WIFI1,26,WLANWAKEHOST*%
%TO.N,unconnected-(WIFI1-WLANWAKEHOST-Pad26)*%
X126230000Y-48830000D03*
%TO.P,WIFI1,27,HOSTWAKEWLAN*%
%TO.N,unconnected-(WIFI1-HOSTWAKEWLAN-Pad27)*%
X124330000Y-48830000D03*
%TO.P,WIFI1,28,GPIO5*%
%TO.N,unconnected-(WIFI1-GPIO5-Pad28)*%
X122430000Y-48830000D03*
%TO.P,WIFI1,29,GND*%
%TO.N,GND*%
X120530000Y-48830000D03*
%TO.P,WIFI1,30,VDD33*%
%TO.N,unconnected-(WIFI1-VDD33-Pad30)*%
X118630000Y-48830000D03*
%TO.P,WIFI1,31,NC*%
%TO.N,unconnected-(WIFI1-NC-Pad31)*%
X116730000Y-48830000D03*
%TO.P,WIFI1,32,GND*%
%TO.N,GND*%
X114830000Y-48830000D03*
%TD*%
D29*
%TO.P,C18,1*%
%TO.N,+12V*%
X157500000Y-131700000D03*
%TO.P,C18,2*%
%TO.N,GND*%
X157500000Y-129800000D03*
%TD*%
D10*
%TO.P,C37,1*%
%TO.N,+3.3V*%
X106680000Y-105180000D03*
%TO.P,C37,2*%
%TO.N,/power/FB3*%
X107640000Y-105180000D03*
%TD*%
%TO.P,C33,1*%
%TO.N,+1V0*%
X106680000Y-101240000D03*
%TO.P,C33,2*%
%TO.N,/power/FB1*%
X107640000Y-101240000D03*
%TD*%
D13*
%TO.P,R34,1*%
%TO.N,/power/FB2*%
X109580000Y-109130000D03*
%TO.P,R34,2*%
%TO.N,GND*%
X110600000Y-109130000D03*
%TD*%
D10*
%TO.P,C39,1*%
%TO.N,+0.95V*%
X106680000Y-107150000D03*
%TO.P,C39,2*%
%TO.N,/power/FB4*%
X107640000Y-107150000D03*
%TD*%
D64*
%TO.P,D5,1,1*%
%TO.N,GND*%
X172460000Y-78340000D03*
%TO.P,D5,2,2*%
%TO.N,Net-(J3-CHSGND)*%
X173960000Y-78340000D03*
%TD*%
D65*
%TO.P,C10,1*%
%TO.N,/power/Power_Input*%
X135125000Y-134425000D03*
%TO.P,C10,2*%
%TO.N,GND*%
X135125000Y-141625000D03*
%TD*%
D24*
%TO.P,R4,1*%
%TO.N,Net-(R3-Pad2)*%
X127875000Y-124115000D03*
%TO.P,R4,2*%
%TO.N,Net-(U3-FB)*%
X127875000Y-125135000D03*
%TD*%
D13*
%TO.P,R18,1*%
%TO.N,/Expansion_Port/LED_ACT*%
X178140000Y-84287500D03*
%TO.P,R18,2*%
%TO.N,Ethernet_3V3*%
X179160000Y-84287500D03*
%TD*%
%TO.P,R19,1*%
%TO.N,PHY_MDIO*%
X178140000Y-86277500D03*
%TO.P,R19,2*%
%TO.N,Ethernet_3V3*%
X179160000Y-86277500D03*
%TD*%
D66*
%TO.P,U10,1,GND-1*%
%TO.N,unconnected-(U10-GND-1-Pad1)*%
X153380000Y-61050000D03*
%TO.P,U10,2,GND*%
%TO.N,GND*%
X153380000Y-61550000D03*
%TO.P,U10,3,CPEN*%
%TO.N,unconnected-(U10-CPEN-Pad3)*%
X153380000Y-62050000D03*
%TO.P,U10,4,VBUS*%
%TO.N,unconnected-(U10-VBUS-Pad4)*%
X153380000Y-62550000D03*
%TO.P,U10,5,ID*%
%TO.N,unconnected-(U10-ID-Pad5)*%
X153380000Y-63050000D03*
%TO.P,U10,6,VDD3.3-3*%
%TO.N,unconnected-(U10-VDD3.3-3-Pad6)*%
X153380000Y-63550000D03*
%TO.P,U10,7,DP*%
%TO.N,unconnected-(U10-DP-Pad7)*%
X153380000Y-64050000D03*
%TO.P,U10,8,DM*%
%TO.N,unconnected-(U10-DM-Pad8)*%
X153380000Y-64550000D03*
D67*
%TO.P,U10,9,RESET*%
%TO.N,unconnected-(U10-RESET-Pad9)*%
X154065000Y-65235000D03*
%TO.P,U10,10,EXTVBUS*%
%TO.N,unconnected-(U10-EXTVBUS-Pad10)*%
X154565000Y-65235000D03*
%TO.P,U10,11,NXT*%
%TO.N,unconnected-(U10-NXT-Pad11)*%
X155065000Y-65235000D03*
%TO.P,U10,12,DIR*%
%TO.N,unconnected-(U10-DIR-Pad12)*%
X155565000Y-65235000D03*
%TO.P,U10,13,STP*%
%TO.N,unconnected-(U10-STP-Pad13)*%
X156065000Y-65235000D03*
%TO.P,U10,14,CLKOUT*%
%TO.N,unconnected-(U10-CLKOUT-Pad14)*%
X156565000Y-65235000D03*
%TO.P,U10,15,VDD1.8-1*%
%TO.N,unconnected-(U10-VDD1.8-1-Pad15)*%
X157065000Y-65235000D03*
%TO.P,U10,16,VDD3.3-2*%
%TO.N,unconnected-(U10-VDD3.3-2-Pad16)*%
X157565000Y-65235000D03*
D66*
%TO.P,U10,17,DATA[7]*%
%TO.N,unconnected-(U10-DATA[7]-Pad17)*%
X158250000Y-64550000D03*
%TO.P,U10,18,DATA[6]*%
%TO.N,unconnected-(U10-DATA[6]-Pad18)*%
X158250000Y-64050000D03*
%TO.P,U10,19,DATA[5]*%
%TO.N,unconnected-(U10-DATA[5]-Pad19)*%
X158250000Y-63550000D03*
%TO.P,U10,20,DATA[4]*%
%TO.N,unconnected-(U10-DATA[4]-Pad20)*%
X158250000Y-63050000D03*
%TO.P,U10,21,DATA[3]*%
%TO.N,unconnected-(U10-DATA[3]-Pad21)*%
X158250000Y-62550000D03*
%TO.P,U10,22,DATA[2]*%
%TO.N,unconnected-(U10-DATA[2]-Pad22)*%
X158250000Y-62050000D03*
%TO.P,U10,23,DATA[1]*%
%TO.N,unconnected-(U10-DATA[1]-Pad23)*%
X158250000Y-61550000D03*
%TO.P,U10,24,DATA[0]*%
%TO.N,unconnected-(U10-DATA[0]-Pad24)*%
X158250000Y-61050000D03*
D67*
%TO.P,U10,25,VDD3.3-1*%
%TO.N,unconnected-(U10-VDD3.3-1-Pad25)*%
X157565000Y-60365000D03*
%TO.P,U10,26,VDD1.8*%
%TO.N,unconnected-(U10-VDD1.8-Pad26)*%
X157065000Y-60365000D03*
%TO.P,U10,27,XO*%
%TO.N,unconnected-(U10-XO-Pad27)*%
X156565000Y-60365000D03*
%TO.P,U10,28,XI*%
%TO.N,unconnected-(U10-XI-Pad28)*%
X156065000Y-60365000D03*
%TO.P,U10,29,VDDA1.8*%
%TO.N,unconnected-(U10-VDDA1.8-Pad29)*%
X155565000Y-60365000D03*
%TO.P,U10,30,VDD3.3*%
%TO.N,unconnected-(U10-VDD3.3-Pad30)*%
X155065000Y-60365000D03*
%TO.P,U10,31,REG_EN*%
%TO.N,unconnected-(U10-REG_EN-Pad31)*%
X154565000Y-60365000D03*
%TO.P,U10,32,RBIAS*%
%TO.N,unconnected-(U10-RBIAS-Pad32)*%
X154065000Y-60365000D03*
D68*
%TO.P,U10,33,EXP*%
%TO.N,unconnected-(U10-EXP-Pad33)*%
X155815000Y-62800000D03*
%TD*%
D69*
%TO.P,J3,1,TD+*%
%TO.N,/Expansion_Port/ETH_TX_P*%
X177980000Y-53790000D03*
D70*
%TO.P,J3,2,TD-*%
%TO.N,/Expansion_Port/ETH_TX_N*%
X180520000Y-55060000D03*
%TO.P,J3,3,RD+*%
%TO.N,/Expansion_Port/ETH_RX_P*%
X177980000Y-56330000D03*
%TO.P,J3,4,4*%
%TO.N,Net-(C20-Pad2)*%
X180520000Y-57600000D03*
%TO.P,J3,5,5*%
%TO.N,Net-(C21-Pad2)*%
X177980000Y-58870000D03*
%TO.P,J3,6,RD-*%
%TO.N,/Expansion_Port/ETH_RX_N*%
X180520000Y-60140000D03*
%TO.P,J3,7,NC*%
%TO.N,unconnected-(J3-NC-Pad7)*%
X177980000Y-61410000D03*
%TO.P,J3,8,CHSGND*%
%TO.N,Net-(J3-CHSGND)*%
X180520000Y-62680000D03*
D71*
%TO.P,J3,9,9*%
%TO.N,Ethernet_3V3*%
X166730000Y-51620000D03*
%TO.P,J3,10,10*%
%TO.N,Net-(J3-Pad10)*%
X166730000Y-54160000D03*
%TO.P,J3,11,11*%
%TO.N,GND*%
X166730000Y-62330000D03*
%TO.P,J3,12,12*%
%TO.N,Net-(J3-Pad12)*%
X166730000Y-64870000D03*
D72*
%TO.P,J3,SH1,SH1*%
%TO.N,Net-(FB1-Pad1)*%
X174680000Y-50500000D03*
%TO.P,J3,SH2,SH2*%
X174680000Y-65990000D03*
%TD*%
D49*
%TO.P,C38,1*%
%TO.N,+3.3V*%
X109870000Y-99900000D03*
%TO.P,C38,2*%
%TO.N,GND*%
X111770000Y-99900000D03*
%TD*%
D13*
%TO.P,R14,1*%
%TO.N,GNDA*%
X132865000Y-123875000D03*
%TO.P,R14,2*%
%TO.N,GND*%
X133885000Y-123875000D03*
%TD*%
D73*
%TO.N,GND*%
X156750000Y-93250000D03*
X155750000Y-108250000D03*
X153750000Y-108250000D03*
X165750000Y-110250000D03*
D74*
X135500000Y-142250000D03*
D73*
X155750000Y-102250000D03*
D75*
X146675000Y-140500000D03*
D73*
X152750000Y-99250000D03*
X155750000Y-97250000D03*
X161750000Y-98250000D03*
X111250000Y-122250000D03*
D75*
X135875000Y-127895000D03*
X146675000Y-141250000D03*
D73*
X110500000Y-122250000D03*
D75*
X154630000Y-129750000D03*
D73*
X185980000Y-72580000D03*
X185980000Y-74580000D03*
X158750000Y-99250000D03*
X160750000Y-95250000D03*
X145750000Y-110250000D03*
D75*
X152880000Y-129750000D03*
D73*
X146750000Y-113250000D03*
D75*
X115000000Y-131125000D03*
D74*
X135500000Y-140000000D03*
D73*
X166750000Y-93250000D03*
D75*
X109250000Y-131125000D03*
D73*
X152750000Y-101250000D03*
D75*
X132825000Y-127895000D03*
D73*
X154750000Y-95250000D03*
D75*
X112500000Y-131125000D03*
D73*
X150750000Y-99250000D03*
D75*
X111750000Y-131125000D03*
D73*
X153750000Y-106250000D03*
D74*
X135500000Y-141500000D03*
D73*
X155750000Y-104250000D03*
X155750000Y-98250000D03*
X151750000Y-99250000D03*
X149750000Y-97250000D03*
X152750000Y-107250000D03*
X151750000Y-93250000D03*
X148750000Y-97250000D03*
X146750000Y-93250000D03*
X149750000Y-112250000D03*
D75*
X141290000Y-133750000D03*
D73*
X147750000Y-96250000D03*
X150750000Y-105250000D03*
X186980000Y-73580000D03*
X153750000Y-97250000D03*
X161750000Y-108250000D03*
D74*
X134750000Y-140000000D03*
D73*
X154750000Y-101250000D03*
X152750000Y-103250000D03*
X159750000Y-112250000D03*
D75*
X130630000Y-127850000D03*
D73*
X165750000Y-100250000D03*
X151750000Y-100250000D03*
D75*
X117500000Y-131125000D03*
D73*
X184980000Y-72580000D03*
X147750000Y-106250000D03*
X153750000Y-93250000D03*
X149750000Y-102250000D03*
X153750000Y-99250000D03*
D74*
X127000000Y-139500000D03*
D75*
X110000000Y-131125000D03*
D73*
X147750000Y-94250000D03*
D74*
X127000000Y-138750000D03*
X134750000Y-140750000D03*
D73*
X112000000Y-123000000D03*
X155750000Y-93250000D03*
X156750000Y-95250000D03*
X147750000Y-95250000D03*
X149750000Y-99250000D03*
D74*
X135500000Y-143000000D03*
D73*
X112000000Y-123750000D03*
X163750000Y-104250000D03*
X160750000Y-105250000D03*
X184980000Y-74580000D03*
X184980000Y-73580000D03*
D74*
X127750000Y-139500000D03*
D73*
X162750000Y-111250000D03*
X156750000Y-96250000D03*
D74*
X134750000Y-143000000D03*
D73*
X156750000Y-101250000D03*
X152750000Y-105250000D03*
X164750000Y-97250000D03*
X110500000Y-123000000D03*
D75*
X113365000Y-142175000D03*
D73*
X112000000Y-122250000D03*
X156750000Y-113250000D03*
X155750000Y-110250000D03*
D74*
X134750000Y-142250000D03*
D73*
X186980000Y-74580000D03*
X164750000Y-107250000D03*
X158750000Y-109250000D03*
X152750000Y-111250000D03*
X147750000Y-93250000D03*
X163750000Y-94250000D03*
X148750000Y-96250000D03*
D75*
X141290000Y-136250000D03*
D73*
X163750000Y-114250000D03*
D75*
X152130000Y-129750000D03*
D73*
X111250000Y-123750000D03*
X186980000Y-72580000D03*
X185980000Y-73580000D03*
X159750000Y-102250000D03*
X152750000Y-96250000D03*
X153750000Y-114250000D03*
X154750000Y-107250000D03*
X156750000Y-99250000D03*
X157750000Y-106250000D03*
X151750000Y-102250000D03*
D75*
X129880000Y-127850000D03*
D73*
X162750000Y-101250000D03*
D75*
X155380000Y-129750000D03*
D73*
X166750000Y-103250000D03*
X155750000Y-100250000D03*
D75*
X157880000Y-129750000D03*
D73*
X149750000Y-93250000D03*
X156750000Y-107250000D03*
D75*
X131380000Y-127850000D03*
D73*
X150750000Y-95250000D03*
X154750000Y-99250000D03*
D75*
X134375000Y-127895000D03*
D73*
X156750000Y-94250000D03*
X145750000Y-100250000D03*
X110500000Y-123750000D03*
X151750000Y-97250000D03*
D74*
X127750000Y-138750000D03*
D73*
X151750000Y-108250000D03*
D75*
X157130000Y-129750000D03*
D74*
X135500000Y-140750000D03*
D73*
X146750000Y-103250000D03*
X157750000Y-96250000D03*
D75*
X141290000Y-135000000D03*
X116750000Y-131125000D03*
X146675000Y-142000000D03*
D73*
X155750000Y-106250000D03*
X166750000Y-113250000D03*
D75*
X114250000Y-131125000D03*
D73*
X148750000Y-109250000D03*
X151750000Y-104250000D03*
X111250000Y-123000000D03*
X149750000Y-98250000D03*
D74*
X134750000Y-141500000D03*
D73*
X151750000Y-106250000D03*
X153750000Y-100250000D03*
D74*
%TO.N,GNDA*%
X132875000Y-122875000D03*
X149500000Y-139000000D03*
X131625000Y-126375000D03*
X151750000Y-142250000D03*
%TD*%
D76*
%TO.N,Net-(U3-VIN)*%
X137875000Y-128725000D02*
X137875000Y-128625000D01*
D77*
X130625000Y-129035000D02*
X137565000Y-129035000D01*
D76*
X134375000Y-125125000D02*
X133635000Y-125125000D01*
X137875000Y-128625000D02*
X134375000Y-125125000D01*
D78*
%TO.N,Net-(U3-BOOT)*%
X128575000Y-130465000D02*
X128375000Y-130665000D01*
X128575000Y-128955000D02*
X128575000Y-130465000D01*
D77*
%TO.N,Net-(U3-SW)*%
X126521000Y-128204000D02*
X128949000Y-128204000D01*
D79*
X128375000Y-131625000D02*
X128065001Y-131625000D01*
D76*
X125850000Y-128875000D02*
X126576000Y-128149000D01*
D79*
X125850000Y-129409999D02*
X125850000Y-128875000D01*
D76*
X125850000Y-128875000D02*
X126496000Y-128229000D01*
D77*
X125850000Y-128875000D02*
X126521000Y-128204000D01*
D79*
X128065001Y-131625000D02*
X125850000Y-129409999D01*
D77*
X128949000Y-128204000D02*
X128974000Y-128229000D01*
D76*
X125850000Y-128875000D02*
X126396000Y-128329000D01*
%TO.N,Net-(C5-Pad1)*%
X129885000Y-123385000D02*
X129125000Y-124145000D01*
X129885000Y-122875000D02*
X129885000Y-123385000D01*
%TO.N,Net-(U3-EN)*%
X130725000Y-126685000D02*
X130725000Y-126035000D01*
X130725000Y-126035000D02*
X131635000Y-125125000D01*
X131635000Y-125125000D02*
X132615000Y-125125000D01*
%TO.N,Net-(R3-Pad2)*%
X127885000Y-122875000D02*
X127885000Y-124105000D01*
X127885000Y-124105000D02*
X127875000Y-124115000D01*
X128865000Y-122875000D02*
X127885000Y-122875000D01*
%TO.N,Net-(U3-FB)*%
X129125000Y-125135000D02*
X127905000Y-125135000D01*
X130225000Y-126685000D02*
X130225000Y-125285000D01*
X130225000Y-125285000D02*
X130375000Y-125135000D01*
X129125000Y-125135000D02*
X130375000Y-125135000D01*
X127905000Y-125135000D02*
X127875000Y-125105000D01*
D77*
%TO.N,/power/Power_Input*%
X135125000Y-134425000D02*
X137925000Y-134425000D01*
X122430000Y-134500000D02*
X135050000Y-134500000D01*
D76*
X127250000Y-134500000D02*
X127375000Y-134625000D01*
D77*
X135050000Y-134500000D02*
X135125000Y-134425000D01*
X135125000Y-134425000D02*
X135125000Y-134275000D01*
X137925000Y-134425000D02*
X140475000Y-131875000D01*
D76*
X134925000Y-134625000D02*
X135125000Y-134425000D01*
D77*
X135125000Y-134275000D02*
X137875000Y-131525000D01*
D76*
%TO.N,Net-(U4-VIN)*%
X150510000Y-143552240D02*
X150510000Y-143500000D01*
X147306000Y-144121000D02*
X145500000Y-142315000D01*
X149889000Y-144121000D02*
X147306000Y-144121000D01*
D77*
X142379000Y-130479000D02*
X140750000Y-128850000D01*
D76*
X145500000Y-142315000D02*
X145500000Y-141250000D01*
D77*
X145500000Y-141250000D02*
X144129000Y-141250000D01*
D76*
X150510000Y-143500000D02*
X149889000Y-144121000D01*
D77*
X142379000Y-139500000D02*
X142379000Y-130479000D01*
D76*
X142520000Y-136520000D02*
X142250000Y-136250000D01*
D77*
X144129000Y-141250000D02*
X142379000Y-139500000D01*
D76*
%TO.N,Net-(U4-BOOT)*%
X143500000Y-139230000D02*
X145550000Y-139230000D01*
X145550000Y-139230000D02*
X145580000Y-139200000D01*
%TO.N,Net-(U4-SW)*%
X145455000Y-138270000D02*
X147250000Y-136475000D01*
D77*
X146306000Y-137419000D02*
X146306000Y-139524000D01*
X147250000Y-136475000D02*
X146306000Y-137419000D01*
D76*
X147250000Y-136475000D02*
X146480999Y-137244001D01*
X145455000Y-138270000D02*
X143500000Y-138270000D01*
%TO.N,Net-(U4-FB)*%
X149339000Y-140849000D02*
X147850000Y-140849000D01*
X150750000Y-140980000D02*
X149530000Y-140980000D01*
X149530000Y-140980000D02*
X149500000Y-141010000D01*
X152000000Y-141010000D02*
X150780000Y-141010000D01*
X150780000Y-141010000D02*
X150750000Y-140980000D01*
X149500000Y-141010000D02*
X149339000Y-140849000D01*
%TO.N,Net-(C15-Pad1)*%
X150990000Y-138750000D02*
X150990000Y-139780000D01*
X150990000Y-139780000D02*
X150750000Y-140020000D01*
D77*
%TO.N,Net-(D2-K)*%
X114275000Y-136125000D02*
X116245000Y-136125000D01*
D76*
X111225000Y-139175000D02*
X114275000Y-136125000D01*
D77*
X116245000Y-136125000D02*
X117870000Y-134500000D01*
D76*
X111225000Y-140125000D02*
X111225000Y-139175000D01*
D80*
%TO.N,Net-(F3-Pad1)*%
X107950000Y-138200000D02*
X109400000Y-138200000D01*
X109400000Y-138200000D02*
X111475000Y-136125000D01*
D76*
%TO.N,Net-(D2-A)*%
X119475000Y-140125000D02*
X120150000Y-140800000D01*
X114525000Y-140125000D02*
X114525000Y-142035000D01*
X114525000Y-142035000D02*
X114385000Y-142175000D01*
X114525000Y-140125000D02*
X119475000Y-140125000D01*
%TO.N,Net-(U4-EN)*%
X149490000Y-142250000D02*
X148750000Y-142250000D01*
X148750000Y-142250000D02*
X147850000Y-141350000D01*
X149490000Y-143500000D02*
X149490000Y-142250000D01*
%TO.N,Net-(R10-Pad2)*%
X152000000Y-137510000D02*
X152000000Y-139990000D01*
%TO.N,GNDA*%
X149500000Y-139990000D02*
X149180001Y-139990000D01*
X149000000Y-140250000D02*
X148902000Y-140348000D01*
X132865000Y-123875000D02*
X132865000Y-122885000D01*
X149180001Y-139990000D02*
X149000000Y-140170001D01*
X131244000Y-127286000D02*
X131375000Y-127155000D01*
X130010202Y-127286000D02*
X131244000Y-127286000D01*
X147534202Y-140350000D02*
X147850000Y-140350000D01*
X149000000Y-140170001D02*
X149000000Y-140250000D01*
X150510000Y-142250000D02*
X151750000Y-142250000D01*
X129725000Y-127000798D02*
X130010202Y-127286000D01*
X131625000Y-126905000D02*
X131375000Y-127155000D01*
X131625000Y-126375000D02*
X131625000Y-126905000D01*
X147380000Y-142000000D02*
X147250000Y-141870000D01*
X148902000Y-140348000D02*
X147850000Y-140348000D01*
X151750000Y-143490000D02*
X151750000Y-142250000D01*
X132865000Y-122885000D02*
X132875000Y-122875000D01*
X147250000Y-140634202D02*
X147534202Y-140350000D01*
X149500000Y-139990000D02*
X149500000Y-139000000D01*
X129725000Y-126685000D02*
X129725000Y-127000798D01*
X147250000Y-141870000D02*
X147250000Y-140634202D01*
%TO.N,+5V*%
X119474000Y-125312454D02*
X119474000Y-127949000D01*
X119474000Y-127949000D02*
X120400000Y-128875000D01*
X121911454Y-122875000D02*
X119474000Y-125312454D01*
D77*
X120100000Y-129175000D02*
X120400000Y-128875000D01*
X109625000Y-129175000D02*
X120100000Y-129175000D01*
D76*
X126865000Y-122875000D02*
X121911454Y-122875000D01*
D78*
%TO.N,+12V*%
X152000000Y-132200000D02*
X152500000Y-131700000D01*
X152000000Y-136490000D02*
X152000000Y-132200000D01*
D77*
X152550000Y-131650000D02*
X152500000Y-131700000D01*
X157500000Y-131650000D02*
X147875000Y-131650000D01*
X157500000Y-134752800D02*
X157740600Y-134993400D01*
X147250000Y-131025000D02*
X148025000Y-131025000D01*
X147875000Y-131650000D02*
X147250000Y-131025000D01*
%TD*%
%TA.AperFunction,Conductor*%
%TO.N,+12V*%
G36*
X156421104Y-131269685D02*
G01*
X156466859Y-131322489D01*
X156477181Y-131388784D01*
X156475000Y-131406946D01*
X156475000Y-131450000D01*
X157376000Y-131450000D01*
X157443039Y-131469685D01*
X157488794Y-131522489D01*
X157500000Y-131574000D01*
X157500000Y-131700000D01*
X157626000Y-131700000D01*
X157693039Y-131719685D01*
X157738794Y-131772489D01*
X157750000Y-131824000D01*
X157750000Y-132500000D01*
X158018054Y-132500000D01*
X158106443Y-132489386D01*
X158247095Y-132433920D01*
X158367564Y-132342564D01*
X158458920Y-132222095D01*
X158510645Y-132090930D01*
X158553551Y-132035786D01*
X158619459Y-132012593D01*
X158687443Y-132028713D01*
X158735920Y-132079030D01*
X158750000Y-132136420D01*
X158750000Y-134403447D01*
X158730315Y-134470486D01*
X158677511Y-134516241D01*
X158613848Y-134526850D01*
X158565466Y-134522085D01*
X158134300Y-134953252D01*
X158134300Y-134941568D01*
X158107470Y-134841438D01*
X158055638Y-134751663D01*
X157982337Y-134678362D01*
X157892562Y-134626530D01*
X157792432Y-134599700D01*
X157780747Y-134599700D01*
X158211913Y-134168532D01*
X158211912Y-134168531D01*
X158189509Y-134153561D01*
X158189503Y-134153558D01*
X158017034Y-134082119D01*
X158017026Y-134082117D01*
X157833944Y-134045700D01*
X157647255Y-134045700D01*
X157464173Y-134082117D01*
X157464165Y-134082119D01*
X157291696Y-134153558D01*
X157269286Y-134168532D01*
X157269285Y-134168532D01*
X157700454Y-134599700D01*
X157688768Y-134599700D01*
X157588638Y-134626530D01*
X157498863Y-134678362D01*
X157425562Y-134751663D01*
X157373730Y-134841438D01*
X157346900Y-134941568D01*
X157346900Y-134953253D01*
X156915732Y-134522085D01*
X156915732Y-134522086D01*
X156900758Y-134544496D01*
X156829319Y-134716965D01*
X156829317Y-134716973D01*
X156792900Y-134900055D01*
X156792900Y-135086744D01*
X156829317Y-135269826D01*
X156829319Y-135269834D01*
X156900758Y-135442303D01*
X156900761Y-135442309D01*
X156915731Y-135464712D01*
X156915732Y-135464713D01*
X157346900Y-135033545D01*
X157346900Y-135045232D01*
X157373730Y-135145362D01*
X157425562Y-135235137D01*
X157498863Y-135308438D01*
X157588638Y-135360270D01*
X157688768Y-135387100D01*
X157700454Y-135387100D01*
X157269285Y-135818266D01*
X157291700Y-135833244D01*
X157464161Y-135904679D01*
X157464173Y-135904682D01*
X157647255Y-135941099D01*
X157647259Y-135941100D01*
X157833941Y-135941100D01*
X157833944Y-135941099D01*
X158017026Y-135904682D01*
X158017034Y-135904680D01*
X158189506Y-135833240D01*
X158211913Y-135818266D01*
X157780747Y-135387100D01*
X157792432Y-135387100D01*
X157892562Y-135360270D01*
X157982337Y-135308438D01*
X158055638Y-135235137D01*
X158107470Y-135145362D01*
X158134300Y-135045232D01*
X158134300Y-135033546D01*
X158565466Y-135464712D01*
X158613848Y-135459948D01*
X158682493Y-135472968D01*
X158733203Y-135521033D01*
X158750000Y-135583351D01*
X158750000Y-135933282D01*
X158730315Y-136000321D01*
X158677511Y-136046076D01*
X158650191Y-136054899D01*
X158480173Y-136088717D01*
X158480165Y-136088719D01*
X158307696Y-136160158D01*
X158285286Y-136175132D01*
X158285285Y-136175132D01*
X158716454Y-136606300D01*
X158704768Y-136606300D01*
X158604638Y-136633130D01*
X158514863Y-136684962D01*
X158441562Y-136758263D01*
X158389730Y-136848038D01*
X158362900Y-136948168D01*
X158362900Y-136959853D01*
X157931732Y-136528685D01*
X157931732Y-136528686D01*
X157916758Y-136551096D01*
X157845319Y-136723565D01*
X157845317Y-136723573D01*
X157824192Y-136829776D01*
X157791807Y-136891687D01*
X157731092Y-136926261D01*
X157661322Y-136922522D01*
X157604650Y-136881655D01*
X157580958Y-136829776D01*
X157572092Y-136785206D01*
X157565604Y-136752589D01*
X157501665Y-136598227D01*
X157501664Y-136598224D01*
X157408843Y-136459308D01*
X157408837Y-136459300D01*
X157290699Y-136341162D01*
X157290691Y-136341156D01*
X157151775Y-136248335D01*
X156997411Y-136184396D01*
X156997403Y-136184394D01*
X156833543Y-136151800D01*
X156833540Y-136151800D01*
X156666460Y-136151800D01*
X156666457Y-136151800D01*
X156502596Y-136184394D01*
X156502588Y-136184396D01*
X156348224Y-136248335D01*
X156209308Y-136341156D01*
X156209300Y-136341162D01*
X156091162Y-136459300D01*
X156091156Y-136459308D01*
X155998335Y-136598224D01*
X155934396Y-136752588D01*
X155934394Y-136752596D01*
X155901800Y-136916455D01*
X155901800Y-137083544D01*
X155934394Y-137247403D01*
X155934396Y-137247411D01*
X155998335Y-137401775D01*
X156091156Y-137540691D01*
X156091162Y-137540699D01*
X156209300Y-137658837D01*
X156209308Y-137658843D01*
X156348224Y-137751664D01*
X156393436Y-137770391D01*
X156502589Y-137815604D01*
X156624452Y-137839844D01*
X156666455Y-137848199D01*
X156666458Y-137848200D01*
X156666460Y-137848200D01*
X156833542Y-137848200D01*
X156833543Y-137848199D01*
X156997411Y-137815604D01*
X157151773Y-137751665D01*
X157290696Y-137658840D01*
X157408840Y-137540696D01*
X157501665Y-137401773D01*
X157565604Y-137247411D01*
X157580958Y-137170223D01*
X157613343Y-137108312D01*
X157674058Y-137073738D01*
X157743828Y-137077477D01*
X157800500Y-137118343D01*
X157824192Y-137170223D01*
X157845317Y-137276426D01*
X157845319Y-137276434D01*
X157916758Y-137448903D01*
X157916761Y-137448909D01*
X157931731Y-137471312D01*
X157931732Y-137471313D01*
X158362900Y-137040145D01*
X158362900Y-137051832D01*
X158389730Y-137151962D01*
X158441562Y-137241737D01*
X158514863Y-137315038D01*
X158604638Y-137366870D01*
X158704768Y-137393700D01*
X158716454Y-137393700D01*
X158285285Y-137824866D01*
X158307700Y-137839844D01*
X158480161Y-137911279D01*
X158480173Y-137911282D01*
X158663255Y-137947699D01*
X158663259Y-137947700D01*
X158849941Y-137947700D01*
X158849944Y-137947699D01*
X159033026Y-137911282D01*
X159033034Y-137911280D01*
X159205506Y-137839840D01*
X159227913Y-137824866D01*
X158796747Y-137393700D01*
X158808432Y-137393700D01*
X158908562Y-137366870D01*
X158998337Y-137315038D01*
X159071638Y-137241737D01*
X159123470Y-137151962D01*
X159150300Y-137051832D01*
X159150300Y-137040146D01*
X159581466Y-137471312D01*
X159613848Y-137468124D01*
X159682494Y-137481144D01*
X159733203Y-137529210D01*
X159750000Y-137591527D01*
X159750000Y-138897671D01*
X159730315Y-138964710D01*
X159677511Y-139010465D01*
X159613848Y-139021074D01*
X159581466Y-139017885D01*
X159150300Y-139449052D01*
X159150300Y-139437368D01*
X159123470Y-139337238D01*
X159071638Y-139247463D01*
X158998337Y-139174162D01*
X158908562Y-139122330D01*
X158808432Y-139095500D01*
X158796747Y-139095500D01*
X159227913Y-138664332D01*
X159227912Y-138664331D01*
X159205509Y-138649361D01*
X159205503Y-138649358D01*
X159033034Y-138577919D01*
X159033026Y-138577917D01*
X158849944Y-138541500D01*
X158663255Y-138541500D01*
X158480173Y-138577917D01*
X158480165Y-138577919D01*
X158307696Y-138649358D01*
X158285286Y-138664332D01*
X158285285Y-138664332D01*
X158716454Y-139095500D01*
X158704768Y-139095500D01*
X158604638Y-139122330D01*
X158514863Y-139174162D01*
X158441562Y-139247463D01*
X158389730Y-139337238D01*
X158362900Y-139437368D01*
X158362900Y-139449053D01*
X157931732Y-139017885D01*
X157931732Y-139017886D01*
X157916757Y-139040296D01*
X157867861Y-139158344D01*
X157824020Y-139212747D01*
X157757726Y-139234812D01*
X157690026Y-139217533D01*
X157642416Y-139166395D01*
X157638739Y-139158344D01*
X157589843Y-139040299D01*
X157574866Y-139017885D01*
X157143700Y-139449052D01*
X157143700Y-139437368D01*
X157116870Y-139337238D01*
X157065038Y-139247463D01*
X156991737Y-139174162D01*
X156901962Y-139122330D01*
X156801832Y-139095500D01*
X156790147Y-139095500D01*
X157221313Y-138664332D01*
X157221312Y-138664331D01*
X157198909Y-138649361D01*
X157198903Y-138649358D01*
X157026434Y-138577919D01*
X157026426Y-138577917D01*
X156843344Y-138541500D01*
X156656655Y-138541500D01*
X156473573Y-138577917D01*
X156473565Y-138577919D01*
X156301096Y-138649358D01*
X156278686Y-138664332D01*
X156278685Y-138664332D01*
X156709854Y-139095500D01*
X156698168Y-139095500D01*
X156598038Y-139122330D01*
X156508263Y-139174162D01*
X156434962Y-139247463D01*
X156383130Y-139337238D01*
X156356300Y-139437368D01*
X156356300Y-139449053D01*
X155925132Y-139017885D01*
X155925132Y-139017886D01*
X155910158Y-139040296D01*
X155838719Y-139212765D01*
X155838717Y-139212773D01*
X155802300Y-139395855D01*
X155802300Y-139582544D01*
X155838717Y-139765626D01*
X155838719Y-139765634D01*
X155910158Y-139938103D01*
X155910161Y-139938109D01*
X155925131Y-139960512D01*
X155925132Y-139960513D01*
X156356300Y-139529345D01*
X156356300Y-139541032D01*
X156383130Y-139641162D01*
X156434962Y-139730937D01*
X156508263Y-139804238D01*
X156598038Y-139856070D01*
X156698168Y-139882900D01*
X156709854Y-139882900D01*
X156278685Y-140314066D01*
X156301100Y-140329044D01*
X156473561Y-140400479D01*
X156473573Y-140400482D01*
X156656655Y-140436899D01*
X156656659Y-140436900D01*
X156843341Y-140436900D01*
X156843344Y-140436899D01*
X157026426Y-140400482D01*
X157026434Y-140400480D01*
X157198906Y-140329040D01*
X157221313Y-140314066D01*
X156790147Y-139882900D01*
X156801832Y-139882900D01*
X156901962Y-139856070D01*
X156991737Y-139804238D01*
X157065038Y-139730937D01*
X157116870Y-139641162D01*
X157143700Y-139541032D01*
X157143700Y-139529346D01*
X157574866Y-139960512D01*
X157589840Y-139938105D01*
X157589841Y-139938104D01*
X157638738Y-139820055D01*
X157682578Y-139765651D01*
X157748872Y-139743586D01*
X157816572Y-139760865D01*
X157864183Y-139812002D01*
X157867860Y-139820054D01*
X157916758Y-139938103D01*
X157916761Y-139938109D01*
X157931731Y-139960512D01*
X157931732Y-139960513D01*
X158362900Y-139529345D01*
X158362900Y-139541032D01*
X158389730Y-139641162D01*
X158441562Y-139730937D01*
X158514863Y-139804238D01*
X158604638Y-139856070D01*
X158704768Y-139882900D01*
X158716453Y-139882900D01*
X158285285Y-140314066D01*
X158307700Y-140329044D01*
X158480161Y-140400479D01*
X158480165Y-140400480D01*
X158650190Y-140434299D01*
X158712101Y-140466684D01*
X158746676Y-140527399D01*
X158750000Y-140555917D01*
X158750000Y-140905847D01*
X158730315Y-140972886D01*
X158677511Y-141018641D01*
X158613848Y-141029250D01*
X158565466Y-141024485D01*
X158134300Y-141455652D01*
X158134300Y-141443968D01*
X158107470Y-141343838D01*
X158055638Y-141254063D01*
X157982337Y-141180762D01*
X157892562Y-141128930D01*
X157792432Y-141102100D01*
X157780747Y-141102100D01*
X158211913Y-140670932D01*
X158211912Y-140670931D01*
X158189509Y-140655961D01*
X158189503Y-140655958D01*
X158017034Y-140584519D01*
X158017026Y-140584517D01*
X157833944Y-140548100D01*
X157647255Y-140548100D01*
X157464173Y-140584517D01*
X157464165Y-140584519D01*
X157291696Y-140655958D01*
X157269286Y-140670932D01*
X157269285Y-140670932D01*
X157700454Y-141102100D01*
X157688768Y-141102100D01*
X157588638Y-141128930D01*
X157498863Y-141180762D01*
X157425562Y-141254063D01*
X157373730Y-141343838D01*
X157346900Y-141443968D01*
X157346900Y-141455653D01*
X156915732Y-141024485D01*
X156915732Y-141024486D01*
X156900758Y-141046896D01*
X156829319Y-141219365D01*
X156829317Y-141219373D01*
X156792900Y-141402455D01*
X156792900Y-141589144D01*
X156829317Y-141772226D01*
X156829319Y-141772234D01*
X156900758Y-141944703D01*
X156900761Y-141944709D01*
X156915731Y-141967112D01*
X156915732Y-141967113D01*
X157346900Y-141535945D01*
X157346900Y-141547632D01*
X157373730Y-141647762D01*
X157425562Y-141737537D01*
X157498863Y-141810838D01*
X157588638Y-141862670D01*
X157688768Y-141889500D01*
X157700454Y-141889500D01*
X157269285Y-142320666D01*
X157291700Y-142335644D01*
X157464161Y-142407079D01*
X157464173Y-142407082D01*
X157647255Y-142443499D01*
X157647259Y-142443500D01*
X157833941Y-142443500D01*
X157833944Y-142443499D01*
X158017026Y-142407082D01*
X158017034Y-142407080D01*
X158189506Y-142335640D01*
X158211913Y-142320666D01*
X157780747Y-141889500D01*
X157792432Y-141889500D01*
X157892562Y-141862670D01*
X157982337Y-141810838D01*
X158055638Y-141737537D01*
X158107470Y-141647762D01*
X158134300Y-141547632D01*
X158134300Y-141535946D01*
X158565466Y-141967112D01*
X158613848Y-141962348D01*
X158682493Y-141975368D01*
X158733203Y-142023433D01*
X158750000Y-142085751D01*
X158750000Y-142626000D01*
X158730315Y-142693039D01*
X158677511Y-142738794D01*
X158626000Y-142750000D01*
X154124000Y-142750000D01*
X154056961Y-142730315D01*
X154011206Y-142677511D01*
X154000000Y-142626000D01*
X154000000Y-132491790D01*
X154019685Y-132424751D01*
X154072489Y-132378996D01*
X154141647Y-132369052D01*
X154198926Y-132392987D01*
X154252902Y-132433919D01*
X154393556Y-132489386D01*
X154481946Y-132500000D01*
X154750000Y-132500000D01*
X155250000Y-132500000D01*
X155518054Y-132500000D01*
X155606443Y-132489386D01*
X155747095Y-132433920D01*
X155867564Y-132342564D01*
X155958920Y-132222095D01*
X156014386Y-132081443D01*
X156025000Y-131993053D01*
X156475000Y-131993053D01*
X156485613Y-132081443D01*
X156541079Y-132222095D01*
X156632435Y-132342564D01*
X156752904Y-132433920D01*
X156893556Y-132489386D01*
X156981946Y-132500000D01*
X157250000Y-132500000D01*
X157250000Y-131950000D01*
X156475000Y-131950000D01*
X156475000Y-131993053D01*
X156025000Y-131993053D01*
X156025000Y-131950000D01*
X155250000Y-131950000D01*
X155250000Y-132500000D01*
X154750000Y-132500000D01*
X154750000Y-131824000D01*
X154769685Y-131756961D01*
X154822489Y-131711206D01*
X154874000Y-131700000D01*
X155000000Y-131700000D01*
X155000000Y-131574000D01*
X155019685Y-131506961D01*
X155072489Y-131461206D01*
X155124000Y-131450000D01*
X156025000Y-131450000D01*
X156025000Y-131406946D01*
X156022819Y-131388784D01*
X156025532Y-131372596D01*
X156023197Y-131356353D01*
X156031190Y-131338850D01*
X156034371Y-131319876D01*
X156045403Y-131307727D01*
X156052222Y-131292797D01*
X156068409Y-131282394D01*
X156081343Y-131268152D01*
X156097741Y-131263543D01*
X156111000Y-131255023D01*
X156145935Y-131250000D01*
X156354065Y-131250000D01*
X156421104Y-131269685D01*
G37*
%TD.AperFunction*%
%TA.AperFunction,Conductor*%
G36*
X159693039Y-136019685D02*
G01*
X159738794Y-136072489D01*
X159750000Y-136124000D01*
X159750000Y-136408471D01*
X159730315Y-136475510D01*
X159677511Y-136521265D01*
X159613848Y-136531874D01*
X159581466Y-136528685D01*
X159150300Y-136959852D01*
X159150300Y-136948168D01*
X159123470Y-136848038D01*
X159071638Y-136758263D01*
X158998337Y-136684962D01*
X158908562Y-136633130D01*
X158808432Y-136606300D01*
X158796747Y-136606300D01*
X159227912Y-136175132D01*
X159224074Y-136136154D01*
X159237093Y-136067508D01*
X159285158Y-136016797D01*
X159347477Y-136000000D01*
X159626000Y-136000000D01*
X159693039Y-136019685D01*
G37*
%TD.AperFunction*%
%TD*%
M02*
